M48
;Layer_Color=9474304
;FILE_FORMAT=4:3
METRIC,TZ
;TYPE=PLATED
T1F00S00C0.250
T2F00S00C0.400
T4F00S00C1.100
%
T01
X71100Y14425
X60080Y15185
Y17210
X55250Y17175
X48325Y17100
X46300Y17075
X43250Y17150
X35375Y18450
X34050Y16750
X35325Y14175
X35875Y12650
X32000Y12850
X31075Y11125
X31375Y9800
X46150Y4350
X46100Y2725
X25069Y7236
X25075Y12250
X23075Y13100
X22150Y11850
X19250Y12175
X17300Y11600
X13450Y11775
X13425Y12900
X13125Y15525
X16670Y18720
X23750Y18475
X28150Y12150
X20350Y10400
X11093Y10668
X8825Y10575
X7500Y13300
X3925Y5275
X2675Y5325
X8400Y24225
X8925Y26125
X9025Y28525
X8225Y29700
X8250Y30950
X7475Y33600
X11150Y32675
X12475Y34350
X12450Y35300
X16225Y34900
X17700Y36325
X17900Y38475
X15295Y40160
Y41260
X14195
Y40160
X15800Y44200
X17100Y43846
X20500
X19300Y45275
X19425Y47325
X19475Y49625
X20675Y49450
X22650Y48500
X22625Y45425
X27600Y45450
X27825Y48425
X26750Y48500
X26200Y47375
X25925Y49425
X26950Y50150
X25925Y51250
X24650Y50475
X24225Y56350
X24325Y57625
X25350Y58425
X21500Y57600
X20200Y57850
X27925Y55175
X24675Y41550
X24575Y37100
X24800Y30600
X23800Y29300
X22725Y28075
X21425Y24700
X20891Y21165
X22250Y21200
X21725Y19725
X24800Y19775
X16025Y23800
X13975Y25850
X12075
X12475Y22775
X13025Y31175
X16325
X18575Y29950
X17275Y28425
X7350Y28125
X7520Y38880
X3500Y39000
X3400Y37750
X3375Y42550
X3360Y43720
X1750Y46390
X5210Y46610
X9100Y49150
X12380Y48305
X13575Y48825
X1640Y33430
X31025Y28025
X35275Y31400
X40625
X43300Y25500
X49300Y23675
X49250Y28600
X52900Y25450
X53875Y19250
X60080Y29335
Y31385
X58300Y40925
X55700Y42425
X56850Y44500
X56975Y48375
X55450Y47125
X51300
X52750Y44400
X49300Y40550
X47050Y40500
X44575Y40450
X43150Y40475
X40750Y40450
X39375Y40400
X40250Y42950
X35275Y42875
X34800Y43975
X34825Y45625
X34800Y47225
X35925Y47650
X37275Y47675
X38575Y48075
X39200Y48896
X39350Y51950
X40325Y51175
X39500Y54025
X38550Y53121
X36150Y53050
Y54150
X35050
X33950
Y53050
X35050
Y51950
X33950
X32850
X31750
Y50850
X32850
X33950
X35050
X36150
Y51950
Y55250
X35050
X33950
X32850
X31750
Y54150
Y53050
X32850
Y54150
X28875Y54475
X28991Y53421
X29105Y51662
X29500Y48700
X29475Y45475
X29454Y42525
X29450Y41550
X32225
X32250Y42650
X32775Y48650
X29493Y56254
X35675Y57425
X38796Y57700
X38650Y56575
X38825Y55450
X40425Y56075
X40200Y57675
X51425Y57025
X54100Y57925
X51325Y52700
X49625Y50450
X47550Y49600
X56900Y52200
X62000Y49675
X62000Y45800
X71100Y36000
Y28825
X71150Y21875
X57775Y69000
X46450Y69004
X45000Y68150
X42250Y67250
X40825Y66475
X40025Y65600
X41775Y71300
X42650Y58925
X37450Y60400
X34430Y62595
X30450Y63200
X30454Y64450
X29704Y65525
X28875Y66475
X29750Y61775
X29825Y60200
X25400Y59650
Y60900
X26900Y65025
X28171
X24300Y68275
X25300Y69475
X18750Y69050
X13550Y71275
X18700Y59850
T02
X4760Y37800
Y38650
Y39500
Y40350
Y41200
Y42050
Y42900
Y43750
X6110
Y42900
Y42050
Y41200
Y40350
Y39500
Y38650
Y37800
T04
X39540Y15125
X42080
X44620
X47160
X49700
X52240
X54780
X57320Y15165
Y38025
X54780
X52240
X49700
X47160
X44620
X42080
X39540
M30
