G04*
G04 #@! TF.GenerationSoftware,Altium Limited,Altium Designer,22.10.1 (41)*
G04*
G04 Layer_Physical_Order=1*
G04 Layer_Color=255*
%FSLAX43Y43*%
%MOMM*%
G71*
G04*
G04 #@! TF.SameCoordinates,DCDCABE6-F013-49A3-9D9D-6440811BB2A6*
G04*
G04*
G04 #@! TF.FilePolarity,Positive*
G04*
G01*
G75*
%ADD10C,0.250*%
%ADD14C,0.150*%
%ADD16C,0.254*%
%ADD17R,5.500X2.950*%
G04:AMPARAMS|DCode=18|XSize=0.7mm|YSize=0.8mm|CornerRadius=0.088mm|HoleSize=0mm|Usage=FLASHONLY|Rotation=180.000|XOffset=0mm|YOffset=0mm|HoleType=Round|Shape=RoundedRectangle|*
%AMROUNDEDRECTD18*
21,1,0.700,0.625,0,0,180.0*
21,1,0.525,0.800,0,0,180.0*
1,1,0.175,-0.263,0.313*
1,1,0.175,0.263,0.313*
1,1,0.175,0.263,-0.313*
1,1,0.175,-0.263,-0.313*
%
%ADD18ROUNDEDRECTD18*%
G04:AMPARAMS|DCode=19|XSize=0.7mm|YSize=0.8mm|CornerRadius=0.088mm|HoleSize=0mm|Usage=FLASHONLY|Rotation=90.000|XOffset=0mm|YOffset=0mm|HoleType=Round|Shape=RoundedRectangle|*
%AMROUNDEDRECTD19*
21,1,0.700,0.625,0,0,90.0*
21,1,0.525,0.800,0,0,90.0*
1,1,0.175,0.313,0.263*
1,1,0.175,0.313,-0.263*
1,1,0.175,-0.313,-0.263*
1,1,0.175,-0.313,0.263*
%
%ADD19ROUNDEDRECTD19*%
%ADD20R,1.400X0.300*%
%ADD21O,0.350X0.500*%
%ADD22O,0.500X0.350*%
%ADD23R,5.400X5.400*%
%ADD24R,0.600X1.250*%
%ADD25O,0.600X1.450*%
%ADD26R,0.400X1.200*%
%ADD27R,4.000X1.200*%
%ADD28R,1.900X1.500*%
%ADD29R,0.750X1.450*%
G04:AMPARAMS|DCode=30|XSize=0.7mm|YSize=1.1mm|CornerRadius=0.098mm|HoleSize=0mm|Usage=FLASHONLY|Rotation=270.000|XOffset=0mm|YOffset=0mm|HoleType=Round|Shape=RoundedRectangle|*
%AMROUNDEDRECTD30*
21,1,0.700,0.904,0,0,270.0*
21,1,0.504,1.100,0,0,270.0*
1,1,0.196,-0.452,-0.252*
1,1,0.196,-0.452,0.252*
1,1,0.196,0.452,0.252*
1,1,0.196,0.452,-0.252*
%
%ADD30ROUNDEDRECTD30*%
G04:AMPARAMS|DCode=31|XSize=0.7mm|YSize=1.1mm|CornerRadius=0.147mm|HoleSize=0mm|Usage=FLASHONLY|Rotation=270.000|XOffset=0mm|YOffset=0mm|HoleType=Round|Shape=RoundedRectangle|*
%AMROUNDEDRECTD31*
21,1,0.700,0.806,0,0,270.0*
21,1,0.406,1.100,0,0,270.0*
1,1,0.294,-0.403,-0.203*
1,1,0.294,-0.403,0.203*
1,1,0.294,0.403,0.203*
1,1,0.294,0.403,-0.203*
%
%ADD31ROUNDEDRECTD31*%
G04:AMPARAMS|DCode=32|XSize=3.4mm|YSize=1mm|CornerRadius=0.25mm|HoleSize=0mm|Usage=FLASHONLY|Rotation=180.000|XOffset=0mm|YOffset=0mm|HoleType=Round|Shape=RoundedRectangle|*
%AMROUNDEDRECTD32*
21,1,3.400,0.500,0,0,180.0*
21,1,2.900,1.000,0,0,180.0*
1,1,0.500,-1.450,0.250*
1,1,0.500,1.450,0.250*
1,1,0.500,1.450,-0.250*
1,1,0.500,-1.450,-0.250*
%
%ADD32ROUNDEDRECTD32*%
G04:AMPARAMS|DCode=33|XSize=3.4mm|YSize=1mm|CornerRadius=0.15mm|HoleSize=0mm|Usage=FLASHONLY|Rotation=180.000|XOffset=0mm|YOffset=0mm|HoleType=Round|Shape=RoundedRectangle|*
%AMROUNDEDRECTD33*
21,1,3.400,0.700,0,0,180.0*
21,1,3.100,1.000,0,0,180.0*
1,1,0.300,-1.550,0.350*
1,1,0.300,1.550,0.350*
1,1,0.300,1.550,-0.350*
1,1,0.300,-1.550,-0.350*
%
%ADD33ROUNDEDRECTD33*%
G04:AMPARAMS|DCode=34|XSize=3.6mm|YSize=1.5mm|CornerRadius=0.195mm|HoleSize=0mm|Usage=FLASHONLY|Rotation=180.000|XOffset=0mm|YOffset=0mm|HoleType=Round|Shape=RoundedRectangle|*
%AMROUNDEDRECTD34*
21,1,3.600,1.110,0,0,180.0*
21,1,3.210,1.500,0,0,180.0*
1,1,0.390,-1.605,0.555*
1,1,0.390,1.605,0.555*
1,1,0.390,1.605,-0.555*
1,1,0.390,-1.605,-0.555*
%
%ADD34ROUNDEDRECTD34*%
%ADD35R,1.000X1.000*%
%ADD36R,1.250X0.500*%
%ADD37R,1.250X1.000*%
%ADD38R,0.600X0.460*%
%ADD39R,0.460X0.600*%
G04:AMPARAMS|DCode=40|XSize=1.1mm|YSize=0.65mm|CornerRadius=0.081mm|HoleSize=0mm|Usage=FLASHONLY|Rotation=180.000|XOffset=0mm|YOffset=0mm|HoleType=Round|Shape=RoundedRectangle|*
%AMROUNDEDRECTD40*
21,1,1.100,0.488,0,0,180.0*
21,1,0.938,0.650,0,0,180.0*
1,1,0.163,-0.469,0.244*
1,1,0.163,0.469,0.244*
1,1,0.163,0.469,-0.244*
1,1,0.163,-0.469,-0.244*
%
%ADD40ROUNDEDRECTD40*%
%ADD41R,0.400X0.850*%
%ADD42R,1.475X0.450*%
%ADD43R,0.850X0.400*%
%ADD44R,1.200X0.600*%
%ADD45R,1.600X2.200*%
%ADD46R,2.400X1.500*%
%ADD47P,0.735X4X90.0*%
%ADD48O,0.550X0.350*%
%ADD49O,0.350X0.550*%
%ADD50R,2.650X2.650*%
%ADD51R,1.600X2.180*%
%ADD52R,1.600X2.200*%
%ADD53R,1.100X0.650*%
%ADD54R,0.650X1.100*%
G04:AMPARAMS|DCode=55|XSize=1.1mm|YSize=0.8mm|CornerRadius=0.1mm|HoleSize=0mm|Usage=FLASHONLY|Rotation=180.000|XOffset=0mm|YOffset=0mm|HoleType=Round|Shape=RoundedRectangle|*
%AMROUNDEDRECTD55*
21,1,1.100,0.600,0,0,180.0*
21,1,0.900,0.800,0,0,180.0*
1,1,0.200,-0.450,0.300*
1,1,0.200,0.450,0.300*
1,1,0.200,0.450,-0.300*
1,1,0.200,-0.450,-0.300*
%
%ADD55ROUNDEDRECTD55*%
%ADD104R,5.000X2.000*%
%ADD105R,2.000X5.000*%
%ADD106R,0.100X0.100*%
%ADD107C,0.341*%
%ADD108C,0.360*%
%ADD109C,0.350*%
%ADD110C,0.500*%
%ADD111C,0.341*%
%ADD112C,0.220*%
%ADD113C,1.650*%
%ADD114R,1.650X1.650*%
%ADD115O,2.400X0.900*%
%ADD116O,1.700X0.900*%
%ADD117C,0.650*%
%ADD118C,0.700*%
%ADD119C,0.500*%
G36*
X12207Y20839D02*
X12270Y20745D01*
X12807Y20207D01*
X12896Y20147D01*
Y19721D01*
X12940D01*
Y18815D01*
X13434D01*
Y18310D01*
X13347Y18293D01*
X13248Y18227D01*
X13182Y18129D01*
X13159Y18013D01*
Y17388D01*
X13177Y17298D01*
X13151Y17249D01*
X13075Y17226D01*
X12999Y17249D01*
X12973Y17298D01*
X12991Y17388D01*
Y18013D01*
X12968Y18129D01*
X12902Y18227D01*
X12804Y18293D01*
X12688Y18316D01*
X12163D01*
X12047Y18293D01*
X11948Y18227D01*
X11882Y18129D01*
X11859Y18013D01*
Y17991D01*
X10795D01*
X10055Y18730D01*
X9961Y18793D01*
X9850Y18816D01*
X6860D01*
Y19409D01*
X10440D01*
Y18815D01*
X12060D01*
Y19765D01*
Y20925D01*
X12187Y20937D01*
X12207Y20839D01*
D02*
G37*
G36*
X74000Y73000D02*
X74000Y500D01*
X500Y500D01*
Y8378D01*
X521Y8496D01*
X627Y8496D01*
X2806D01*
Y7211D01*
X2397Y6803D01*
X2312Y6675D01*
X2282Y6525D01*
Y5325D01*
X2312Y5175D01*
X2397Y5047D01*
X2525Y4962D01*
X2675Y4932D01*
X2825Y4962D01*
X2953Y5047D01*
X3038Y5175D01*
X3068Y5325D01*
Y6362D01*
X3275Y6570D01*
X3532Y6312D01*
Y5275D01*
X3562Y5125D01*
X3647Y4997D01*
X3775Y4912D01*
X3925Y4882D01*
X4075Y4912D01*
X4203Y4997D01*
X4288Y5125D01*
X4318Y5275D01*
Y6475D01*
X4288Y6625D01*
X4203Y6753D01*
X3744Y7211D01*
Y8496D01*
X6029D01*
Y9623D01*
X3275D01*
Y9750D01*
X3148D01*
Y11004D01*
X627D01*
X521Y11004D01*
X500Y11122D01*
Y24311D01*
X615Y24340D01*
X627Y24340D01*
X6035D01*
Y25066D01*
X6162Y25075D01*
X6631Y24606D01*
Y23307D01*
X6623Y23302D01*
X6557Y23204D01*
X6534Y23088D01*
Y22463D01*
X6557Y22347D01*
X6623Y22248D01*
X6631Y22243D01*
Y21362D01*
X6667Y21183D01*
X6768Y21031D01*
X7353Y20446D01*
X7362Y20400D01*
X7447Y20272D01*
X7602Y20118D01*
X7550Y19991D01*
X5700D01*
X5589Y19968D01*
X5495Y19905D01*
X5245Y19655D01*
X5182Y19561D01*
X5166Y19485D01*
X4040D01*
Y17565D01*
X6860D01*
Y18234D01*
X9730D01*
X10470Y17495D01*
X10564Y17432D01*
X10675Y17409D01*
X11829D01*
X11872Y17288D01*
X11829Y17209D01*
X11797Y17171D01*
X9265D01*
Y17410D01*
X8385D01*
Y16390D01*
X8534D01*
Y15870D01*
X7780Y15116D01*
X6860D01*
Y15785D01*
X4040D01*
Y13865D01*
X6860D01*
Y14534D01*
X7900D01*
X8011Y14557D01*
X8105Y14620D01*
X8170Y14684D01*
X8307Y14642D01*
X8311Y14627D01*
X7544Y13860D01*
X7389D01*
X7183Y13775D01*
X7025Y13617D01*
X6940Y13411D01*
Y13189D01*
X7025Y12983D01*
X7183Y12825D01*
X7389Y12740D01*
X7611D01*
X7817Y12825D01*
X7975Y12983D01*
X8060Y13189D01*
Y13411D01*
X8018Y13512D01*
X8417Y13911D01*
X8535Y13863D01*
Y13691D01*
X8513D01*
X8396Y13668D01*
X8298Y13602D01*
X8232Y13503D01*
X8209Y13387D01*
Y12862D01*
X8232Y12746D01*
X8298Y12648D01*
X8396Y12582D01*
X8513Y12559D01*
Y12436D01*
X8379Y12409D01*
X8266Y12334D01*
X8191Y12221D01*
X8164Y12087D01*
Y11952D01*
X8825D01*
X9486D01*
Y12087D01*
X9459Y12221D01*
X9384Y12334D01*
X9271Y12409D01*
X9138Y12436D01*
Y12559D01*
X9254Y12582D01*
X9352Y12648D01*
X9418Y12746D01*
X9441Y12862D01*
Y13387D01*
X9427Y13457D01*
X9505Y13584D01*
X10315D01*
Y13240D01*
X11135D01*
Y14509D01*
X11615D01*
Y13288D01*
X11615Y13239D01*
X11563Y13135D01*
X11520Y13105D01*
X11170Y12755D01*
X11107Y12661D01*
X11084Y12550D01*
Y12410D01*
X10315D01*
Y11140D01*
X10434D01*
Y10300D01*
Y9050D01*
X10457Y8939D01*
X10520Y8845D01*
X13645Y5720D01*
X13739Y5657D01*
X13850Y5634D01*
X13865D01*
Y4615D01*
X15885D01*
Y7235D01*
X13865D01*
Y6487D01*
X13748Y6438D01*
X11016Y9170D01*
Y10108D01*
X11204D01*
X11410Y10193D01*
X11567Y10350D01*
X11653Y10556D01*
Y10779D01*
X11574Y10969D01*
X11600Y11038D01*
X11636Y11096D01*
X11898D01*
Y11775D01*
X12152D01*
Y11096D01*
X12479D01*
Y11484D01*
X13450D01*
X13561Y11507D01*
X13655Y11570D01*
X13718Y11664D01*
X13741Y11775D01*
X13718Y11886D01*
X13655Y11980D01*
X13561Y12043D01*
X13450Y12066D01*
X12479D01*
Y12454D01*
X11977D01*
X11910Y12581D01*
X11929Y12609D01*
X12939D01*
X12950Y12583D01*
X13108Y12425D01*
X13314Y12340D01*
X13536D01*
X13742Y12425D01*
X13900Y12583D01*
X13985Y12789D01*
Y13011D01*
X13900Y13217D01*
X13742Y13375D01*
X13536Y13460D01*
X13543Y13584D01*
X14780D01*
X15120Y13245D01*
X15214Y13182D01*
X15325Y13159D01*
X17540D01*
Y12815D01*
X17938D01*
X17987Y12698D01*
X17438Y12149D01*
X17411Y12160D01*
X17189D01*
X16983Y12075D01*
X16825Y11917D01*
X16740Y11711D01*
Y11489D01*
X16825Y11283D01*
X16983Y11125D01*
X17189Y11040D01*
X17411D01*
X17617Y11125D01*
X17775Y11283D01*
X17860Y11489D01*
Y11711D01*
X17849Y11738D01*
X18793Y12682D01*
X18832Y12741D01*
X18959Y12707D01*
Y12175D01*
X18982Y12064D01*
X19045Y11970D01*
X19139Y11907D01*
X19250Y11884D01*
X19361Y11907D01*
X19455Y11970D01*
X19455D01*
X19518Y12064D01*
X19541Y12175D01*
Y12771D01*
X19704D01*
Y13323D01*
X19250D01*
Y13450D01*
X19123D01*
Y14129D01*
X18796D01*
Y14085D01*
X17540D01*
Y13741D01*
X15445D01*
X15105Y14080D01*
X15011Y14143D01*
X14900Y14166D01*
X12435D01*
Y14509D01*
X15825D01*
X15936Y14532D01*
X16030Y14595D01*
X16345Y14909D01*
X16762D01*
X16878Y14932D01*
X16977Y14998D01*
X17043Y15096D01*
X17066Y15212D01*
Y15234D01*
X17540D01*
Y14915D01*
X18360D01*
Y16185D01*
X17540D01*
Y15816D01*
X17066D01*
Y15837D01*
X17043Y15953D01*
X16977Y16052D01*
X16878Y16118D01*
X16762Y16141D01*
X16237D01*
X16121Y16118D01*
X16023Y16052D01*
X15957Y15953D01*
X15934Y15837D01*
X15811D01*
X15784Y15971D01*
X15709Y16084D01*
X15596Y16159D01*
X15462Y16186D01*
X15327D01*
Y15525D01*
X15073D01*
Y16186D01*
X14937D01*
X14804Y16159D01*
X14691Y16084D01*
X14616Y15971D01*
X14589Y15837D01*
Y15816D01*
X12511D01*
Y15838D01*
X12484Y15971D01*
X12409Y16084D01*
X12296Y16159D01*
X12163Y16186D01*
X12027D01*
Y15525D01*
X11773D01*
Y16186D01*
X11638D01*
X11504Y16159D01*
X11391Y16084D01*
X11316Y15971D01*
X11289Y15838D01*
X11166D01*
X11143Y15954D01*
X11077Y16052D01*
X10979Y16118D01*
X10891Y16135D01*
Y16589D01*
X14955D01*
X15066Y16612D01*
X15160Y16675D01*
X15295Y16809D01*
X15812D01*
X15929Y16832D01*
X16027Y16898D01*
X16093Y16996D01*
X16110Y17084D01*
X17200D01*
X17311Y17107D01*
X17405Y17170D01*
X18331Y18095D01*
X18394Y18189D01*
X18416Y18300D01*
Y19115D01*
X18504Y19132D01*
X18602Y19198D01*
X18668Y19296D01*
X18691Y19413D01*
Y20038D01*
X18668Y20154D01*
X18602Y20252D01*
X18504Y20318D01*
X18416Y20335D01*
Y20590D01*
X18504Y20607D01*
X18602Y20673D01*
X18668Y20771D01*
X18691Y20888D01*
Y21513D01*
X18668Y21629D01*
X18602Y21727D01*
X18504Y21793D01*
X18388Y21816D01*
X18228D01*
Y22062D01*
X18206Y22174D01*
X18143Y22268D01*
X17941Y22470D01*
Y23215D01*
X18410D01*
Y24285D01*
X16890D01*
Y24091D01*
X16511D01*
X16500Y24117D01*
X16342Y24275D01*
X16136Y24360D01*
X15914D01*
X15708Y24275D01*
X15550Y24117D01*
X15465Y23911D01*
Y23689D01*
X15550Y23483D01*
X15708Y23325D01*
X15914Y23240D01*
X16136D01*
X16342Y23325D01*
X16500Y23483D01*
X16511Y23509D01*
X16890D01*
Y23215D01*
X17359D01*
Y22350D01*
X17382Y22239D01*
X17445Y22145D01*
X17647Y21942D01*
Y21725D01*
X17582Y21629D01*
X17559Y21513D01*
Y20888D01*
X17582Y20771D01*
X17648Y20673D01*
X17746Y20607D01*
X17834Y20590D01*
Y20335D01*
X17747Y20318D01*
X17648Y20252D01*
X17582Y20154D01*
X17559Y20038D01*
Y19413D01*
X17582Y19296D01*
X17648Y19198D01*
X17747Y19132D01*
X17834Y19115D01*
Y18420D01*
X17080Y17666D01*
X16110D01*
X16093Y17754D01*
X16027Y17852D01*
X15929Y17918D01*
X15812Y17941D01*
X15188D01*
X15071Y17918D01*
X14973Y17852D01*
X14907Y17754D01*
X14884Y17638D01*
Y17220D01*
X14835Y17171D01*
X14353D01*
X14321Y17209D01*
X14273Y17298D01*
X14291Y17388D01*
Y18013D01*
X14268Y18129D01*
X14202Y18227D01*
X14104Y18293D01*
X14016Y18310D01*
Y18815D01*
X14560D01*
Y19721D01*
X14604D01*
Y20148D01*
X13750D01*
Y20402D01*
X14604D01*
Y20829D01*
X14560D01*
Y20984D01*
X14730D01*
X14981Y20733D01*
X14973Y20652D01*
X14907Y20553D01*
X14884Y20437D01*
Y19812D01*
X14907Y19696D01*
X14973Y19598D01*
X15071Y19532D01*
X15159Y19515D01*
Y19235D01*
X15071Y19218D01*
X14973Y19152D01*
X14907Y19054D01*
X14884Y18938D01*
Y18413D01*
X14907Y18296D01*
X14973Y18198D01*
X15071Y18132D01*
X15188Y18109D01*
X15812D01*
X15929Y18132D01*
X16027Y18198D01*
X16093Y18296D01*
X16116Y18413D01*
Y18938D01*
X16093Y19054D01*
X16027Y19152D01*
X15929Y19218D01*
X15812Y19241D01*
X15741D01*
Y19515D01*
X15828Y19532D01*
X15927Y19598D01*
X15993Y19696D01*
X16016Y19812D01*
X16139D01*
X16166Y19679D01*
X16241Y19566D01*
X16354Y19491D01*
X16360Y19490D01*
X16457Y19406D01*
X16446Y19354D01*
X16434Y19295D01*
Y18880D01*
X16401Y18831D01*
X16379Y18720D01*
X16401Y18609D01*
X16464Y18514D01*
X16559Y18451D01*
X16670Y18429D01*
X16781Y18451D01*
X16875Y18514D01*
X16930Y18570D01*
X16993Y18664D01*
X17016Y18775D01*
Y19180D01*
X17068Y19259D01*
X17091Y19370D01*
Y19480D01*
X17146Y19491D01*
X17259Y19566D01*
X17334Y19679D01*
X17361Y19812D01*
Y19998D01*
X16750D01*
Y20125D01*
X16623D01*
Y20786D01*
X16487D01*
X16354Y20759D01*
X16241Y20684D01*
X16166Y20571D01*
X16139Y20437D01*
X16016D01*
X15993Y20553D01*
X15927Y20652D01*
X15828Y20718D01*
X15728Y20738D01*
X15718Y20786D01*
X15655Y20881D01*
X15055Y21480D01*
X14961Y21543D01*
X14850Y21566D01*
X14560D01*
Y21735D01*
X12940D01*
Y21149D01*
X12813Y21086D01*
X12766Y21122D01*
Y22775D01*
X12743Y22886D01*
X12680Y22980D01*
X12586Y23043D01*
X12475Y23066D01*
X12364Y23043D01*
X12270Y22980D01*
X12207Y22886D01*
X12184Y22775D01*
Y21741D01*
X12060Y21735D01*
Y21735D01*
X10440D01*
Y21618D01*
X8025D01*
X7875Y21588D01*
X7747Y21503D01*
X7685Y21440D01*
X7569Y21557D01*
Y22243D01*
X7577Y22248D01*
X7643Y22347D01*
X7666Y22463D01*
X7789D01*
X7816Y22329D01*
X7891Y22216D01*
X8004Y22141D01*
X8138Y22114D01*
X8273D01*
Y22775D01*
X8400D01*
Y22902D01*
X9011D01*
Y23088D01*
X8984Y23221D01*
X8909Y23334D01*
X8796Y23409D01*
X8691Y23430D01*
Y24225D01*
X8668Y24336D01*
X8605Y24430D01*
X8511Y24493D01*
X8400Y24516D01*
X8289Y24493D01*
X8195Y24430D01*
X8132Y24336D01*
X8109Y24225D01*
Y23430D01*
X8004Y23409D01*
X7891Y23334D01*
X7816Y23221D01*
X7789Y23088D01*
X7666D01*
X7643Y23204D01*
X7577Y23302D01*
X7569Y23307D01*
Y24800D01*
X7533Y24979D01*
X7432Y25132D01*
X6682Y25882D01*
X6529Y25983D01*
X6350Y26019D01*
X6035D01*
Y26760D01*
X627D01*
X615Y26760D01*
X500Y26789D01*
Y73000D01*
X74000Y73000D01*
D02*
G37*
%LPC*%
G36*
X41886Y71860D02*
X41664D01*
X41458Y71775D01*
X41300Y71617D01*
X41284Y71578D01*
X14031D01*
X14025Y71592D01*
X13867Y71750D01*
X13661Y71835D01*
X13439D01*
X13233Y71750D01*
X13075Y71592D01*
X12990Y71386D01*
Y71164D01*
X13075Y70958D01*
X13233Y70800D01*
X13439Y70715D01*
X13661D01*
X13867Y70800D01*
X14025Y70958D01*
X14041Y70997D01*
X41294D01*
X41300Y70983D01*
X41458Y70825D01*
X41664Y70740D01*
X41886D01*
X42092Y70825D01*
X42250Y70983D01*
X42335Y71189D01*
Y71411D01*
X42250Y71617D01*
X42092Y71775D01*
X41886Y71860D01*
D02*
G37*
G36*
X22629Y70389D02*
X21702D01*
Y69172D01*
X22629D01*
Y70389D01*
D02*
G37*
G36*
X25411Y70035D02*
X25189D01*
X24983Y69950D01*
X24825Y69792D01*
X24740Y69586D01*
Y69364D01*
X24825Y69158D01*
X24983Y69000D01*
X25189Y68915D01*
X25411D01*
X25617Y69000D01*
X25775Y69158D01*
X25806Y69234D01*
X45730D01*
X45890Y69074D01*
Y68893D01*
X45975Y68687D01*
X46133Y68529D01*
X46339Y68444D01*
X46561D01*
X46767Y68529D01*
X46925Y68687D01*
X47010Y68893D01*
Y69115D01*
X46925Y69321D01*
X46767Y69479D01*
X46561Y69564D01*
X46339D01*
X46256Y69530D01*
X46055Y69730D01*
X45961Y69793D01*
X45850Y69816D01*
X25751D01*
X25617Y69950D01*
X25411Y70035D01*
D02*
G37*
G36*
X22629Y68918D02*
X21702D01*
Y67701D01*
X22629D01*
Y68918D01*
D02*
G37*
G36*
X21448Y70389D02*
X20521D01*
Y69341D01*
X18750D01*
X18639Y69318D01*
X18545Y69255D01*
X18482Y69161D01*
X18459Y69050D01*
X18482Y68939D01*
X18545Y68845D01*
X18639Y68782D01*
X18750Y68759D01*
X20521D01*
Y67701D01*
X21448D01*
Y69045D01*
Y70389D01*
D02*
G37*
G36*
X51760Y71610D02*
X47340D01*
Y69990D01*
X49234D01*
Y67895D01*
X47675Y66336D01*
X42868D01*
X42851Y66424D01*
X42785Y66523D01*
X42686Y66588D01*
X42570Y66611D01*
X42541D01*
Y66764D01*
X42567Y66775D01*
X42725Y66933D01*
X42810Y67139D01*
Y67361D01*
X42725Y67567D01*
X42567Y67725D01*
X42429Y67782D01*
X42454Y67909D01*
X44494D01*
X44525Y67833D01*
X44683Y67675D01*
X44889Y67590D01*
X45111D01*
X45317Y67675D01*
X45475Y67833D01*
X45560Y68039D01*
Y68261D01*
X45475Y68467D01*
X45317Y68625D01*
X45111Y68710D01*
X44889D01*
X44683Y68625D01*
X44548Y68490D01*
X24817D01*
X24775Y68592D01*
X24617Y68750D01*
X24411Y68835D01*
X24189D01*
X23983Y68750D01*
X23825Y68592D01*
X23740Y68386D01*
Y68164D01*
X23825Y67958D01*
X23983Y67800D01*
X24189Y67715D01*
X24411D01*
X24617Y67800D01*
X24726Y67909D01*
X42046D01*
X42071Y67782D01*
X41933Y67725D01*
X41775Y67567D01*
X41690Y67361D01*
Y67139D01*
X41775Y66933D01*
X41933Y66775D01*
X41959Y66764D01*
Y66611D01*
X41945D01*
X41829Y66588D01*
X41731Y66523D01*
X41665Y66424D01*
X41642Y66308D01*
Y65783D01*
X41665Y65667D01*
X41731Y65569D01*
X41829Y65503D01*
X41945Y65480D01*
X42570D01*
X42686Y65503D01*
X42785Y65569D01*
X42851Y65667D01*
X42868Y65755D01*
X47796D01*
X47907Y65777D01*
X48001Y65840D01*
X49730Y67570D01*
X49793Y67664D01*
X49816Y67775D01*
Y69990D01*
X51760D01*
Y71610D01*
D02*
G37*
G36*
X57775Y69291D02*
X57664Y69268D01*
X57570Y69205D01*
X57507Y69111D01*
X57484Y69000D01*
Y68464D01*
X56721D01*
Y67247D01*
X57775D01*
X58829D01*
Y68464D01*
X58066D01*
Y69000D01*
X58043Y69111D01*
X57980Y69205D01*
X57886Y69268D01*
X57775Y69291D01*
D02*
G37*
G36*
X40936Y67035D02*
X40714D01*
X40508Y66950D01*
X40350Y66792D01*
X40339Y66766D01*
X29361D01*
X29350Y66792D01*
X29192Y66950D01*
X28986Y67035D01*
X28764D01*
X28558Y66950D01*
X28400Y66792D01*
X28315Y66586D01*
Y66364D01*
X28400Y66158D01*
X28558Y66000D01*
X28764Y65915D01*
X28986D01*
X29192Y66000D01*
X29350Y66158D01*
X29361Y66184D01*
X29501D01*
X29526Y66057D01*
X29387Y66000D01*
X29229Y65842D01*
X29144Y65636D01*
Y65414D01*
X29229Y65208D01*
X29387Y65050D01*
X29593Y64965D01*
X29815D01*
X30021Y65050D01*
X30179Y65208D01*
X30205Y65272D01*
X31334D01*
X31394Y65160D01*
X31348Y65091D01*
X31305Y64875D01*
Y64741D01*
X30454D01*
X30343Y64718D01*
X30249Y64655D01*
X30186Y64561D01*
X30163Y64450D01*
X30186Y64339D01*
X30249Y64245D01*
X30343Y64182D01*
X30454Y64159D01*
X31305D01*
Y64025D01*
X31348Y63809D01*
X31471Y63626D01*
X31654Y63503D01*
X31743Y63485D01*
Y64450D01*
X31870D01*
Y64577D01*
X32435D01*
Y64875D01*
X32392Y65091D01*
X32346Y65160D01*
X32406Y65272D01*
X32639D01*
X32707Y65145D01*
X32660Y65074D01*
X32620Y64875D01*
Y64025D01*
X32660Y63826D01*
X32772Y63657D01*
X32849Y63606D01*
Y61038D01*
X32362Y60550D01*
X32299Y60456D01*
X32276Y60344D01*
Y59920D01*
X32149Y59852D01*
X32069Y59905D01*
X31870Y59945D01*
X31671Y59905D01*
X31628Y59876D01*
X31516Y59936D01*
Y62425D01*
X31493Y62536D01*
X31430Y62630D01*
X30999Y63062D01*
X31010Y63089D01*
Y63311D01*
X30925Y63517D01*
X30767Y63675D01*
X30561Y63760D01*
X30339D01*
X30133Y63675D01*
X29975Y63517D01*
X29890Y63311D01*
Y63089D01*
X29975Y62883D01*
X30133Y62725D01*
X30339Y62640D01*
X30561D01*
X30588Y62651D01*
X30934Y62305D01*
Y61167D01*
X30817Y61119D01*
X30299Y61637D01*
X30310Y61664D01*
Y61886D01*
X30225Y62092D01*
X30067Y62250D01*
X29861Y62335D01*
X29639D01*
X29433Y62250D01*
X29275Y62092D01*
X29190Y61886D01*
Y61664D01*
X29201Y61637D01*
X28846Y61282D01*
X28799Y61250D01*
X28585D01*
Y61260D01*
X28376D01*
X28327Y61377D01*
X28430Y61481D01*
X28493Y61575D01*
X28501Y61612D01*
X28604Y61632D01*
X28702Y61698D01*
X28768Y61796D01*
X28791Y61912D01*
Y62537D01*
X28768Y62653D01*
X28702Y62752D01*
X28604Y62818D01*
X28487Y62841D01*
X27962D01*
X27846Y62818D01*
X27748Y62752D01*
X27682Y62653D01*
X27659Y62537D01*
Y61912D01*
X27682Y61796D01*
X27748Y61698D01*
X27755Y61627D01*
X27445Y61317D01*
X27407Y61260D01*
X27215D01*
Y61615D01*
X27303Y61632D01*
X27402Y61698D01*
X27468Y61796D01*
X27491Y61912D01*
Y62537D01*
X27468Y62653D01*
X27402Y62752D01*
X27303Y62818D01*
X27228Y62833D01*
Y63137D01*
X27329Y63157D01*
X27427Y63223D01*
X27493Y63321D01*
X27516Y63438D01*
X27639D01*
X27666Y63304D01*
X27741Y63191D01*
X27854Y63116D01*
X27988Y63089D01*
X28123D01*
Y63750D01*
X28250D01*
Y63877D01*
X28861D01*
Y64063D01*
X28834Y64196D01*
X28759Y64309D01*
X28646Y64384D01*
X28513Y64411D01*
X28462D01*
Y65025D01*
X28439Y65136D01*
X28376Y65230D01*
X28282Y65293D01*
X28171Y65316D01*
X28060Y65293D01*
X27966Y65230D01*
X27903Y65136D01*
X27880Y65025D01*
Y64389D01*
X27854Y64384D01*
X27741Y64309D01*
X27666Y64196D01*
X27639Y64063D01*
X27516D01*
X27493Y64179D01*
X27427Y64277D01*
X27329Y64343D01*
X27213Y64366D01*
X27191D01*
Y64539D01*
X27217Y64550D01*
X27375Y64708D01*
X27460Y64914D01*
Y65136D01*
X27375Y65342D01*
X27217Y65500D01*
X27011Y65585D01*
X26789D01*
X26583Y65500D01*
X26425Y65342D01*
X26340Y65136D01*
Y64914D01*
X26425Y64708D01*
X26583Y64550D01*
X26609Y64539D01*
Y64350D01*
X26572Y64343D01*
X26473Y64277D01*
X26407Y64179D01*
X26384Y64063D01*
Y63438D01*
X26407Y63321D01*
X26473Y63223D01*
X26572Y63157D01*
X26647Y63142D01*
Y62838D01*
X26546Y62818D01*
X26448Y62752D01*
X26382Y62653D01*
X26359Y62537D01*
Y61912D01*
X26382Y61796D01*
X26448Y61698D01*
X26546Y61632D01*
X26634Y61615D01*
Y61260D01*
X26465D01*
Y59766D01*
X25844D01*
X25754Y59855D01*
X25660Y59918D01*
X25549Y59941D01*
X25400D01*
X25289Y59918D01*
X25195Y59855D01*
X25132Y59761D01*
X25109Y59650D01*
X25132Y59539D01*
X25195Y59445D01*
X25289Y59382D01*
X25400Y59359D01*
X25428D01*
X25518Y59270D01*
X25613Y59207D01*
X25724Y59184D01*
X26465D01*
Y58716D01*
X25836D01*
X25825Y58742D01*
X25667Y58900D01*
X25461Y58985D01*
X25239D01*
X25033Y58900D01*
X24875Y58742D01*
X24790Y58536D01*
Y58314D01*
X24875Y58108D01*
X24876Y58107D01*
X24878Y58081D01*
X24831Y57972D01*
X24773Y57969D01*
X24642Y58100D01*
X24436Y58185D01*
X24214D01*
X24008Y58100D01*
X23850Y57942D01*
X23765Y57736D01*
Y57514D01*
X23850Y57308D01*
X24008Y57150D01*
X24214Y57065D01*
X24436D01*
X24642Y57150D01*
X24800Y57308D01*
X24811Y57334D01*
X28087D01*
X28198Y57357D01*
X28293Y57420D01*
X28332Y57459D01*
X28459Y57407D01*
Y55900D01*
X28482Y55789D01*
X28545Y55695D01*
X28656Y55583D01*
X28608Y55466D01*
X28411D01*
X28400Y55492D01*
X28242Y55650D01*
X28091Y55712D01*
X28088Y55727D01*
X28025Y55822D01*
X27627Y56220D01*
Y56738D01*
X27604Y56854D01*
X27538Y56952D01*
X27440Y57018D01*
X27323Y57041D01*
X26798D01*
X26682Y57018D01*
X26584Y56952D01*
X26518Y56854D01*
X26495Y56738D01*
Y56113D01*
X26518Y55996D01*
X26584Y55898D01*
X26682Y55832D01*
X26770Y55815D01*
Y55085D01*
X25015D01*
Y54365D01*
Y53629D01*
X24971D01*
Y53541D01*
X24220D01*
X23330Y54430D01*
X23236Y54493D01*
X23125Y54516D01*
X22479D01*
Y54629D01*
X22435D01*
Y55085D01*
X21791D01*
Y55740D01*
X21878Y55757D01*
X21977Y55823D01*
X22043Y55921D01*
X22066Y56037D01*
Y56662D01*
X22043Y56778D01*
X21977Y56877D01*
X21878Y56943D01*
X21791Y56960D01*
Y57114D01*
X21817Y57125D01*
X21975Y57283D01*
X22060Y57489D01*
Y57711D01*
X21975Y57917D01*
X21817Y58075D01*
X21611Y58160D01*
X21389D01*
X21183Y58075D01*
X21025Y57917D01*
X20940Y57711D01*
Y57489D01*
X21025Y57283D01*
X21183Y57125D01*
X21209Y57114D01*
Y56960D01*
X21121Y56943D01*
X21023Y56877D01*
X20957Y56778D01*
X20934Y56662D01*
X20811D01*
X20784Y56796D01*
X20709Y56909D01*
X20596Y56984D01*
X20491Y57005D01*
Y57850D01*
X20468Y57961D01*
X20405Y58055D01*
X20311Y58118D01*
X20200Y58141D01*
X20089Y58118D01*
X19995Y58055D01*
X19932Y57961D01*
X19909Y57850D01*
Y57005D01*
X19804Y56984D01*
X19691Y56909D01*
X19616Y56796D01*
X19589Y56662D01*
Y56477D01*
X20200D01*
Y56350D01*
X20327D01*
Y55689D01*
X20462D01*
X20596Y55716D01*
X20709Y55791D01*
X20784Y55904D01*
X20811Y56037D01*
X20934D01*
X20957Y55921D01*
X21023Y55823D01*
X21121Y55757D01*
X21209Y55740D01*
Y55085D01*
X20615D01*
Y54629D01*
X20571D01*
Y54400D01*
X20454Y54351D01*
X19623Y55183D01*
X19608Y55254D01*
X19507Y55407D01*
X19069Y55844D01*
Y58150D01*
X19033Y58329D01*
X18932Y58482D01*
X14757Y62657D01*
X14604Y62758D01*
X14425Y62794D01*
X6410D01*
Y63310D01*
X990D01*
Y60890D01*
X3231D01*
Y60168D01*
X3267Y59988D01*
X3368Y59836D01*
X3661Y59543D01*
X3813Y59442D01*
X3993Y59406D01*
X8140D01*
Y58190D01*
X14060D01*
Y59297D01*
X14187Y59350D01*
X15132Y58405D01*
Y53593D01*
X15168Y53413D01*
X15269Y53261D01*
X15562Y52968D01*
X15714Y52867D01*
X15894Y52831D01*
X16359D01*
X16398Y52773D01*
X16496Y52707D01*
X16612Y52684D01*
X17137D01*
X17253Y52707D01*
X17352Y52773D01*
X17418Y52871D01*
X17441Y52987D01*
Y53612D01*
X17418Y53728D01*
X17352Y53827D01*
X17253Y53893D01*
X17137Y53916D01*
X16612D01*
X16496Y53893D01*
X16398Y53827D01*
X16359Y53769D01*
X16088D01*
X16070Y53787D01*
Y58599D01*
X16034Y58779D01*
X15933Y58931D01*
X14657Y60207D01*
X14504Y60308D01*
X14325Y60344D01*
X14060D01*
Y61560D01*
X8140D01*
Y60344D01*
X4187D01*
X4169Y60362D01*
Y60890D01*
X6410D01*
Y61856D01*
X14231D01*
X18131Y57956D01*
Y55650D01*
X18167Y55471D01*
X18268Y55318D01*
X18843Y54743D01*
X18996Y54642D01*
X19067Y54627D01*
X19877Y53818D01*
X19824Y53691D01*
X19312D01*
X19196Y53668D01*
X19098Y53602D01*
X19097Y53601D01*
X18939Y53581D01*
X18933Y53584D01*
X18844Y53643D01*
X18732Y53666D01*
X18730D01*
X18718Y53728D01*
X18652Y53827D01*
X18553Y53893D01*
X18437Y53916D01*
X17912D01*
X17796Y53893D01*
X17698Y53827D01*
X17632Y53728D01*
X17609Y53612D01*
Y52987D01*
X17632Y52871D01*
X17698Y52773D01*
X17796Y52707D01*
X17912Y52684D01*
X18437D01*
X18553Y52707D01*
X18652Y52773D01*
X18689Y52829D01*
X18730Y52871D01*
X18847Y52872D01*
X18871Y52857D01*
X18982Y52834D01*
X19015D01*
X19032Y52747D01*
X19098Y52648D01*
X19196Y52582D01*
X19312Y52559D01*
X19937D01*
X20053Y52582D01*
X20152Y52648D01*
X20218Y52747D01*
X20241Y52863D01*
Y52888D01*
X20615D01*
Y52365D01*
X20938D01*
X20987Y52248D01*
X20855Y52116D01*
X20235D01*
X20218Y52204D01*
X20152Y52302D01*
X20053Y52368D01*
X19937Y52391D01*
X19312D01*
X19196Y52368D01*
X19098Y52302D01*
X19032Y52204D01*
X19015Y52116D01*
X18748D01*
X18725Y52230D01*
X18659Y52328D01*
X18561Y52394D01*
X18445Y52417D01*
X17920D01*
X17804Y52394D01*
X17705Y52328D01*
X17640Y52230D01*
X17616Y52114D01*
Y51489D01*
X17640Y51373D01*
X17705Y51274D01*
X17804Y51209D01*
X17920Y51186D01*
X18445D01*
X18561Y51209D01*
X18659Y51274D01*
X18725Y51373D01*
X18748Y51489D01*
Y51535D01*
X19015D01*
X19032Y51446D01*
X19098Y51348D01*
X19196Y51282D01*
X19312Y51259D01*
X19937D01*
X20053Y51282D01*
X20152Y51348D01*
X20218Y51446D01*
X20235Y51535D01*
X20975D01*
X21086Y51557D01*
X21181Y51620D01*
X21730Y52170D01*
X21793Y52264D01*
X21814Y52365D01*
X22435D01*
Y52865D01*
Y53821D01*
X22479D01*
Y53934D01*
X23005D01*
X23895Y53045D01*
X23989Y52982D01*
X24100Y52959D01*
X24971D01*
Y52852D01*
X25925D01*
X26879D01*
Y53098D01*
X25925D01*
Y53352D01*
X26879D01*
Y53629D01*
X26879D01*
X26885Y53674D01*
X27019Y53720D01*
X27359Y53380D01*
X27321Y53243D01*
X27223Y53177D01*
X27157Y53079D01*
X27134Y52963D01*
Y52438D01*
X27157Y52322D01*
X27223Y52223D01*
X27321Y52157D01*
X27437Y52134D01*
X28062D01*
X28178Y52157D01*
X28277Y52223D01*
X28343Y52322D01*
X28360Y52410D01*
X28943D01*
X28972Y52339D01*
X28985Y52283D01*
X28927Y52196D01*
X28927Y52195D01*
X28788Y52137D01*
X28630Y51980D01*
X28545Y51774D01*
Y51551D01*
X28630Y51345D01*
X28788Y51188D01*
X28993Y51102D01*
X29216D01*
X29422Y51188D01*
X29519Y51285D01*
X29660Y51246D01*
X29670Y51205D01*
X29295Y50830D01*
X29232Y50736D01*
X29209Y50625D01*
Y49186D01*
X29183Y49175D01*
X29025Y49017D01*
X28940Y48811D01*
Y48589D01*
X28949Y48566D01*
X28842Y48494D01*
X28705Y48630D01*
X28611Y48693D01*
X28500Y48716D01*
X28311D01*
X28300Y48742D01*
X28142Y48900D01*
X27936Y48985D01*
X27714D01*
X27508Y48900D01*
X27381Y48773D01*
X27240Y48782D01*
X27225Y48817D01*
X27067Y48975D01*
X26861Y49060D01*
X26639D01*
X26433Y48975D01*
X26366Y49074D01*
X26400Y49108D01*
X26485Y49314D01*
Y49536D01*
X26400Y49742D01*
X26499Y49809D01*
X26633Y49675D01*
X26839Y49590D01*
X27061D01*
X27267Y49675D01*
X27425Y49833D01*
X27510Y50039D01*
Y50261D01*
X27499Y50288D01*
X27918Y50707D01*
X27981Y50802D01*
X27988Y50834D01*
X28062D01*
X28178Y50857D01*
X28277Y50923D01*
X28343Y51021D01*
X28366Y51138D01*
Y51663D01*
X28343Y51779D01*
X28277Y51877D01*
X28178Y51943D01*
X28062Y51966D01*
X27437D01*
X27321Y51943D01*
X27223Y51877D01*
X27157Y51779D01*
X27134Y51663D01*
Y51138D01*
X27157Y51021D01*
X27223Y50923D01*
X27231Y50842D01*
X27088Y50699D01*
X27061Y50710D01*
X26839D01*
X26633Y50625D01*
X26475Y50467D01*
X26390Y50261D01*
Y50039D01*
X26475Y49833D01*
X26376Y49766D01*
X26242Y49900D01*
X26036Y49985D01*
X25814D01*
X25608Y49900D01*
X25450Y49742D01*
X25444Y49728D01*
X21166D01*
X21150Y49767D01*
X20992Y49925D01*
X20786Y50010D01*
X20564D01*
X20358Y49925D01*
X20200Y49767D01*
X20162Y49675D01*
X20035Y49700D01*
Y49736D01*
X19950Y49942D01*
X19792Y50100D01*
X19586Y50185D01*
X19364D01*
X19158Y50100D01*
X19000Y49942D01*
X18989Y49916D01*
X9575D01*
X9464Y49893D01*
X9370Y49830D01*
X9238Y49699D01*
X9211Y49710D01*
X8989D01*
X8783Y49625D01*
X8625Y49467D01*
X8540Y49261D01*
Y49039D01*
X8625Y48833D01*
X8769Y48689D01*
Y47029D01*
X8792Y46917D01*
X8855Y46823D01*
X9484Y46194D01*
Y45675D01*
X9508Y45554D01*
X9576Y45451D01*
X9679Y45383D01*
X9800Y45359D01*
X10700D01*
X10821Y45383D01*
X10924Y45451D01*
X10992Y45554D01*
X11016Y45675D01*
Y46275D01*
X10992Y46396D01*
X10924Y46499D01*
X10821Y46567D01*
X10700Y46591D01*
X9908D01*
X9351Y47149D01*
Y48648D01*
X9417Y48675D01*
X9575Y48833D01*
X9660Y49039D01*
Y49261D01*
X9767Y49334D01*
X13113D01*
X13165Y49207D01*
X13100Y49142D01*
X13015Y48936D01*
Y48714D01*
X13100Y48508D01*
X13258Y48350D01*
X13464Y48265D01*
X13472D01*
X13511Y48138D01*
X13451Y48098D01*
X13383Y47996D01*
X13359Y47875D01*
Y47275D01*
X13383Y47154D01*
X13451Y47051D01*
X13554Y46983D01*
X13675Y46959D01*
X14575D01*
X14607Y46965D01*
X14734Y46868D01*
Y44370D01*
X14606Y44242D01*
X14502Y44252D01*
X14404Y44318D01*
X14288Y44341D01*
X13663D01*
X13547Y44318D01*
X13448Y44252D01*
X13382Y44153D01*
X13359Y44037D01*
Y43512D01*
X13382Y43396D01*
X13448Y43298D01*
X13547Y43232D01*
X13663Y43209D01*
X13704D01*
Y43049D01*
X13577Y42961D01*
X13495Y42978D01*
X13345Y42948D01*
X13217Y42863D01*
X13132Y42735D01*
X13102Y42585D01*
Y42476D01*
X13077Y42378D01*
X12979Y42353D01*
X12870D01*
X12720Y42323D01*
X12592Y42238D01*
X12507Y42110D01*
X12477Y41960D01*
X12507Y41810D01*
X12548Y41750D01*
X12466Y41627D01*
X12458Y41587D01*
X12771D01*
X12870Y41567D01*
X12970D01*
Y41353D01*
X12870D01*
X12771Y41333D01*
X12376D01*
X12338Y41286D01*
X12206D01*
Y41532D01*
X12182Y41652D01*
X12114Y41754D01*
X12012Y41822D01*
X11892Y41846D01*
X10988D01*
X10868Y41822D01*
X10766Y41754D01*
X10698Y41652D01*
X10674Y41532D01*
Y41028D01*
X10698Y40908D01*
X10766Y40806D01*
X10782Y40795D01*
X10782Y40642D01*
X10780Y40640D01*
X10701Y40522D01*
X10673Y40383D01*
Y39977D01*
X10674Y39971D01*
X10557Y39908D01*
X10080Y40385D01*
X9986Y40448D01*
X9875Y40471D01*
X9398D01*
X9382Y40552D01*
X9314Y40654D01*
Y40806D01*
X9382Y40908D01*
X9406Y41028D01*
Y41532D01*
X9382Y41652D01*
X9314Y41754D01*
X9212Y41822D01*
X9092Y41846D01*
X8188D01*
X8068Y41822D01*
X7966Y41754D01*
X7898Y41652D01*
X7874Y41532D01*
Y41366D01*
X7781D01*
X7657Y41342D01*
X7557Y41275D01*
X6645D01*
Y41306D01*
X6564Y41503D01*
X6442Y41625D01*
X6564Y41747D01*
X6645Y41944D01*
Y42156D01*
X6640Y42169D01*
X7975Y43505D01*
X8038Y43599D01*
X8061Y43710D01*
Y44774D01*
X8083D01*
X8199Y44797D01*
X8297Y44863D01*
X8363Y44961D01*
X8386Y45077D01*
Y45603D01*
X8363Y45719D01*
X8297Y45817D01*
X8199Y45883D01*
X8083Y45906D01*
Y46029D01*
X8216Y46056D01*
X8329Y46131D01*
X8404Y46244D01*
X8431Y46377D01*
Y46513D01*
X7770D01*
Y46640D01*
X7643D01*
Y47251D01*
X7457D01*
X7324Y47224D01*
X7211Y47149D01*
X7136Y47036D01*
X7115Y46931D01*
X5240D01*
X5129Y46908D01*
X5035Y46845D01*
X5005Y46815D01*
X4942Y46721D01*
X4919Y46610D01*
X4942Y46499D01*
X5005Y46405D01*
X5099Y46342D01*
X5210Y46319D01*
X5321Y46342D01*
X5333Y46349D01*
X7115D01*
X7136Y46244D01*
X7211Y46131D01*
X7324Y46056D01*
X7457Y46029D01*
Y45906D01*
X7341Y45883D01*
X7243Y45817D01*
X7177Y45719D01*
X7154Y45603D01*
Y45077D01*
X7177Y44961D01*
X7243Y44863D01*
X7341Y44797D01*
X7457Y44774D01*
X7479D01*
Y43830D01*
X6745Y43096D01*
X6595Y43126D01*
X6564Y43203D01*
X6473Y43294D01*
X6601Y43422D01*
X6684Y43623D01*
X6110D01*
Y43877D01*
X6684D01*
X6601Y44078D01*
X6438Y44241D01*
X6225Y44329D01*
X6190D01*
X6165Y44456D01*
X6235Y44485D01*
X6382Y44598D01*
X6495Y44745D01*
X6566Y44916D01*
X6573Y44973D01*
X3687D01*
X3694Y44916D01*
X3765Y44745D01*
X3878Y44598D01*
X4025Y44485D01*
X4196Y44414D01*
X4380Y44390D01*
X4460D01*
X4485Y44263D01*
X4432Y44241D01*
X4269Y44078D01*
X4247Y44026D01*
X3375D01*
X3264Y44003D01*
X3170Y43940D01*
X3155Y43925D01*
X3092Y43831D01*
X3069Y43720D01*
X3092Y43609D01*
X3155Y43515D01*
X3249Y43452D01*
X3360Y43429D01*
X3435Y43444D01*
X4260D01*
X4269Y43422D01*
X4397Y43294D01*
X4306Y43203D01*
X4301Y43191D01*
X4225D01*
X4114Y43168D01*
X4020Y43105D01*
X3816Y42901D01*
X3692Y43025D01*
X3486Y43110D01*
X3264D01*
X3058Y43025D01*
X2900Y42867D01*
X2815Y42661D01*
Y42439D01*
X2900Y42233D01*
X3058Y42075D01*
X3264Y41990D01*
X3486D01*
X3692Y42075D01*
X3850Y42233D01*
X3861Y42259D01*
X3875D01*
X3986Y42282D01*
X4080Y42345D01*
X4320Y42584D01*
X4428Y42475D01*
X4306Y42353D01*
X4225Y42156D01*
Y41944D01*
X4306Y41747D01*
X4428Y41625D01*
X4306Y41503D01*
X4225Y41306D01*
Y41094D01*
X4306Y40897D01*
X4428Y40775D01*
X4306Y40653D01*
X4225Y40456D01*
Y40244D01*
X4267Y40143D01*
X4182Y40016D01*
X3125D01*
X3014Y39993D01*
X2920Y39930D01*
X2305Y39315D01*
X2242Y39221D01*
X2219Y39110D01*
Y37550D01*
X2242Y37439D01*
X2305Y37345D01*
X2405Y37244D01*
X2334Y37136D01*
X2150Y37160D01*
X1877D01*
Y36577D01*
X2843D01*
X2836Y36634D01*
X2944Y36705D01*
X3159Y36490D01*
Y35381D01*
X3075Y35296D01*
X2557D01*
X2441Y35273D01*
X2343Y35207D01*
X2277Y35109D01*
X2254Y34993D01*
Y34468D01*
X2277Y34352D01*
X2343Y34253D01*
X2441Y34187D01*
X2557Y34164D01*
Y34041D01*
X2424Y34014D01*
X2311Y33939D01*
X2236Y33826D01*
X2209Y33693D01*
Y33557D01*
X2870D01*
X3531D01*
Y33693D01*
X3504Y33826D01*
X3429Y33939D01*
X3316Y34014D01*
X3182Y34041D01*
Y34164D01*
X3298Y34187D01*
X3397Y34253D01*
X3463Y34352D01*
X3486Y34468D01*
Y34885D01*
X3655Y35055D01*
X3718Y35149D01*
X3741Y35260D01*
Y35918D01*
X3868Y35961D01*
X3878Y35948D01*
X4025Y35835D01*
X4196Y35764D01*
X4380Y35740D01*
X5003D01*
Y36450D01*
X5130D01*
Y36577D01*
X6573D01*
X6566Y36634D01*
X6495Y36805D01*
X6382Y36952D01*
X6235Y37065D01*
X6165Y37094D01*
X6190Y37221D01*
X6225D01*
X6438Y37309D01*
X6601Y37472D01*
X6684Y37673D01*
X6110D01*
Y37927D01*
X6684D01*
X6650Y38010D01*
X6758Y38081D01*
X7159Y37680D01*
Y36725D01*
X7182Y36614D01*
X7245Y36520D01*
X7350Y36415D01*
X7444Y36352D01*
X7555Y36329D01*
X8184D01*
X8197Y36263D01*
X8261Y36166D01*
X8358Y36102D01*
X8471Y36079D01*
X8640D01*
Y36007D01*
X8662Y35896D01*
X8725Y35802D01*
X8884Y35643D01*
X8831Y35516D01*
X8698D01*
X8683Y35538D01*
X8599Y35594D01*
X8500Y35614D01*
X8110D01*
X8011Y35594D01*
X7964Y35563D01*
X7900Y35627D01*
X7836Y35563D01*
X7789Y35594D01*
X7690Y35614D01*
X7300D01*
X7201Y35594D01*
X7117Y35538D01*
X7102Y35516D01*
X6694D01*
X6654Y35543D01*
X6538Y35566D01*
X5913D01*
X5797Y35543D01*
X5698Y35477D01*
X5632Y35379D01*
X5615Y35291D01*
X5225D01*
X5114Y35268D01*
X5019Y35205D01*
X4395Y34580D01*
X4332Y34486D01*
X4309Y34375D01*
Y32495D01*
X3742Y31928D01*
X3725D01*
X3628Y31993D01*
X3512Y32016D01*
X2887D01*
X2771Y31993D01*
X2673Y31927D01*
X2607Y31829D01*
X2590Y31741D01*
X2335D01*
X2318Y31829D01*
X2252Y31927D01*
X2154Y31993D01*
X2038Y32016D01*
X1413D01*
X1296Y31993D01*
X1198Y31927D01*
X1132Y31829D01*
X1109Y31712D01*
Y31187D01*
X1132Y31071D01*
X1198Y30973D01*
X1296Y30907D01*
X1413Y30884D01*
X2038D01*
X2154Y30907D01*
X2252Y30973D01*
X2318Y31071D01*
X2335Y31159D01*
X2590D01*
X2607Y31072D01*
X2673Y30973D01*
X2771Y30907D01*
X2887Y30884D01*
X3512D01*
X3628Y30907D01*
X3727Y30973D01*
X3793Y31072D01*
X3816Y31188D01*
Y31347D01*
X3863D01*
X3974Y31369D01*
X4068Y31432D01*
X4600Y31964D01*
X4745Y31820D01*
X4839Y31757D01*
X4950Y31734D01*
X5215D01*
Y31265D01*
X6285D01*
Y31734D01*
X9075D01*
X9114Y31607D01*
X9041Y31559D01*
X8966Y31446D01*
X8939Y31313D01*
Y31241D01*
X8250D01*
X8139Y31218D01*
X8045Y31155D01*
X7982Y31061D01*
X7959Y30950D01*
X7982Y30839D01*
X8045Y30745D01*
X8139Y30682D01*
X8250Y30659D01*
X8965D01*
X8966Y30654D01*
X9041Y30541D01*
X9154Y30466D01*
X9287Y30439D01*
Y30316D01*
X9171Y30293D01*
X9073Y30227D01*
X9007Y30129D01*
X8984Y30013D01*
Y29991D01*
X8711D01*
X8700Y30017D01*
X8542Y30175D01*
X8336Y30260D01*
X8114D01*
X7908Y30175D01*
X7750Y30017D01*
X7739Y29991D01*
X7235D01*
Y30485D01*
X6165D01*
Y28965D01*
X7235D01*
Y29409D01*
X7739D01*
X7750Y29383D01*
X7908Y29225D01*
X8114Y29140D01*
X8336D01*
X8542Y29225D01*
X8700Y29383D01*
X8711Y29409D01*
X9000D01*
X9007Y29372D01*
X9073Y29273D01*
X9171Y29207D01*
X9287Y29184D01*
X9912D01*
X10028Y29207D01*
X10127Y29273D01*
X10193Y29372D01*
X10216Y29488D01*
Y30013D01*
X10193Y30129D01*
X10127Y30227D01*
X10028Y30293D01*
X9912Y30316D01*
Y30439D01*
X10046Y30466D01*
X10159Y30541D01*
X10234Y30654D01*
X10261Y30788D01*
Y30923D01*
X9600D01*
Y31177D01*
X10261D01*
Y31313D01*
X10234Y31446D01*
X10159Y31559D01*
X10086Y31607D01*
X10124Y31734D01*
X10425D01*
X10910Y31249D01*
Y30640D01*
X11790D01*
Y30884D01*
X12539D01*
X12550Y30858D01*
X12708Y30700D01*
X12914Y30615D01*
X13136D01*
X13342Y30700D01*
X13500Y30858D01*
X13585Y31064D01*
Y31286D01*
X13500Y31492D01*
X13342Y31650D01*
X13136Y31735D01*
X12914D01*
X12708Y31650D01*
X12550Y31492D01*
X12539Y31466D01*
X11790D01*
Y31660D01*
X11321D01*
X10979Y32002D01*
X11028Y32096D01*
X11046Y32115D01*
X11261D01*
X11467Y32200D01*
X11625Y32358D01*
X11710Y32564D01*
Y32786D01*
X11625Y32992D01*
X11467Y33150D01*
X11261Y33235D01*
X11039D01*
X10833Y33150D01*
X10721Y33038D01*
X10621Y33034D01*
X10516Y33133D01*
Y33713D01*
X10493Y33829D01*
X10427Y33927D01*
X10329Y33993D01*
X10233Y34012D01*
X10219Y34086D01*
X10156Y34180D01*
X10049Y34287D01*
X10052Y34323D01*
X10118Y34422D01*
X10141Y34538D01*
X10264D01*
X10291Y34404D01*
X10366Y34291D01*
X10479Y34216D01*
X10613Y34189D01*
X10748D01*
Y34850D01*
X11002D01*
Y34189D01*
X11138D01*
X11271Y34216D01*
X11384Y34291D01*
X11459Y34404D01*
X11486Y34538D01*
Y34560D01*
X11855D01*
X12270Y34145D01*
X12364Y34082D01*
X12475Y34059D01*
X12586Y34082D01*
X12680Y34145D01*
X12743Y34239D01*
X12766Y34350D01*
X12743Y34461D01*
X12680Y34555D01*
X12333Y34903D01*
X12395Y35020D01*
X12450Y35009D01*
X12561Y35032D01*
X12655Y35095D01*
X12718Y35189D01*
X12741Y35300D01*
Y35889D01*
X13038D01*
X13171Y35916D01*
X13284Y35991D01*
X13307Y36027D01*
X13434Y35988D01*
Y35560D01*
X13347Y35543D01*
X13248Y35477D01*
X13182Y35379D01*
X13159Y35263D01*
Y34638D01*
X13182Y34522D01*
X13248Y34423D01*
X13347Y34357D01*
X13463Y34334D01*
X13988D01*
X14104Y34357D01*
X14202Y34423D01*
X14268Y34522D01*
X14291Y34638D01*
X14414D01*
X14441Y34504D01*
X14516Y34391D01*
X14629Y34316D01*
X14763Y34289D01*
X14898D01*
Y34950D01*
X15152D01*
Y34289D01*
X15288D01*
X15421Y34316D01*
X15534Y34391D01*
X15609Y34504D01*
X15630Y34609D01*
X16225D01*
X16336Y34632D01*
X16430Y34695D01*
X16493Y34789D01*
X16516Y34900D01*
X16493Y35011D01*
X16430Y35105D01*
X16336Y35168D01*
X16225Y35191D01*
X15636D01*
Y35263D01*
X15609Y35396D01*
X15534Y35509D01*
X15421Y35584D01*
X15316Y35605D01*
Y35745D01*
X15421Y35766D01*
X15534Y35841D01*
X15609Y35954D01*
X15636Y36088D01*
Y36223D01*
X14975D01*
X14314D01*
Y36088D01*
X14341Y35954D01*
X14416Y35841D01*
X14529Y35766D01*
X14663Y35739D01*
X14734D01*
Y35605D01*
X14629Y35584D01*
X14516Y35509D01*
X14441Y35396D01*
X14414Y35263D01*
X14291D01*
X14268Y35379D01*
X14202Y35477D01*
X14104Y35543D01*
X14016Y35560D01*
Y36850D01*
X13994Y36961D01*
X13931Y37055D01*
X13341Y37645D01*
Y38062D01*
X13318Y38179D01*
X13261Y38264D01*
Y38387D01*
X13388Y38464D01*
X13495Y38442D01*
X13628Y38469D01*
X13693Y38460D01*
X13765Y38431D01*
X13828Y38336D01*
X14359Y37805D01*
Y37388D01*
X14382Y37271D01*
X14448Y37173D01*
X14546Y37107D01*
X14663Y37084D01*
Y36961D01*
X14529Y36934D01*
X14416Y36859D01*
X14341Y36746D01*
X14314Y36612D01*
Y36477D01*
X14975D01*
X15704D01*
X15763Y36501D01*
X15852Y36412D01*
X15859Y36407D01*
Y36088D01*
X15882Y35971D01*
X15948Y35873D01*
X16046Y35807D01*
X16163Y35784D01*
X16788D01*
X16904Y35807D01*
X17002Y35873D01*
X17068Y35971D01*
X17080Y36034D01*
X17214D01*
X17225Y36008D01*
X17383Y35850D01*
X17589Y35765D01*
X17811D01*
X18017Y35850D01*
X18175Y36008D01*
X18260Y36214D01*
Y36436D01*
X18175Y36642D01*
X18017Y36800D01*
X17811Y36885D01*
X17589D01*
X17383Y36800D01*
X17225Y36642D01*
X17214Y36616D01*
X17090D01*
X17068Y36729D01*
X17002Y36827D01*
X16904Y36893D01*
X16788Y36916D01*
X16238D01*
X16205Y36957D01*
X16267Y37084D01*
X16788D01*
X16904Y37107D01*
X17002Y37173D01*
X17068Y37271D01*
X17091Y37388D01*
Y37912D01*
X17068Y38029D01*
X17002Y38127D01*
X16904Y38193D01*
X16788Y38216D01*
X16741D01*
Y38299D01*
X16718Y38410D01*
X16655Y38505D01*
X16568Y38592D01*
X16473Y38655D01*
X16381Y38801D01*
X16388Y38835D01*
Y38944D01*
X16413Y39042D01*
X16511Y39067D01*
X16620D01*
X16770Y39097D01*
X16898Y39182D01*
X16983Y39310D01*
X17013Y39460D01*
X16983Y39610D01*
X16916Y39710D01*
X16983Y39810D01*
X17013Y39960D01*
X16983Y40110D01*
X16916Y40210D01*
X16983Y40310D01*
X17013Y40460D01*
X16996Y40542D01*
X17084Y40669D01*
X17293D01*
X17307Y40596D01*
X17373Y40498D01*
X17472Y40432D01*
X17588Y40409D01*
Y40286D01*
X17454Y40259D01*
X17341Y40184D01*
X17266Y40071D01*
X17239Y39937D01*
Y39802D01*
X17900D01*
X18561D01*
Y39937D01*
X18534Y40071D01*
X18459Y40184D01*
X18346Y40259D01*
X18213Y40286D01*
Y40409D01*
X18329Y40432D01*
X18427Y40498D01*
X18493Y40596D01*
X18516Y40712D01*
Y41237D01*
X18493Y41354D01*
X18427Y41452D01*
X18329Y41518D01*
X18213Y41541D01*
X17588D01*
X17472Y41518D01*
X17373Y41452D01*
X17307Y41354D01*
X17287Y41251D01*
X17084D01*
X16996Y41378D01*
X17013Y41460D01*
X16983Y41610D01*
X16916Y41710D01*
X16983Y41810D01*
X17013Y41960D01*
X16991Y42067D01*
X17068Y42194D01*
X17385D01*
X17496Y42217D01*
X17590Y42280D01*
X19505Y44195D01*
X19568Y44289D01*
X19591Y44400D01*
Y44789D01*
X19617Y44800D01*
X19775Y44958D01*
X19860Y45164D01*
Y45386D01*
X19775Y45592D01*
X19617Y45750D01*
X19411Y45835D01*
X19189D01*
X18983Y45750D01*
X18825Y45592D01*
X18814Y45566D01*
X18566D01*
Y45612D01*
X18543Y45728D01*
X18477Y45827D01*
X18379Y45893D01*
X18263Y45916D01*
X17638D01*
X17521Y45893D01*
X17423Y45827D01*
X17357Y45728D01*
X17334Y45612D01*
Y45087D01*
X17357Y44971D01*
X17423Y44873D01*
X17521Y44807D01*
X17638Y44784D01*
X18263D01*
X18379Y44807D01*
X18477Y44873D01*
X18543Y44971D01*
X18545Y44984D01*
X18814D01*
X18825Y44958D01*
X18983Y44800D01*
X19009Y44789D01*
Y44520D01*
X17265Y42776D01*
X16331D01*
X16273Y42863D01*
X16185Y42921D01*
X16158Y43050D01*
X16161Y43073D01*
X16210Y43134D01*
X16650D01*
X16761Y43157D01*
X16855Y43220D01*
X16941Y43306D01*
X16989Y43286D01*
X17211D01*
X17417Y43371D01*
X17575Y43529D01*
X17660Y43735D01*
Y43957D01*
X17575Y44163D01*
X17417Y44321D01*
X17211Y44406D01*
X16989D01*
X16783Y44321D01*
X16625Y44163D01*
X16540Y43957D01*
Y43735D01*
X16423Y43716D01*
X16287D01*
X16235Y43843D01*
X16275Y43883D01*
X16360Y44089D01*
Y44311D01*
X16275Y44517D01*
X16117Y44675D01*
X15911Y44760D01*
X15689D01*
X15483Y44675D01*
X15443Y44635D01*
X15316Y44687D01*
Y47355D01*
X15870Y47909D01*
X16675D01*
X16796Y47933D01*
X16899Y48001D01*
X16967Y48104D01*
X16991Y48225D01*
Y48825D01*
X16967Y48946D01*
X16899Y49049D01*
X16796Y49117D01*
X16675Y49141D01*
X15775D01*
X15654Y49117D01*
X15552Y49049D01*
X15483Y48946D01*
X15459Y48825D01*
Y48320D01*
X15010Y47871D01*
X14882Y47922D01*
X14867Y47996D01*
X14798Y48098D01*
X14696Y48167D01*
X14575Y48191D01*
X14416D01*
Y48275D01*
X14393Y48386D01*
X14330Y48480D01*
X14124Y48687D01*
X14135Y48714D01*
Y48936D01*
X14050Y49142D01*
X13985Y49207D01*
X14037Y49334D01*
X18989D01*
X19000Y49308D01*
X19158Y49150D01*
X19364Y49065D01*
X19586D01*
X19792Y49150D01*
X19950Y49308D01*
X19988Y49400D01*
X20115Y49375D01*
Y49339D01*
X20200Y49133D01*
X20358Y48975D01*
X20564Y48890D01*
X20786D01*
X20992Y48975D01*
X21150Y49133D01*
X21156Y49147D01*
X22417D01*
X22442Y49020D01*
X22333Y48975D01*
X22175Y48817D01*
X22090Y48611D01*
Y48389D01*
X22175Y48183D01*
X22333Y48025D01*
X22539Y47940D01*
X22761D01*
X22967Y48025D01*
X23125Y48183D01*
X23136Y48209D01*
X26264D01*
X26275Y48183D01*
X26433Y48025D01*
X26639Y47940D01*
X26861D01*
X27067Y48025D01*
X27194Y48152D01*
X27335Y48143D01*
X27350Y48108D01*
X27508Y47950D01*
X27714Y47865D01*
X27936D01*
X28142Y47950D01*
X28274Y48082D01*
X28396Y48091D01*
X28428Y48086D01*
X28899Y47615D01*
X28898Y47602D01*
X28832Y47504D01*
X28809Y47388D01*
Y46763D01*
X28832Y46647D01*
X28898Y46548D01*
X28997Y46482D01*
X29113Y46459D01*
X29638D01*
X29754Y46482D01*
X29852Y46548D01*
X29918Y46647D01*
X29941Y46763D01*
Y47388D01*
X29918Y47504D01*
X29852Y47602D01*
X29754Y47668D01*
X29638Y47691D01*
X29588D01*
X29581Y47723D01*
X29518Y47818D01*
X29294Y48042D01*
X29366Y48149D01*
X29389Y48140D01*
X29611D01*
X29817Y48225D01*
X29975Y48383D01*
X30060Y48589D01*
Y48811D01*
X30049Y48838D01*
X30762Y49551D01*
X30892Y49543D01*
X30922Y49497D01*
X31050Y49412D01*
X31088Y49405D01*
X31130Y49267D01*
X30519Y48656D01*
X30433Y48527D01*
X30402Y48375D01*
Y38465D01*
X29435Y37498D01*
X27724D01*
X27718Y37528D01*
X27652Y37627D01*
X27553Y37693D01*
X27437Y37716D01*
X26912D01*
X26796Y37693D01*
X26698Y37627D01*
X26632Y37528D01*
X26609Y37412D01*
X26486D01*
X26459Y37546D01*
X26384Y37659D01*
X26271Y37734D01*
X26137Y37761D01*
X26002D01*
Y37100D01*
Y36439D01*
X26137D01*
X26271Y36466D01*
X26384Y36541D01*
X26459Y36654D01*
X26486Y36787D01*
X26609D01*
X26632Y36671D01*
X26698Y36573D01*
X26777Y36520D01*
Y36124D01*
X26747Y36118D01*
X26648Y36052D01*
X26582Y35953D01*
X26559Y35837D01*
Y35312D01*
X26582Y35196D01*
X26648Y35098D01*
X26747Y35032D01*
X26863Y35009D01*
X27488D01*
X27604Y35032D01*
X27702Y35098D01*
X27768Y35196D01*
X27791Y35312D01*
Y35837D01*
X27768Y35953D01*
X27702Y36052D01*
X27604Y36118D01*
X27573Y36124D01*
Y36520D01*
X27652Y36573D01*
X27718Y36671D01*
X27724Y36702D01*
X29600D01*
X29752Y36733D01*
X29881Y36819D01*
X31081Y38019D01*
X31167Y38148D01*
X31198Y38300D01*
Y48210D01*
X31981Y48994D01*
X32067Y49123D01*
X32098Y49275D01*
X32093Y49296D01*
X32170Y49372D01*
X32206Y49384D01*
X32320Y49406D01*
X32447Y49336D01*
Y49114D01*
X32300Y48967D01*
X32215Y48761D01*
Y48539D01*
X32230Y48503D01*
X32070Y48342D01*
X32007Y48248D01*
X31984Y48137D01*
Y47935D01*
X31896Y47918D01*
X31798Y47852D01*
X31732Y47754D01*
X31709Y47638D01*
Y47013D01*
X31732Y46897D01*
X31798Y46798D01*
X31896Y46732D01*
X31985Y46715D01*
Y46240D01*
X31872Y46218D01*
X31773Y46152D01*
X31707Y46054D01*
X31684Y45938D01*
Y45313D01*
X31707Y45197D01*
X31773Y45098D01*
X31872Y45032D01*
X31934Y45020D01*
Y44580D01*
X31872Y44568D01*
X31773Y44502D01*
X31707Y44404D01*
X31684Y44288D01*
Y43663D01*
X31707Y43547D01*
X31773Y43448D01*
X31872Y43382D01*
X31959Y43365D01*
Y43136D01*
X31933Y43125D01*
X31775Y42967D01*
X31690Y42761D01*
Y42539D01*
X31775Y42333D01*
X31933Y42175D01*
X31949Y42169D01*
Y42042D01*
X31908Y42025D01*
X31750Y41867D01*
X31665Y41661D01*
Y41439D01*
X31750Y41233D01*
X31908Y41075D01*
X32114Y40990D01*
X32336D01*
X32542Y41075D01*
X32700Y41233D01*
X32785Y41439D01*
Y41661D01*
X32700Y41867D01*
X32542Y42025D01*
X32526Y42031D01*
Y42158D01*
X32567Y42175D01*
X32725Y42333D01*
X32810Y42539D01*
Y42761D01*
X32725Y42967D01*
X32567Y43125D01*
X32541Y43136D01*
Y43365D01*
X32629Y43382D01*
X32727Y43448D01*
X32793Y43547D01*
X32816Y43663D01*
X32939D01*
X32966Y43529D01*
X33041Y43416D01*
X33154Y43341D01*
X33288Y43314D01*
X33423D01*
Y43975D01*
Y44636D01*
X33288D01*
X33154Y44609D01*
X33041Y44534D01*
X32966Y44421D01*
X32939Y44288D01*
X32816D01*
X32793Y44404D01*
X32727Y44502D01*
X32629Y44568D01*
X32516Y44590D01*
Y45010D01*
X32629Y45032D01*
X32727Y45098D01*
X32793Y45197D01*
X32816Y45313D01*
X32939D01*
X32966Y45179D01*
X33041Y45066D01*
X33154Y44991D01*
X33288Y44964D01*
X33423D01*
Y45625D01*
Y46286D01*
X33288D01*
X33154Y46259D01*
X33041Y46184D01*
X32966Y46071D01*
X32939Y45938D01*
X32816D01*
X32793Y46054D01*
X32727Y46152D01*
X32629Y46218D01*
X32566Y46230D01*
Y46715D01*
X32654Y46732D01*
X32752Y46798D01*
X32818Y46897D01*
X32841Y47013D01*
X32964D01*
X32991Y46879D01*
X33066Y46766D01*
X33179Y46691D01*
X33313Y46664D01*
X33448D01*
Y47325D01*
Y47986D01*
X33313D01*
X33179Y47959D01*
X33066Y47884D01*
X32991Y47771D01*
X32964Y47638D01*
X32841D01*
X32818Y47754D01*
X32752Y47852D01*
X32699Y47888D01*
X32676Y48021D01*
X32680Y48041D01*
X32723Y48090D01*
X32886D01*
X33092Y48175D01*
X33250Y48333D01*
X33335Y48539D01*
Y48761D01*
X33250Y48967D01*
X33092Y49125D01*
X33028Y49151D01*
Y49287D01*
X33155Y49391D01*
X33200Y49382D01*
X33350Y49412D01*
X33450Y49479D01*
X33550Y49412D01*
X33700Y49382D01*
X33850Y49412D01*
X33950Y49479D01*
X34050Y49412D01*
X34200Y49382D01*
X34350Y49412D01*
X34450Y49479D01*
X34550Y49412D01*
X34700Y49382D01*
X34782Y49399D01*
X34909Y49311D01*
Y48925D01*
X34932Y48814D01*
X34995Y48720D01*
X35599Y48116D01*
X35450Y47967D01*
X35365Y47761D01*
Y47539D01*
X35450Y47333D01*
X35608Y47175D01*
X35814Y47090D01*
X36036D01*
X36242Y47175D01*
X36400Y47333D01*
X36485Y47539D01*
Y47761D01*
X36400Y47967D01*
X36495Y48044D01*
X36726Y47813D01*
X36715Y47786D01*
Y47564D01*
X36800Y47358D01*
X36958Y47200D01*
X37164Y47115D01*
X37386D01*
X37592Y47200D01*
X37750Y47358D01*
X37835Y47564D01*
Y47678D01*
X37950Y47784D01*
X38089D01*
X38100Y47758D01*
X38258Y47600D01*
X38464Y47515D01*
X38686D01*
X38892Y47600D01*
X39050Y47758D01*
X39135Y47964D01*
Y48186D01*
X39126Y48209D01*
X39210Y48336D01*
X39311D01*
X39517Y48421D01*
X39675Y48579D01*
X39760Y48785D01*
Y49007D01*
X39675Y49213D01*
X39517Y49371D01*
X39311Y49456D01*
X39089D01*
X39062Y49445D01*
X38940Y49567D01*
X38988Y49684D01*
X46990D01*
Y49489D01*
X47075Y49283D01*
X47233Y49125D01*
X47259Y49114D01*
Y48475D01*
X47282Y48364D01*
X47345Y48270D01*
X50020Y45595D01*
X50114Y45532D01*
X50225Y45509D01*
X50765D01*
X50782Y45421D01*
X50848Y45323D01*
X50946Y45257D01*
X51062Y45234D01*
Y45111D01*
X50929Y45084D01*
X50816Y45009D01*
X50741Y44896D01*
X50714Y44763D01*
Y44627D01*
X51375D01*
Y44500D01*
X51502D01*
Y43889D01*
X51688D01*
X51821Y43916D01*
X51934Y43991D01*
X52009Y44104D01*
X52010Y44109D01*
X52750D01*
X52861Y44132D01*
X52955Y44195D01*
X53018Y44289D01*
X53041Y44400D01*
X53018Y44511D01*
X52955Y44605D01*
X52861Y44668D01*
X52750Y44691D01*
X52036D01*
Y44763D01*
X52009Y44896D01*
X51934Y45009D01*
X51821Y45084D01*
X51688Y45111D01*
Y45234D01*
X51804Y45257D01*
X51902Y45323D01*
X51968Y45421D01*
X51985Y45509D01*
X52209D01*
Y45438D01*
X52232Y45321D01*
X52298Y45223D01*
X52396Y45157D01*
X52513Y45134D01*
X53038D01*
X53154Y45157D01*
X53252Y45223D01*
X53318Y45321D01*
X53341Y45438D01*
Y46063D01*
X53318Y46179D01*
X53252Y46277D01*
X53154Y46343D01*
X53038Y46366D01*
X52513D01*
X52396Y46343D01*
X52298Y46277D01*
X52232Y46179D01*
X52215Y46091D01*
X51985D01*
X51968Y46179D01*
X51902Y46277D01*
X51804Y46343D01*
X51688Y46366D01*
X51062D01*
X50946Y46343D01*
X50848Y46277D01*
X50782Y46179D01*
X50765Y46091D01*
X50345D01*
X47841Y48595D01*
Y49114D01*
X47867Y49125D01*
X48025Y49283D01*
X48110Y49489D01*
Y49711D01*
X48025Y49917D01*
X47910Y50032D01*
X47962Y50159D01*
X49139D01*
X49150Y50133D01*
X49308Y49975D01*
X49514Y49890D01*
X49736D01*
X49763Y49901D01*
X50245Y49419D01*
X50339Y49356D01*
X50450Y49334D01*
X50690D01*
X50707Y49246D01*
X50773Y49148D01*
X50871Y49082D01*
X50988Y49059D01*
Y48936D01*
X50854Y48909D01*
X50741Y48834D01*
X50666Y48721D01*
X50639Y48587D01*
Y48452D01*
X51300D01*
X51961D01*
Y48587D01*
X51934Y48721D01*
X51859Y48834D01*
X51746Y48909D01*
X51613Y48936D01*
Y49059D01*
X51729Y49082D01*
X51827Y49148D01*
X51893Y49246D01*
X51900Y49285D01*
X52159D01*
Y49263D01*
X52182Y49146D01*
X52248Y49048D01*
X52347Y48982D01*
X52463Y48959D01*
X52988D01*
X53104Y48982D01*
X53202Y49048D01*
X53268Y49146D01*
X53291Y49263D01*
Y49888D01*
X53268Y50004D01*
X53202Y50102D01*
X53104Y50168D01*
X52988Y50191D01*
X52463D01*
X52347Y50168D01*
X52248Y50102D01*
X52182Y50004D01*
X52159Y49888D01*
Y49866D01*
X51916D01*
Y49887D01*
X51893Y50003D01*
X51827Y50102D01*
X51729Y50168D01*
X51613Y50191D01*
X50988D01*
X50871Y50168D01*
X50773Y50102D01*
X50707Y50003D01*
X50692Y49928D01*
X50570Y49916D01*
X50174Y50312D01*
X50185Y50339D01*
Y50561D01*
X50100Y50767D01*
X49942Y50925D01*
X49736Y51010D01*
X49514D01*
X49308Y50925D01*
X49150Y50767D01*
X49139Y50741D01*
X40848D01*
X40804Y50868D01*
X40885Y51064D01*
Y51286D01*
X40800Y51492D01*
X40642Y51650D01*
X40436Y51735D01*
X40214D01*
X40008Y51650D01*
X39924Y51566D01*
X39825Y51633D01*
X39910Y51839D01*
Y52061D01*
X39825Y52267D01*
X39667Y52425D01*
X39461Y52510D01*
X39239D01*
X39033Y52425D01*
X38875Y52267D01*
X38864Y52241D01*
X38329D01*
X37687Y52882D01*
X37740Y53009D01*
X37990D01*
X38075Y52804D01*
X38233Y52646D01*
X38439Y52561D01*
X38661D01*
X38867Y52646D01*
X39025Y52804D01*
X39110Y53010D01*
Y53232D01*
X39048Y53382D01*
X39119Y53509D01*
X39126D01*
X39231Y53530D01*
X39389Y53465D01*
X39611D01*
X39817Y53550D01*
X39975Y53708D01*
X40060Y53914D01*
Y54136D01*
X39979Y54332D01*
X40023Y54459D01*
X42815D01*
Y53015D01*
X45135D01*
Y54865D01*
Y56785D01*
X42815D01*
Y56366D01*
X40911D01*
X40900Y56392D01*
X40742Y56550D01*
X40536Y56635D01*
X40314D01*
X40108Y56550D01*
X39950Y56392D01*
X39865Y56186D01*
Y55964D01*
X39950Y55758D01*
X40108Y55600D01*
X40314Y55515D01*
X40536D01*
X40742Y55600D01*
X40900Y55758D01*
X40911Y55784D01*
X42815D01*
Y55041D01*
X39373D01*
X39314Y55168D01*
X39385Y55339D01*
Y55561D01*
X39300Y55767D01*
X39142Y55925D01*
X39009Y55980D01*
X38995Y56020D01*
X38992Y56125D01*
X39125Y56258D01*
X39210Y56464D01*
Y56686D01*
X39199Y56713D01*
X39680Y57195D01*
X39692Y57212D01*
X39852Y57231D01*
X39883Y57200D01*
X40089Y57115D01*
X40311D01*
X40517Y57200D01*
X40675Y57358D01*
X40760Y57564D01*
Y57639D01*
X49371D01*
X49403Y57591D01*
X49427Y57512D01*
X49366Y57421D01*
X49339Y57287D01*
Y57152D01*
X50000D01*
Y56898D01*
X49339D01*
Y56762D01*
X49366Y56629D01*
X49441Y56516D01*
X49554Y56441D01*
X49688Y56414D01*
Y56291D01*
X49572Y56268D01*
X49473Y56202D01*
X49407Y56103D01*
X49390Y56015D01*
X48335D01*
Y56785D01*
X46015D01*
Y54865D01*
Y53015D01*
X48335D01*
Y53709D01*
X49415D01*
X49432Y53621D01*
X49498Y53523D01*
X49596Y53457D01*
X49712Y53434D01*
Y53311D01*
X49579Y53284D01*
X49466Y53209D01*
X49391Y53096D01*
X49364Y52963D01*
Y52827D01*
X50025D01*
Y52700D01*
X50152D01*
Y52089D01*
X50337D01*
X50471Y52116D01*
X50584Y52191D01*
X50659Y52304D01*
X50680Y52409D01*
X51325D01*
X51436Y52432D01*
X51530Y52495D01*
X51593Y52589D01*
X51616Y52700D01*
X51593Y52811D01*
X51530Y52905D01*
X51436Y52968D01*
X51325Y52991D01*
X50680D01*
X50659Y53096D01*
X50584Y53209D01*
X50471Y53284D01*
X50337Y53311D01*
Y53434D01*
X50453Y53457D01*
X50552Y53523D01*
X50618Y53621D01*
X50641Y53738D01*
Y54263D01*
X50618Y54379D01*
X50552Y54477D01*
X50453Y54543D01*
X50337Y54566D01*
X49712D01*
X49596Y54543D01*
X49498Y54477D01*
X49432Y54379D01*
X49415Y54291D01*
X48335D01*
Y55434D01*
X49390D01*
X49407Y55346D01*
X49473Y55248D01*
X49572Y55182D01*
X49688Y55159D01*
X50313D01*
X50429Y55182D01*
X50527Y55248D01*
X50593Y55346D01*
X50616Y55462D01*
Y55987D01*
X50593Y56103D01*
X50527Y56202D01*
X50429Y56268D01*
X50313Y56291D01*
Y56414D01*
X50446Y56441D01*
X50559Y56516D01*
X50634Y56629D01*
X50655Y56734D01*
X51425D01*
X51536Y56757D01*
X51630Y56820D01*
X51693Y56914D01*
X51716Y57025D01*
X51693Y57136D01*
X51630Y57230D01*
X51536Y57293D01*
X51425Y57316D01*
X50655D01*
X50634Y57421D01*
X50573Y57512D01*
X50597Y57591D01*
X50629Y57639D01*
X53612D01*
X53625Y57608D01*
X53783Y57450D01*
X53989Y57365D01*
X54211D01*
X54417Y57450D01*
X54575Y57608D01*
X54588Y57639D01*
X56765D01*
Y56620D01*
X58785D01*
Y59240D01*
X56765D01*
Y58221D01*
X54584D01*
X54575Y58242D01*
X54417Y58400D01*
X54211Y58485D01*
X53989D01*
X53783Y58400D01*
X53625Y58242D01*
X53616Y58221D01*
X40604D01*
X40493Y58198D01*
X40457Y58175D01*
X40311Y58235D01*
X40089D01*
X39893Y58154D01*
X39766Y58198D01*
Y58660D01*
X39893Y58718D01*
X39947Y58682D01*
X40063Y58659D01*
X40588D01*
X40704Y58682D01*
X40802Y58748D01*
X40868Y58847D01*
X40891Y58963D01*
Y59588D01*
X40868Y59704D01*
X40802Y59802D01*
X40704Y59868D01*
X40616Y59885D01*
Y60140D01*
X40830D01*
Y61810D01*
X39810D01*
Y60140D01*
X40035D01*
Y59885D01*
X39947Y59868D01*
X39848Y59802D01*
X39782Y59704D01*
X39759Y59588D01*
Y59180D01*
X39632Y59114D01*
X39591Y59142D01*
Y59588D01*
X39568Y59704D01*
X39502Y59802D01*
X39404Y59868D01*
X39288Y59891D01*
X38763D01*
X38646Y59868D01*
X38548Y59802D01*
X38482Y59704D01*
X38459Y59588D01*
Y58963D01*
X38482Y58847D01*
X38548Y58748D01*
X38646Y58682D01*
X38763Y58659D01*
X39173D01*
X39184Y58648D01*
Y57902D01*
X39164Y57888D01*
X39001Y57905D01*
X38907Y57968D01*
X38796Y57991D01*
X38105D01*
X38084Y58096D01*
X38009Y58209D01*
X37896Y58284D01*
X37763Y58311D01*
Y58434D01*
X37879Y58457D01*
X37977Y58523D01*
X38043Y58621D01*
X38066Y58737D01*
Y59262D01*
X38043Y59379D01*
X37977Y59477D01*
X37879Y59543D01*
X37763Y59566D01*
X37741D01*
Y59914D01*
X37767Y59925D01*
X37925Y60083D01*
X38010Y60289D01*
Y60511D01*
X37925Y60717D01*
X37767Y60875D01*
X37561Y60960D01*
X37339D01*
X37133Y60875D01*
X36975Y60717D01*
X36890Y60511D01*
Y60289D01*
X36975Y60083D01*
X37133Y59925D01*
X37159Y59914D01*
Y59566D01*
X37138D01*
X37021Y59543D01*
X36923Y59477D01*
X36857Y59379D01*
X36840Y59291D01*
X36200D01*
Y59425D01*
X36160Y59624D01*
X36048Y59793D01*
X35916Y59881D01*
X35880Y60025D01*
X35885Y60030D01*
X35948Y60124D01*
X35971Y60235D01*
Y63606D01*
X36048Y63657D01*
X36160Y63826D01*
X36200Y64025D01*
Y64875D01*
X36160Y65074D01*
X36113Y65145D01*
X36181Y65272D01*
X39561D01*
X39708Y65125D01*
X39914Y65040D01*
X40136D01*
X40342Y65125D01*
X40500Y65283D01*
X40585Y65489D01*
Y65711D01*
X40525Y65856D01*
X40622Y65953D01*
X40714Y65915D01*
X40936D01*
X41142Y66000D01*
X41300Y66158D01*
X41385Y66364D01*
Y66586D01*
X41300Y66792D01*
X41142Y66950D01*
X40936Y67035D01*
D02*
G37*
G36*
X58829Y66993D02*
X57902D01*
Y65776D01*
X58829D01*
Y66993D01*
D02*
G37*
G36*
X57648D02*
X56721D01*
Y65776D01*
X57648D01*
Y66993D01*
D02*
G37*
G36*
X32435Y64323D02*
X31997D01*
Y63485D01*
X32086Y63503D01*
X32269Y63626D01*
X32392Y63809D01*
X32435Y64025D01*
Y64323D01*
D02*
G37*
G36*
X28861Y63623D02*
X28377D01*
Y63089D01*
X28513D01*
X28646Y63116D01*
X28759Y63191D01*
X28834Y63304D01*
X28861Y63438D01*
Y63623D01*
D02*
G37*
G36*
X42784Y61854D02*
X42357D01*
Y61102D01*
X42784D01*
Y61854D01*
D02*
G37*
G36*
X42103D02*
X41676D01*
Y61102D01*
X42103D01*
Y61854D01*
D02*
G37*
G36*
X25511Y61460D02*
X25289D01*
X25083Y61375D01*
X24925Y61217D01*
X24840Y61011D01*
Y60789D01*
X24925Y60583D01*
X25083Y60425D01*
X25289Y60340D01*
X25511D01*
X25717Y60425D01*
X25875Y60583D01*
X25960Y60789D01*
Y61011D01*
X25875Y61217D01*
X25717Y61375D01*
X25511Y61460D01*
D02*
G37*
G36*
X22585Y61165D02*
X20565D01*
Y60141D01*
X19186D01*
X19175Y60167D01*
X19017Y60325D01*
X18811Y60410D01*
X18589D01*
X18383Y60325D01*
X18225Y60167D01*
X18140Y59961D01*
Y59739D01*
X18225Y59533D01*
X18383Y59375D01*
X18589Y59290D01*
X18811D01*
X19017Y59375D01*
X19175Y59533D01*
X19186Y59559D01*
X20565D01*
Y58545D01*
X22585D01*
Y61165D01*
D02*
G37*
G36*
X42570Y65311D02*
X41945D01*
X41829Y65288D01*
X41731Y65223D01*
X41665Y65124D01*
X41642Y65008D01*
Y64971D01*
X41609Y64964D01*
X41515Y64901D01*
X41070Y64455D01*
X41007Y64361D01*
X40984Y64250D01*
Y63910D01*
X40765D01*
Y62240D01*
X41785D01*
Y63910D01*
X41566D01*
Y64130D01*
X41707Y64271D01*
X41731Y64269D01*
X41829Y64203D01*
X41945Y64180D01*
X42570D01*
X42686Y64203D01*
X42785Y64269D01*
X42851Y64367D01*
X42859Y64409D01*
X47630D01*
X49234Y62805D01*
Y60410D01*
X47340D01*
Y58790D01*
X51760D01*
Y60410D01*
X49816D01*
Y62925D01*
X49793Y63036D01*
X49730Y63130D01*
X47955Y64905D01*
X47861Y64968D01*
X47750Y64991D01*
X42874D01*
Y65008D01*
X42851Y65124D01*
X42785Y65223D01*
X42686Y65288D01*
X42570Y65311D01*
D02*
G37*
G36*
X42784Y60848D02*
X42230D01*
X41676D01*
Y60096D01*
X41934D01*
Y59350D01*
X41957Y59239D01*
X42020Y59145D01*
X42445Y58720D01*
X42539Y58657D01*
X42650Y58634D01*
X42761Y58657D01*
X42855Y58720D01*
X42918Y58814D01*
X42941Y58925D01*
X42918Y59036D01*
X42855Y59130D01*
X42516Y59470D01*
Y60096D01*
X42784D01*
Y60848D01*
D02*
G37*
G36*
X26023Y57041D02*
X25498D01*
X25382Y57018D01*
X25284Y56952D01*
X25218Y56854D01*
X25195Y56738D01*
Y56716D01*
X24651D01*
X24542Y56825D01*
X24336Y56910D01*
X24114D01*
X23908Y56825D01*
X23750Y56667D01*
X23665Y56461D01*
Y56239D01*
X23750Y56033D01*
X23908Y55875D01*
X24114Y55790D01*
X24336D01*
X24542Y55875D01*
X24700Y56033D01*
X24742Y56134D01*
X25195D01*
Y56113D01*
X25218Y55996D01*
X25284Y55898D01*
X25382Y55832D01*
X25498Y55809D01*
X26023D01*
X26140Y55832D01*
X26238Y55898D01*
X26304Y55996D01*
X26327Y56113D01*
Y56738D01*
X26304Y56854D01*
X26238Y56952D01*
X26140Y57018D01*
X26023Y57041D01*
D02*
G37*
G36*
X20073Y56223D02*
X19589D01*
Y56037D01*
X19616Y55904D01*
X19691Y55791D01*
X19804Y55716D01*
X19937Y55689D01*
X20073D01*
Y56223D01*
D02*
G37*
G36*
X14060Y53460D02*
X8140D01*
Y52244D01*
X6210D01*
Y52735D01*
X790D01*
Y50315D01*
X6210D01*
Y51306D01*
X8140D01*
Y50090D01*
X14060D01*
Y51306D01*
X16384D01*
X16405Y51274D01*
X16504Y51209D01*
X16620Y51186D01*
X17145D01*
X17261Y51209D01*
X17359Y51274D01*
X17425Y51373D01*
X17448Y51489D01*
Y52114D01*
X17425Y52230D01*
X17359Y52328D01*
X17261Y52394D01*
X17145Y52417D01*
X16620D01*
X16504Y52394D01*
X16405Y52328D01*
X16349Y52244D01*
X14060D01*
Y53460D01*
D02*
G37*
G36*
X49898Y52573D02*
X49364D01*
Y52438D01*
X49391Y52304D01*
X49466Y52191D01*
X49579Y52116D01*
X49712Y52089D01*
X49898D01*
Y52573D01*
D02*
G37*
G36*
X26879Y52598D02*
X25925D01*
X24971D01*
Y52321D01*
X25634D01*
Y51250D01*
X25657Y51139D01*
X25720Y51045D01*
X25814Y50982D01*
X25925Y50959D01*
X26036Y50982D01*
X26130Y51045D01*
X26193Y51139D01*
X26216Y51250D01*
Y52321D01*
X26879D01*
Y52598D01*
D02*
G37*
G36*
X57011Y52760D02*
X56789D01*
X56583Y52675D01*
X56425Y52517D01*
X56340Y52311D01*
Y52089D01*
X56425Y51883D01*
X56583Y51725D01*
X56609Y51714D01*
Y51515D01*
X56496Y51493D01*
X56398Y51427D01*
X56332Y51329D01*
X56309Y51213D01*
Y50688D01*
X56332Y50571D01*
X56398Y50473D01*
X56496Y50407D01*
X56612Y50384D01*
X57237D01*
X57353Y50407D01*
X57452Y50473D01*
X57518Y50571D01*
X57541Y50688D01*
Y51213D01*
X57518Y51329D01*
X57452Y51427D01*
X57353Y51493D01*
X57237Y51516D01*
X57191D01*
Y51714D01*
X57217Y51725D01*
X57375Y51883D01*
X57460Y52089D01*
Y52311D01*
X57375Y52517D01*
X57217Y52675D01*
X57011Y52760D01*
D02*
G37*
G36*
X58935Y50610D02*
X57765D01*
Y49941D01*
X57535D01*
X57518Y50029D01*
X57452Y50127D01*
X57353Y50193D01*
X57237Y50216D01*
X56612D01*
X56496Y50193D01*
X56398Y50127D01*
X56332Y50029D01*
X56312Y49928D01*
X56058D01*
X56043Y50003D01*
X55977Y50102D01*
X55879Y50168D01*
X55763Y50191D01*
X55138D01*
X55021Y50168D01*
X54923Y50102D01*
X54857Y50003D01*
X54840Y49916D01*
X54585D01*
X54568Y50004D01*
X54502Y50102D01*
X54404Y50168D01*
X54288Y50191D01*
X53763D01*
X53646Y50168D01*
X53548Y50102D01*
X53482Y50004D01*
X53459Y49888D01*
Y49263D01*
X53482Y49146D01*
X53548Y49048D01*
X53646Y48982D01*
X53763Y48959D01*
X54288D01*
X54404Y48982D01*
X54502Y49048D01*
X54568Y49146D01*
X54591Y49263D01*
Y49334D01*
X54840D01*
X54857Y49246D01*
X54923Y49148D01*
X55021Y49082D01*
X55138Y49059D01*
Y48936D01*
X55004Y48909D01*
X54891Y48834D01*
X54816Y48721D01*
X54789Y48587D01*
Y48452D01*
X55450D01*
X56111D01*
Y48587D01*
X56084Y48721D01*
X56009Y48834D01*
X55896Y48909D01*
X55763Y48936D01*
Y49059D01*
X55879Y49082D01*
X55977Y49148D01*
X56043Y49246D01*
X56063Y49347D01*
X56317D01*
X56332Y49271D01*
X56398Y49173D01*
X56496Y49107D01*
X56612Y49084D01*
X57237D01*
X57353Y49107D01*
X57452Y49173D01*
X57518Y49271D01*
X57535Y49360D01*
X57765D01*
Y48740D01*
X58935D01*
Y50610D01*
D02*
G37*
G36*
X24761Y51035D02*
X24539D01*
X24333Y50950D01*
X24175Y50792D01*
X24090Y50586D01*
Y50364D01*
X24175Y50158D01*
X24333Y50000D01*
X24539Y49915D01*
X24761D01*
X24967Y50000D01*
X25125Y50158D01*
X25210Y50364D01*
Y50586D01*
X25125Y50792D01*
X24967Y50950D01*
X24761Y51035D01*
D02*
G37*
G36*
X60523Y50654D02*
X60021D01*
Y49802D01*
X60523D01*
Y50654D01*
D02*
G37*
G36*
X61279D02*
X60777D01*
Y49675D01*
Y48696D01*
X61279D01*
Y49384D01*
X62000D01*
X62111Y49407D01*
X62205Y49470D01*
X62268Y49564D01*
X62291Y49675D01*
X62268Y49786D01*
X62205Y49880D01*
X62111Y49943D01*
X62000Y49966D01*
X61279D01*
Y50654D01*
D02*
G37*
G36*
X60523Y49548D02*
X60021D01*
Y48696D01*
X60523D01*
Y49548D01*
D02*
G37*
G36*
X26311Y47935D02*
X26089D01*
X25883Y47850D01*
X25725Y47692D01*
X25704Y47641D01*
X19900D01*
X19900Y47642D01*
X19742Y47800D01*
X19536Y47885D01*
X19314D01*
X19108Y47800D01*
X18950Y47642D01*
X18865Y47436D01*
Y47214D01*
X18950Y47008D01*
X19108Y46850D01*
X19314Y46765D01*
X19536D01*
X19742Y46850D01*
X19900Y47008D01*
X19921Y47059D01*
X25725D01*
X25725Y47058D01*
X25883Y46900D01*
X25909Y46889D01*
Y46456D01*
X25932Y46344D01*
X25995Y46250D01*
X26941Y45304D01*
X27035Y45241D01*
X27085Y45231D01*
X27125Y45133D01*
X27283Y44975D01*
X27489Y44890D01*
X27711D01*
X27785Y44783D01*
Y44610D01*
X27697Y44592D01*
X27598Y44527D01*
X27532Y44428D01*
X27509Y44312D01*
Y43687D01*
X27532Y43571D01*
X27598Y43473D01*
X27697Y43407D01*
X27813Y43384D01*
X28338D01*
X28454Y43407D01*
X28552Y43473D01*
X28618Y43571D01*
X28641Y43687D01*
X28764D01*
X28791Y43554D01*
X28866Y43441D01*
X28979Y43365D01*
X29113Y43339D01*
X29163D01*
Y42525D01*
X29186Y42414D01*
X29249Y42320D01*
X29343Y42257D01*
X29441Y42237D01*
X29429Y42110D01*
X29339D01*
X29133Y42025D01*
X28975Y41867D01*
X28964Y41841D01*
X25161D01*
X25150Y41867D01*
X24992Y42025D01*
X24786Y42110D01*
X24564D01*
X24358Y42025D01*
X24200Y41867D01*
X24115Y41661D01*
Y41439D01*
X24200Y41233D01*
X24358Y41075D01*
X24564Y40990D01*
X24786D01*
X24992Y41075D01*
X25150Y41233D01*
X25161Y41259D01*
X28964D01*
X28975Y41233D01*
X29133Y41075D01*
X29339Y40990D01*
X29561D01*
X29767Y41075D01*
X29925Y41233D01*
X30010Y41439D01*
Y41661D01*
X29925Y41867D01*
X29767Y42025D01*
X29561Y42110D01*
X29479D01*
X29467Y42237D01*
X29565Y42257D01*
X29659Y42320D01*
X29722Y42414D01*
X29745Y42525D01*
Y43360D01*
X29771Y43365D01*
X29884Y43441D01*
X29959Y43554D01*
X29986Y43687D01*
Y43873D01*
X29375D01*
Y44000D01*
X29248D01*
Y44660D01*
X29113D01*
X28979Y44634D01*
X28866Y44558D01*
X28791Y44445D01*
X28764Y44312D01*
X28641D01*
X28618Y44428D01*
X28552Y44527D01*
X28454Y44592D01*
X28366Y44610D01*
Y44975D01*
X28354Y45033D01*
X28435Y45160D01*
X28999D01*
X29000Y45158D01*
X29158Y45000D01*
X29364Y44915D01*
X29586D01*
X29792Y45000D01*
X29950Y45158D01*
X30035Y45364D01*
Y45586D01*
X29950Y45792D01*
X29792Y45950D01*
X29586Y46035D01*
X29364D01*
X29158Y45950D01*
X29000Y45792D01*
X28979Y45741D01*
X28436D01*
X28354Y45868D01*
X28366Y45925D01*
Y46465D01*
X28454Y46482D01*
X28552Y46548D01*
X28618Y46647D01*
X28641Y46763D01*
Y47388D01*
X28618Y47504D01*
X28552Y47602D01*
X28454Y47668D01*
X28338Y47691D01*
X27813D01*
X27697Y47668D01*
X27598Y47602D01*
X27532Y47504D01*
X27509Y47388D01*
Y46763D01*
X27532Y46647D01*
X27598Y46548D01*
X27697Y46482D01*
X27785Y46465D01*
Y46117D01*
X27711Y46010D01*
X27489D01*
X27283Y45925D01*
X27212Y45854D01*
X26491Y46576D01*
Y46889D01*
X26517Y46900D01*
X26675Y47058D01*
X26760Y47264D01*
Y47486D01*
X26675Y47692D01*
X26517Y47850D01*
X26311Y47935D01*
D02*
G37*
G36*
X33838Y47986D02*
X33702D01*
Y47325D01*
Y46664D01*
X33838D01*
X33971Y46691D01*
X34084Y46766D01*
X34159Y46879D01*
X34186Y47013D01*
Y47035D01*
X34580D01*
X34595Y47020D01*
X34689Y46957D01*
X34800Y46934D01*
X34911Y46957D01*
X35005Y47020D01*
X35068Y47114D01*
X35091Y47225D01*
X35068Y47336D01*
X35005Y47430D01*
X34905Y47531D01*
X34811Y47594D01*
X34700Y47616D01*
X34186D01*
Y47638D01*
X34159Y47771D01*
X34084Y47884D01*
X33971Y47959D01*
X33838Y47986D01*
D02*
G37*
G36*
X56111Y48198D02*
X55450D01*
X54789D01*
Y48062D01*
X54816Y47929D01*
X54891Y47816D01*
X55004Y47741D01*
X55138Y47714D01*
X55159D01*
Y47125D01*
X55182Y47014D01*
X55245Y46920D01*
X55339Y46857D01*
X55450Y46834D01*
X55561Y46857D01*
X55655Y46920D01*
X55718Y47014D01*
X55741Y47125D01*
Y47714D01*
X55763D01*
X55896Y47741D01*
X56009Y47816D01*
X56084Y47929D01*
X56111Y48062D01*
Y48198D01*
D02*
G37*
G36*
X51961Y48198D02*
X51300D01*
X50639D01*
Y48062D01*
X50666Y47929D01*
X50741Y47816D01*
X50854Y47741D01*
X50988Y47714D01*
X51009D01*
Y47125D01*
X51032Y47014D01*
X51095Y46920D01*
X51189Y46857D01*
X51300Y46834D01*
X51411Y46857D01*
X51505Y46920D01*
X51568Y47014D01*
X51591Y47125D01*
Y47714D01*
X51613D01*
X51746Y47741D01*
X51859Y47816D01*
X51934Y47929D01*
X51961Y48062D01*
Y48198D01*
D02*
G37*
G36*
X8083Y47251D02*
X7897D01*
Y46767D01*
X8431D01*
Y46903D01*
X8404Y47036D01*
X8329Y47149D01*
X8216Y47224D01*
X8083Y47251D01*
D02*
G37*
G36*
X57086Y48935D02*
X56864D01*
X56658Y48850D01*
X56500Y48692D01*
X56415Y48486D01*
Y48264D01*
X56500Y48058D01*
X56658Y47900D01*
X56684Y47889D01*
Y47666D01*
X56662D01*
X56546Y47643D01*
X56448Y47577D01*
X56382Y47479D01*
X56359Y47363D01*
Y46838D01*
X56382Y46722D01*
X56448Y46623D01*
X56546Y46557D01*
X56662Y46534D01*
X57287D01*
X57403Y46557D01*
X57502Y46623D01*
X57568Y46722D01*
X57591Y46838D01*
Y47363D01*
X57568Y47479D01*
X57502Y47577D01*
X57403Y47643D01*
X57287Y47666D01*
X57266D01*
Y47889D01*
X57292Y47900D01*
X57450Y48058D01*
X57535Y48264D01*
Y48486D01*
X57450Y48692D01*
X57292Y48850D01*
X57086Y48935D01*
D02*
G37*
G36*
X12491Y48865D02*
X12269D01*
X12063Y48780D01*
X11905Y48622D01*
X11820Y48416D01*
Y48194D01*
X11905Y47988D01*
X12063Y47830D01*
X12089Y47819D01*
Y47541D01*
X11900D01*
X11779Y47517D01*
X11677Y47449D01*
X11608Y47346D01*
X11584Y47225D01*
Y46625D01*
X11608Y46504D01*
X11677Y46402D01*
X11779Y46333D01*
X11900Y46309D01*
X12800D01*
X12921Y46333D01*
X13024Y46402D01*
X13092Y46504D01*
X13116Y46625D01*
Y47225D01*
X13092Y47346D01*
X13024Y47449D01*
X12921Y47517D01*
X12800Y47541D01*
X12671D01*
Y47819D01*
X12697Y47830D01*
X12855Y47988D01*
X12940Y48194D01*
Y48416D01*
X12855Y48622D01*
X12697Y48780D01*
X12491Y48865D01*
D02*
G37*
G36*
X58985Y46710D02*
X57815D01*
Y46091D01*
X57585D01*
X57568Y46179D01*
X57502Y46277D01*
X57403Y46343D01*
X57287Y46366D01*
X56662D01*
X56546Y46343D01*
X56448Y46277D01*
X56382Y46179D01*
X56365Y46091D01*
X56110D01*
X56093Y46179D01*
X56027Y46277D01*
X55929Y46343D01*
X55813Y46366D01*
X55188D01*
X55072Y46343D01*
X54973Y46277D01*
X54907Y46179D01*
X54890Y46090D01*
X54635D01*
X54618Y46179D01*
X54552Y46277D01*
X54454Y46343D01*
X54338Y46366D01*
X53813D01*
X53697Y46343D01*
X53598Y46277D01*
X53532Y46179D01*
X53509Y46063D01*
Y45438D01*
X53532Y45321D01*
X53598Y45223D01*
X53697Y45157D01*
X53813Y45134D01*
X54338D01*
X54454Y45157D01*
X54552Y45223D01*
X54618Y45321D01*
X54641Y45438D01*
Y45509D01*
X54890D01*
X54907Y45421D01*
X54973Y45323D01*
X55072Y45257D01*
X55188Y45234D01*
Y45111D01*
X55054Y45084D01*
X54941Y45009D01*
X54866Y44896D01*
X54839Y44762D01*
Y44627D01*
X55500D01*
Y44500D01*
X55627D01*
Y43889D01*
X55813D01*
X55946Y43916D01*
X56059Y43991D01*
X56134Y44104D01*
X56155Y44209D01*
X56850D01*
X56961Y44232D01*
X57055Y44295D01*
X57118Y44389D01*
X57141Y44500D01*
X57118Y44611D01*
X57055Y44705D01*
X56961Y44768D01*
X56850Y44791D01*
X56155D01*
X56134Y44896D01*
X56059Y45009D01*
X55946Y45084D01*
X55813Y45111D01*
Y45234D01*
X55929Y45257D01*
X56027Y45323D01*
X56093Y45421D01*
X56110Y45509D01*
X56365D01*
X56382Y45422D01*
X56448Y45323D01*
X56546Y45257D01*
X56662Y45234D01*
X57287D01*
X57403Y45257D01*
X57502Y45323D01*
X57568Y45422D01*
X57585Y45509D01*
X57815D01*
Y44840D01*
X58985D01*
Y46710D01*
D02*
G37*
G36*
X16675Y47241D02*
X15775D01*
X15654Y47217D01*
X15552Y47148D01*
X15483Y47046D01*
X15459Y46925D01*
Y46325D01*
X15483Y46204D01*
X15552Y46102D01*
X15654Y46033D01*
X15775Y46009D01*
X16675D01*
X16796Y46033D01*
X16899Y46102D01*
X16967Y46204D01*
X16991Y46325D01*
Y46359D01*
X17340D01*
X17357Y46271D01*
X17423Y46173D01*
X17521Y46107D01*
X17638Y46084D01*
X18263D01*
X18379Y46107D01*
X18477Y46173D01*
X18543Y46271D01*
X18566Y46387D01*
Y46912D01*
X18543Y47028D01*
X18477Y47127D01*
X18379Y47193D01*
X18263Y47216D01*
X17638D01*
X17521Y47193D01*
X17423Y47127D01*
X17357Y47028D01*
X17340Y46940D01*
X16988D01*
X16967Y47046D01*
X16899Y47148D01*
X16796Y47217D01*
X16675Y47241D01*
D02*
G37*
G36*
X60573Y46754D02*
X60071D01*
Y45902D01*
X60573D01*
Y46754D01*
D02*
G37*
G36*
X5880Y45810D02*
X5257D01*
Y45227D01*
X6573D01*
X6566Y45284D01*
X6495Y45455D01*
X6382Y45602D01*
X6235Y45715D01*
X6064Y45786D01*
X5880Y45810D01*
D02*
G37*
G36*
X5003D02*
X4380D01*
X4196Y45786D01*
X4025Y45715D01*
X3878Y45602D01*
X3765Y45455D01*
X3694Y45284D01*
X3687Y45227D01*
X5003D01*
Y45810D01*
D02*
G37*
G36*
X1750Y46681D02*
X1639Y46658D01*
X1545Y46595D01*
X1482Y46501D01*
X1459Y46390D01*
Y45810D01*
X1350D01*
X1166Y45786D01*
X995Y45715D01*
X848Y45602D01*
X735Y45455D01*
X664Y45284D01*
X657Y45227D01*
X2843D01*
X2836Y45284D01*
X2765Y45455D01*
X2652Y45602D01*
X2505Y45715D01*
X2334Y45786D01*
X2150Y45810D01*
X2041D01*
Y46390D01*
X2018Y46501D01*
X1955Y46595D01*
X1861Y46658D01*
X1750Y46681D01*
D02*
G37*
G36*
X33813Y46286D02*
X33677D01*
Y45625D01*
Y44964D01*
X33813D01*
X33946Y44991D01*
X34059Y45066D01*
X34134Y45179D01*
X34161Y45313D01*
Y45334D01*
X34825D01*
X34936Y45357D01*
X35030Y45420D01*
X35093Y45514D01*
X35116Y45625D01*
X35093Y45736D01*
X35030Y45831D01*
X34936Y45894D01*
X34825Y45916D01*
X34161D01*
Y45938D01*
X34134Y46071D01*
X34059Y46184D01*
X33946Y46259D01*
X33813Y46286D01*
D02*
G37*
G36*
X61329Y46754D02*
X60827D01*
Y45775D01*
Y44796D01*
X61329D01*
Y45509D01*
X62000D01*
X62111Y45532D01*
X62205Y45595D01*
X62268Y45689D01*
X62291Y45800D01*
X62268Y45911D01*
X62205Y46005D01*
X62111Y46068D01*
X62000Y46091D01*
X61329D01*
Y46754D01*
D02*
G37*
G36*
X60573Y45648D02*
X60071D01*
Y44796D01*
X60573D01*
Y45648D01*
D02*
G37*
G36*
X12800Y45641D02*
X11900D01*
X11779Y45617D01*
X11677Y45549D01*
X11608Y45446D01*
X11584Y45325D01*
Y44725D01*
X11608Y44604D01*
X11677Y44501D01*
X11779Y44433D01*
X11900Y44409D01*
X12800D01*
X12921Y44433D01*
X13024Y44501D01*
X13092Y44604D01*
X13116Y44725D01*
Y44778D01*
X13366D01*
X13382Y44696D01*
X13448Y44598D01*
X13547Y44532D01*
X13663Y44509D01*
X14288D01*
X14404Y44532D01*
X14502Y44598D01*
X14568Y44696D01*
X14591Y44812D01*
Y45337D01*
X14568Y45453D01*
X14502Y45552D01*
X14404Y45618D01*
X14288Y45641D01*
X13663D01*
X13547Y45618D01*
X13448Y45552D01*
X13382Y45453D01*
X13364Y45359D01*
X13109D01*
X13092Y45446D01*
X13024Y45549D01*
X12921Y45617D01*
X12800Y45641D01*
D02*
G37*
G36*
X2843Y44973D02*
X1877D01*
Y44390D01*
X2150D01*
X2334Y44414D01*
X2505Y44485D01*
X2652Y44598D01*
X2765Y44745D01*
X2836Y44916D01*
X2843Y44973D01*
D02*
G37*
G36*
X1623D02*
X657D01*
X664Y44916D01*
X735Y44745D01*
X848Y44598D01*
X995Y44485D01*
X1166Y44414D01*
X1350Y44390D01*
X1623D01*
Y44973D01*
D02*
G37*
G36*
X22213Y44466D02*
X21688D01*
X21572Y44443D01*
X21473Y44377D01*
X21407Y44279D01*
X21384Y44163D01*
Y44137D01*
X20986D01*
X20975Y44163D01*
X20817Y44321D01*
X20611Y44406D01*
X20389D01*
X20183Y44321D01*
X20025Y44163D01*
X19940Y43957D01*
Y43735D01*
X20025Y43529D01*
X20183Y43371D01*
X20389Y43286D01*
X20611D01*
X20817Y43371D01*
X20975Y43529D01*
X20986Y43555D01*
X21384D01*
Y43538D01*
X21407Y43422D01*
X21473Y43323D01*
X21572Y43257D01*
X21688Y43234D01*
X22213D01*
X22329Y43257D01*
X22427Y43323D01*
X22493Y43422D01*
X22516Y43538D01*
Y44163D01*
X22493Y44279D01*
X22427Y44377D01*
X22329Y44443D01*
X22213Y44466D01*
D02*
G37*
G36*
X29638Y44660D02*
X29502D01*
Y44127D01*
X29986D01*
Y44312D01*
X29959Y44445D01*
X29884Y44558D01*
X29771Y44634D01*
X29638Y44660D01*
D02*
G37*
G36*
X51248Y44373D02*
X50714D01*
Y44237D01*
X50741Y44104D01*
X50816Y43991D01*
X50929Y43916D01*
X51062Y43889D01*
X51248D01*
Y44373D01*
D02*
G37*
G36*
X55373Y44373D02*
X54839D01*
Y44237D01*
X54866Y44104D01*
X54941Y43991D01*
X55054Y43916D01*
X55188Y43889D01*
X55373D01*
Y44373D01*
D02*
G37*
G36*
X33813Y44636D02*
X33677D01*
Y43975D01*
Y43314D01*
X33813D01*
X33946Y43341D01*
X34059Y43416D01*
X34134Y43529D01*
X34161Y43663D01*
Y43684D01*
X34800D01*
X34911Y43707D01*
X35005Y43770D01*
X35068Y43864D01*
X35091Y43975D01*
X35068Y44086D01*
X35005Y44180D01*
X34911Y44243D01*
X34800Y44266D01*
X34161D01*
Y44288D01*
X34134Y44421D01*
X34059Y44534D01*
X33946Y44609D01*
X33813Y44636D01*
D02*
G37*
G36*
X22736Y45985D02*
X22514D01*
X22308Y45900D01*
X22150Y45742D01*
X22065Y45536D01*
Y45314D01*
X22150Y45108D01*
X22308Y44950D01*
X22514Y44865D01*
X22736D01*
X22763Y44876D01*
X22959Y44680D01*
Y44460D01*
X22872Y44443D01*
X22773Y44377D01*
X22707Y44279D01*
X22684Y44163D01*
Y43538D01*
X22707Y43422D01*
X22773Y43323D01*
X22872Y43257D01*
X22988Y43234D01*
X23513D01*
X23629Y43257D01*
X23727Y43323D01*
X23793Y43422D01*
X23816Y43538D01*
Y44163D01*
X23793Y44279D01*
X23727Y44377D01*
X23629Y44443D01*
X23541Y44460D01*
Y44800D01*
X23519Y44911D01*
X23456Y45005D01*
X23174Y45287D01*
X23185Y45314D01*
Y45536D01*
X23100Y45742D01*
X22942Y45900D01*
X22736Y45985D01*
D02*
G37*
G36*
X40361Y43510D02*
X40139D01*
X39933Y43425D01*
X39775Y43267D01*
X39738Y43178D01*
X35756D01*
X35750Y43192D01*
X35592Y43350D01*
X35386Y43435D01*
X35164D01*
X34958Y43350D01*
X34800Y43192D01*
X34715Y42986D01*
Y42764D01*
X34800Y42558D01*
X34958Y42400D01*
X35164Y42315D01*
X35386D01*
X35592Y42400D01*
X35750Y42558D01*
X35766Y42597D01*
X39811D01*
X39933Y42475D01*
X40139Y42390D01*
X40361D01*
X40567Y42475D01*
X40725Y42633D01*
X40810Y42839D01*
Y43061D01*
X40725Y43267D01*
X40567Y43425D01*
X40361Y43510D01*
D02*
G37*
G36*
X40861Y41010D02*
X40639D01*
X40433Y40925D01*
X40275Y40767D01*
X40190Y40561D01*
Y40339D01*
X40275Y40133D01*
X40433Y39975D01*
X40459Y39964D01*
Y39355D01*
X40482Y39244D01*
X40519Y39187D01*
X40476Y39081D01*
X40455Y39060D01*
X39666D01*
Y39914D01*
X39692Y39925D01*
X39850Y40083D01*
X39935Y40289D01*
Y40511D01*
X39850Y40717D01*
X39692Y40875D01*
X39486Y40960D01*
X39264D01*
X39058Y40875D01*
X38900Y40717D01*
X38815Y40511D01*
Y40289D01*
X38900Y40083D01*
X39058Y39925D01*
X39084Y39914D01*
Y39060D01*
X38505D01*
Y36990D01*
X40575D01*
Y38939D01*
X40702Y38992D01*
X41172Y38522D01*
X41116Y38424D01*
X41045Y38161D01*
Y37889D01*
X41116Y37626D01*
X41252Y37389D01*
X41444Y37197D01*
X41681Y37061D01*
X41944Y36990D01*
X42216D01*
X42479Y37061D01*
X42716Y37197D01*
X42908Y37389D01*
X43044Y37626D01*
X43115Y37889D01*
Y38161D01*
X43044Y38424D01*
X42908Y38660D01*
X42716Y38853D01*
X42479Y38989D01*
X42216Y39060D01*
X41944D01*
X41681Y38989D01*
X41583Y38933D01*
X41041Y39475D01*
Y39964D01*
X41067Y39975D01*
X41225Y40133D01*
X41310Y40339D01*
Y40561D01*
X41225Y40767D01*
X41067Y40925D01*
X40861Y41010D01*
D02*
G37*
G36*
X18561Y39548D02*
X17900D01*
X17239D01*
Y39412D01*
X17266Y39279D01*
X17341Y39166D01*
X17454Y39091D01*
X17588Y39064D01*
X17609D01*
Y38475D01*
X17632Y38364D01*
X17695Y38270D01*
X17789Y38207D01*
X17900Y38184D01*
X18011Y38207D01*
X18105Y38270D01*
X18168Y38364D01*
X18191Y38475D01*
Y39064D01*
X18213D01*
X18346Y39091D01*
X18459Y39166D01*
X18534Y39279D01*
X18561Y39412D01*
Y39548D01*
D02*
G37*
G36*
X55811Y42985D02*
X55589D01*
X55383Y42900D01*
X55225Y42742D01*
X55140Y42536D01*
Y42314D01*
X55225Y42108D01*
X55383Y41950D01*
X55409Y41939D01*
Y41535D01*
X55321Y41518D01*
X55223Y41452D01*
X55157Y41354D01*
X55134Y41238D01*
Y40720D01*
X54575Y40160D01*
X54512Y40066D01*
X54489Y39955D01*
Y39019D01*
X54381Y38989D01*
X54144Y38853D01*
X53952Y38660D01*
X53816Y38424D01*
X53745Y38161D01*
Y37889D01*
X53816Y37626D01*
X53952Y37389D01*
X54144Y37197D01*
X54381Y37061D01*
X54644Y36990D01*
X54916D01*
X55179Y37061D01*
X55416Y37197D01*
X55608Y37389D01*
X55744Y37626D01*
X55815Y37889D01*
Y38161D01*
X55744Y38424D01*
X55608Y38660D01*
X55416Y38853D01*
X55179Y38989D01*
X55071Y39019D01*
Y39835D01*
X55545Y40309D01*
X55963D01*
X56079Y40332D01*
X56177Y40398D01*
X56243Y40496D01*
X56266Y40613D01*
X56389D01*
X56416Y40479D01*
X56491Y40366D01*
X56604Y40291D01*
X56738Y40264D01*
X56963D01*
Y39046D01*
X56904Y39030D01*
X56657Y38888D01*
X56457Y38688D01*
X56315Y38441D01*
X56241Y38167D01*
Y38152D01*
X58399D01*
Y38167D01*
X58325Y38441D01*
X58183Y38688D01*
X57983Y38888D01*
X57736Y39030D01*
X57544Y39082D01*
Y40420D01*
X57584Y40479D01*
X57611Y40613D01*
Y40634D01*
X58300D01*
X58411Y40657D01*
X58505Y40720D01*
X58568Y40814D01*
X58591Y40925D01*
X58568Y41036D01*
X58505Y41130D01*
X58411Y41193D01*
X58300Y41216D01*
X57611D01*
Y41238D01*
X57584Y41371D01*
X57509Y41484D01*
X57396Y41559D01*
X57263Y41586D01*
X57127D01*
Y40925D01*
X56873D01*
Y41586D01*
X56738D01*
X56604Y41559D01*
X56491Y41484D01*
X56416Y41371D01*
X56389Y41238D01*
X56266D01*
X56243Y41354D01*
X56177Y41452D01*
X56079Y41518D01*
X55991Y41535D01*
Y41939D01*
X56017Y41950D01*
X56175Y42108D01*
X56260Y42314D01*
Y42536D01*
X56175Y42742D01*
X56017Y42900D01*
X55811Y42985D01*
D02*
G37*
G36*
X72805Y38763D02*
X71327D01*
Y37877D01*
X73263D01*
Y38305D01*
X73228Y38480D01*
X73129Y38629D01*
X72980Y38728D01*
X72805Y38763D01*
D02*
G37*
G36*
X71073D02*
X69595D01*
X69420Y38728D01*
X69271Y38629D01*
X69172Y38480D01*
X69137Y38305D01*
Y37877D01*
X71073D01*
Y38763D01*
D02*
G37*
G36*
X49411Y41110D02*
X49189D01*
X48983Y41025D01*
X48825Y40867D01*
X48740Y40661D01*
Y40439D01*
X48825Y40233D01*
X48983Y40075D01*
X49189Y39990D01*
X49411D01*
X49543Y40045D01*
X51252Y38336D01*
X51205Y38161D01*
Y37889D01*
X51276Y37626D01*
X51412Y37389D01*
X51604Y37197D01*
X51841Y37061D01*
X52104Y36990D01*
X52376D01*
X52639Y37061D01*
X52876Y37197D01*
X53068Y37389D01*
X53204Y37626D01*
X53275Y37889D01*
Y38161D01*
X53204Y38424D01*
X53068Y38660D01*
X52876Y38853D01*
X52639Y38989D01*
X52376Y39060D01*
X52104D01*
X51841Y38989D01*
X51604Y38853D01*
X51581Y38829D01*
X49860Y40550D01*
Y40661D01*
X49775Y40867D01*
X49617Y41025D01*
X49411Y41110D01*
D02*
G37*
G36*
X47161Y41060D02*
X46939D01*
X46733Y40975D01*
X46575Y40817D01*
X46490Y40611D01*
Y40389D01*
X46575Y40183D01*
X46733Y40025D01*
X46939Y39940D01*
X47161D01*
X47250Y39977D01*
X48760Y38467D01*
X48736Y38424D01*
X48665Y38161D01*
Y37889D01*
X48736Y37626D01*
X48872Y37389D01*
X49064Y37197D01*
X49301Y37061D01*
X49564Y36990D01*
X49836D01*
X50099Y37061D01*
X50336Y37197D01*
X50528Y37389D01*
X50664Y37626D01*
X50735Y37889D01*
Y38161D01*
X50664Y38424D01*
X50528Y38660D01*
X50336Y38853D01*
X50099Y38989D01*
X49836Y39060D01*
X49564D01*
X49301Y38989D01*
X49147Y38901D01*
X47610Y40438D01*
Y40611D01*
X47525Y40817D01*
X47367Y40975D01*
X47161Y41060D01*
D02*
G37*
G36*
X44686Y41010D02*
X44464D01*
X44258Y40925D01*
X44100Y40767D01*
X44015Y40561D01*
Y40339D01*
X44100Y40133D01*
X44258Y39975D01*
X44464Y39890D01*
X44686D01*
X44770Y39924D01*
X46223Y38471D01*
X46196Y38424D01*
X46125Y38161D01*
Y37889D01*
X46196Y37626D01*
X46332Y37389D01*
X46524Y37197D01*
X46761Y37061D01*
X47024Y36990D01*
X47296D01*
X47559Y37061D01*
X47796Y37197D01*
X47988Y37389D01*
X48124Y37626D01*
X48195Y37889D01*
Y38161D01*
X48124Y38424D01*
X47988Y38660D01*
X47796Y38853D01*
X47559Y38989D01*
X47296Y39060D01*
X47024D01*
X46761Y38989D01*
X46612Y38904D01*
X45135Y40381D01*
Y40561D01*
X45050Y40767D01*
X44892Y40925D01*
X44686Y41010D01*
D02*
G37*
G36*
X43261Y41035D02*
X43039D01*
X42833Y40950D01*
X42675Y40792D01*
X42590Y40586D01*
Y40364D01*
X42675Y40158D01*
X42833Y40000D01*
X42859Y39989D01*
Y39495D01*
X42882Y39384D01*
X42945Y39290D01*
X43712Y38522D01*
X43656Y38424D01*
X43585Y38161D01*
Y37889D01*
X43656Y37626D01*
X43792Y37389D01*
X43984Y37197D01*
X44221Y37061D01*
X44484Y36990D01*
X44756D01*
X45019Y37061D01*
X45256Y37197D01*
X45448Y37389D01*
X45584Y37626D01*
X45655Y37889D01*
Y38161D01*
X45584Y38424D01*
X45448Y38660D01*
X45256Y38853D01*
X45019Y38989D01*
X44756Y39060D01*
X44484D01*
X44221Y38989D01*
X44123Y38933D01*
X43441Y39615D01*
Y39989D01*
X43467Y40000D01*
X43625Y40158D01*
X43710Y40364D01*
Y40586D01*
X43625Y40792D01*
X43467Y40950D01*
X43261Y41035D01*
D02*
G37*
G36*
X58399Y37898D02*
X57447D01*
Y36946D01*
X57462D01*
X57736Y37020D01*
X57983Y37162D01*
X58183Y37362D01*
X58325Y37609D01*
X58399Y37883D01*
Y37898D01*
D02*
G37*
G36*
X57193D02*
X56241D01*
Y37883D01*
X56315Y37609D01*
X56457Y37362D01*
X56657Y37162D01*
X56904Y37020D01*
X57178Y36946D01*
X57193D01*
Y37898D01*
D02*
G37*
G36*
X1623Y37160D02*
X1350D01*
X1166Y37136D01*
X995Y37065D01*
X848Y36952D01*
X735Y36805D01*
X664Y36634D01*
X657Y36577D01*
X1623D01*
Y37160D01*
D02*
G37*
G36*
X25748Y37761D02*
X25612D01*
X25479Y37734D01*
X25366Y37659D01*
X25291Y37546D01*
X25264Y37412D01*
Y37391D01*
X24575D01*
X24464Y37368D01*
X24370Y37305D01*
X24307Y37211D01*
X24284Y37100D01*
X24307Y36989D01*
X24370Y36895D01*
X24464Y36832D01*
X24575Y36809D01*
X25264D01*
Y36787D01*
X25291Y36654D01*
X25366Y36541D01*
X25479Y36466D01*
X25612Y36439D01*
X25748D01*
Y37100D01*
Y37761D01*
D02*
G37*
G36*
X6573Y36323D02*
X5257D01*
Y35740D01*
X5880D01*
X6064Y35764D01*
X6235Y35835D01*
X6382Y35948D01*
X6495Y36095D01*
X6566Y36266D01*
X6573Y36323D01*
D02*
G37*
G36*
X73263Y37623D02*
X71200D01*
X69137D01*
Y37195D01*
X69172Y37020D01*
X69271Y36871D01*
X69420Y36772D01*
X69595Y36737D01*
X70809D01*
Y36000D01*
X70832Y35889D01*
X70895Y35795D01*
X70989Y35732D01*
X71100Y35709D01*
X71211Y35732D01*
X71305Y35795D01*
X71368Y35889D01*
X71391Y36000D01*
Y36737D01*
X72805D01*
X72980Y36772D01*
X73129Y36871D01*
X73228Y37020D01*
X73263Y37195D01*
Y37623D01*
D02*
G37*
G36*
X65250Y36167D02*
X62150D01*
X62010Y36139D01*
X61890Y36060D01*
X61811Y35940D01*
X61783Y35800D01*
Y35741D01*
X60125D01*
X60014Y35718D01*
X59920Y35655D01*
X53155Y28891D01*
X49736D01*
X49725Y28917D01*
X49567Y29075D01*
X49361Y29160D01*
X49139D01*
X48933Y29075D01*
X48775Y28917D01*
X48690Y28711D01*
Y28489D01*
X48775Y28283D01*
X48933Y28125D01*
X49139Y28040D01*
X49361D01*
X49567Y28125D01*
X49725Y28283D01*
X49736Y28309D01*
X53275D01*
X53386Y28332D01*
X53480Y28395D01*
X60245Y35159D01*
X61783D01*
Y35100D01*
X61811Y34960D01*
X61890Y34840D01*
X62010Y34761D01*
X62150Y34733D01*
X65250D01*
X65390Y34761D01*
X65510Y34840D01*
X65589Y34960D01*
X65617Y35100D01*
Y35800D01*
X65589Y35940D01*
X65510Y36060D01*
X65390Y36139D01*
X65250Y36167D01*
D02*
G37*
G36*
X2843Y36323D02*
X657D01*
X664Y36266D01*
X735Y36095D01*
X848Y35948D01*
X995Y35835D01*
X1166Y35764D01*
X1349Y35740D01*
Y33430D01*
X1372Y33319D01*
X1435Y33225D01*
X1529Y33162D01*
X1640Y33139D01*
X1751Y33162D01*
X1845Y33225D01*
X1908Y33319D01*
X1931Y33430D01*
Y35740D01*
X2150D01*
X2334Y35764D01*
X2505Y35835D01*
X2652Y35948D01*
X2765Y36095D01*
X2836Y36266D01*
X2843Y36323D01*
D02*
G37*
G36*
X3531Y33303D02*
X2997D01*
Y32819D01*
X3182D01*
X3316Y32846D01*
X3429Y32921D01*
X3504Y33034D01*
X3531Y33168D01*
Y33303D01*
D02*
G37*
G36*
X2743D02*
X2209D01*
Y33168D01*
X2236Y33034D01*
X2311Y32921D01*
X2424Y32846D01*
X2557Y32819D01*
X2743D01*
Y33303D01*
D02*
G37*
G36*
X65250Y34167D02*
X62150D01*
X62010Y34139D01*
X61890Y34060D01*
X61811Y33940D01*
X61783Y33800D01*
Y33741D01*
X59675D01*
X59564Y33718D01*
X59470Y33655D01*
X52695Y26880D01*
X52632Y26786D01*
X52609Y26675D01*
Y25936D01*
X52583Y25925D01*
X52425Y25767D01*
X52425Y25766D01*
X43796D01*
X43775Y25817D01*
X43617Y25975D01*
X43411Y26060D01*
X43189D01*
X42983Y25975D01*
X42825Y25817D01*
X42740Y25611D01*
Y25389D01*
X42825Y25183D01*
X42983Y25025D01*
X42984Y25025D01*
Y17646D01*
X42933Y17625D01*
X42775Y17467D01*
X42690Y17261D01*
Y17039D01*
X42775Y16833D01*
X42933Y16675D01*
X42959Y16664D01*
Y16495D01*
X42982Y16384D01*
X43045Y16290D01*
X43712Y15622D01*
X43656Y15524D01*
X43585Y15261D01*
Y14989D01*
X43656Y14726D01*
X43792Y14489D01*
X43984Y14297D01*
X44221Y14161D01*
X44484Y14090D01*
X44756D01*
X45019Y14161D01*
X45256Y14297D01*
X45448Y14489D01*
X45584Y14726D01*
X45655Y14989D01*
Y15261D01*
X45584Y15524D01*
X45448Y15760D01*
X45256Y15953D01*
X45019Y16089D01*
X44756Y16160D01*
X44484D01*
X44221Y16089D01*
X44123Y16033D01*
X43603Y16553D01*
X43597Y16574D01*
X43607Y16715D01*
X43725Y16833D01*
X43810Y17039D01*
Y17261D01*
X43725Y17467D01*
X43567Y17625D01*
X43566Y17625D01*
Y25004D01*
X43617Y25025D01*
X43775Y25183D01*
X43775Y25184D01*
X52404D01*
X52425Y25133D01*
X52583Y24975D01*
X52789Y24890D01*
X53011D01*
X53217Y24975D01*
X53375Y25133D01*
X53460Y25339D01*
Y25561D01*
X53375Y25767D01*
X53217Y25925D01*
X53191Y25936D01*
Y26555D01*
X59795Y33159D01*
X61783D01*
Y33100D01*
X61811Y32960D01*
X61890Y32840D01*
X62010Y32761D01*
X62150Y32733D01*
X65250D01*
X65390Y32761D01*
X65510Y32840D01*
X65589Y32960D01*
X65617Y33100D01*
Y33800D01*
X65589Y33940D01*
X65510Y34060D01*
X65390Y34139D01*
X65250Y34167D01*
D02*
G37*
G36*
X27488Y34841D02*
X26863D01*
X26747Y34818D01*
X26648Y34752D01*
X26582Y34653D01*
X26559Y34537D01*
Y34012D01*
X26582Y33896D01*
X26648Y33798D01*
X26747Y33732D01*
X26787Y33724D01*
Y33451D01*
X26746Y33443D01*
X26648Y33377D01*
X26582Y33279D01*
X26559Y33163D01*
Y32638D01*
X26582Y32521D01*
X26648Y32423D01*
X26746Y32357D01*
X26862Y32334D01*
X27487D01*
X27604Y32357D01*
X27702Y32423D01*
X27768Y32521D01*
X27791Y32638D01*
Y33163D01*
X27768Y33279D01*
X27702Y33377D01*
X27604Y33443D01*
X27563Y33451D01*
Y33724D01*
X27604Y33732D01*
X27702Y33798D01*
X27768Y33896D01*
X27791Y34012D01*
Y34537D01*
X27768Y34653D01*
X27702Y34752D01*
X27604Y34818D01*
X27488Y34841D01*
D02*
G37*
G36*
X40736Y31960D02*
X40514D01*
X40308Y31875D01*
X40150Y31717D01*
X40139Y31691D01*
X35761D01*
X35750Y31717D01*
X35592Y31875D01*
X35386Y31960D01*
X35164D01*
X34958Y31875D01*
X34800Y31717D01*
X34715Y31511D01*
Y31289D01*
X34800Y31083D01*
X34958Y30925D01*
X35164Y30840D01*
X35386D01*
X35592Y30925D01*
X35750Y31083D01*
X35761Y31109D01*
X40139D01*
X40150Y31083D01*
X40308Y30925D01*
X40514Y30840D01*
X40736D01*
X40942Y30925D01*
X41100Y31083D01*
X41185Y31289D01*
Y31511D01*
X41100Y31717D01*
X40942Y31875D01*
X40736Y31960D01*
D02*
G37*
G36*
X65250Y32167D02*
X62150D01*
X62010Y32139D01*
X61890Y32060D01*
X61811Y31940D01*
X61783Y31800D01*
Y31676D01*
X60566D01*
X60555Y31702D01*
X60397Y31860D01*
X60191Y31945D01*
X59969D01*
X59763Y31860D01*
X59605Y31702D01*
X59520Y31497D01*
Y31274D01*
X59605Y31068D01*
X59763Y30910D01*
X59969Y30825D01*
X60191D01*
X60397Y30910D01*
X60555Y31068D01*
X60566Y31095D01*
X61784D01*
X61811Y30960D01*
X61890Y30840D01*
X62010Y30761D01*
X62150Y30733D01*
X65250D01*
X65390Y30761D01*
X65510Y30840D01*
X65589Y30960D01*
X65617Y31100D01*
Y31800D01*
X65589Y31940D01*
X65510Y32060D01*
X65390Y32139D01*
X65250Y32167D01*
D02*
G37*
G36*
X16436Y31735D02*
X16214D01*
X16062Y31672D01*
X15934Y31685D01*
X15934Y31685D01*
X15934Y31685D01*
X14040D01*
Y30815D01*
Y30165D01*
Y29515D01*
Y28865D01*
Y27615D01*
X11916D01*
Y27637D01*
X11893Y27753D01*
X11827Y27852D01*
X11729Y27918D01*
X11641Y27935D01*
Y28540D01*
X11790D01*
Y29560D01*
X10910D01*
Y28951D01*
X10794Y28835D01*
X9503D01*
X9500Y28842D01*
X9342Y29000D01*
X9136Y29085D01*
X8914D01*
X8708Y29000D01*
X8550Y28842D01*
X8465Y28636D01*
Y28414D01*
X8550Y28208D01*
X8708Y28050D01*
X8914Y27965D01*
X9136D01*
X9342Y28050D01*
X9500Y28208D01*
X9519Y28254D01*
X10914D01*
X10932Y28257D01*
X11059Y28157D01*
Y27935D01*
X10971Y27918D01*
X10873Y27852D01*
X10807Y27753D01*
X10784Y27637D01*
X10661D01*
X10634Y27771D01*
X10559Y27884D01*
X10446Y27959D01*
X10312Y27986D01*
X10177D01*
Y27325D01*
X10050D01*
D01*
X10177D01*
Y26664D01*
X10312D01*
X10446Y26691D01*
X10559Y26766D01*
X10634Y26879D01*
X10661Y27012D01*
X10784D01*
X10807Y26896D01*
X10873Y26798D01*
X10971Y26732D01*
X11087Y26709D01*
X11612D01*
X11729Y26732D01*
X11827Y26798D01*
X11893Y26896D01*
X11916Y27012D01*
Y27034D01*
X14040D01*
Y26915D01*
X15934D01*
Y27920D01*
X16052Y27983D01*
X16062Y27981D01*
X16120Y27895D01*
X16870Y27145D01*
X16964Y27082D01*
X17075Y27059D01*
X19118D01*
X19118Y27059D01*
X19916D01*
Y26915D01*
X21810D01*
Y27565D01*
Y28334D01*
X22055D01*
X22176Y28213D01*
X22165Y28186D01*
Y27964D01*
X22250Y27758D01*
X22408Y27600D01*
X22434Y27589D01*
Y21869D01*
X22325Y21760D01*
X22139D01*
X21933Y21675D01*
X21775Y21517D01*
X21690Y21311D01*
Y21089D01*
X21775Y20883D01*
X21933Y20725D01*
X22139Y20640D01*
X22361D01*
X22567Y20725D01*
X22725Y20883D01*
X22810Y21089D01*
Y21311D01*
X22777Y21390D01*
X22930Y21543D01*
X22993Y21637D01*
X23016Y21749D01*
Y27589D01*
X23042Y27600D01*
X23200Y27758D01*
X23285Y27964D01*
Y28186D01*
X23200Y28392D01*
X23042Y28550D01*
X22836Y28635D01*
X22614D01*
X22587Y28624D01*
X22380Y28830D01*
X22303Y28882D01*
X22304Y28947D01*
X22324Y29009D01*
X23314D01*
X23325Y28983D01*
X23483Y28825D01*
X23689Y28740D01*
X23911D01*
X24117Y28825D01*
X24275Y28983D01*
X24360Y29189D01*
Y29411D01*
X24275Y29617D01*
X24117Y29775D01*
X23911Y29860D01*
X23689D01*
X23483Y29775D01*
X23325Y29617D01*
X23314Y29591D01*
X21810D01*
Y30309D01*
X24314D01*
X24325Y30283D01*
X24483Y30125D01*
X24689Y30040D01*
X24911D01*
X25117Y30125D01*
X25275Y30283D01*
X25360Y30489D01*
Y30711D01*
X25275Y30917D01*
X25117Y31075D01*
X24911Y31160D01*
X24689D01*
X24483Y31075D01*
X24325Y30917D01*
X24314Y30891D01*
X21854D01*
Y31123D01*
X20863D01*
X19872D01*
Y30771D01*
X19916D01*
Y30241D01*
X19061D01*
X19050Y30267D01*
X18892Y30425D01*
X18686Y30510D01*
X18464D01*
X18258Y30425D01*
X18100Y30267D01*
X18015Y30061D01*
Y29839D01*
X18100Y29633D01*
X18258Y29475D01*
X18464Y29390D01*
X18686D01*
X18892Y29475D01*
X19050Y29633D01*
X19061Y29659D01*
X19916D01*
Y28291D01*
X17850D01*
X17835Y28314D01*
Y28536D01*
X17750Y28742D01*
X17592Y28900D01*
X17386Y28985D01*
X17164D01*
X16958Y28900D01*
X16800Y28742D01*
X16743Y28603D01*
X16616Y28628D01*
Y30689D01*
X16642Y30700D01*
X16800Y30858D01*
X16885Y31064D01*
Y31286D01*
X16800Y31492D01*
X16642Y31650D01*
X16436Y31735D01*
D02*
G37*
G36*
X21854Y31729D02*
X20990D01*
Y31377D01*
X21854D01*
Y31729D01*
D02*
G37*
G36*
X20736D02*
X19872D01*
Y31377D01*
X20736D01*
Y31729D01*
D02*
G37*
G36*
X27487Y32166D02*
X26862D01*
X26746Y32143D01*
X26648Y32077D01*
X26582Y31979D01*
X26559Y31863D01*
Y31338D01*
X26582Y31222D01*
X26648Y31123D01*
X26746Y31057D01*
X26862Y31034D01*
X27487D01*
X27604Y31057D01*
X27702Y31123D01*
X27761Y31212D01*
X28189D01*
X28712Y30689D01*
Y30510D01*
X28496D01*
X28475Y30514D01*
X26725D01*
X26643Y30498D01*
X26574Y30451D01*
X26527Y30382D01*
X26511Y30300D01*
Y28800D01*
X26515Y28779D01*
Y28321D01*
X26511Y28300D01*
Y23300D01*
X26527Y23218D01*
X26574Y23149D01*
X26643Y23102D01*
X26725Y23086D01*
X27725D01*
X27746Y23090D01*
X28704D01*
X28725Y23086D01*
X29725D01*
X29807Y23102D01*
X29876Y23149D01*
X29923Y23218D01*
X29939Y23300D01*
Y28046D01*
X29979D01*
Y28259D01*
X30380D01*
X30820Y27820D01*
X30914Y27757D01*
X31025Y27734D01*
X31136Y27757D01*
X31230Y27820D01*
X31293Y27914D01*
X31316Y28025D01*
X31293Y28136D01*
X31230Y28230D01*
X30705Y28755D01*
X30611Y28818D01*
X30500Y28841D01*
X29979D01*
Y29054D01*
X29939D01*
Y29300D01*
X29935Y29321D01*
Y30510D01*
X29488D01*
Y30850D01*
X29459Y30999D01*
X29374Y31124D01*
X28624Y31875D01*
X28498Y31959D01*
X28350Y31988D01*
X27761D01*
X27702Y32077D01*
X27604Y32143D01*
X27487Y32166D01*
D02*
G37*
G36*
X3512Y30716D02*
X2887D01*
X2771Y30693D01*
X2673Y30627D01*
X2607Y30529D01*
X2590Y30441D01*
X2335D01*
X2318Y30528D01*
X2252Y30627D01*
X2154Y30693D01*
X2038Y30716D01*
X1413D01*
X1296Y30693D01*
X1198Y30627D01*
X1132Y30528D01*
X1109Y30412D01*
Y29887D01*
X1132Y29771D01*
X1198Y29673D01*
X1296Y29607D01*
X1413Y29584D01*
X2038D01*
X2154Y29607D01*
X2252Y29673D01*
X2318Y29771D01*
X2335Y29859D01*
X2590D01*
X2607Y29771D01*
X2673Y29673D01*
X2771Y29607D01*
X2887Y29584D01*
X3412D01*
X3476Y29520D01*
X3571Y29457D01*
X3682Y29434D01*
X4265D01*
Y28965D01*
X4509D01*
Y28735D01*
X4421Y28718D01*
X4323Y28652D01*
X4257Y28553D01*
X4234Y28437D01*
Y27812D01*
X4257Y27696D01*
X4323Y27598D01*
X4421Y27532D01*
X4537Y27509D01*
X5062D01*
X5178Y27532D01*
X5277Y27598D01*
X5343Y27696D01*
X5366Y27812D01*
Y28437D01*
X5343Y28553D01*
X5277Y28652D01*
X5178Y28718D01*
X5090Y28735D01*
Y28965D01*
X5335D01*
Y30485D01*
X4265D01*
Y30016D01*
X3816D01*
Y30413D01*
X3793Y30529D01*
X3727Y30627D01*
X3628Y30693D01*
X3512Y30716D01*
D02*
G37*
G36*
X65150Y30214D02*
X63827D01*
Y29577D01*
X65664D01*
Y29700D01*
X65625Y29897D01*
X65513Y30063D01*
X65347Y30175D01*
X65150Y30214D01*
D02*
G37*
G36*
X65664Y29323D02*
X63827D01*
Y28686D01*
X65150D01*
X65347Y28725D01*
X65513Y28837D01*
X65625Y29003D01*
X65664Y29200D01*
Y29323D01*
D02*
G37*
G36*
X63573Y30214D02*
X62250D01*
X62053Y30175D01*
X61887Y30063D01*
X61775Y29897D01*
X61736Y29700D01*
Y29626D01*
X60080D01*
X59969Y29604D01*
X59875Y29541D01*
X59812Y29446D01*
X59789Y29335D01*
X59812Y29224D01*
X59875Y29130D01*
X59969Y29067D01*
X60080Y29045D01*
X61767D01*
X61775Y29003D01*
X61887Y28837D01*
X62053Y28725D01*
X62250Y28686D01*
X63573D01*
Y29450D01*
Y30214D01*
D02*
G37*
G36*
X6362Y28741D02*
X5837D01*
X5721Y28718D01*
X5623Y28652D01*
X5557Y28553D01*
X5534Y28437D01*
Y27812D01*
X5557Y27696D01*
X5623Y27598D01*
X5721Y27532D01*
X5837Y27509D01*
X6362D01*
X6478Y27532D01*
X6577Y27598D01*
X6643Y27696D01*
X6666Y27812D01*
Y27834D01*
X6864D01*
X6875Y27808D01*
X7033Y27650D01*
X7239Y27565D01*
X7461D01*
X7667Y27650D01*
X7825Y27808D01*
X7910Y28014D01*
Y28236D01*
X7825Y28442D01*
X7667Y28600D01*
X7461Y28685D01*
X7239D01*
X7033Y28600D01*
X6875Y28442D01*
X6864Y28416D01*
X6666D01*
Y28437D01*
X6643Y28553D01*
X6577Y28652D01*
X6478Y28718D01*
X6362Y28741D01*
D02*
G37*
G36*
X9923Y27986D02*
X9787D01*
X9654Y27959D01*
X9541Y27884D01*
X9466Y27771D01*
X9439Y27637D01*
Y27452D01*
X9923D01*
Y27986D01*
D02*
G37*
G36*
X71100Y29116D02*
X70989Y29093D01*
X70895Y29030D01*
X70832Y28936D01*
X70809Y28825D01*
Y28163D01*
X69595D01*
X69420Y28128D01*
X69271Y28029D01*
X69172Y27880D01*
X69137Y27705D01*
Y27277D01*
X71200D01*
X73263D01*
Y27705D01*
X73228Y27880D01*
X73129Y28029D01*
X72980Y28128D01*
X72805Y28163D01*
X71391D01*
Y28825D01*
X71368Y28936D01*
X71305Y29030D01*
X71211Y29093D01*
X71100Y29116D01*
D02*
G37*
G36*
X14086Y26410D02*
X13864D01*
X13658Y26325D01*
X13500Y26167D01*
X13489Y26141D01*
X12561D01*
X12550Y26167D01*
X12392Y26325D01*
X12186Y26410D01*
X11964D01*
X11758Y26325D01*
X11600Y26167D01*
X11515Y25961D01*
Y25739D01*
X11600Y25533D01*
X11758Y25375D01*
X11964Y25290D01*
X12186D01*
X12392Y25375D01*
X12550Y25533D01*
X12561Y25559D01*
X13489D01*
X13500Y25533D01*
X13658Y25375D01*
X13864Y25290D01*
X14086D01*
X14292Y25375D01*
X14450Y25533D01*
X14535Y25739D01*
Y25961D01*
X14450Y26167D01*
X14292Y26325D01*
X14086Y26410D01*
D02*
G37*
G36*
X73263Y27023D02*
X71327D01*
Y26137D01*
X72805D01*
X72980Y26172D01*
X73129Y26271D01*
X73228Y26420D01*
X73263Y26595D01*
Y27023D01*
D02*
G37*
G36*
X71073D02*
X69137D01*
Y26595D01*
X69172Y26420D01*
X69271Y26271D01*
X69420Y26172D01*
X69595Y26137D01*
X71073D01*
Y27023D01*
D02*
G37*
G36*
X9923Y27198D02*
X9439D01*
Y27068D01*
X8720Y26349D01*
X8657Y26254D01*
X8634Y26143D01*
Y26125D01*
X8657Y26014D01*
X8720Y25920D01*
X8814Y25857D01*
X8925Y25834D01*
X9036Y25857D01*
X9130Y25920D01*
X9167Y25975D01*
X9857Y26664D01*
X9923D01*
Y27198D01*
D02*
G37*
G36*
X21536Y25260D02*
X21314D01*
X21108Y25175D01*
X20950Y25017D01*
X20939Y24991D01*
X20710D01*
Y25235D01*
X19190D01*
Y24165D01*
X20710D01*
Y24409D01*
X20939D01*
X20950Y24383D01*
X21108Y24225D01*
X21314Y24140D01*
X21536D01*
X21742Y24225D01*
X21900Y24383D01*
X21985Y24589D01*
Y24811D01*
X21900Y25017D01*
X21742Y25175D01*
X21536Y25260D01*
D02*
G37*
G36*
X72805Y24563D02*
X71327D01*
Y23677D01*
X73263D01*
Y24105D01*
X73228Y24280D01*
X73129Y24429D01*
X72980Y24528D01*
X72805Y24563D01*
D02*
G37*
G36*
X71073D02*
X69595D01*
X69420Y24528D01*
X69271Y24429D01*
X69172Y24280D01*
X69137Y24105D01*
Y23677D01*
X71073D01*
Y24563D01*
D02*
G37*
G36*
X9011Y22648D02*
X8527D01*
Y22114D01*
X8663D01*
X8796Y22141D01*
X8909Y22216D01*
X8984Y22329D01*
X9011Y22463D01*
Y22648D01*
D02*
G37*
G36*
X73263Y23423D02*
X71200D01*
X69137D01*
Y22995D01*
X69172Y22820D01*
X69271Y22671D01*
X69420Y22572D01*
X69595Y22537D01*
X70859D01*
Y21875D01*
X70882Y21764D01*
X70945Y21670D01*
X71039Y21607D01*
X71150Y21584D01*
X71261Y21607D01*
X71355Y21670D01*
X71418Y21764D01*
X71441Y21875D01*
Y22537D01*
X72805D01*
X72980Y22572D01*
X73129Y22671D01*
X73228Y22820D01*
X73263Y22995D01*
Y23423D01*
D02*
G37*
G36*
X20710Y23335D02*
X19190D01*
Y22265D01*
X19659D01*
Y21895D01*
X19580Y21816D01*
X19163D01*
X19046Y21793D01*
X18948Y21727D01*
X18882Y21629D01*
X18859Y21513D01*
Y20888D01*
X18882Y20771D01*
X18948Y20673D01*
X19046Y20607D01*
X19134Y20590D01*
Y20335D01*
X19046Y20318D01*
X18948Y20252D01*
X18882Y20154D01*
X18859Y20038D01*
Y19413D01*
X18882Y19296D01*
X18948Y19198D01*
X18959Y19191D01*
Y18866D01*
X18937D01*
X18821Y18843D01*
X18723Y18777D01*
X18657Y18679D01*
X18634Y18563D01*
Y18038D01*
X18657Y17922D01*
X18723Y17823D01*
X18821Y17757D01*
X18937Y17734D01*
X19562D01*
X19678Y17757D01*
X19777Y17823D01*
X19843Y17922D01*
X19866Y18038D01*
Y18563D01*
X19843Y18679D01*
X19777Y18777D01*
X19678Y18843D01*
X19562Y18866D01*
X19541D01*
Y19109D01*
X19688D01*
X19804Y19132D01*
X19902Y19198D01*
X19907Y19206D01*
X20034Y19168D01*
Y10875D01*
X20033Y10875D01*
X19875Y10717D01*
X19790Y10511D01*
Y10289D01*
X19875Y10083D01*
X20033Y9925D01*
X20239Y9840D01*
X20461D01*
X20667Y9925D01*
X20825Y10083D01*
X20910Y10289D01*
Y10511D01*
X20825Y10717D01*
X20667Y10875D01*
X20616Y10896D01*
Y20479D01*
X20753Y20616D01*
X20780Y20605D01*
X21003D01*
X21208Y20691D01*
X21366Y20848D01*
X21451Y21054D01*
Y21277D01*
X21366Y21483D01*
X21208Y21640D01*
X21003Y21725D01*
X20780D01*
X20574Y21640D01*
X20416Y21483D01*
X20331Y21277D01*
Y21054D01*
X20342Y21027D01*
X20120Y20805D01*
X20099Y20774D01*
X20097Y20771D01*
X19978Y20821D01*
X19979Y20827D01*
X19991Y20888D01*
Y21405D01*
X20155Y21570D01*
X20218Y21664D01*
X20241Y21775D01*
Y22265D01*
X20710D01*
Y23335D01*
D02*
G37*
G36*
X49411Y24235D02*
X49189D01*
X48983Y24150D01*
X48825Y23992D01*
X48740Y23786D01*
Y23564D01*
X48751Y23537D01*
X46095Y20880D01*
X46032Y20786D01*
X46009Y20675D01*
Y17561D01*
X45983Y17550D01*
X45825Y17392D01*
X45740Y17186D01*
Y16964D01*
X45825Y16758D01*
X45983Y16600D01*
X46009Y16589D01*
Y15985D01*
X46032Y15874D01*
X46095Y15780D01*
X46252Y15622D01*
X46196Y15524D01*
X46125Y15261D01*
Y14989D01*
X46196Y14726D01*
X46332Y14489D01*
X46524Y14297D01*
X46761Y14161D01*
X47024Y14090D01*
X47296D01*
X47559Y14161D01*
X47796Y14297D01*
X47988Y14489D01*
X48124Y14726D01*
X48195Y14989D01*
Y15261D01*
X48124Y15524D01*
X47988Y15760D01*
X47796Y15953D01*
X47559Y16089D01*
X47296Y16160D01*
X47024D01*
X46761Y16089D01*
X46695Y16052D01*
X46591Y16132D01*
Y16589D01*
X46617Y16600D01*
X46775Y16758D01*
X46860Y16964D01*
Y17186D01*
X46775Y17392D01*
X46617Y17550D01*
X46591Y17561D01*
Y20555D01*
X49162Y23126D01*
X49189Y23115D01*
X49411D01*
X49438Y23126D01*
X51520Y21045D01*
X51614Y20982D01*
X51725Y20959D01*
X61783D01*
Y20900D01*
X61811Y20760D01*
X61890Y20640D01*
X62010Y20561D01*
X62150Y20533D01*
X65250D01*
X65390Y20561D01*
X65510Y20640D01*
X65589Y20760D01*
X65617Y20900D01*
Y21600D01*
X65589Y21740D01*
X65510Y21860D01*
X65390Y21939D01*
X65250Y21967D01*
X62150D01*
X62010Y21939D01*
X61890Y21860D01*
X61811Y21740D01*
X61783Y21600D01*
Y21541D01*
X51845D01*
X49849Y23537D01*
X49860Y23564D01*
Y23786D01*
X49775Y23992D01*
X49617Y24150D01*
X49411Y24235D01*
D02*
G37*
G36*
X17012Y20786D02*
X16877D01*
Y20252D01*
X17361D01*
Y20437D01*
X17334Y20571D01*
X17259Y20684D01*
X17146Y20759D01*
X17012Y20786D01*
D02*
G37*
G36*
X24911Y20335D02*
X24689D01*
X24483Y20250D01*
X24325Y20092D01*
X24304Y20041D01*
X22200D01*
X22200Y20042D01*
X22042Y20200D01*
X21836Y20285D01*
X21614D01*
X21408Y20200D01*
X21250Y20042D01*
X21165Y19836D01*
Y19614D01*
X21176Y19587D01*
X20845Y19255D01*
X20782Y19161D01*
X20759Y19050D01*
Y12950D01*
X20782Y12839D01*
X20845Y12745D01*
X21601Y11988D01*
X21590Y11961D01*
Y11739D01*
X21675Y11533D01*
X21833Y11375D01*
X22039Y11290D01*
X22261D01*
X22467Y11375D01*
X22625Y11533D01*
X22710Y11739D01*
Y11961D01*
X22625Y12167D01*
X22467Y12325D01*
X22261Y12410D01*
X22039D01*
X22012Y12399D01*
X21341Y13070D01*
Y18930D01*
X21587Y19176D01*
X21614Y19165D01*
X21836D01*
X22042Y19250D01*
X22200Y19408D01*
X22221Y19459D01*
X24325D01*
X24325Y19458D01*
X24483Y19300D01*
X24689Y19215D01*
X24911D01*
X25117Y19300D01*
X25275Y19458D01*
X25360Y19664D01*
Y19886D01*
X25275Y20092D01*
X25117Y20250D01*
X24911Y20335D01*
D02*
G37*
G36*
X65250Y19967D02*
X62150D01*
X62010Y19939D01*
X61890Y19860D01*
X61811Y19740D01*
X61783Y19600D01*
Y19541D01*
X54361D01*
X54350Y19567D01*
X54192Y19725D01*
X53986Y19810D01*
X53764D01*
X53558Y19725D01*
X53400Y19567D01*
X53315Y19361D01*
Y19139D01*
X53400Y18933D01*
X53558Y18775D01*
X53764Y18690D01*
X53986D01*
X54192Y18775D01*
X54350Y18933D01*
X54361Y18959D01*
X61783D01*
Y18900D01*
X61811Y18760D01*
X61890Y18640D01*
X62010Y18561D01*
X62150Y18533D01*
X65250D01*
X65390Y18561D01*
X65510Y18640D01*
X65589Y18760D01*
X65617Y18900D01*
Y19600D01*
X65589Y19740D01*
X65510Y19860D01*
X65390Y19939D01*
X65250Y19967D01*
D02*
G37*
G36*
Y17967D02*
X62150D01*
X62010Y17939D01*
X61890Y17860D01*
X61811Y17740D01*
X61783Y17600D01*
Y17501D01*
X60566D01*
X60555Y17527D01*
X60397Y17685D01*
X60191Y17770D01*
X59969D01*
X59763Y17685D01*
X59605Y17527D01*
X59520Y17322D01*
Y17099D01*
X59605Y16893D01*
X59763Y16735D01*
X59969Y16650D01*
X60191D01*
X60397Y16735D01*
X60555Y16893D01*
X60566Y16920D01*
X61783D01*
Y16900D01*
X61811Y16760D01*
X61890Y16640D01*
X62010Y16561D01*
X62150Y16533D01*
X65250D01*
X65390Y16561D01*
X65510Y16640D01*
X65589Y16760D01*
X65617Y16900D01*
Y17600D01*
X65589Y17740D01*
X65510Y17860D01*
X65390Y17939D01*
X65250Y17967D01*
D02*
G37*
G36*
X28062Y17716D02*
X27437D01*
X27321Y17693D01*
X27223Y17627D01*
X27157Y17529D01*
X27140Y17441D01*
X26835D01*
X26818Y17528D01*
X26752Y17627D01*
X26654Y17693D01*
X26538Y17716D01*
X25913D01*
X25796Y17693D01*
X25698Y17627D01*
X25632Y17528D01*
X25615Y17441D01*
X23060D01*
Y17460D01*
X21540D01*
Y16390D01*
X23060D01*
Y16859D01*
X25615D01*
X25632Y16771D01*
X25698Y16673D01*
X25796Y16607D01*
X25913Y16584D01*
X26538D01*
X26654Y16607D01*
X26752Y16673D01*
X26818Y16771D01*
X26835Y16859D01*
X27140D01*
X27157Y16772D01*
X27223Y16673D01*
X27321Y16607D01*
X27437Y16584D01*
X28062D01*
X28178Y16607D01*
X28277Y16673D01*
X28343Y16772D01*
X28360Y16860D01*
X28880D01*
X28909Y16830D01*
Y16510D01*
X28821Y16493D01*
X28723Y16427D01*
X28657Y16329D01*
X28634Y16212D01*
Y15587D01*
X28657Y15471D01*
X28723Y15373D01*
X28821Y15307D01*
X28937Y15284D01*
X29462D01*
X29579Y15307D01*
X29677Y15373D01*
X29743Y15471D01*
X29766Y15587D01*
Y16212D01*
X29743Y16329D01*
X29677Y16427D01*
X29579Y16493D01*
X29490Y16510D01*
Y16950D01*
X29468Y17061D01*
X29405Y17156D01*
X29205Y17356D01*
X29111Y17419D01*
X29000Y17441D01*
X28360D01*
X28343Y17529D01*
X28277Y17627D01*
X28178Y17693D01*
X28062Y17716D01*
D02*
G37*
G36*
X23861Y19035D02*
X23639D01*
X23433Y18950D01*
X23275Y18792D01*
X23190Y18586D01*
Y18364D01*
X23275Y18158D01*
X23433Y18000D01*
X23639Y17915D01*
X23861D01*
X24067Y18000D01*
X24225Y18158D01*
X24231Y18172D01*
X34884D01*
X34900Y18133D01*
X35058Y17975D01*
X35084Y17964D01*
Y15724D01*
X34846Y15486D01*
X34729Y15534D01*
Y15954D01*
X34341D01*
Y16750D01*
X34318Y16861D01*
X34255Y16955D01*
X34161Y17018D01*
X34050Y17041D01*
X33939Y17018D01*
X33845Y16955D01*
X33782Y16861D01*
X33759Y16750D01*
Y15954D01*
X33371D01*
Y15627D01*
X34050D01*
Y15373D01*
X33371D01*
Y15046D01*
X33415D01*
Y13790D01*
X34685D01*
Y13897D01*
X34834D01*
X34850Y13858D01*
X35008Y13700D01*
X35214Y13615D01*
X35436D01*
X35642Y13700D01*
X35800Y13858D01*
X35885Y14064D01*
Y14286D01*
X35800Y14492D01*
X35642Y14650D01*
X35436Y14735D01*
X35214D01*
X35008Y14650D01*
X34925Y14742D01*
X35580Y15398D01*
X35643Y15492D01*
X35666Y15604D01*
Y17964D01*
X35692Y17975D01*
X35850Y18133D01*
X35935Y18339D01*
Y18561D01*
X35850Y18767D01*
X35692Y18925D01*
X35486Y19010D01*
X35264D01*
X35058Y18925D01*
X34900Y18767D01*
X34894Y18753D01*
X24241D01*
X24225Y18792D01*
X24067Y18950D01*
X23861Y19035D01*
D02*
G37*
G36*
X65150Y16014D02*
X63827D01*
Y15377D01*
X65664D01*
Y15500D01*
X65625Y15697D01*
X65513Y15863D01*
X65347Y15975D01*
X65150Y16014D01*
D02*
G37*
G36*
X39682Y16204D02*
X39667D01*
Y15252D01*
X40619D01*
Y15267D01*
X40545Y15541D01*
X40403Y15788D01*
X40203Y15988D01*
X39956Y16130D01*
X39682Y16204D01*
D02*
G37*
G36*
X39413D02*
X39398D01*
X39124Y16130D01*
X38877Y15988D01*
X38677Y15788D01*
X38535Y15541D01*
X38461Y15267D01*
Y15252D01*
X39413D01*
Y16204D01*
D02*
G37*
G36*
X30762Y16516D02*
X30237D01*
X30121Y16493D01*
X30023Y16427D01*
X29957Y16329D01*
X29934Y16212D01*
Y15587D01*
X29957Y15471D01*
X30023Y15373D01*
X30121Y15307D01*
X30237Y15284D01*
X30762D01*
X30878Y15307D01*
X30977Y15373D01*
X31043Y15471D01*
X31066Y15587D01*
Y15609D01*
X31205D01*
X31315Y15499D01*
Y15090D01*
X32585D01*
Y15910D01*
X31726D01*
X31531Y16105D01*
X31436Y16168D01*
X31325Y16191D01*
X31066D01*
Y16212D01*
X31043Y16329D01*
X30977Y16427D01*
X30878Y16493D01*
X30762Y16516D01*
D02*
G37*
G36*
X19562Y17566D02*
X18937D01*
X18821Y17543D01*
X18723Y17477D01*
X18657Y17379D01*
X18634Y17263D01*
Y16738D01*
X18657Y16622D01*
X18723Y16523D01*
X18821Y16457D01*
X18937Y16434D01*
X18959D01*
Y16185D01*
X18840D01*
Y14915D01*
X19660D01*
Y16185D01*
X19541D01*
Y16434D01*
X19562D01*
X19678Y16457D01*
X19777Y16523D01*
X19843Y16622D01*
X19866Y16738D01*
Y17263D01*
X19843Y17379D01*
X19777Y17477D01*
X19678Y17543D01*
X19562Y17566D01*
D02*
G37*
G36*
X65664Y15123D02*
X63827D01*
Y14486D01*
X65150D01*
X65347Y14525D01*
X65513Y14637D01*
X65625Y14803D01*
X65664Y15000D01*
Y15123D01*
D02*
G37*
G36*
X63573Y16014D02*
X62250D01*
X62053Y15975D01*
X61887Y15863D01*
X61775Y15697D01*
X61736Y15500D01*
Y15476D01*
X60080D01*
X59969Y15454D01*
X59875Y15391D01*
X59812Y15296D01*
X59789Y15185D01*
X59812Y15074D01*
X59875Y14980D01*
X59969Y14917D01*
X60080Y14895D01*
X61757D01*
X61775Y14803D01*
X61887Y14637D01*
X62053Y14525D01*
X62250Y14486D01*
X63573D01*
Y15250D01*
Y16014D01*
D02*
G37*
G36*
X55361Y17735D02*
X55139D01*
X54933Y17650D01*
X54775Y17492D01*
X54690Y17286D01*
Y17064D01*
X54775Y16858D01*
X54933Y16700D01*
X55139Y16615D01*
X55361D01*
X55409Y16635D01*
X56401Y15643D01*
X56356Y15564D01*
X56285Y15301D01*
Y15029D01*
X56356Y14766D01*
X56492Y14529D01*
X56684Y14337D01*
X56921Y14201D01*
X57184Y14130D01*
X57456D01*
X57719Y14201D01*
X57956Y14337D01*
X58148Y14529D01*
X58284Y14766D01*
X58355Y15029D01*
Y15301D01*
X58284Y15564D01*
X58148Y15800D01*
X57956Y15993D01*
X57719Y16129D01*
X57456Y16200D01*
X57184D01*
X56921Y16129D01*
X56804Y16062D01*
X55808Y17058D01*
X55810Y17064D01*
Y17286D01*
X55725Y17492D01*
X55567Y17650D01*
X55361Y17735D01*
D02*
G37*
G36*
X48436Y17660D02*
X48214D01*
X48008Y17575D01*
X47850Y17417D01*
X47765Y17211D01*
Y16989D01*
X47850Y16783D01*
X48008Y16625D01*
X48214Y16540D01*
X48436D01*
X48642Y16625D01*
X48800Y16783D01*
X48811Y16809D01*
X52685D01*
X53872Y15622D01*
X53816Y15524D01*
X53745Y15261D01*
Y14989D01*
X53816Y14726D01*
X53952Y14489D01*
X54144Y14297D01*
X54381Y14161D01*
X54644Y14090D01*
X54916D01*
X55179Y14161D01*
X55416Y14297D01*
X55608Y14489D01*
X55744Y14726D01*
X55815Y14989D01*
Y15261D01*
X55744Y15524D01*
X55608Y15760D01*
X55416Y15953D01*
X55179Y16089D01*
X54916Y16160D01*
X54644D01*
X54381Y16089D01*
X54283Y16033D01*
X53010Y17305D01*
X52916Y17368D01*
X52805Y17391D01*
X48811D01*
X48800Y17417D01*
X48642Y17575D01*
X48436Y17660D01*
D02*
G37*
G36*
X52376Y16160D02*
X52104D01*
X51841Y16089D01*
X51604Y15953D01*
X51412Y15760D01*
X51276Y15524D01*
X51205Y15261D01*
Y14989D01*
X51276Y14726D01*
X51412Y14489D01*
X51604Y14297D01*
X51841Y14161D01*
X52104Y14090D01*
X52376D01*
X52639Y14161D01*
X52876Y14297D01*
X53068Y14489D01*
X53204Y14726D01*
X53275Y14989D01*
Y15261D01*
X53204Y15524D01*
X53068Y15760D01*
X52876Y15953D01*
X52639Y16089D01*
X52376Y16160D01*
D02*
G37*
G36*
X49836D02*
X49564D01*
X49301Y16089D01*
X49064Y15953D01*
X48872Y15760D01*
X48736Y15524D01*
X48665Y15261D01*
Y14989D01*
X48736Y14726D01*
X48872Y14489D01*
X49064Y14297D01*
X49301Y14161D01*
X49564Y14090D01*
X49836D01*
X50099Y14161D01*
X50336Y14297D01*
X50528Y14489D01*
X50664Y14726D01*
X50735Y14989D01*
Y15261D01*
X50664Y15524D01*
X50528Y15760D01*
X50336Y15953D01*
X50099Y16089D01*
X49836Y16160D01*
D02*
G37*
G36*
X42216D02*
X41944D01*
X41681Y16089D01*
X41444Y15953D01*
X41252Y15760D01*
X41116Y15524D01*
X41045Y15261D01*
Y14989D01*
X41116Y14726D01*
X41252Y14489D01*
X41444Y14297D01*
X41681Y14161D01*
X41944Y14090D01*
X42216D01*
X42479Y14161D01*
X42716Y14297D01*
X42908Y14489D01*
X43044Y14726D01*
X43115Y14989D01*
Y15261D01*
X43044Y15524D01*
X42908Y15760D01*
X42716Y15953D01*
X42479Y16089D01*
X42216Y16160D01*
D02*
G37*
G36*
X40619Y14998D02*
X39667D01*
Y14046D01*
X39682D01*
X39956Y14120D01*
X40203Y14262D01*
X40403Y14462D01*
X40545Y14709D01*
X40619Y14983D01*
Y14998D01*
D02*
G37*
G36*
X39413D02*
X38461D01*
Y14983D01*
X38535Y14709D01*
X38677Y14462D01*
X38877Y14262D01*
X39124Y14120D01*
X39398Y14046D01*
X39413D01*
Y14998D01*
D02*
G37*
G36*
X19704Y14129D02*
X19377D01*
Y13577D01*
X19704D01*
Y14129D01*
D02*
G37*
G36*
X71100Y14716D02*
X70989Y14693D01*
X70895Y14630D01*
X70832Y14536D01*
X70809Y14425D01*
Y13963D01*
X69595D01*
X69420Y13928D01*
X69271Y13829D01*
X69172Y13680D01*
X69137Y13505D01*
Y13077D01*
X71200D01*
X73263D01*
Y13505D01*
X73228Y13680D01*
X73129Y13829D01*
X72980Y13928D01*
X72805Y13963D01*
X71391D01*
Y14425D01*
X71368Y14536D01*
X71305Y14630D01*
X71211Y14693D01*
X71100Y14716D01*
D02*
G37*
G36*
X23060Y15560D02*
X21540D01*
Y14490D01*
X22009D01*
Y13875D01*
X22032Y13764D01*
X22095Y13670D01*
X22526Y13238D01*
X22515Y13211D01*
Y12989D01*
X22600Y12783D01*
X22758Y12625D01*
X22964Y12540D01*
X23186D01*
X23392Y12625D01*
X23550Y12783D01*
X23635Y12989D01*
Y13211D01*
X23550Y13417D01*
X23392Y13575D01*
X23186Y13660D01*
X22964D01*
X22937Y13649D01*
X22591Y13995D01*
Y14490D01*
X23060D01*
Y15560D01*
D02*
G37*
G36*
X34838Y13261D02*
X34702D01*
Y12600D01*
Y11939D01*
X34838D01*
X34971Y11966D01*
X35084Y12041D01*
X35159Y12154D01*
X35186Y12288D01*
Y12359D01*
X35875D01*
X35986Y12382D01*
X36080Y12445D01*
X36143Y12539D01*
X36166Y12650D01*
X36143Y12761D01*
X36080Y12855D01*
X35986Y12918D01*
X35875Y12941D01*
X35180D01*
X35159Y13046D01*
X35084Y13159D01*
X34971Y13234D01*
X34838Y13261D01*
D02*
G37*
G36*
X25360Y16510D02*
X23840D01*
Y15440D01*
X25360D01*
Y15559D01*
X25615D01*
X25632Y15471D01*
X25698Y15373D01*
X25796Y15307D01*
X25913Y15284D01*
X26538D01*
X26654Y15307D01*
X26752Y15373D01*
X26818Y15471D01*
X26835Y15559D01*
X27140D01*
X27157Y15472D01*
X27223Y15373D01*
X27321Y15307D01*
X27437Y15284D01*
X27459D01*
Y14530D01*
X27481Y14419D01*
X27544Y14325D01*
X27640Y14229D01*
Y13760D01*
X27859D01*
Y12636D01*
X27833Y12625D01*
X27675Y12467D01*
X27590Y12261D01*
Y12039D01*
X27675Y11833D01*
X27833Y11675D01*
X28039Y11590D01*
X28261D01*
X28467Y11675D01*
X28625Y11833D01*
X28710Y12039D01*
Y12178D01*
X28859D01*
Y12163D01*
X28882Y12047D01*
X28948Y11948D01*
X29046Y11882D01*
X29163Y11859D01*
X29184D01*
Y11160D01*
X28565D01*
Y10704D01*
X28521D01*
Y10427D01*
X29475D01*
Y10173D01*
X28521D01*
Y9927D01*
X29475D01*
Y9673D01*
X28521D01*
Y9427D01*
X29475D01*
Y9173D01*
X28521D01*
Y8896D01*
X28565D01*
Y8440D01*
X29057D01*
Y7984D01*
X28373Y7300D01*
X27768Y7906D01*
Y8825D01*
X27738Y8975D01*
X27653Y9103D01*
X26678Y10078D01*
X26550Y10163D01*
X26400Y10193D01*
X26250Y10163D01*
X26218Y10142D01*
X26029D01*
Y10173D01*
X25075D01*
X24121D01*
Y9896D01*
X24165D01*
Y9591D01*
X23975D01*
X23864Y9568D01*
X23770Y9505D01*
X22895Y8630D01*
X22832Y8536D01*
X22809Y8425D01*
Y6720D01*
X22412Y6323D01*
X22285Y6376D01*
Y7235D01*
X20265D01*
Y4615D01*
X22285D01*
Y5634D01*
X22425D01*
X22536Y5657D01*
X22630Y5720D01*
X23305Y6395D01*
X23368Y6489D01*
X23391Y6600D01*
Y8305D01*
X23994Y8908D01*
X24121Y8855D01*
Y8396D01*
X24778D01*
Y7236D01*
X24800Y7125D01*
X24863Y7031D01*
X24958Y6968D01*
X25069Y6946D01*
X25180Y6968D01*
X25274Y7031D01*
X25337Y7125D01*
X25359Y7236D01*
Y8396D01*
X26029D01*
Y8673D01*
X25075D01*
Y8927D01*
X26029D01*
Y9204D01*
X25985D01*
Y9458D01*
X26186D01*
X26982Y8662D01*
Y7743D01*
X27012Y7593D01*
X27097Y7466D01*
X27906Y6657D01*
Y6110D01*
X27165D01*
Y690D01*
X29585D01*
Y6110D01*
X28844D01*
Y6660D01*
X29728Y7544D01*
X29813Y7671D01*
X29843Y7822D01*
Y8440D01*
X30385D01*
Y8896D01*
X30429D01*
Y9009D01*
X30875D01*
X30986Y9032D01*
X31080Y9095D01*
X31580Y9595D01*
X31643Y9689D01*
X31666Y9800D01*
X31643Y9911D01*
X31580Y10005D01*
X31080Y10505D01*
X30986Y10568D01*
X30875Y10591D01*
X30429D01*
Y10704D01*
X30385D01*
Y11160D01*
X29766D01*
Y11875D01*
X29804Y11882D01*
X29902Y11948D01*
X29968Y12047D01*
X29991Y12163D01*
X30114D01*
X30141Y12029D01*
X30216Y11916D01*
X30329Y11841D01*
X30435Y11820D01*
Y11588D01*
X30457Y11477D01*
X30520Y11383D01*
X30786Y11116D01*
X30807Y11014D01*
X30870Y10920D01*
X30964Y10857D01*
X31075Y10834D01*
X31186Y10857D01*
X31280Y10920D01*
X31343Y11014D01*
X31366Y11125D01*
Y11238D01*
X31343Y11350D01*
X31280Y11444D01*
X31026Y11698D01*
X31041Y11825D01*
X31121Y11841D01*
X31234Y11916D01*
X31309Y12029D01*
X31336Y12163D01*
Y12457D01*
X31462Y12552D01*
X31525Y12533D01*
X31683Y12375D01*
X31889Y12290D01*
X32111D01*
X32317Y12375D01*
X32475Y12533D01*
X32534Y12677D01*
X32670Y12731D01*
X32683Y12730D01*
X32709Y12712D01*
Y12288D01*
X32732Y12171D01*
X32798Y12073D01*
X32896Y12007D01*
X33013Y11984D01*
X33537D01*
X33654Y12007D01*
X33752Y12073D01*
X33818Y12171D01*
X33841Y12288D01*
X33964D01*
X33991Y12154D01*
X34066Y12041D01*
X34179Y11966D01*
X34312Y11939D01*
X34448D01*
Y12600D01*
Y13261D01*
X34312D01*
X34179Y13234D01*
X34066Y13159D01*
X33991Y13046D01*
X33964Y12913D01*
X33841D01*
X33818Y13029D01*
X33752Y13127D01*
X33654Y13193D01*
X33537Y13216D01*
X33120D01*
X32591Y13745D01*
Y14075D01*
X32585Y14103D01*
Y14610D01*
X31315D01*
Y14491D01*
X30760D01*
Y14640D01*
X29740D01*
Y13760D01*
X30279D01*
X30786Y13253D01*
X30737Y13136D01*
X30463D01*
X30329Y13109D01*
X30216Y13034D01*
X30141Y12921D01*
X30114Y12788D01*
X29991D01*
X29968Y12904D01*
X29902Y13002D01*
X29804Y13068D01*
X29688Y13091D01*
X29163D01*
X29046Y13068D01*
X28948Y13002D01*
X28882Y12904D01*
X28859Y12788D01*
Y12759D01*
X28513D01*
X28441Y12819D01*
Y13760D01*
X28660D01*
Y14640D01*
X28051D01*
X28041Y14650D01*
Y15284D01*
X28062D01*
X28178Y15307D01*
X28277Y15373D01*
X28343Y15472D01*
X28366Y15588D01*
Y16113D01*
X28343Y16229D01*
X28277Y16327D01*
X28178Y16393D01*
X28062Y16416D01*
X27437D01*
X27321Y16393D01*
X27223Y16327D01*
X27157Y16229D01*
X27140Y16141D01*
X26835D01*
X26818Y16228D01*
X26752Y16327D01*
X26654Y16393D01*
X26538Y16416D01*
X25913D01*
X25796Y16393D01*
X25698Y16327D01*
X25632Y16228D01*
X25615Y16140D01*
X25360D01*
Y16510D01*
D02*
G37*
G36*
X73263Y12823D02*
X71327D01*
Y11937D01*
X72805D01*
X72980Y11972D01*
X73129Y12071D01*
X73228Y12220D01*
X73263Y12395D01*
Y12823D01*
D02*
G37*
G36*
X71073D02*
X69137D01*
Y12395D01*
X69172Y12220D01*
X69271Y12071D01*
X69420Y11972D01*
X69595Y11937D01*
X71073D01*
Y12823D01*
D02*
G37*
G36*
X25075Y12541D02*
X24964Y12518D01*
X24870Y12455D01*
X24807Y12361D01*
X24784Y12250D01*
Y11204D01*
X24121D01*
Y10927D01*
X25075D01*
X26029D01*
Y11204D01*
X25366D01*
Y12250D01*
X25343Y12361D01*
X25280Y12455D01*
X25186Y12518D01*
X25075Y12541D01*
D02*
G37*
G36*
X26029Y10673D02*
X25075D01*
X24121D01*
Y10427D01*
X25075D01*
X26029D01*
Y10673D01*
D02*
G37*
G36*
X9486Y11698D02*
X8825D01*
X8164D01*
Y11562D01*
X8191Y11429D01*
X8266Y11316D01*
X8379Y11241D01*
X8513Y11214D01*
X8534D01*
Y10575D01*
X8557Y10464D01*
X8620Y10370D01*
X8714Y10307D01*
X8825Y10284D01*
X8936Y10307D01*
X9030Y10370D01*
X9093Y10464D01*
X9116Y10575D01*
Y11214D01*
X9138D01*
X9271Y11241D01*
X9384Y11316D01*
X9459Y11429D01*
X9486Y11562D01*
Y11698D01*
D02*
G37*
G36*
X3402Y11004D02*
Y9877D01*
X6029D01*
Y11004D01*
X3402D01*
D02*
G37*
G36*
X40298Y6229D02*
X39171D01*
Y3602D01*
X40298D01*
Y6229D01*
D02*
G37*
G36*
X41679D02*
X40552D01*
Y3475D01*
Y721D01*
X41679D01*
Y3006D01*
X44189D01*
X44722Y2472D01*
X44850Y2387D01*
X45000Y2357D01*
X45974D01*
X46100Y2332D01*
X46250Y2362D01*
X46378Y2447D01*
X46463Y2575D01*
X46493Y2725D01*
X46463Y2875D01*
X46378Y3003D01*
X46353Y3028D01*
X46225Y3113D01*
X46075Y3143D01*
X45163D01*
X44830Y3475D01*
X45274Y3919D01*
X46112D01*
X46262Y3949D01*
X46389Y4034D01*
X46428Y4072D01*
X46513Y4200D01*
X46543Y4350D01*
X46513Y4500D01*
X46428Y4628D01*
X46300Y4713D01*
X46150Y4743D01*
X46000Y4713D01*
X45987Y4704D01*
X45112D01*
X44962Y4674D01*
X44834Y4589D01*
X44189Y3944D01*
X41679D01*
Y6229D01*
D02*
G37*
G36*
X40298Y3348D02*
X39171D01*
Y721D01*
X40298D01*
Y3348D01*
D02*
G37*
%LPD*%
G36*
X39675Y66139D02*
X39690Y66057D01*
X39550Y65917D01*
X39524Y65853D01*
X30168D01*
X30021Y66000D01*
X29882Y66057D01*
X29907Y66184D01*
X39652D01*
X39675Y66139D01*
D02*
G37*
G36*
X35247Y65145D02*
X35200Y65074D01*
X35160Y64875D01*
Y64025D01*
X35200Y63826D01*
X35312Y63657D01*
X35389Y63606D01*
Y60356D01*
X34822Y59788D01*
X34778Y59793D01*
X34609Y59905D01*
X34410Y59945D01*
X34211Y59905D01*
X34042Y59793D01*
X33930Y59624D01*
X33890Y59425D01*
Y58575D01*
X33930Y58376D01*
X34042Y58207D01*
X34119Y58156D01*
Y57355D01*
X34023Y57259D01*
X33970Y57235D01*
X33857Y57254D01*
X33431Y57680D01*
Y58156D01*
X33508Y58207D01*
X33620Y58376D01*
X33660Y58575D01*
Y59425D01*
X33620Y59624D01*
X33508Y59793D01*
X33339Y59905D01*
X33140Y59945D01*
X32985Y59914D01*
X32858Y59991D01*
Y60224D01*
X33345Y60712D01*
X33408Y60806D01*
X33431Y60917D01*
Y63606D01*
X33508Y63657D01*
X33620Y63826D01*
X33660Y64025D01*
Y64875D01*
X33620Y65074D01*
X33573Y65145D01*
X33641Y65272D01*
X33909D01*
X33977Y65145D01*
X33930Y65074D01*
X33890Y64875D01*
Y64025D01*
X33930Y63826D01*
X34042Y63657D01*
X34139Y63592D01*
Y63081D01*
X34113Y63070D01*
X33955Y62912D01*
X33870Y62706D01*
Y62484D01*
X33955Y62278D01*
X34113Y62120D01*
X34319Y62035D01*
X34541D01*
X34747Y62120D01*
X34905Y62278D01*
X34990Y62484D01*
Y62706D01*
X34905Y62912D01*
X34747Y63070D01*
X34721Y63081D01*
Y63619D01*
X34778Y63657D01*
X34890Y63826D01*
X34930Y64025D01*
Y64875D01*
X34890Y65074D01*
X34843Y65145D01*
X34911Y65272D01*
X35179D01*
X35247Y65145D01*
D02*
G37*
G36*
X30582Y60532D02*
Y59971D01*
X30465Y59922D01*
X30360Y60027D01*
X30385Y60089D01*
Y60311D01*
X30300Y60517D01*
X30142Y60675D01*
X29936Y60760D01*
X29714D01*
X29508Y60675D01*
X29350Y60517D01*
X29265Y60311D01*
Y60089D01*
X29350Y59883D01*
X29508Y59725D01*
X29714Y59640D01*
X29925D01*
X30132Y59433D01*
Y59298D01*
X30062Y59241D01*
X29437D01*
X29321Y59218D01*
X29223Y59152D01*
X29157Y59054D01*
X29140Y58966D01*
X28585D01*
Y59360D01*
X27979D01*
Y59404D01*
X27614D01*
X27605Y59417D01*
X27499Y59523D01*
X27548Y59640D01*
X28585D01*
Y60669D01*
X28910D01*
X29021Y60691D01*
X29115Y60754D01*
X29131Y60770D01*
X29207Y60821D01*
X29612Y61226D01*
X29639Y61215D01*
X29861D01*
X29888Y61226D01*
X30582Y60532D01*
D02*
G37*
G36*
X36857Y58621D02*
X36923Y58523D01*
X37021Y58457D01*
X37138Y58434D01*
Y58311D01*
X37004Y58284D01*
X36891Y58209D01*
X36816Y58096D01*
X36789Y57962D01*
Y57827D01*
X37450D01*
Y57700D01*
X37577D01*
Y57089D01*
X37763D01*
X37896Y57116D01*
X38009Y57191D01*
X38084Y57304D01*
X38105Y57409D01*
X38796D01*
X38907Y57432D01*
X38934Y57449D01*
X39015Y57351D01*
X38788Y57124D01*
X38761Y57135D01*
X38539D01*
X38333Y57050D01*
X38175Y56892D01*
X38090Y56686D01*
Y56464D01*
X38175Y56258D01*
X38333Y56100D01*
X38466Y56045D01*
X38480Y56005D01*
X38483Y55900D01*
X38350Y55767D01*
X38277Y55591D01*
X37689D01*
X37601Y55718D01*
X37618Y55800D01*
X37588Y55950D01*
X37503Y56078D01*
X37375Y56163D01*
X37225Y56193D01*
X37093D01*
Y56325D01*
X37063Y56475D01*
X36978Y56603D01*
X36850Y56688D01*
X36700Y56718D01*
X36550Y56688D01*
X36450Y56621D01*
X36350Y56688D01*
X36200Y56718D01*
X36105Y56699D01*
X35978Y56781D01*
Y56944D01*
X35992Y56950D01*
X36150Y57108D01*
X36235Y57314D01*
Y57536D01*
X36150Y57742D01*
X35992Y57900D01*
X35849Y57959D01*
X35862Y58091D01*
X35879Y58095D01*
X36048Y58207D01*
X36160Y58376D01*
X36200Y58575D01*
Y58709D01*
X36840D01*
X36857Y58621D01*
D02*
G37*
G36*
X12487Y40007D02*
X12477Y39960D01*
X12507Y39810D01*
X12574Y39710D01*
X12507Y39610D01*
X12477Y39460D01*
X12507Y39310D01*
X12592Y39182D01*
X12679Y39124D01*
Y38366D01*
X12413D01*
X12297Y38343D01*
X12198Y38277D01*
X12132Y38179D01*
X12109Y38062D01*
Y37537D01*
X12132Y37421D01*
X12198Y37323D01*
X12297Y37257D01*
X12413Y37234D01*
Y37111D01*
X12279Y37084D01*
X12166Y37009D01*
X12091Y36896D01*
X12064Y36762D01*
Y36627D01*
X12725D01*
Y36373D01*
X12064D01*
Y36237D01*
X12091Y36104D01*
X12159Y36002D01*
Y35300D01*
X12177Y35210D01*
X12118Y35148D01*
X12075Y35121D01*
X11975Y35141D01*
X11486D01*
Y35163D01*
X11459Y35296D01*
X11384Y35409D01*
X11271Y35484D01*
X11149Y35508D01*
X11144Y35536D01*
X11081Y35630D01*
X10893Y35818D01*
X10893Y35818D01*
X10749Y35962D01*
X10798Y36079D01*
X11509D01*
X11622Y36102D01*
X11719Y36166D01*
X11783Y36263D01*
X11806Y36376D01*
Y36864D01*
X11783Y36977D01*
X11724Y37067D01*
X11750Y37085D01*
X11825Y37195D01*
X11851Y37326D01*
Y37443D01*
X11040D01*
Y37697D01*
X11851D01*
Y37814D01*
X11825Y37945D01*
X11750Y38055D01*
X11724Y38073D01*
X11783Y38163D01*
X11806Y38276D01*
Y38764D01*
X11783Y38877D01*
X11719Y38974D01*
X11622Y39038D01*
X11509Y39061D01*
X11296D01*
X11277Y39158D01*
X11214Y39252D01*
X10968Y39497D01*
X11031Y39614D01*
X11037Y39613D01*
X11843D01*
X11982Y39641D01*
X12100Y39720D01*
X12179Y39838D01*
X12207Y39977D01*
Y40134D01*
X12382D01*
X12487Y40007D01*
D02*
G37*
G36*
X7641Y40189D02*
X7747Y40118D01*
X7872Y40094D01*
X7874D01*
Y39928D01*
X7898Y39808D01*
X7966Y39706D01*
X8068Y39638D01*
X8188Y39614D01*
X9092D01*
X9212Y39638D01*
X9314Y39706D01*
X9382Y39808D01*
X9398Y39889D01*
X9754D01*
X10473Y39171D01*
X10467Y39115D01*
X10439Y39025D01*
X10361Y38974D01*
X10297Y38877D01*
X10274Y38764D01*
Y38276D01*
X10297Y38163D01*
X10356Y38073D01*
X10330Y38055D01*
X10255Y37945D01*
X10239Y37863D01*
X10139Y37843D01*
X10045Y37780D01*
X9895Y37630D01*
X9832Y37536D01*
X9809Y37425D01*
Y36993D01*
X9683Y36977D01*
X9619Y37074D01*
X9522Y37138D01*
X9409Y37161D01*
X8471D01*
X8358Y37138D01*
X8261Y37074D01*
X8197Y36977D01*
X8184Y36911D01*
X7741D01*
Y37800D01*
X7718Y37911D01*
X7655Y38005D01*
X7468Y38193D01*
X7521Y38320D01*
X7631D01*
X7750Y38369D01*
X7804Y38315D01*
X7899Y38252D01*
X8010Y38229D01*
X8184D01*
X8197Y38163D01*
X8261Y38066D01*
X8358Y38002D01*
X8471Y37979D01*
X9409D01*
X9522Y38002D01*
X9619Y38066D01*
X9683Y38163D01*
X9706Y38276D01*
Y38764D01*
X9683Y38877D01*
X9619Y38974D01*
X9522Y39038D01*
X9409Y39061D01*
X8471D01*
X8358Y39038D01*
X8261Y38974D01*
X8250Y38957D01*
X8107Y38962D01*
X8080Y38990D01*
Y38991D01*
X7995Y39197D01*
X7837Y39355D01*
X7631Y39440D01*
X7409D01*
X7203Y39355D01*
X7045Y39197D01*
X6960Y38991D01*
Y38881D01*
X6931Y38854D01*
X6833Y38817D01*
X6771Y38858D01*
X6660Y38881D01*
X6594D01*
X6564Y38953D01*
X6442Y39075D01*
X6564Y39197D01*
X6645Y39394D01*
Y39606D01*
X6564Y39803D01*
X6442Y39925D01*
X6564Y40047D01*
X6645Y40244D01*
Y40275D01*
X7555D01*
X7641Y40189D01*
D02*
G37*
G36*
X8500Y35095D02*
X8260D01*
X8110Y35245D01*
Y35355D01*
X8500D01*
Y35095D01*
D02*
G37*
G36*
X7690Y35245D02*
X7540Y35095D01*
X7300D01*
Y35355D01*
X7690D01*
Y35245D01*
D02*
G37*
G36*
X8500Y34445D02*
X8110D01*
Y34555D01*
X8260Y34705D01*
X8500D01*
Y34445D01*
D02*
G37*
G36*
X7690Y34555D02*
Y34445D01*
X7300D01*
Y34705D01*
X7540D01*
X7690Y34555D01*
D02*
G37*
G36*
X8977Y34769D02*
X9009Y34762D01*
Y34538D01*
X9032Y34422D01*
X9098Y34323D01*
X9196Y34257D01*
X9313Y34234D01*
X9337D01*
X9344Y34202D01*
X9407Y34107D01*
X9483Y34031D01*
X9473Y33927D01*
X9407Y33829D01*
X9384Y33713D01*
Y33088D01*
X9407Y32972D01*
X9473Y32873D01*
X9571Y32807D01*
X9673Y32787D01*
X9682Y32746D01*
X9745Y32651D01*
X9926Y32470D01*
X9967Y32443D01*
X9966Y32397D01*
X9928Y32316D01*
X6285D01*
Y32785D01*
X5215D01*
Y32316D01*
X5070D01*
X4891Y32495D01*
Y34255D01*
X5345Y34709D01*
X5615D01*
X5632Y34621D01*
X5698Y34523D01*
X5797Y34457D01*
X5913Y34434D01*
Y34311D01*
X5779Y34284D01*
X5666Y34209D01*
X5591Y34096D01*
X5564Y33962D01*
Y33827D01*
X6225D01*
Y33700D01*
X6352D01*
Y33089D01*
X6538D01*
X6671Y33116D01*
X6784Y33191D01*
X6859Y33304D01*
X6860Y33309D01*
X7475D01*
X7586Y33332D01*
X7680Y33395D01*
X7700Y33415D01*
X7763Y33509D01*
X7786Y33620D01*
Y34108D01*
X7900Y34173D01*
X7900D01*
X8014Y34205D01*
X8110Y34186D01*
X8228D01*
X8283Y34125D01*
X8278Y34072D01*
X8254Y33981D01*
X8173Y33927D01*
X8107Y33829D01*
X8084Y33713D01*
Y33088D01*
X8107Y32972D01*
X8173Y32873D01*
X8271Y32807D01*
X8388Y32784D01*
X8913D01*
X9029Y32807D01*
X9127Y32873D01*
X9193Y32972D01*
X9216Y33088D01*
Y33713D01*
X9193Y33829D01*
X9127Y33927D01*
X9029Y33993D01*
X8941Y34010D01*
Y34230D01*
X8919Y34341D01*
X8856Y34435D01*
X8759Y34532D01*
Y34705D01*
X8741Y34793D01*
X8747Y34800D01*
X8882Y34832D01*
X8977Y34769D01*
D02*
G37*
%LPC*%
G36*
X37323Y57573D02*
X36789D01*
Y57437D01*
X36816Y57304D01*
X36891Y57191D01*
X37004Y57116D01*
X37138Y57089D01*
X37323D01*
Y57573D01*
D02*
G37*
G36*
X6098Y33573D02*
X5564D01*
Y33437D01*
X5591Y33304D01*
X5666Y33191D01*
X5779Y33116D01*
X5913Y33089D01*
X6098D01*
Y33573D01*
D02*
G37*
%LPD*%
D10*
X31700Y49275D02*
Y49780D01*
X20525Y53725D02*
X21525D01*
X25600Y9800D02*
X26400D01*
D14*
X16670Y18720D02*
X16725Y18775D01*
Y19295D02*
X16800Y19370D01*
X16725Y18775D02*
Y19295D01*
X16800Y19370D02*
Y20075D01*
X16750Y20125D02*
X16800Y20075D01*
X15200Y15525D02*
X15200Y15525D01*
X11900Y15525D02*
X13125D01*
X11900Y15525D02*
X11900Y15525D01*
X13125D02*
X15200D01*
X9060Y47029D02*
X10114Y45975D01*
X9060Y47029D02*
Y49110D01*
X9575Y49625D01*
X19475D01*
X14125Y47575D02*
Y48275D01*
X13575Y48825D02*
X14125Y48275D01*
X32275Y48137D02*
X32775Y48637D01*
Y48650D01*
X32737Y48688D02*
X32775Y48650D01*
X32700Y49850D02*
X32737Y49812D01*
Y48688D02*
Y49812D01*
X32275Y47325D02*
Y48137D01*
X49525Y67775D02*
Y70875D01*
X27601Y45451D02*
X29451D01*
X27600Y45450D02*
X27601Y45451D01*
X29451D02*
X29475Y45475D01*
X27146Y45509D02*
X27541D01*
X27600Y45450D01*
X26200Y46456D02*
X27146Y45509D01*
X26200Y46456D02*
Y47375D01*
X28075Y45925D02*
Y47075D01*
X28075Y44000D02*
Y44975D01*
X27600Y45450D02*
X28075Y44975D01*
X27600Y45450D02*
X28075Y45925D01*
X27825Y48425D02*
X28500D01*
X29313Y47612D01*
Y47137D02*
Y47612D01*
X24675Y41550D02*
X29450D01*
X25549Y59650D02*
X25724Y59475D01*
X25400Y59650D02*
X25549D01*
X25724Y59475D02*
X27136D01*
X27400Y59211D01*
X29100Y28550D02*
X30500D01*
X31025Y28025D01*
X10250Y37575D02*
X11045D01*
X18206Y51825D02*
X20975D01*
X18182Y51801D02*
X18206Y51825D01*
X20975D02*
X21525Y52375D01*
X18732Y53375D02*
X18982Y53125D01*
X19625D01*
X18250Y53375D02*
X18732D01*
X19625Y53125D02*
X19678Y53178D01*
X18175Y53300D02*
X18250Y53375D01*
X19678Y53178D02*
X21478D01*
X21525Y53225D01*
X8825Y11825D02*
X8825Y11825D01*
X8825Y10575D02*
Y11825D01*
X10725Y10668D02*
X11093D01*
X10725Y10300D02*
Y10668D01*
Y11775D01*
X20325Y10425D02*
Y20599D01*
Y10425D02*
X20350Y10400D01*
X17300Y11600D02*
X18588Y12888D01*
X12025Y11775D02*
X13450D01*
X11375Y12550D02*
X11725Y12900D01*
X13425D01*
X21050Y12950D02*
X22150Y11850D01*
X19250Y12175D02*
Y13450D01*
X19250Y12175D02*
X19250Y12175D01*
X14900Y13875D02*
X15325Y13450D01*
X12025Y13875D02*
X14900D01*
X31943Y12907D02*
X32000Y12850D01*
X30250Y14200D02*
X31543Y12907D01*
X31943D01*
X31950Y14200D02*
X32175D01*
X32300Y13625D02*
Y14075D01*
X32175Y14200D02*
X32300Y14075D01*
Y13625D02*
X33275Y12650D01*
Y12600D02*
Y12650D01*
X34575Y12600D02*
X34625Y12650D01*
X35875D01*
X8825Y14250D02*
Y14730D01*
X7500Y13405D02*
X8825Y14730D01*
X7500Y13300D02*
Y13405D01*
X8825Y14730D02*
Y14800D01*
X9044Y28544D02*
X10914D01*
X9025Y28525D02*
X9044Y28544D01*
X10050Y27268D02*
Y27325D01*
X8925Y26143D02*
X10050Y27268D01*
X8925Y26125D02*
Y26143D01*
X11195Y28825D02*
X11195D01*
X10914Y28544D02*
X11195Y28825D01*
X11195D02*
X11350Y28980D01*
X11350Y27325D02*
Y28980D01*
X11350Y28980D02*
Y29050D01*
X53875Y19250D02*
X63700D01*
X22300Y13875D02*
X23075Y13100D01*
X22300Y13875D02*
Y15025D01*
X22300Y15025D02*
X22300Y15025D01*
X12075Y25850D02*
X13975D01*
X13562Y71287D02*
X41763D01*
X13550Y71275D02*
X13562Y71287D01*
X41763D02*
X41775Y71300D01*
X40604Y57930D02*
X57775D01*
X45850Y69525D02*
X46371Y69004D01*
X46450D01*
X40349Y57675D02*
X40604Y57930D01*
X40200Y57675D02*
X40349D01*
X36150Y55225D02*
X36575Y54800D01*
X37150D01*
X36150Y55225D02*
Y55250D01*
X18588Y13438D02*
X18600Y13450D01*
X18588Y12888D02*
Y13438D01*
X20325Y20599D02*
X20891Y21165D01*
X21050Y12950D02*
Y19050D01*
X21725Y19725D01*
X21750Y19750D02*
X24775D01*
X21725Y19725D02*
X21750Y19750D01*
X24775D02*
X24800Y19775D01*
X20863Y30600D02*
X24800D01*
X18575Y29950D02*
X20863D01*
X16025Y23800D02*
X17600D01*
X17650Y23750D01*
X23750Y18475D02*
X23763Y18462D01*
X35362D01*
X35375Y18450D01*
X20863Y29300D02*
X23800D01*
X22175Y28625D02*
X22725Y28075D01*
X22250Y21274D02*
X22725Y21749D01*
X20888Y28625D02*
X22175D01*
X22250Y21200D02*
Y21274D01*
X22725Y21749D02*
Y28075D01*
X20863Y28650D02*
X20888Y28625D01*
X35375Y15604D02*
Y18450D01*
X34050Y14850D02*
X34621D01*
X35375Y15604D01*
X32275Y45650D02*
Y47325D01*
X32250Y45625D02*
X32275Y45650D01*
X51350Y49575D02*
X52725D01*
X51300Y49625D02*
X51350Y49575D01*
X50450Y49625D02*
X51300D01*
X49625Y50450D02*
X50450Y49625D01*
X47550Y48475D02*
Y49600D01*
Y48475D02*
X50225Y45800D01*
X37150Y51300D02*
X37900D01*
X38750Y50450D02*
X49625D01*
X37900Y51300D02*
X38750Y50450D01*
X47175Y49975D02*
X47550Y49600D01*
X37888Y50762D02*
X38675Y49975D01*
X47175D01*
X38100Y49725D02*
X38371D01*
X39200Y48896D01*
X37525Y50300D02*
X38100Y49725D01*
X37950Y48075D02*
X38575D01*
X36700Y49325D02*
X37950Y48075D01*
X37188Y50762D02*
X37888D01*
X39475Y57400D02*
Y58768D01*
X39025Y59218D02*
Y59275D01*
Y59218D02*
X39475Y58768D01*
X38650Y56575D02*
X39475Y57400D01*
X37450Y57700D02*
X38796D01*
X38405Y53121D02*
X38550D01*
X38226Y53300D02*
X38405Y53121D01*
X37150Y53800D02*
X39126D01*
X39351Y54025D02*
X39500D01*
X39126Y53800D02*
X39351Y54025D01*
X37150Y53300D02*
X38226D01*
X38209Y51950D02*
X39350D01*
X37397Y52762D02*
X38209Y51950D01*
X37150Y52800D02*
X37188Y52762D01*
X38630Y51175D02*
X40325D01*
X37188Y52762D02*
X37397D01*
X37543Y52262D02*
X38630Y51175D01*
X37188Y52262D02*
X37543D01*
X37150Y52300D02*
X37188Y52262D01*
X37150Y50300D02*
X37525D01*
X37150Y50800D02*
X37188Y50762D01*
Y54338D02*
X37397D01*
X37809Y54750D02*
X43012D01*
X43100Y54650D02*
Y54662D01*
X43775Y53975D02*
X43975D01*
X37150Y54300D02*
X37188Y54338D01*
X43100Y54650D02*
X43775Y53975D01*
X37397Y54338D02*
X37809Y54750D01*
X43012D02*
X43100Y54662D01*
X40425Y56075D02*
X43725D01*
X43975Y55825D01*
X38526Y55300D02*
X38676Y55450D01*
X37150Y55300D02*
X38526D01*
X38676Y55450D02*
X38825D01*
X18750Y69050D02*
X21570D01*
X21575Y69045D01*
X18700Y59850D02*
X21570D01*
X21575Y59855D01*
X29313Y47137D02*
X29375Y47075D01*
X57775Y67120D02*
Y69000D01*
X71100Y13050D02*
X71200Y12950D01*
X71100Y13050D02*
Y14425D01*
X71150Y23500D02*
X71200Y23550D01*
X71150Y21875D02*
Y23500D01*
X71100Y27250D02*
Y28825D01*
Y27250D02*
X71200Y27150D01*
X71100Y37650D02*
X71200Y37750D01*
X71100Y36000D02*
Y37650D01*
X46300Y17075D02*
Y20675D01*
X49300Y23675D01*
X43300Y25500D02*
X43325Y25475D01*
X52875D02*
X52900Y25450D01*
Y26675D01*
X59675Y33450D01*
X43325Y25475D02*
X52875D01*
X43275D02*
X43300Y25500D01*
X51725Y21250D02*
X63700D01*
X49300Y23675D02*
X51725Y21250D01*
X63585Y29335D02*
X63700Y29450D01*
X60080Y29335D02*
X63585D01*
X60080Y31385D02*
X63635D01*
X63700Y31450D01*
X63635Y15185D02*
X63700Y15250D01*
X60080Y15185D02*
X63635D01*
X63660Y17210D02*
X63700Y17250D01*
X60080Y17210D02*
X63660D01*
X59675Y33450D02*
X63700D01*
X27707Y52700D02*
Y53443D01*
X49250Y28600D02*
X53275D01*
X60125Y35450D02*
X63700D01*
X53275Y28600D02*
X60125Y35450D01*
X43250Y17150D02*
X43275Y17175D01*
Y25475D01*
X43250Y16495D02*
Y17150D01*
X32250Y42650D02*
Y43975D01*
X32225Y44000D02*
X32250Y43975D01*
X27713Y51363D02*
X27750Y51400D01*
X26950Y50150D02*
X27713Y50913D01*
Y51363D01*
X29375Y44000D02*
X29454Y43921D01*
Y42525D02*
Y43921D01*
X29500Y48700D02*
Y50625D01*
Y48700D02*
X30652Y49852D01*
X29500Y50625D02*
X30000Y51125D01*
X30652Y49852D02*
X31198D01*
X29105Y51662D02*
X29195Y51753D01*
Y52085D01*
X29811Y52700D01*
X28875Y54475D02*
X29491D01*
X29109Y53421D02*
X29488Y53800D01*
X28991Y53421D02*
X29109D01*
X32275Y47325D02*
X32275Y47325D01*
X34700D02*
X34800Y47225D01*
X33575Y47325D02*
X34700D01*
X32225Y45600D02*
X32250Y45625D01*
X22650Y48500D02*
X26750D01*
X25913Y49438D02*
X25925Y49425D01*
X20688Y49438D02*
X25913D01*
X33550Y45625D02*
X34825D01*
X33550Y43975D02*
X34800D01*
X32225Y44000D02*
Y45600D01*
X35925Y47650D02*
Y48200D01*
X35700Y49250D02*
X37275Y47675D01*
X31198Y49852D02*
X31200Y49850D01*
X57000Y40925D02*
X57254Y40671D01*
X57000Y40925D02*
X57000Y40925D01*
X57254Y38091D02*
X57320Y38025D01*
X57254Y38091D02*
Y40671D01*
X55700Y40875D02*
Y40925D01*
X54780Y39955D02*
X55700Y40875D01*
X54780Y38025D02*
Y39955D01*
X57290Y15165D02*
X57320D01*
X55280Y17175D02*
X57290Y15165D01*
X55250Y17175D02*
X55280D01*
X35275Y31400D02*
X40625D01*
X35275Y42875D02*
X35287Y42888D01*
X40188D01*
X40250Y42950D01*
X52805Y17100D02*
X54780Y15125D01*
X48325Y17100D02*
X52805D01*
X42225Y59350D02*
X42650Y58925D01*
X42225Y59350D02*
Y60970D01*
X46300Y15985D02*
X47160Y15125D01*
X46300Y15985D02*
Y17075D01*
X20675Y49450D02*
X20688Y49438D01*
X19425Y47325D02*
X19450Y47350D01*
X26175D01*
X26200Y47375D01*
X22625Y45425D02*
X23250Y44800D01*
Y43850D02*
Y44800D01*
X17071Y43846D02*
X17100D01*
X16650Y43425D02*
X17071Y43846D01*
X16025Y43425D02*
X16650D01*
X18025Y45275D02*
X19300D01*
X20500Y43846D02*
X21946D01*
X21950Y43850D01*
X25925Y51250D02*
Y52725D01*
X25925Y52725D01*
X24325Y57625D02*
X28087D01*
X28175Y57713D01*
Y58550D01*
X27061Y56375D02*
X27820Y55616D01*
Y55280D02*
X27925Y55175D01*
X27061Y56375D02*
Y56382D01*
X27925Y55175D02*
X29875D01*
X27820Y55280D02*
Y55616D01*
X27061Y54861D02*
Y56425D01*
X29491Y54475D02*
X29666Y54300D01*
X30750D01*
X29875Y55175D02*
X30250Y54800D01*
X29488Y53800D02*
X30750D01*
X27750Y52700D02*
X29811D01*
X28750Y55900D02*
X29075Y55575D01*
X29829D02*
X29929Y55475D01*
X29493Y56254D02*
X29947Y55800D01*
X30750D01*
X29929Y55475D02*
X30050D01*
X29075Y55575D02*
X29829D01*
X24300Y56425D02*
X25761D01*
X24225Y56350D02*
X24300Y56425D01*
X28750Y57900D02*
X29279Y58429D01*
X28750Y55900D02*
Y57900D01*
X26925Y54725D02*
X27061Y54861D01*
X25925Y54725D02*
X26925D01*
X30050Y55475D02*
X30225Y55300D01*
X28300Y58675D02*
X29750D01*
X28175Y58550D02*
X28300Y58675D01*
X29504Y58429D02*
X29750Y58675D01*
X29279Y58429D02*
X29504D01*
X28300Y60960D02*
X28910D01*
X28976Y61026D01*
X29001D02*
X29750Y61775D01*
X28175Y60450D02*
Y60835D01*
X28300Y60960D01*
X43250Y16495D02*
X44620Y15125D01*
X27707Y52700D02*
X27750D01*
X25350Y69525D02*
X45850D01*
X25300Y69475D02*
X25350Y69525D01*
X24300Y68275D02*
X24375Y68200D01*
X44950D01*
X42250Y66053D02*
Y67250D01*
Y66053D02*
X42258Y66046D01*
X49449Y40550D02*
X51974Y38025D01*
X52240D01*
X49300Y40550D02*
X49449D01*
X29750Y61775D02*
X30873Y60652D01*
Y57702D02*
Y60652D01*
X29825Y60151D02*
Y60200D01*
Y60151D02*
X30423Y59553D01*
X31225Y57925D02*
Y62425D01*
X30450Y63200D02*
X31225Y62425D01*
X30423Y57998D02*
Y59553D01*
X31700Y56250D02*
Y56875D01*
X30873Y57702D02*
X31700Y56875D01*
X29750Y57375D02*
X29800D01*
X30423Y57998D01*
X27400Y58675D02*
Y59211D01*
Y58675D02*
X27525Y58550D01*
X27650Y60450D02*
Y61111D01*
X27525Y60325D02*
X27650Y60450D01*
Y61111D02*
X28225Y61686D01*
Y62225D01*
X26875Y60450D02*
X26925Y60500D01*
Y62225D01*
X26875Y58550D02*
Y58550D01*
X25350Y58425D02*
X26750D01*
X26875Y58550D01*
X31225Y57925D02*
X32200Y56950D01*
Y56250D02*
Y56950D01*
X49612Y38025D02*
X49700D01*
X47138Y40500D02*
X49612Y38025D01*
X47050Y40500D02*
X47138D01*
X44950Y68200D02*
X45000Y68150D01*
X55500Y44500D02*
X55500Y44500D01*
X56850D01*
X51375Y44500D02*
X51475Y44400D01*
X52750D01*
X47080Y38025D02*
X47160D01*
X44655Y40450D02*
X47080Y38025D01*
X44575Y40450D02*
X44655D01*
X28875Y66475D02*
X40825D01*
X41721Y64696D02*
X42125D01*
X41275Y64250D02*
X41721Y64696D01*
X42125D02*
X42129Y64700D01*
X41275Y63075D02*
Y64250D01*
X42129Y64700D02*
X47750D01*
X42258Y66046D02*
X47796D01*
X49525Y67775D01*
X39987Y65562D02*
X40025Y65600D01*
X29704Y65525D02*
X29742Y65562D01*
X39987D01*
X28171Y63829D02*
Y65025D01*
Y63829D02*
X28250Y63750D01*
X37450Y57700D02*
X37450Y57700D01*
X35700Y49250D02*
Y49850D01*
X36700Y49325D02*
Y49850D01*
X37450Y59000D02*
Y60400D01*
Y59000D02*
X37450Y59000D01*
X30454Y64450D02*
X31870D01*
X43150Y39495D02*
Y40475D01*
Y39495D02*
X44620Y38025D01*
X40750Y39355D02*
Y40450D01*
Y39355D02*
X42080Y38025D01*
X39375Y38190D02*
X39540Y38025D01*
X39375Y38190D02*
Y40400D01*
X55700Y40925D02*
Y42425D01*
Y40925D02*
X55700Y40925D01*
X57000Y40925D02*
X58300D01*
X35680Y59000D02*
X37450D01*
X35680Y59000D02*
X35680Y59000D01*
X35200Y48925D02*
Y49850D01*
Y48925D02*
X35925Y48200D01*
X10114Y45975D02*
X10250D01*
X30503Y52762D02*
X30712D01*
X30000Y52259D02*
X30503Y52762D01*
X30000Y51125D02*
Y52259D01*
X30712Y52762D02*
X30750Y52800D01*
X30175Y51300D02*
X30750D01*
X30000Y51125D02*
X30175Y51300D01*
X32200Y49850D02*
X32700D01*
X30225Y55300D02*
X30750D01*
X30250Y54800D02*
X30750D01*
X30749Y53299D02*
X30750Y53300D01*
X29811Y52700D02*
X30410Y53299D01*
X30749D01*
X26925Y54225D02*
X27707Y53443D01*
X25925Y54225D02*
X26925D01*
X20200Y56350D02*
Y57850D01*
X20200Y56350D02*
X20200Y56350D01*
X21500Y54750D02*
Y56350D01*
X21500Y56350D01*
Y57600D01*
X21525Y54225D02*
X23125D01*
X24100Y53250D01*
X21525Y52375D02*
Y52725D01*
X21500Y54750D02*
X21525Y54725D01*
X40320Y60975D02*
X40325Y60970D01*
Y59275D02*
Y60970D01*
X34700Y56825D02*
X34983Y57108D01*
X34700Y56250D02*
Y56825D01*
X33700Y56250D02*
Y57000D01*
X34200Y56250D02*
Y57025D01*
X34410Y57235D01*
Y59000D01*
Y64450D02*
X34430Y64430D01*
Y62595D02*
Y64430D01*
X35680Y60235D02*
Y64450D01*
X32700Y56250D02*
Y56958D01*
X33200Y56250D02*
Y56975D01*
X31870Y57788D02*
X32700Y56958D01*
X32567Y57608D02*
Y60344D01*
X33140Y60917D01*
X32567Y57608D02*
X33200Y56975D01*
X33140Y60917D02*
Y64450D01*
Y57560D02*
Y59000D01*
Y57560D02*
X33700Y57000D01*
X31200Y56250D02*
Y56950D01*
X34983Y57108D02*
Y59538D01*
X35688Y56263D02*
Y57412D01*
X34983Y59538D02*
X35680Y60235D01*
X35675Y57425D02*
X35688Y57412D01*
Y56263D02*
X35700Y56250D01*
X29750Y57375D02*
X30775D01*
X31200Y56950D01*
X31870Y57788D02*
Y59000D01*
X24100Y53250D02*
X25900D01*
X54075Y45750D02*
X54125Y45800D01*
X55500Y45800D02*
X56975D01*
X55500Y45800D02*
X55500Y45800D01*
X54125Y45800D02*
X55500D01*
X50025Y52700D02*
X51325D01*
X50025Y52700D02*
X50025Y52700D01*
X50000Y57025D02*
X50000Y57025D01*
X51425D01*
X42225Y60970D02*
X42230Y60975D01*
X47750Y64700D02*
X49525Y62925D01*
Y59675D02*
Y62925D01*
X55463Y49638D02*
X56912D01*
X56925Y49650D01*
X55450Y47125D02*
Y48325D01*
X55450Y48325D01*
Y49625D02*
X55463Y49638D01*
X56975Y47100D02*
X56975Y47100D01*
Y48375D01*
X54025Y49575D02*
X54075Y49625D01*
X55450D01*
X47175Y53975D02*
X47200Y54000D01*
X50025D01*
X47175Y55825D02*
X47275Y55725D01*
X50000D01*
X58375Y45800D02*
X58400Y45775D01*
X56975Y45800D02*
X58375D01*
X56975Y45800D02*
X56975Y45800D01*
X56900Y50975D02*
Y52200D01*
Y50975D02*
X56925Y50950D01*
Y49650D02*
X58325D01*
X58350Y49675D01*
X51300Y47125D02*
Y48325D01*
X51300Y48325D01*
X52725Y45800D02*
X52775Y45750D01*
X50225Y45800D02*
X51375D01*
X52725D01*
X60650Y49675D02*
X62000D01*
X60725Y45800D02*
X62000D01*
X60700Y45775D02*
X60725Y45800D01*
X26900Y63800D02*
X26950Y63750D01*
X26925Y62225D02*
X26938Y62237D01*
Y63737D01*
X26950Y63750D01*
X26900Y63800D02*
Y65025D01*
X25925Y52725D02*
Y53225D01*
X25900Y53250D02*
X25925Y53225D01*
X15495Y42895D02*
X16025Y43425D01*
X15495Y42485D02*
Y42895D01*
X14995Y43395D02*
X15800Y44200D01*
X14995Y42485D02*
Y43395D01*
X17950Y45350D02*
X18025Y45275D01*
X16250Y46650D02*
X17950D01*
X16225Y46625D02*
X16250Y46650D01*
X17385Y42485D02*
X19300Y44400D01*
X15995Y42485D02*
X17385D01*
X19300Y44400D02*
Y45275D01*
X15025Y44250D02*
Y47475D01*
X13975Y43775D02*
X14550D01*
X15025Y44250D01*
X25875Y37100D02*
X25875Y37100D01*
X24575Y37100D02*
X25875D01*
X27175Y34275D02*
X27175Y34275D01*
X27175Y32900D02*
X27175Y32900D01*
X9950Y32857D02*
Y33975D01*
Y32857D02*
X10132Y32675D01*
X11150D01*
X9388Y35037D02*
X9487Y34938D01*
X9612Y34313D02*
X9950Y33975D01*
X9612Y34313D02*
Y34813D01*
X9487Y34938D02*
X9612Y34813D01*
X8305Y35225D02*
X8900D01*
X9088Y35037D02*
X9388D01*
X8900Y35225D02*
X9088Y35037D01*
X8930Y36007D02*
Y36610D01*
Y36007D02*
X9487Y35450D01*
Y34938D02*
Y35450D01*
X7555Y36620D02*
X8940D01*
X8305Y34575D02*
X8650Y34230D01*
Y33400D02*
Y34230D01*
X10100Y37425D02*
X10250Y37575D01*
X10100Y36200D02*
Y37425D01*
Y36200D02*
X10688Y35612D01*
X11975Y34850D02*
X12475Y34350D01*
X10875Y34850D02*
X11975D01*
X10875D02*
Y35425D01*
X10688Y35612D02*
X10875Y35425D01*
X28513Y12469D02*
X29419D01*
X28150Y12150D02*
X28194D01*
X28513Y12469D01*
X29425Y12475D02*
X29475Y12425D01*
X8400Y22775D02*
X8400Y22775D01*
X8400Y22775D02*
Y24225D01*
X13850Y5925D02*
X14875D01*
X10725Y9050D02*
X13850Y5925D01*
X10725Y9050D02*
Y10300D01*
X23100Y8425D02*
X23975Y9300D01*
X25075D01*
X23100Y6600D02*
Y8425D01*
X22425Y5925D02*
X23100Y6600D01*
X21275Y5925D02*
X22425D01*
X5700Y19700D02*
X10575D01*
X10950Y19325D01*
X5450Y19450D02*
X5700Y19700D01*
X5450Y18525D02*
Y19450D01*
X10950Y19325D02*
X11250D01*
X7900Y14825D02*
X8825Y15750D01*
Y16900D01*
X5450Y14825D02*
X7900D01*
X5900Y18525D02*
X9850D01*
X5450D02*
X5900D01*
X12425Y17700D02*
X12425Y17700D01*
X10675Y17700D02*
X12425D01*
X9850Y18525D02*
X10675Y17700D01*
X17275Y28425D02*
X17700Y28000D01*
X20863D01*
X16325Y28100D02*
X17075Y27350D01*
X16325Y28100D02*
Y31175D01*
X17075Y27350D02*
X19118D01*
X6100Y28125D02*
X6100Y28125D01*
X7350D01*
X19118Y27350D02*
X20863D01*
X11350Y27325D02*
X14962D01*
X14987Y27350D01*
X8825Y14800D02*
X15825D01*
X16500Y15475D01*
Y15525D01*
X19950Y24700D02*
X21425D01*
X19950Y24700D02*
X19950Y24700D01*
X17938Y21388D02*
Y22062D01*
X17650Y22350D02*
X17938Y22062D01*
X17650Y22350D02*
Y23750D01*
X17938Y21388D02*
X18125Y21200D01*
X18125Y21200D01*
X19950Y21775D02*
Y22800D01*
X19425Y21200D02*
Y21250D01*
X19950Y21775D01*
X19425Y19725D02*
Y21200D01*
X19250Y19550D02*
X19425Y19725D01*
X19250Y18300D02*
Y19550D01*
X18125Y19725D02*
Y21200D01*
Y19725D02*
X18125Y19725D01*
X17200Y17375D02*
X18125Y18300D01*
Y19725D01*
X15500Y17375D02*
X17200D01*
X19250Y17000D02*
X19250Y17000D01*
Y15550D02*
Y17000D01*
X15325Y13450D02*
X17950D01*
X17950Y13450D01*
X16500Y15525D02*
X17925D01*
X17950Y15550D01*
X11375Y11775D02*
Y12550D01*
X10725Y11775D02*
X10725Y11775D01*
X24725Y15850D02*
X26225D01*
X26225Y15850D01*
X24600Y15975D02*
X24725Y15850D01*
X8825Y14250D02*
X9200Y13875D01*
X10725D01*
X8825Y13125D02*
Y14250D01*
X22300Y16925D02*
X22525Y17150D01*
X26225D01*
X34062Y14188D02*
X35312D01*
X34050Y14200D02*
X34062Y14188D01*
X35312D02*
X35325Y14175D01*
X11350Y31150D02*
X11375Y31175D01*
X13025D01*
X11350Y31150D02*
Y31220D01*
X34050Y15500D02*
Y16750D01*
X27750Y15850D02*
X27750Y15850D01*
X26225Y15850D02*
X27750D01*
X27750Y14530D02*
X28080Y14200D01*
X27750Y14530D02*
Y15850D01*
X28080Y14200D02*
X28150D01*
X27750Y17150D02*
X27750Y17150D01*
X26225Y17150D02*
X27750D01*
X26225Y17150D02*
X26225Y17150D01*
X27750Y17150D02*
X29000D01*
X29200Y16950D01*
Y15900D02*
Y16950D01*
X31325Y15900D02*
X31725Y15500D01*
X30500Y15900D02*
X31325D01*
X31725Y15500D02*
X31950D01*
X34575Y12600D02*
X34575Y12600D01*
X30725Y11588D02*
Y12475D01*
X31075Y11125D02*
Y11238D01*
X30725Y11588D02*
X31075Y11238D01*
X30725Y12475D02*
X30725Y12475D01*
X30250Y14200D02*
X31950D01*
X28150Y12150D02*
Y14200D01*
X8825Y16900D02*
X8845Y16880D01*
X10500D01*
X10600Y15525D02*
Y16780D01*
X10500Y16880D02*
X10600Y16780D01*
X5750Y32025D02*
X10545D01*
X11350Y31220D01*
X29475Y10800D02*
Y12425D01*
X25075Y10800D02*
X25075Y10800D01*
X25075Y10800D02*
Y12250D01*
X25075Y10300D02*
Y10800D01*
X29475Y9800D02*
X31375D01*
X29475Y10300D02*
X30875D01*
X29475Y9300D02*
X30875D01*
X31375Y9800D01*
X30875Y10300D02*
X31375Y9800D01*
X25069Y8794D02*
X25075Y8800D01*
X25069Y7236D02*
Y8794D01*
X4800Y28125D02*
Y29725D01*
X4800Y29725D01*
X1725Y31450D02*
X1725Y31450D01*
X3200D01*
X3200Y31450D01*
X1725Y30150D02*
X3200D01*
X1725Y30150D02*
X1725Y30150D01*
X3200D02*
X3200Y30150D01*
X3257D02*
X3682Y29725D01*
X4800D01*
X3200Y30150D02*
X3257D01*
X3200Y31450D02*
X3387Y31638D01*
X3863D02*
X4600Y32375D01*
X3387Y31638D02*
X3863D01*
X4600Y32375D02*
Y34375D01*
Y32375D02*
X4950Y32025D01*
X8225Y29700D02*
X9550D01*
X9600Y29750D01*
X9500Y30950D02*
X9600Y31050D01*
X8250Y30950D02*
X9500D01*
X6700Y29725D02*
X6725Y29700D01*
X8225D01*
X5225Y35000D02*
X6225D01*
X4600Y34375D02*
X5225Y35000D01*
X4950Y32025D02*
X5750D01*
X15075Y34900D02*
X16225D01*
X15025Y34950D02*
X15025Y34950D01*
X15075Y34900D01*
X16500Y36325D02*
X17700D01*
X16475Y36350D02*
X16500Y36325D01*
X15025Y37650D02*
X16058Y36617D01*
X14975Y37650D02*
X15025D01*
X16058Y36617D02*
X16208D01*
X16475Y36350D01*
X6325Y33600D02*
X7475D01*
X6225Y33700D02*
X6325Y33600D01*
X7495Y33620D02*
Y34575D01*
X7475Y33600D02*
X7495Y33620D01*
X7575Y34575D02*
X7900Y34900D01*
X7495Y34575D02*
X7575D01*
X7900Y34900D02*
X7900D01*
X6450Y35225D02*
X7495D01*
X6225Y35000D02*
X6450Y35225D01*
X7450Y36725D02*
X7555Y36620D01*
X7450Y36725D02*
Y37800D01*
X6170Y38590D02*
X6660D01*
X7450Y37800D01*
X6110Y38650D02*
X6170Y38590D01*
X4760Y38650D02*
X6110D01*
X3963D02*
X4760D01*
X3613Y39000D02*
X3963Y38650D01*
X3500Y39000D02*
X3613D01*
X3875Y42550D02*
X4225Y42900D01*
X3375Y42550D02*
X3875D01*
X4225Y42900D02*
X6110D01*
X3125Y39725D02*
X4422D01*
X2510Y39110D02*
X3125Y39725D01*
X2510Y37550D02*
Y39110D01*
X4422Y39725D02*
X4647Y39500D01*
X4760D01*
X2510Y37550D02*
X3450Y36610D01*
X13613Y20412D02*
X13750Y20275D01*
X12475Y20950D02*
X13013Y20412D01*
X13613D01*
X12475Y20950D02*
Y22775D01*
X13800Y21275D02*
X14850D01*
X15450Y20125D02*
Y20675D01*
X14850Y21275D02*
X15450Y20675D01*
Y20125D02*
X15450Y20125D01*
X13750Y21225D02*
X13800Y21275D01*
X15450Y18725D02*
Y20125D01*
Y18725D02*
X15500Y18675D01*
X14955Y16880D02*
X15450Y17375D01*
X10500Y16880D02*
X14955D01*
X15450Y17375D02*
X15500D01*
X13725Y19300D02*
X13750Y19325D01*
X13725Y17700D02*
Y19300D01*
X12724Y36500D02*
X12725D01*
X12450Y36226D02*
X12724Y36500D01*
X12450Y35300D02*
Y36226D01*
X15025Y34950D02*
Y36300D01*
X14975Y36350D02*
X15025Y36300D01*
X13725Y34950D02*
Y36850D01*
X12775Y37800D02*
X13725Y36850D01*
X12725Y37800D02*
X12775D01*
X12725D02*
X12970Y38045D01*
X14033Y38542D02*
X14925Y37650D01*
X14975D01*
X13995Y38935D02*
X14033Y38897D01*
Y38542D02*
Y38897D01*
X13495Y38935D02*
X13995D01*
X14533Y38663D02*
Y38897D01*
X14495Y38935D02*
X14533Y38897D01*
Y38663D02*
X14809Y38387D01*
X16362D01*
X16450Y37675D02*
Y38299D01*
X16362Y38387D02*
X16450Y38299D01*
Y37675D02*
X16475Y37650D01*
X17900Y38475D02*
Y39675D01*
X17900Y39675D01*
X17885Y40960D02*
X17900Y40975D01*
X16520Y40960D02*
X17885D01*
X12380Y46955D02*
Y48305D01*
X12350Y46925D02*
X12380Y46955D01*
X15025Y47475D02*
X16075Y48525D01*
X16225D01*
X12394Y45069D02*
X13969D01*
X12350Y45025D02*
X12394Y45069D01*
X13969D02*
X13975Y45075D01*
X13995Y42485D02*
Y43755D01*
X13975Y43775D02*
X13995Y43755D01*
X12970Y38045D02*
Y39460D01*
X5240Y46640D02*
X7770D01*
X5210Y46610D02*
X5240Y46640D01*
X12970Y39460D02*
Y39960D01*
X9875Y40180D02*
X11008Y39046D01*
Y38552D02*
Y39046D01*
Y38552D02*
X11040Y38520D01*
X8640Y40180D02*
X9875D01*
X7520Y38880D02*
X7650D01*
X8010Y38520D02*
X8940D01*
X7650Y38880D02*
X8010Y38520D01*
X1750Y45100D02*
Y46390D01*
X3450Y35260D02*
Y36610D01*
X2920Y34730D02*
X3450Y35260D01*
X2870Y34730D02*
X2920D01*
X3425Y37775D02*
X4735D01*
X4760Y37800D01*
X3400Y37750D02*
X3425Y37775D01*
X1640Y36340D02*
X1750Y36450D01*
X1640Y33430D02*
Y36340D01*
X4760Y37693D02*
Y37800D01*
X5130Y36450D02*
Y37323D01*
X4760Y37693D02*
X5130Y37323D01*
X4760Y37800D02*
X6110D01*
X4760Y43750D02*
Y43857D01*
X5130Y44227D02*
Y45100D01*
X4760Y43857D02*
X5130Y44227D01*
X3375Y43735D02*
X4745D01*
X3360Y43720D02*
X3375Y43735D01*
X4745D02*
X4760Y43750D01*
X6110D01*
Y42050D02*
X7770Y43710D01*
Y45340D01*
D16*
X11040Y37570D02*
X11045Y37575D01*
X0Y0D02*
X74500D01*
X74500Y73500D02*
X74500Y0D01*
X0Y73500D02*
X74500D01*
X0Y0D02*
Y73500D01*
D17*
X11100Y59875D02*
D03*
Y51775D02*
D03*
D18*
X21500Y56350D02*
D03*
X20200D02*
D03*
X18182Y51801D02*
D03*
X16882D02*
D03*
X18175Y53300D02*
D03*
X16875D02*
D03*
X39025Y59275D02*
D03*
X40325D02*
D03*
X52775Y45750D02*
D03*
X54075D02*
D03*
X32250Y45625D02*
D03*
X33550D02*
D03*
X32275Y47325D02*
D03*
X33575D02*
D03*
X32250Y43975D02*
D03*
X33550D02*
D03*
X28075Y44000D02*
D03*
X29375D02*
D03*
X52725Y49575D02*
D03*
X54025D02*
D03*
X28075Y47075D02*
D03*
X29375D02*
D03*
X27061Y56425D02*
D03*
X25761D02*
D03*
X26950Y63750D02*
D03*
X28250D02*
D03*
X28225Y62225D02*
D03*
X26925D02*
D03*
X25875Y37100D02*
D03*
X27175D02*
D03*
X15200Y15525D02*
D03*
X16500D02*
D03*
X10050Y27325D02*
D03*
X11350D02*
D03*
X34575Y12600D02*
D03*
X33275D02*
D03*
X19425Y19725D02*
D03*
X18125D02*
D03*
X29425Y12475D02*
D03*
X30725D02*
D03*
X10875Y34850D02*
D03*
X9575D02*
D03*
X8400Y22775D02*
D03*
X7100D02*
D03*
X11900Y15525D02*
D03*
X10600D02*
D03*
X12425Y17700D02*
D03*
X13725D02*
D03*
X57000Y40925D02*
D03*
X55700D02*
D03*
X15025Y34950D02*
D03*
X13725D02*
D03*
X18125Y21200D02*
D03*
X19425D02*
D03*
X29200Y15900D02*
D03*
X30500D02*
D03*
X4800Y28125D02*
D03*
X6100D02*
D03*
X9950Y33400D02*
D03*
X8650D02*
D03*
X15450Y20125D02*
D03*
X16750D02*
D03*
X23250Y43850D02*
D03*
X21950D02*
D03*
D19*
X19625Y51825D02*
D03*
Y53125D02*
D03*
X29750Y57375D02*
D03*
Y58675D02*
D03*
X37450Y59000D02*
D03*
Y57700D02*
D03*
X50025Y52700D02*
D03*
Y54000D02*
D03*
X50000Y57025D02*
D03*
Y55725D02*
D03*
X42258Y64746D02*
D03*
Y66046D02*
D03*
X55450Y49625D02*
D03*
Y48325D02*
D03*
X55500Y45800D02*
D03*
Y44500D02*
D03*
X56975Y45800D02*
D03*
Y47100D02*
D03*
X56925Y49650D02*
D03*
Y50950D02*
D03*
X51300Y49625D02*
D03*
Y48325D02*
D03*
X51375Y45800D02*
D03*
Y44500D02*
D03*
X27750Y52700D02*
D03*
Y51400D02*
D03*
X27175Y32900D02*
D03*
Y31600D02*
D03*
X27175Y34275D02*
D03*
Y35575D02*
D03*
X8825Y11825D02*
D03*
Y13125D02*
D03*
X27750Y17150D02*
D03*
Y15850D02*
D03*
X1725Y30150D02*
D03*
Y31450D02*
D03*
X9600Y31050D02*
D03*
Y29750D02*
D03*
X6225Y33700D02*
D03*
Y35000D02*
D03*
X17900Y39675D02*
D03*
Y40975D02*
D03*
X14975Y36350D02*
D03*
Y37650D02*
D03*
X12725Y36500D02*
D03*
Y37800D02*
D03*
X19250Y18300D02*
D03*
Y17000D02*
D03*
X26225Y15850D02*
D03*
Y17150D02*
D03*
X3200Y31450D02*
D03*
Y30150D02*
D03*
X15500Y17375D02*
D03*
Y18675D02*
D03*
X2870Y34730D02*
D03*
Y33430D02*
D03*
X7770Y45340D02*
D03*
Y46640D02*
D03*
X17950Y45350D02*
D03*
Y46650D02*
D03*
X13975Y45075D02*
D03*
Y43775D02*
D03*
X16475Y36350D02*
D03*
Y37650D02*
D03*
D20*
X21525Y52725D02*
D03*
Y53225D02*
D03*
Y53725D02*
D03*
Y54225D02*
D03*
Y54725D02*
D03*
X25925D02*
D03*
Y54225D02*
D03*
Y53725D02*
D03*
Y53225D02*
D03*
Y52725D02*
D03*
X29475Y8800D02*
D03*
Y9300D02*
D03*
Y9800D02*
D03*
Y10300D02*
D03*
Y10800D02*
D03*
X25075D02*
D03*
Y10300D02*
D03*
Y9800D02*
D03*
Y9300D02*
D03*
Y8800D02*
D03*
D21*
X31200Y49850D02*
D03*
X31700D02*
D03*
X32200D02*
D03*
X32700D02*
D03*
X33200D02*
D03*
X33700D02*
D03*
X34200D02*
D03*
X34700D02*
D03*
X35200D02*
D03*
X35700D02*
D03*
X36200D02*
D03*
X36700D02*
D03*
Y56250D02*
D03*
X36200D02*
D03*
X35700D02*
D03*
X35200D02*
D03*
X34700D02*
D03*
X34200D02*
D03*
X33700D02*
D03*
X33200D02*
D03*
X32700D02*
D03*
X32200D02*
D03*
X31700D02*
D03*
X31200D02*
D03*
D22*
X37150Y50300D02*
D03*
Y50800D02*
D03*
Y51300D02*
D03*
Y51800D02*
D03*
Y52300D02*
D03*
Y52800D02*
D03*
Y53300D02*
D03*
Y53800D02*
D03*
Y54300D02*
D03*
Y54800D02*
D03*
Y55300D02*
D03*
Y55800D02*
D03*
X30750D02*
D03*
Y55300D02*
D03*
Y54800D02*
D03*
Y54300D02*
D03*
Y53800D02*
D03*
Y53300D02*
D03*
Y52800D02*
D03*
Y52300D02*
D03*
Y51800D02*
D03*
Y51300D02*
D03*
Y50800D02*
D03*
Y50300D02*
D03*
D23*
X33950Y53050D02*
D03*
D24*
X41275Y63075D02*
D03*
X42230Y60975D02*
D03*
X40320D02*
D03*
D25*
X31870Y59000D02*
D03*
X33140D02*
D03*
X34410D02*
D03*
X35680D02*
D03*
X31870Y64450D02*
D03*
X33140D02*
D03*
X34410D02*
D03*
X35680D02*
D03*
D26*
X26875Y60450D02*
D03*
X27525D02*
D03*
X28175D02*
D03*
Y58550D02*
D03*
X27525D02*
D03*
X26875D02*
D03*
D27*
X49550Y59600D02*
D03*
Y70800D02*
D03*
D28*
X43975Y55825D02*
D03*
X47175D02*
D03*
X43975Y53975D02*
D03*
X47175D02*
D03*
D29*
X60700Y45775D02*
D03*
X58400D02*
D03*
X60650Y49675D02*
D03*
X58350D02*
D03*
D30*
X8640Y41280D02*
D03*
X11440D02*
D03*
X8640Y40180D02*
D03*
D31*
X11440D02*
D03*
D32*
X63700Y15250D02*
D03*
Y29450D02*
D03*
D33*
Y17250D02*
D03*
Y19250D02*
D03*
Y21250D02*
D03*
Y31450D02*
D03*
Y33450D02*
D03*
Y35450D02*
D03*
D34*
X71200Y12950D02*
D03*
Y23550D02*
D03*
Y27150D02*
D03*
Y37750D02*
D03*
D35*
X28225Y23800D02*
D03*
D36*
X29100Y28550D02*
D03*
X27350D02*
D03*
D37*
X29100Y29800D02*
D03*
D38*
X30250Y14200D02*
D03*
X28150D02*
D03*
D39*
X8825Y14800D02*
D03*
Y16900D02*
D03*
X11350Y31150D02*
D03*
Y29050D02*
D03*
D40*
X11040Y36620D02*
D03*
Y38520D02*
D03*
Y37570D02*
D03*
X8940Y36620D02*
D03*
Y38520D02*
D03*
D41*
X17950Y15550D02*
D03*
X19250D02*
D03*
Y13450D02*
D03*
X18600D02*
D03*
X17950D02*
D03*
X10725Y11775D02*
D03*
X11375D02*
D03*
X12025D02*
D03*
Y13875D02*
D03*
X10725D02*
D03*
D42*
X14987Y27350D02*
D03*
Y28000D02*
D03*
Y28650D02*
D03*
Y29300D02*
D03*
Y29950D02*
D03*
Y30600D02*
D03*
Y31250D02*
D03*
X20863D02*
D03*
Y30600D02*
D03*
Y29950D02*
D03*
Y29300D02*
D03*
Y28650D02*
D03*
Y28000D02*
D03*
Y27350D02*
D03*
D43*
X34050Y14200D02*
D03*
Y14850D02*
D03*
Y15500D02*
D03*
X31950D02*
D03*
Y14200D02*
D03*
D44*
X13750Y19325D02*
D03*
Y20275D02*
D03*
Y21225D02*
D03*
X11250D02*
D03*
Y20275D02*
D03*
Y19325D02*
D03*
D45*
X14875Y5925D02*
D03*
X21275D02*
D03*
D46*
X5450Y14825D02*
D03*
Y18525D02*
D03*
D47*
X7900Y34900D02*
D03*
D48*
X12970Y41960D02*
D03*
Y41460D02*
D03*
Y40960D02*
D03*
Y40460D02*
D03*
Y39960D02*
D03*
Y39460D02*
D03*
X16520D02*
D03*
Y39960D02*
D03*
Y40460D02*
D03*
Y40960D02*
D03*
Y41460D02*
D03*
Y41960D02*
D03*
D49*
X13495Y38935D02*
D03*
X13995D02*
D03*
X14495D02*
D03*
X14995D02*
D03*
X15495D02*
D03*
X15995D02*
D03*
Y42485D02*
D03*
X15495D02*
D03*
X14995D02*
D03*
X14495D02*
D03*
X13995D02*
D03*
X13495D02*
D03*
D50*
X14745Y40710D02*
D03*
D51*
X21575Y69045D02*
D03*
X57775Y67120D02*
D03*
D52*
X21575Y59855D02*
D03*
X57775Y57930D02*
D03*
D53*
X17650Y23750D02*
D03*
X19950Y24700D02*
D03*
Y22800D02*
D03*
X24600Y15975D02*
D03*
X22300Y15025D02*
D03*
Y16925D02*
D03*
D54*
X5750Y32025D02*
D03*
X6700Y29725D02*
D03*
X4800D02*
D03*
D55*
X16225Y46625D02*
D03*
Y48525D02*
D03*
X14125Y47575D02*
D03*
X12350Y45025D02*
D03*
Y46925D02*
D03*
X10250Y45975D02*
D03*
D104*
X3500Y51525D02*
D03*
X3700Y62100D02*
D03*
X3275Y9750D02*
D03*
X3325Y25550D02*
D03*
D105*
X40425Y3475D02*
D03*
X28375Y3400D02*
D03*
D106*
X7495Y35225D02*
D03*
Y34575D02*
D03*
X8305D02*
D03*
Y35225D02*
D03*
D107*
X27175Y31600D02*
X28350D01*
X29100Y29800D02*
Y30850D01*
X28350Y31600D02*
X29100Y30850D01*
D108*
X30800Y38300D02*
Y48375D01*
X29600Y37100D02*
X30800Y38300D01*
X27175Y37100D02*
X29600D01*
X30800Y48375D02*
X31700Y49275D01*
X27175Y35575D02*
Y37100D01*
X27175Y37100D02*
X27175Y37100D01*
Y35575D02*
X27175Y35575D01*
D109*
X19175Y55075D02*
X20525Y53725D01*
X46112Y4312D02*
X46150Y4350D01*
X45112Y4312D02*
X46112D01*
X44275Y3475D02*
X45112Y4312D01*
X44275Y3475D02*
X45000Y2750D01*
X46075D02*
X46100Y2725D01*
X45000Y2750D02*
X46075D01*
X7725Y20550D02*
Y20737D01*
Y20925D01*
X8025Y21225D02*
X11250D01*
X7725Y20550D02*
X8000Y20275D01*
X11250D01*
X7725Y20925D02*
X8025Y21225D01*
X27375Y7743D02*
Y8825D01*
Y7743D02*
X28372Y6747D01*
X28375D01*
X29450Y7822D02*
Y8775D01*
X28375Y6747D02*
X29450Y7822D01*
X26400Y9800D02*
X27375Y8825D01*
X3925Y5275D02*
Y6475D01*
X3275Y7125D02*
X3925Y6475D01*
X2675Y5325D02*
Y6525D01*
X3275Y7125D01*
D110*
X3500Y51525D02*
X3750Y51775D01*
X16856D01*
X3700Y62100D02*
X3925Y62325D01*
X14425D01*
X18600Y58150D01*
X3700Y60168D02*
Y61900D01*
Y62100D01*
Y60168D02*
X3993Y59875D01*
X11100D01*
X14325D01*
X40425Y3475D02*
X44275D01*
X15601Y53593D02*
Y58599D01*
X14325Y59875D02*
X15601Y58599D01*
X15894Y53300D02*
X16875D01*
X15601Y53593D02*
X15894Y53300D01*
X18600Y55650D02*
X19175Y55075D01*
X18600Y55650D02*
Y58150D01*
X16856Y51775D02*
X16882Y51801D01*
X7100Y21362D02*
Y22775D01*
Y21362D02*
X7725Y20737D01*
X7100Y22775D02*
X7100Y22775D01*
X7100Y22775D02*
Y24800D01*
X6350Y25550D02*
X7100Y24800D01*
X3325Y25550D02*
X6350D01*
X28375Y3400D02*
Y6747D01*
X3275Y7125D02*
Y9750D01*
D111*
X27175Y32900D02*
Y34275D01*
D112*
X11660Y40180D02*
X11940Y40460D01*
X11440Y40180D02*
X11660D01*
X11940Y40460D02*
X12970D01*
X11640Y41280D02*
X11960Y40960D01*
X12970D01*
X11440Y41280D02*
X11640D01*
X8400Y40420D02*
X8640Y40180D01*
X8400Y41040D02*
X8640Y41280D01*
X6202Y41200D02*
X6454Y40949D01*
X7781Y41040D02*
X8400D01*
X7690Y40949D02*
X7781Y41040D01*
X6454Y40949D02*
X7690D01*
X6110Y41200D02*
X6202D01*
X5163Y40753D02*
X5663D01*
X6110Y41200D01*
X4760Y40350D02*
X5163Y40753D01*
X7690Y40601D02*
X7872Y40420D01*
X8400D01*
X6202Y40350D02*
X6454Y40601D01*
X7690D01*
X6110Y40350D02*
X6202D01*
D113*
X54780Y38025D02*
D03*
X52240D02*
D03*
X49700D02*
D03*
X47160D02*
D03*
X44620D02*
D03*
X42080D02*
D03*
X57320D02*
D03*
Y15165D02*
D03*
X42080Y15125D02*
D03*
X47160D02*
D03*
X49700D02*
D03*
X52240D02*
D03*
X54780D02*
D03*
X44620D02*
D03*
X39540D02*
D03*
D114*
Y38025D02*
D03*
D115*
X5130Y36450D02*
D03*
Y45100D02*
D03*
D116*
X1750Y36450D02*
D03*
Y45100D02*
D03*
D117*
X4760Y43750D02*
D03*
Y42900D02*
D03*
Y42050D02*
D03*
Y41200D02*
D03*
Y40350D02*
D03*
Y39500D02*
D03*
Y38650D02*
D03*
Y37800D02*
D03*
X6110D02*
D03*
Y38650D02*
D03*
Y39500D02*
D03*
Y40350D02*
D03*
Y41200D02*
D03*
Y42050D02*
D03*
Y42900D02*
D03*
Y43750D02*
D03*
D118*
X16670Y18720D02*
D03*
X13125Y15525D02*
D03*
X9100Y49150D02*
D03*
X13575Y48825D02*
D03*
X32775Y48650D02*
D03*
X29475Y45475D02*
D03*
X27600Y45450D02*
D03*
X27825Y48425D02*
D03*
X29450Y41550D02*
D03*
X25400Y59650D02*
D03*
X31025Y28025D02*
D03*
X8825Y10575D02*
D03*
X11093Y10668D02*
D03*
X20350Y10400D02*
D03*
X17300Y11600D02*
D03*
X13450Y11775D02*
D03*
X22150Y11850D02*
D03*
X13425Y12900D02*
D03*
X19250Y12175D02*
D03*
X32000Y12850D02*
D03*
X7500Y13300D02*
D03*
X9025Y28525D02*
D03*
X8925Y26125D02*
D03*
X53875Y19250D02*
D03*
X23075Y13100D02*
D03*
X12075Y25850D02*
D03*
X41775Y71300D02*
D03*
X46450Y69004D02*
D03*
X54100Y57925D02*
D03*
X13550Y71275D02*
D03*
X24800Y19775D02*
D03*
Y30600D02*
D03*
X21725Y19725D02*
D03*
X18575Y29950D02*
D03*
X23750Y18475D02*
D03*
X23800Y29300D02*
D03*
X22725Y28075D02*
D03*
X35375Y18450D02*
D03*
X22250Y21200D02*
D03*
X20891Y21165D02*
D03*
X49625Y50450D02*
D03*
X47550Y49600D02*
D03*
X39200Y48896D02*
D03*
X38575Y48075D02*
D03*
X38796Y57700D02*
D03*
X40200Y57675D02*
D03*
X38550Y53121D02*
D03*
X38650Y56575D02*
D03*
X39500Y54025D02*
D03*
X39350Y51950D02*
D03*
X40325Y51175D02*
D03*
X40425Y56075D02*
D03*
X38825Y55450D02*
D03*
X18750Y69050D02*
D03*
X18700Y59850D02*
D03*
X57775Y69000D02*
D03*
X46150Y4350D02*
D03*
X46100Y2725D02*
D03*
X71100Y14425D02*
D03*
X71150Y21875D02*
D03*
X71100Y28825D02*
D03*
Y36000D02*
D03*
X52900Y25450D02*
D03*
X49300Y23675D02*
D03*
X60080Y15185D02*
D03*
Y17210D02*
D03*
Y29335D02*
D03*
Y31385D02*
D03*
X49250Y28600D02*
D03*
X43300Y25500D02*
D03*
X32250Y42650D02*
D03*
X29454Y42525D02*
D03*
X29500Y48700D02*
D03*
X29105Y51662D02*
D03*
X28875Y54475D02*
D03*
X28991Y53421D02*
D03*
X34800Y47225D02*
D03*
X26950Y50150D02*
D03*
X26750Y48500D02*
D03*
X25925Y49425D02*
D03*
X35925Y47650D02*
D03*
X37275Y47675D02*
D03*
X55250Y17175D02*
D03*
X40625Y31400D02*
D03*
X35275D02*
D03*
Y42875D02*
D03*
X40250Y42950D02*
D03*
X48325Y17100D02*
D03*
X42650Y58925D02*
D03*
X46300Y17075D02*
D03*
X32225Y41550D02*
D03*
X24675D02*
D03*
X22650Y48500D02*
D03*
X22625Y45425D02*
D03*
X19475Y49625D02*
D03*
X19425Y47325D02*
D03*
X26200Y47375D02*
D03*
X17100Y43846D02*
D03*
X19300Y45275D02*
D03*
X20500Y43846D02*
D03*
X20675Y49450D02*
D03*
X24650Y50475D02*
D03*
X25925Y51250D02*
D03*
X27925Y55175D02*
D03*
X29493Y56254D02*
D03*
X24225Y56350D02*
D03*
X43250Y17150D02*
D03*
X25300Y69475D02*
D03*
X24300Y68275D02*
D03*
X42250Y67250D02*
D03*
X24325Y57625D02*
D03*
X25400Y60900D02*
D03*
X49300Y40550D02*
D03*
X29750Y61775D02*
D03*
X29825Y60200D02*
D03*
X30450Y63200D02*
D03*
X25350Y58425D02*
D03*
X45000Y68150D02*
D03*
X47050Y40500D02*
D03*
X44575Y40450D02*
D03*
X40825Y66475D02*
D03*
X40025Y65600D02*
D03*
X28171Y65025D02*
D03*
X37450Y60400D02*
D03*
X30454Y64450D02*
D03*
X29704Y65525D02*
D03*
X28875Y66475D02*
D03*
X43150Y40475D02*
D03*
X40750Y40450D02*
D03*
X39375Y40400D02*
D03*
X55700Y42425D02*
D03*
X58300Y40925D02*
D03*
X34825Y45625D02*
D03*
X34800Y43975D02*
D03*
X20200Y57850D02*
D03*
X21500Y57600D02*
D03*
X51300Y47125D02*
D03*
X55450D02*
D03*
X35675Y57425D02*
D03*
X34430Y62595D02*
D03*
X51425Y57025D02*
D03*
X52750Y44400D02*
D03*
X56850Y44500D02*
D03*
X62000Y45800D02*
D03*
X56975Y48375D02*
D03*
X62000Y49675D02*
D03*
X56900Y52200D02*
D03*
X51325Y52700D02*
D03*
X26900Y65025D02*
D03*
X15800Y44200D02*
D03*
X24575Y37100D02*
D03*
X12475Y34350D02*
D03*
X8400Y24225D02*
D03*
X16025Y23800D02*
D03*
X17275Y28425D02*
D03*
X7350Y28125D02*
D03*
X13975Y25850D02*
D03*
X16325Y31175D02*
D03*
X21425Y24700D02*
D03*
X35325Y14175D02*
D03*
X13025Y31175D02*
D03*
X34050Y16750D02*
D03*
X35875Y12650D02*
D03*
X31075Y11125D02*
D03*
X28150Y12150D02*
D03*
X25075Y12250D02*
D03*
X31375Y9800D02*
D03*
X25069Y7236D02*
D03*
X3925Y5275D02*
D03*
X2675Y5325D02*
D03*
X8250Y30950D02*
D03*
X8225Y29700D02*
D03*
X16225Y34900D02*
D03*
X11150Y32675D02*
D03*
X17700Y36325D02*
D03*
X7475Y33600D02*
D03*
X3500Y39000D02*
D03*
X3375Y42550D02*
D03*
X12475Y22775D02*
D03*
X12450Y35300D02*
D03*
X17900Y38475D02*
D03*
X12380Y48305D02*
D03*
X7520Y38880D02*
D03*
X1750Y46390D02*
D03*
X3400Y37750D02*
D03*
X1640Y33430D02*
D03*
X3360Y43720D02*
D03*
X5210Y46610D02*
D03*
D119*
X31750Y50850D02*
D03*
Y51950D02*
D03*
Y53050D02*
D03*
Y54150D02*
D03*
Y55250D02*
D03*
X32850Y50850D02*
D03*
Y51950D02*
D03*
Y53050D02*
D03*
Y54150D02*
D03*
Y55250D02*
D03*
X33950Y50850D02*
D03*
Y51950D02*
D03*
Y53050D02*
D03*
Y54150D02*
D03*
Y55250D02*
D03*
X35050Y50850D02*
D03*
Y51950D02*
D03*
Y53050D02*
D03*
Y54150D02*
D03*
Y55250D02*
D03*
X36150Y50850D02*
D03*
Y51950D02*
D03*
Y53050D02*
D03*
Y54150D02*
D03*
Y55250D02*
D03*
X14195Y41260D02*
D03*
X15295D02*
D03*
X14195Y40160D02*
D03*
X15295D02*
D03*
M02*
