G04*
G04 #@! TF.GenerationSoftware,Altium Limited,Altium Designer,22.10.1 (41)*
G04*
G04 Layer_Physical_Order=3*
G04 Layer_Color=16440176*
%FSLAX43Y43*%
%MOMM*%
G71*
G04*
G04 #@! TF.SameCoordinates,DCDCABE6-F013-49A3-9D9D-6440811BB2A6*
G04*
G04*
G04 #@! TF.FilePolarity,Positive*
G04*
G01*
G75*
%ADD16C,0.254*%
%ADD113C,1.650*%
%ADD118C,0.700*%
G36*
X74000Y500D02*
X500D01*
X500Y73000D01*
X74000D01*
Y500D01*
D02*
G37*
%LPC*%
G36*
X41886Y71860D02*
X41664D01*
X41458Y71775D01*
X41300Y71617D01*
X41215Y71411D01*
Y71189D01*
X41300Y70983D01*
X41458Y70825D01*
X41664Y70740D01*
X41886D01*
X42092Y70825D01*
X42250Y70983D01*
X42335Y71189D01*
Y71411D01*
X42250Y71617D01*
X42092Y71775D01*
X41886Y71860D01*
D02*
G37*
G36*
X13661Y71835D02*
X13439D01*
X13233Y71750D01*
X13075Y71592D01*
X12990Y71386D01*
Y71164D01*
X13075Y70958D01*
X13233Y70800D01*
X13439Y70715D01*
X13661D01*
X13867Y70800D01*
X14025Y70958D01*
X14110Y71164D01*
Y71386D01*
X14025Y71592D01*
X13867Y71750D01*
X13661Y71835D01*
D02*
G37*
G36*
X25411Y70035D02*
X25189D01*
X24983Y69950D01*
X24825Y69792D01*
X24740Y69586D01*
Y69364D01*
X24825Y69158D01*
X24983Y69000D01*
X25189Y68915D01*
X25411D01*
X25617Y69000D01*
X25775Y69158D01*
X25860Y69364D01*
Y69586D01*
X25775Y69792D01*
X25617Y69950D01*
X25411Y70035D01*
D02*
G37*
G36*
X18861Y69610D02*
X18639D01*
X18433Y69525D01*
X18275Y69367D01*
X18190Y69161D01*
Y68939D01*
X18275Y68733D01*
X18433Y68575D01*
X18639Y68490D01*
X18861D01*
X19067Y68575D01*
X19225Y68733D01*
X19310Y68939D01*
Y69161D01*
X19225Y69367D01*
X19067Y69525D01*
X18861Y69610D01*
D02*
G37*
G36*
X46561Y69564D02*
X46339D01*
X46133Y69479D01*
X45975Y69321D01*
X45890Y69115D01*
Y68893D01*
X45975Y68687D01*
X46133Y68529D01*
X46339Y68444D01*
X46561D01*
X46767Y68529D01*
X46925Y68687D01*
X47010Y68893D01*
Y69115D01*
X46925Y69321D01*
X46767Y69479D01*
X46561Y69564D01*
D02*
G37*
G36*
X57886Y69560D02*
X57664D01*
X57458Y69475D01*
X57300Y69317D01*
X57215Y69111D01*
Y68889D01*
X57300Y68683D01*
X57458Y68525D01*
X57664Y68440D01*
X57886D01*
X58092Y68525D01*
X58250Y68683D01*
X58335Y68889D01*
Y69111D01*
X58250Y69317D01*
X58092Y69475D01*
X57886Y69560D01*
D02*
G37*
G36*
X24411Y68835D02*
X24189D01*
X23983Y68750D01*
X23825Y68592D01*
X23740Y68386D01*
Y68164D01*
X23825Y67958D01*
X23983Y67800D01*
X24189Y67715D01*
X24411D01*
X24617Y67800D01*
X24775Y67958D01*
X24860Y68164D01*
Y68386D01*
X24775Y68592D01*
X24617Y68750D01*
X24411Y68835D01*
D02*
G37*
G36*
X45111Y68710D02*
X44889D01*
X44683Y68625D01*
X44525Y68467D01*
X44440Y68261D01*
Y68039D01*
X44525Y67833D01*
X44683Y67675D01*
X44889Y67590D01*
X45111D01*
X45317Y67675D01*
X45475Y67833D01*
X45560Y68039D01*
Y68261D01*
X45475Y68467D01*
X45317Y68625D01*
X45111Y68710D01*
D02*
G37*
G36*
X40936Y67035D02*
X40714D01*
X40508Y66950D01*
X40350Y66792D01*
X40265Y66586D01*
Y66364D01*
X40312Y66250D01*
X40197Y66135D01*
X40136Y66160D01*
X39914D01*
X39708Y66075D01*
X39550Y65917D01*
X39465Y65711D01*
Y65489D01*
X39550Y65283D01*
X39708Y65125D01*
X39914Y65040D01*
X40136D01*
X40342Y65125D01*
X40500Y65283D01*
X40585Y65489D01*
Y65711D01*
X40538Y65825D01*
X40653Y65940D01*
X40714Y65915D01*
X40936D01*
X41142Y66000D01*
X41300Y66158D01*
X41385Y66364D01*
Y66586D01*
X41300Y66792D01*
X41142Y66950D01*
X40936Y67035D01*
D02*
G37*
G36*
X28986D02*
X28764D01*
X28558Y66950D01*
X28400Y66792D01*
X28315Y66586D01*
Y66364D01*
X28400Y66158D01*
X28558Y66000D01*
X28764Y65915D01*
X28986D01*
X29163Y65988D01*
X29248Y65861D01*
X29229Y65842D01*
X29144Y65636D01*
Y65414D01*
X29229Y65208D01*
X29387Y65050D01*
X29593Y64965D01*
X29815D01*
X30021Y65050D01*
X30179Y65208D01*
X30264Y65414D01*
Y65636D01*
X30179Y65842D01*
X30021Y66000D01*
X29815Y66085D01*
X29593D01*
X29416Y66012D01*
X29331Y66139D01*
X29350Y66158D01*
X29435Y66364D01*
Y66586D01*
X29350Y66792D01*
X29192Y66950D01*
X28986Y67035D01*
D02*
G37*
G36*
X28282Y65585D02*
X28060D01*
X27854Y65500D01*
X27696Y65342D01*
X27611Y65136D01*
Y64914D01*
X27696Y64708D01*
X27854Y64550D01*
X28060Y64465D01*
X28282D01*
X28488Y64550D01*
X28646Y64708D01*
X28731Y64914D01*
Y65136D01*
X28646Y65342D01*
X28488Y65500D01*
X28282Y65585D01*
D02*
G37*
G36*
X30565Y65010D02*
X30343D01*
X30137Y64925D01*
X29979Y64767D01*
X29894Y64561D01*
Y64339D01*
X29979Y64133D01*
X30137Y63975D01*
X30316Y63901D01*
X30321Y63871D01*
X30318Y63760D01*
X30316Y63751D01*
X30133Y63675D01*
X29975Y63517D01*
X29890Y63311D01*
Y63089D01*
X29975Y62883D01*
X30133Y62725D01*
X30339Y62640D01*
X30561D01*
X30767Y62725D01*
X30925Y62883D01*
X31010Y63089D01*
Y63311D01*
X30925Y63517D01*
X30767Y63675D01*
X30588Y63749D01*
X30583Y63779D01*
X30586Y63890D01*
X30588Y63899D01*
X30771Y63975D01*
X30929Y64133D01*
X31014Y64339D01*
Y64561D01*
X30929Y64767D01*
X30771Y64925D01*
X30565Y65010D01*
D02*
G37*
G36*
X34541Y63155D02*
X34319D01*
X34113Y63070D01*
X33955Y62912D01*
X33870Y62706D01*
Y62484D01*
X33955Y62278D01*
X34113Y62120D01*
X34319Y62035D01*
X34541D01*
X34747Y62120D01*
X34905Y62278D01*
X34990Y62484D01*
Y62706D01*
X34905Y62912D01*
X34747Y63070D01*
X34541Y63155D01*
D02*
G37*
G36*
X29861Y62335D02*
X29639D01*
X29433Y62250D01*
X29275Y62092D01*
X29190Y61886D01*
Y61664D01*
X29275Y61458D01*
X29433Y61300D01*
X29639Y61215D01*
X29861D01*
X30067Y61300D01*
X30225Y61458D01*
X30310Y61664D01*
Y61886D01*
X30225Y62092D01*
X30067Y62250D01*
X29861Y62335D01*
D02*
G37*
G36*
X29936Y60760D02*
X29714D01*
X29508Y60675D01*
X29350Y60517D01*
X29265Y60311D01*
Y60089D01*
X29350Y59883D01*
X29508Y59725D01*
X29714Y59640D01*
X29936D01*
X30142Y59725D01*
X30300Y59883D01*
X30385Y60089D01*
Y60311D01*
X30300Y60517D01*
X30142Y60675D01*
X29936Y60760D01*
D02*
G37*
G36*
X18811Y60410D02*
X18589D01*
X18383Y60325D01*
X18225Y60167D01*
X18140Y59961D01*
Y59739D01*
X18225Y59533D01*
X18383Y59375D01*
X18589Y59290D01*
X18811D01*
X19017Y59375D01*
X19175Y59533D01*
X19260Y59739D01*
Y59961D01*
X19175Y60167D01*
X19017Y60325D01*
X18811Y60410D01*
D02*
G37*
G36*
X42761Y59485D02*
X42539D01*
X42333Y59400D01*
X42175Y59242D01*
X42090Y59036D01*
Y58814D01*
X42175Y58608D01*
X42333Y58450D01*
X42539Y58365D01*
X42761D01*
X42967Y58450D01*
X43125Y58608D01*
X43210Y58814D01*
Y59036D01*
X43125Y59242D01*
X42967Y59400D01*
X42761Y59485D01*
D02*
G37*
G36*
X25511Y61460D02*
X25289D01*
X25083Y61375D01*
X24925Y61217D01*
X24840Y61011D01*
Y60789D01*
X24925Y60583D01*
X25083Y60425D01*
X25264Y60350D01*
X25268Y60330D01*
Y60220D01*
X25264Y60200D01*
X25083Y60125D01*
X24925Y59967D01*
X24840Y59761D01*
Y59539D01*
X24925Y59333D01*
X25083Y59175D01*
X25208Y59124D01*
X25194Y58967D01*
X25033Y58900D01*
X24875Y58742D01*
X24790Y58536D01*
Y58314D01*
X24875Y58108D01*
X25033Y57950D01*
X25239Y57865D01*
X25461D01*
X25667Y57950D01*
X25825Y58108D01*
X25910Y58314D01*
Y58536D01*
X25825Y58742D01*
X25667Y58900D01*
X25542Y58951D01*
X25556Y59108D01*
X25717Y59175D01*
X25875Y59333D01*
X25960Y59539D01*
Y59761D01*
X25875Y59967D01*
X25717Y60125D01*
X25536Y60200D01*
X25532Y60220D01*
Y60330D01*
X25536Y60350D01*
X25717Y60425D01*
X25875Y60583D01*
X25960Y60789D01*
Y61011D01*
X25875Y61217D01*
X25717Y61375D01*
X25511Y61460D01*
D02*
G37*
G36*
X54211Y58485D02*
X53989D01*
X53783Y58400D01*
X53625Y58242D01*
X53540Y58036D01*
Y57814D01*
X53625Y57608D01*
X53783Y57450D01*
X53989Y57365D01*
X54211D01*
X54417Y57450D01*
X54575Y57608D01*
X54660Y57814D01*
Y58036D01*
X54575Y58242D01*
X54417Y58400D01*
X54211Y58485D01*
D02*
G37*
G36*
X20311Y58410D02*
X20089D01*
X19883Y58325D01*
X19725Y58167D01*
X19640Y57961D01*
Y57739D01*
X19725Y57533D01*
X19883Y57375D01*
X20089Y57290D01*
X20311D01*
X20517Y57375D01*
X20675Y57533D01*
X20760Y57739D01*
Y57961D01*
X20675Y58167D01*
X20517Y58325D01*
X20311Y58410D01*
D02*
G37*
G36*
X40311Y58235D02*
X40089D01*
X39883Y58150D01*
X39725Y57992D01*
X39640Y57786D01*
Y57564D01*
X39725Y57358D01*
X39883Y57200D01*
X40089Y57115D01*
X40311D01*
X40517Y57200D01*
X40675Y57358D01*
X40760Y57564D01*
Y57786D01*
X40675Y57992D01*
X40517Y58150D01*
X40311Y58235D01*
D02*
G37*
G36*
X24436Y58185D02*
X24214D01*
X24008Y58100D01*
X23850Y57942D01*
X23765Y57736D01*
Y57514D01*
X23850Y57308D01*
X24008Y57150D01*
X24214Y57065D01*
X24436D01*
X24642Y57150D01*
X24800Y57308D01*
X24885Y57514D01*
Y57736D01*
X24800Y57942D01*
X24642Y58100D01*
X24436Y58185D01*
D02*
G37*
G36*
X35786Y57985D02*
X35564D01*
X35358Y57900D01*
X35200Y57742D01*
X35115Y57536D01*
Y57314D01*
X35200Y57108D01*
X35358Y56950D01*
X35564Y56865D01*
X35786D01*
X35992Y56950D01*
X36150Y57108D01*
X36235Y57314D01*
Y57536D01*
X36150Y57742D01*
X35992Y57900D01*
X35786Y57985D01*
D02*
G37*
G36*
X51536Y57585D02*
X51314D01*
X51108Y57500D01*
X50950Y57342D01*
X50865Y57136D01*
Y56914D01*
X50950Y56708D01*
X51108Y56550D01*
X51314Y56465D01*
X51536D01*
X51742Y56550D01*
X51900Y56708D01*
X51985Y56914D01*
Y57136D01*
X51900Y57342D01*
X51742Y57500D01*
X51536Y57585D01*
D02*
G37*
G36*
X40536Y56635D02*
X40314D01*
X40108Y56550D01*
X39950Y56392D01*
X39865Y56186D01*
Y55964D01*
X39950Y55758D01*
X40108Y55600D01*
X40314Y55515D01*
X40536D01*
X40742Y55600D01*
X40900Y55758D01*
X40985Y55964D01*
Y56186D01*
X40900Y56392D01*
X40742Y56550D01*
X40536Y56635D01*
D02*
G37*
G36*
X38907Y58260D02*
X38685D01*
X38479Y58175D01*
X38321Y58017D01*
X38236Y57811D01*
Y57589D01*
X38321Y57383D01*
X38445Y57259D01*
X38438Y57127D01*
X38422Y57087D01*
X38333Y57050D01*
X38175Y56892D01*
X38090Y56686D01*
Y56464D01*
X38175Y56258D01*
X38333Y56100D01*
X38442Y56055D01*
X38453Y56034D01*
X38466Y55883D01*
X38350Y55767D01*
X38265Y55561D01*
Y55339D01*
X38350Y55133D01*
X38508Y54975D01*
X38714Y54890D01*
X38936D01*
X39142Y54975D01*
X39300Y55133D01*
X39385Y55339D01*
Y55561D01*
X39300Y55767D01*
X39142Y55925D01*
X39033Y55970D01*
X39022Y55991D01*
X39009Y56142D01*
X39125Y56258D01*
X39210Y56464D01*
Y56686D01*
X39125Y56892D01*
X39001Y57016D01*
X39008Y57148D01*
X39024Y57188D01*
X39113Y57225D01*
X39271Y57383D01*
X39356Y57589D01*
Y57811D01*
X39271Y58017D01*
X39113Y58175D01*
X38907Y58260D01*
D02*
G37*
G36*
X36242Y55710D02*
X36058D01*
X35889Y55640D01*
X35760Y55511D01*
X35690Y55341D01*
Y55159D01*
X35760Y54989D01*
X35889Y54860D01*
X36058Y54790D01*
X36242D01*
X36411Y54860D01*
X36540Y54989D01*
X36610Y55159D01*
Y55341D01*
X36540Y55511D01*
X36411Y55640D01*
X36242Y55710D01*
D02*
G37*
G36*
X35141D02*
X34958D01*
X34789Y55640D01*
X34660Y55511D01*
X34590Y55341D01*
Y55159D01*
X34660Y54989D01*
X34789Y54860D01*
X34958Y54790D01*
X35141D01*
X35311Y54860D01*
X35440Y54989D01*
X35510Y55159D01*
Y55341D01*
X35440Y55511D01*
X35311Y55640D01*
X35141Y55710D01*
D02*
G37*
G36*
X34042D02*
X33859D01*
X33689Y55640D01*
X33560Y55511D01*
X33490Y55341D01*
Y55159D01*
X33560Y54989D01*
X33689Y54860D01*
X33859Y54790D01*
X34042D01*
X34211Y54860D01*
X34340Y54989D01*
X34410Y55159D01*
Y55341D01*
X34340Y55511D01*
X34211Y55640D01*
X34042Y55710D01*
D02*
G37*
G36*
X32942D02*
X32758D01*
X32589Y55640D01*
X32460Y55511D01*
X32390Y55341D01*
Y55159D01*
X32460Y54989D01*
X32589Y54860D01*
X32758Y54790D01*
X32942D01*
X33111Y54860D01*
X33240Y54989D01*
X33310Y55159D01*
Y55341D01*
X33240Y55511D01*
X33111Y55640D01*
X32942Y55710D01*
D02*
G37*
G36*
X31841D02*
X31659D01*
X31489Y55640D01*
X31360Y55511D01*
X31290Y55341D01*
Y55159D01*
X31360Y54989D01*
X31489Y54860D01*
X31659Y54790D01*
X31841D01*
X32011Y54860D01*
X32140Y54989D01*
X32210Y55159D01*
Y55341D01*
X32140Y55511D01*
X32011Y55640D01*
X31841Y55710D01*
D02*
G37*
G36*
X36242Y54610D02*
X36058D01*
X35889Y54540D01*
X35760Y54411D01*
X35690Y54241D01*
Y54058D01*
X35760Y53889D01*
X35889Y53760D01*
X36058Y53690D01*
X36242D01*
X36411Y53760D01*
X36540Y53889D01*
X36610Y54058D01*
Y54241D01*
X36540Y54411D01*
X36411Y54540D01*
X36242Y54610D01*
D02*
G37*
G36*
X35141D02*
X34958D01*
X34789Y54540D01*
X34660Y54411D01*
X34590Y54241D01*
Y54058D01*
X34660Y53889D01*
X34789Y53760D01*
X34958Y53690D01*
X35141D01*
X35311Y53760D01*
X35440Y53889D01*
X35510Y54058D01*
Y54241D01*
X35440Y54411D01*
X35311Y54540D01*
X35141Y54610D01*
D02*
G37*
G36*
X34042D02*
X33859D01*
X33689Y54540D01*
X33560Y54411D01*
X33490Y54241D01*
Y54058D01*
X33560Y53889D01*
X33689Y53760D01*
X33859Y53690D01*
X34042D01*
X34211Y53760D01*
X34340Y53889D01*
X34410Y54058D01*
Y54241D01*
X34340Y54411D01*
X34211Y54540D01*
X34042Y54610D01*
D02*
G37*
G36*
X32942D02*
X32758D01*
X32589Y54540D01*
X32460Y54411D01*
X32390Y54241D01*
Y54058D01*
X32460Y53889D01*
X32589Y53760D01*
X32758Y53690D01*
X32942D01*
X33111Y53760D01*
X33240Y53889D01*
X33310Y54058D01*
Y54241D01*
X33240Y54411D01*
X33111Y54540D01*
X32942Y54610D01*
D02*
G37*
G36*
X31841D02*
X31659D01*
X31489Y54540D01*
X31360Y54411D01*
X31290Y54241D01*
Y54058D01*
X31360Y53889D01*
X31489Y53760D01*
X31659Y53690D01*
X31841D01*
X32011Y53760D01*
X32140Y53889D01*
X32210Y54058D01*
Y54241D01*
X32140Y54411D01*
X32011Y54540D01*
X31841Y54610D01*
D02*
G37*
G36*
X39611Y54585D02*
X39389D01*
X39183Y54500D01*
X39025Y54342D01*
X38940Y54136D01*
Y53914D01*
X39025Y53708D01*
X39183Y53550D01*
X39389Y53465D01*
X39611D01*
X39817Y53550D01*
X39975Y53708D01*
X40060Y53914D01*
Y54136D01*
X39975Y54342D01*
X39817Y54500D01*
X39611Y54585D01*
D02*
G37*
G36*
X28036Y55735D02*
X27814D01*
X27608Y55650D01*
X27450Y55492D01*
X27365Y55286D01*
Y55064D01*
X27450Y54858D01*
X27608Y54700D01*
X27814Y54615D01*
X28036D01*
X28191Y54679D01*
X28277Y54615D01*
X28315Y54577D01*
Y54364D01*
X28400Y54158D01*
X28558Y54000D01*
X28564Y53998D01*
X28599Y53821D01*
X28516Y53738D01*
X28431Y53533D01*
Y53310D01*
X28516Y53104D01*
X28674Y52946D01*
X28880Y52861D01*
X29103D01*
X29308Y52946D01*
X29466Y53104D01*
X29551Y53310D01*
Y53533D01*
X29466Y53738D01*
X29308Y53896D01*
X29302Y53898D01*
X29267Y54075D01*
X29350Y54158D01*
X29435Y54364D01*
Y54586D01*
X29350Y54792D01*
X29192Y54950D01*
X28986Y55035D01*
X28764D01*
X28609Y54971D01*
X28523Y55035D01*
X28485Y55073D01*
Y55286D01*
X28400Y55492D01*
X28242Y55650D01*
X28036Y55735D01*
D02*
G37*
G36*
X36242Y53510D02*
X36058D01*
X35889Y53440D01*
X35760Y53311D01*
X35690Y53141D01*
Y52958D01*
X35760Y52789D01*
X35889Y52660D01*
X36058Y52590D01*
X36242D01*
X36411Y52660D01*
X36540Y52789D01*
X36610Y52958D01*
Y53141D01*
X36540Y53311D01*
X36411Y53440D01*
X36242Y53510D01*
D02*
G37*
G36*
X35141D02*
X34958D01*
X34789Y53440D01*
X34660Y53311D01*
X34590Y53141D01*
Y52958D01*
X34660Y52789D01*
X34789Y52660D01*
X34958Y52590D01*
X35141D01*
X35311Y52660D01*
X35440Y52789D01*
X35510Y52958D01*
Y53141D01*
X35440Y53311D01*
X35311Y53440D01*
X35141Y53510D01*
D02*
G37*
G36*
X34042D02*
X33859D01*
X33689Y53440D01*
X33560Y53311D01*
X33490Y53141D01*
Y52958D01*
X33560Y52789D01*
X33689Y52660D01*
X33859Y52590D01*
X34042D01*
X34211Y52660D01*
X34340Y52789D01*
X34410Y52958D01*
Y53141D01*
X34340Y53311D01*
X34211Y53440D01*
X34042Y53510D01*
D02*
G37*
G36*
X32942D02*
X32758D01*
X32589Y53440D01*
X32460Y53311D01*
X32390Y53141D01*
Y52958D01*
X32460Y52789D01*
X32589Y52660D01*
X32758Y52590D01*
X32942D01*
X33111Y52660D01*
X33240Y52789D01*
X33310Y52958D01*
Y53141D01*
X33240Y53311D01*
X33111Y53440D01*
X32942Y53510D01*
D02*
G37*
G36*
X31841D02*
X31659D01*
X31489Y53440D01*
X31360Y53311D01*
X31290Y53141D01*
Y52958D01*
X31360Y52789D01*
X31489Y52660D01*
X31659Y52590D01*
X31841D01*
X32011Y52660D01*
X32140Y52789D01*
X32210Y52958D01*
Y53141D01*
X32140Y53311D01*
X32011Y53440D01*
X31841Y53510D01*
D02*
G37*
G36*
X51436Y53260D02*
X51214D01*
X51008Y53175D01*
X50850Y53017D01*
X50765Y52811D01*
Y52589D01*
X50850Y52383D01*
X51008Y52225D01*
X51214Y52140D01*
X51436D01*
X51642Y52225D01*
X51800Y52383D01*
X51885Y52589D01*
Y52811D01*
X51800Y53017D01*
X51642Y53175D01*
X51436Y53260D01*
D02*
G37*
G36*
X36242Y52410D02*
X36058D01*
X35889Y52340D01*
X35760Y52211D01*
X35690Y52042D01*
Y51859D01*
X35760Y51689D01*
X35889Y51560D01*
X36058Y51490D01*
X36242D01*
X36411Y51560D01*
X36540Y51689D01*
X36610Y51859D01*
Y52042D01*
X36540Y52211D01*
X36411Y52340D01*
X36242Y52410D01*
D02*
G37*
G36*
X35141D02*
X34958D01*
X34789Y52340D01*
X34660Y52211D01*
X34590Y52042D01*
Y51859D01*
X34660Y51689D01*
X34789Y51560D01*
X34958Y51490D01*
X35141D01*
X35311Y51560D01*
X35440Y51689D01*
X35510Y51859D01*
Y52042D01*
X35440Y52211D01*
X35311Y52340D01*
X35141Y52410D01*
D02*
G37*
G36*
X34042D02*
X33859D01*
X33689Y52340D01*
X33560Y52211D01*
X33490Y52042D01*
Y51859D01*
X33560Y51689D01*
X33689Y51560D01*
X33859Y51490D01*
X34042D01*
X34211Y51560D01*
X34340Y51689D01*
X34410Y51859D01*
Y52042D01*
X34340Y52211D01*
X34211Y52340D01*
X34042Y52410D01*
D02*
G37*
G36*
X32942D02*
X32758D01*
X32589Y52340D01*
X32460Y52211D01*
X32390Y52042D01*
Y51859D01*
X32460Y51689D01*
X32589Y51560D01*
X32758Y51490D01*
X32942D01*
X33111Y51560D01*
X33240Y51689D01*
X33310Y51859D01*
Y52042D01*
X33240Y52211D01*
X33111Y52340D01*
X32942Y52410D01*
D02*
G37*
G36*
X31841D02*
X31659D01*
X31489Y52340D01*
X31360Y52211D01*
X31290Y52042D01*
Y51859D01*
X31360Y51689D01*
X31489Y51560D01*
X31659Y51490D01*
X31841D01*
X32011Y51560D01*
X32140Y51689D01*
X32210Y51859D01*
Y52042D01*
X32140Y52211D01*
X32011Y52340D01*
X31841Y52410D01*
D02*
G37*
G36*
X29216Y52222D02*
X28993D01*
X28788Y52137D01*
X28630Y51980D01*
X28545Y51774D01*
Y51551D01*
X28630Y51345D01*
X28788Y51188D01*
X28993Y51102D01*
X29216D01*
X29422Y51188D01*
X29579Y51345D01*
X29665Y51551D01*
Y51774D01*
X29579Y51980D01*
X29422Y52137D01*
X29216Y52222D01*
D02*
G37*
G36*
X26036Y51810D02*
X25814D01*
X25608Y51725D01*
X25450Y51567D01*
X25365Y51361D01*
Y51139D01*
X25450Y50933D01*
X25608Y50775D01*
X25814Y50690D01*
X26036D01*
X26242Y50775D01*
X26400Y50933D01*
X26485Y51139D01*
Y51361D01*
X26400Y51567D01*
X26242Y51725D01*
X26036Y51810D01*
D02*
G37*
G36*
X39461Y52510D02*
X39239D01*
X39033Y52425D01*
X38875Y52267D01*
X38790Y52061D01*
Y51839D01*
X38875Y51633D01*
X39033Y51475D01*
X39239Y51390D01*
X39461D01*
X39667Y51475D01*
X39691Y51499D01*
X39818Y51414D01*
X39765Y51286D01*
Y51064D01*
X39850Y50858D01*
X40008Y50700D01*
X40214Y50615D01*
X40436D01*
X40642Y50700D01*
X40800Y50858D01*
X40885Y51064D01*
Y51286D01*
X40800Y51492D01*
X40642Y51650D01*
X40436Y51735D01*
X40214D01*
X40008Y51650D01*
X39984Y51626D01*
X39857Y51711D01*
X39910Y51839D01*
Y52061D01*
X39825Y52267D01*
X39667Y52425D01*
X39461Y52510D01*
D02*
G37*
G36*
X36242Y51310D02*
X36058D01*
X35889Y51240D01*
X35760Y51111D01*
X35690Y50942D01*
Y50758D01*
X35760Y50589D01*
X35889Y50460D01*
X36058Y50390D01*
X36242D01*
X36411Y50460D01*
X36540Y50589D01*
X36610Y50758D01*
Y50942D01*
X36540Y51111D01*
X36411Y51240D01*
X36242Y51310D01*
D02*
G37*
G36*
X35141D02*
X34958D01*
X34789Y51240D01*
X34660Y51111D01*
X34590Y50942D01*
Y50758D01*
X34660Y50589D01*
X34789Y50460D01*
X34958Y50390D01*
X35141D01*
X35311Y50460D01*
X35440Y50589D01*
X35510Y50758D01*
Y50942D01*
X35440Y51111D01*
X35311Y51240D01*
X35141Y51310D01*
D02*
G37*
G36*
X34042D02*
X33859D01*
X33689Y51240D01*
X33560Y51111D01*
X33490Y50942D01*
Y50758D01*
X33560Y50589D01*
X33689Y50460D01*
X33859Y50390D01*
X34042D01*
X34211Y50460D01*
X34340Y50589D01*
X34410Y50758D01*
Y50942D01*
X34340Y51111D01*
X34211Y51240D01*
X34042Y51310D01*
D02*
G37*
G36*
X32942D02*
X32758D01*
X32589Y51240D01*
X32460Y51111D01*
X32390Y50942D01*
Y50758D01*
X32460Y50589D01*
X32589Y50460D01*
X32758Y50390D01*
X32942D01*
X33111Y50460D01*
X33240Y50589D01*
X33310Y50758D01*
Y50942D01*
X33240Y51111D01*
X33111Y51240D01*
X32942Y51310D01*
D02*
G37*
G36*
X31841D02*
X31659D01*
X31489Y51240D01*
X31360Y51111D01*
X31290Y50942D01*
Y50758D01*
X31360Y50589D01*
X31489Y50460D01*
X31659Y50390D01*
X31841D01*
X32011Y50460D01*
X32140Y50589D01*
X32210Y50758D01*
Y50942D01*
X32140Y51111D01*
X32011Y51240D01*
X31841Y51310D01*
D02*
G37*
G36*
X24761Y51035D02*
X24539D01*
X24333Y50950D01*
X24175Y50792D01*
X24090Y50586D01*
Y50364D01*
X24175Y50158D01*
X24333Y50000D01*
X24539Y49915D01*
X24761D01*
X24967Y50000D01*
X25125Y50158D01*
X25210Y50364D01*
Y50586D01*
X25125Y50792D01*
X24967Y50950D01*
X24761Y51035D01*
D02*
G37*
G36*
X49736Y51010D02*
X49514D01*
X49308Y50925D01*
X49150Y50767D01*
X49065Y50561D01*
Y50339D01*
X49150Y50133D01*
X49308Y49975D01*
X49514Y49890D01*
X49736D01*
X49942Y49975D01*
X50100Y50133D01*
X50185Y50339D01*
Y50561D01*
X50100Y50767D01*
X49942Y50925D01*
X49736Y51010D01*
D02*
G37*
G36*
X62111Y50235D02*
X61889D01*
X61683Y50150D01*
X61525Y49992D01*
X61440Y49786D01*
Y49564D01*
X61525Y49358D01*
X61683Y49200D01*
X61889Y49115D01*
X62111D01*
X62317Y49200D01*
X62475Y49358D01*
X62560Y49564D01*
Y49786D01*
X62475Y49992D01*
X62317Y50150D01*
X62111Y50235D01*
D02*
G37*
G36*
X47661Y50160D02*
X47439D01*
X47233Y50075D01*
X47075Y49917D01*
X46990Y49711D01*
Y49489D01*
X47075Y49283D01*
X47233Y49125D01*
X47439Y49040D01*
X47661D01*
X47867Y49125D01*
X48025Y49283D01*
X48110Y49489D01*
Y49711D01*
X48025Y49917D01*
X47867Y50075D01*
X47661Y50160D01*
D02*
G37*
G36*
X19586Y50185D02*
X19364D01*
X19158Y50100D01*
X19000Y49942D01*
X18915Y49736D01*
Y49514D01*
X19000Y49308D01*
X19158Y49150D01*
X19364Y49065D01*
X19586D01*
X19792Y49150D01*
X19950Y49308D01*
X19965Y49345D01*
X20078Y49340D01*
X20120Y49327D01*
X20200Y49133D01*
X20358Y48975D01*
X20564Y48890D01*
X20786D01*
X20992Y48975D01*
X21150Y49133D01*
X21235Y49339D01*
Y49561D01*
X21150Y49767D01*
X20992Y49925D01*
X20786Y50010D01*
X20564D01*
X20358Y49925D01*
X20200Y49767D01*
X20185Y49730D01*
X20072Y49735D01*
X20030Y49748D01*
X19950Y49942D01*
X19792Y50100D01*
X19586Y50185D01*
D02*
G37*
G36*
X9211Y49710D02*
X8989D01*
X8783Y49625D01*
X8625Y49467D01*
X8540Y49261D01*
Y49039D01*
X8625Y48833D01*
X8783Y48675D01*
X8989Y48590D01*
X9211D01*
X9417Y48675D01*
X9575Y48833D01*
X9660Y49039D01*
Y49261D01*
X9575Y49467D01*
X9417Y49625D01*
X9211Y49710D01*
D02*
G37*
G36*
X13686Y49385D02*
X13464D01*
X13258Y49300D01*
X13100Y49142D01*
X13015Y48936D01*
Y48714D01*
X13100Y48508D01*
X13258Y48350D01*
X13464Y48265D01*
X13686D01*
X13892Y48350D01*
X14050Y48508D01*
X14135Y48714D01*
Y48936D01*
X14050Y49142D01*
X13892Y49300D01*
X13686Y49385D01*
D02*
G37*
G36*
X22761Y49060D02*
X22539D01*
X22333Y48975D01*
X22175Y48817D01*
X22090Y48611D01*
Y48389D01*
X22175Y48183D01*
X22333Y48025D01*
X22539Y47940D01*
X22761D01*
X22967Y48025D01*
X23125Y48183D01*
X23210Y48389D01*
Y48611D01*
X23125Y48817D01*
X22967Y48975D01*
X22761Y49060D01*
D02*
G37*
G36*
X12491Y48865D02*
X12269D01*
X12063Y48780D01*
X11905Y48622D01*
X11820Y48416D01*
Y48194D01*
X11905Y47988D01*
X12063Y47830D01*
X12269Y47745D01*
X12491D01*
X12697Y47830D01*
X12855Y47988D01*
X12940Y48194D01*
Y48416D01*
X12855Y48622D01*
X12697Y48780D01*
X12491Y48865D01*
D02*
G37*
G36*
X36036Y48210D02*
X35814D01*
X35608Y48125D01*
X35450Y47967D01*
X35365Y47761D01*
Y47664D01*
X35215Y47602D01*
X35117Y47700D01*
X34911Y47785D01*
X34689D01*
X34483Y47700D01*
X34325Y47542D01*
X34240Y47336D01*
Y47114D01*
X34325Y46908D01*
X34483Y46750D01*
X34689Y46665D01*
X34911D01*
X35117Y46750D01*
X35275Y46908D01*
X35360Y47114D01*
Y47211D01*
X35510Y47273D01*
X35608Y47175D01*
X35814Y47090D01*
X36036D01*
X36242Y47175D01*
X36400Y47333D01*
X36485Y47539D01*
Y47761D01*
X36400Y47967D01*
X36242Y48125D01*
X36036Y48210D01*
D02*
G37*
G36*
X39311Y49456D02*
X39089D01*
X38883Y49371D01*
X38725Y49213D01*
X38640Y49007D01*
Y48785D01*
X38540Y48635D01*
X38464D01*
X38258Y48550D01*
X38100Y48392D01*
X38015Y48186D01*
Y47964D01*
X38100Y47758D01*
X38258Y47600D01*
X38464Y47515D01*
X38686D01*
X38892Y47600D01*
X39050Y47758D01*
X39135Y47964D01*
Y48186D01*
X39235Y48336D01*
X39311D01*
X39517Y48421D01*
X39675Y48579D01*
X39760Y48785D01*
Y49007D01*
X39675Y49213D01*
X39517Y49371D01*
X39311Y49456D01*
D02*
G37*
G36*
X37386Y48235D02*
X37164D01*
X36958Y48150D01*
X36800Y47992D01*
X36715Y47786D01*
Y47564D01*
X36800Y47358D01*
X36958Y47200D01*
X37164Y47115D01*
X37386D01*
X37592Y47200D01*
X37750Y47358D01*
X37835Y47564D01*
Y47786D01*
X37750Y47992D01*
X37592Y48150D01*
X37386Y48235D01*
D02*
G37*
G36*
X26036Y49985D02*
X25814D01*
X25608Y49900D01*
X25450Y49742D01*
X25365Y49536D01*
Y49314D01*
X25450Y49108D01*
X25608Y48950D01*
X25814Y48865D01*
X26036D01*
X26168Y48919D01*
X26233Y48857D01*
X26267Y48798D01*
X26190Y48611D01*
Y48389D01*
X26275Y48183D01*
X26396Y48062D01*
X26312Y47936D01*
X26311Y47935D01*
X26089D01*
X25883Y47850D01*
X25725Y47692D01*
X25640Y47486D01*
Y47264D01*
X25725Y47058D01*
X25883Y46900D01*
X26089Y46815D01*
X26311D01*
X26517Y46900D01*
X26675Y47058D01*
X26760Y47264D01*
Y47486D01*
X26675Y47692D01*
X26554Y47812D01*
X26638Y47939D01*
X26639Y47940D01*
X26861D01*
X27067Y48025D01*
X27225Y48183D01*
X27310Y48389D01*
Y48611D01*
X27225Y48817D01*
X27067Y48975D01*
X26861Y49060D01*
X26639D01*
X26507Y49006D01*
X26442Y49068D01*
X26408Y49127D01*
X26485Y49314D01*
Y49536D01*
X26400Y49742D01*
X26242Y49900D01*
X26036Y49985D01*
D02*
G37*
G36*
X19536Y47885D02*
X19314D01*
X19108Y47800D01*
X18950Y47642D01*
X18865Y47436D01*
Y47214D01*
X18950Y47008D01*
X19108Y46850D01*
X19314Y46765D01*
X19536D01*
X19742Y46850D01*
X19900Y47008D01*
X19985Y47214D01*
Y47436D01*
X19900Y47642D01*
X19742Y47800D01*
X19536Y47885D01*
D02*
G37*
G36*
X55561Y47685D02*
X55339D01*
X55133Y47600D01*
X54975Y47442D01*
X54890Y47236D01*
Y47014D01*
X54975Y46808D01*
X55133Y46650D01*
X55339Y46565D01*
X55561D01*
X55767Y46650D01*
X55925Y46808D01*
X56010Y47014D01*
Y47236D01*
X55925Y47442D01*
X55767Y47600D01*
X55561Y47685D01*
D02*
G37*
G36*
X51411D02*
X51189D01*
X50983Y47600D01*
X50825Y47442D01*
X50740Y47236D01*
Y47014D01*
X50825Y46808D01*
X50983Y46650D01*
X51189Y46565D01*
X51411D01*
X51617Y46650D01*
X51775Y46808D01*
X51860Y47014D01*
Y47236D01*
X51775Y47442D01*
X51617Y47600D01*
X51411Y47685D01*
D02*
G37*
G36*
X5321Y47170D02*
X5099D01*
X4893Y47085D01*
X4735Y46927D01*
X4650Y46721D01*
Y46499D01*
X4735Y46293D01*
X4893Y46135D01*
X5099Y46050D01*
X5321D01*
X5527Y46135D01*
X5685Y46293D01*
X5770Y46499D01*
Y46721D01*
X5685Y46927D01*
X5527Y47085D01*
X5321Y47170D01*
D02*
G37*
G36*
X62111Y46360D02*
X61889D01*
X61683Y46275D01*
X61525Y46117D01*
X61440Y45911D01*
Y45689D01*
X61525Y45483D01*
X61683Y45325D01*
X61889Y45240D01*
X62111D01*
X62317Y45325D01*
X62475Y45483D01*
X62560Y45689D01*
Y45911D01*
X62475Y46117D01*
X62317Y46275D01*
X62111Y46360D01*
D02*
G37*
G36*
X34936Y46185D02*
X34714D01*
X34508Y46100D01*
X34350Y45942D01*
X34265Y45736D01*
Y45514D01*
X34350Y45308D01*
X34508Y45150D01*
X34714Y45065D01*
X34936D01*
X35142Y45150D01*
X35300Y45308D01*
X35385Y45514D01*
Y45736D01*
X35300Y45942D01*
X35142Y46100D01*
X34936Y46185D01*
D02*
G37*
G36*
X29586Y46035D02*
X29364D01*
X29158Y45950D01*
X29000Y45792D01*
X28915Y45586D01*
Y45364D01*
X29000Y45158D01*
X29158Y45000D01*
X29364Y44915D01*
X29586D01*
X29792Y45000D01*
X29950Y45158D01*
X30035Y45364D01*
Y45586D01*
X29950Y45792D01*
X29792Y45950D01*
X29586Y46035D01*
D02*
G37*
G36*
X27711Y46010D02*
X27489D01*
X27283Y45925D01*
X27125Y45767D01*
X27040Y45561D01*
Y45339D01*
X27125Y45133D01*
X27283Y44975D01*
X27489Y44890D01*
X27711D01*
X27917Y44975D01*
X28075Y45133D01*
X28160Y45339D01*
Y45561D01*
X28075Y45767D01*
X27917Y45925D01*
X27711Y46010D01*
D02*
G37*
G36*
X22736Y45985D02*
X22514D01*
X22308Y45900D01*
X22150Y45742D01*
X22065Y45536D01*
Y45314D01*
X22150Y45108D01*
X22308Y44950D01*
X22514Y44865D01*
X22736D01*
X22942Y44950D01*
X23100Y45108D01*
X23185Y45314D01*
Y45536D01*
X23100Y45742D01*
X22942Y45900D01*
X22736Y45985D01*
D02*
G37*
G36*
X19411Y45835D02*
X19189D01*
X18983Y45750D01*
X18825Y45592D01*
X18740Y45386D01*
Y45164D01*
X18825Y44958D01*
X18983Y44800D01*
X19189Y44715D01*
X19411D01*
X19617Y44800D01*
X19775Y44958D01*
X19860Y45164D01*
Y45386D01*
X19775Y45592D01*
X19617Y45750D01*
X19411Y45835D01*
D02*
G37*
G36*
X1861Y46950D02*
X1639D01*
X1433Y46865D01*
X1275Y46707D01*
X1190Y46501D01*
Y46279D01*
X1275Y46073D01*
X1432Y45916D01*
X1432Y45913D01*
X1402Y45766D01*
X1350D01*
X1178Y45743D01*
X1017Y45677D01*
X879Y45571D01*
X773Y45433D01*
X707Y45272D01*
X684Y45100D01*
X707Y44928D01*
X773Y44767D01*
X879Y44629D01*
X1017Y44523D01*
X1178Y44457D01*
X1350Y44434D01*
X2150D01*
X2322Y44457D01*
X2483Y44523D01*
X2621Y44629D01*
X2727Y44767D01*
X2793Y44928D01*
X2816Y45100D01*
X2793Y45272D01*
X2727Y45433D01*
X2621Y45571D01*
X2483Y45677D01*
X2322Y45743D01*
X2150Y45766D01*
X2098D01*
X2068Y45913D01*
X2068Y45916D01*
X2225Y46073D01*
X2310Y46279D01*
Y46501D01*
X2225Y46707D01*
X2067Y46865D01*
X1861Y46950D01*
D02*
G37*
G36*
X56961Y45060D02*
X56739D01*
X56533Y44975D01*
X56375Y44817D01*
X56290Y44611D01*
Y44389D01*
X56375Y44183D01*
X56533Y44025D01*
X56739Y43940D01*
X56961D01*
X57167Y44025D01*
X57325Y44183D01*
X57410Y44389D01*
Y44611D01*
X57325Y44817D01*
X57167Y44975D01*
X56961Y45060D01*
D02*
G37*
G36*
X52861Y44960D02*
X52639D01*
X52433Y44875D01*
X52275Y44717D01*
X52190Y44511D01*
Y44289D01*
X52275Y44083D01*
X52433Y43925D01*
X52639Y43840D01*
X52861D01*
X53067Y43925D01*
X53225Y44083D01*
X53310Y44289D01*
Y44511D01*
X53225Y44717D01*
X53067Y44875D01*
X52861Y44960D01*
D02*
G37*
G36*
X15911Y44760D02*
X15689D01*
X15483Y44675D01*
X15325Y44517D01*
X15240Y44311D01*
Y44089D01*
X15325Y43883D01*
X15483Y43725D01*
X15689Y43640D01*
X15911D01*
X16117Y43725D01*
X16275Y43883D01*
X16360Y44089D01*
Y44311D01*
X16275Y44517D01*
X16117Y44675D01*
X15911Y44760D01*
D02*
G37*
G36*
X20611Y44406D02*
X20389D01*
X20183Y44321D01*
X20025Y44163D01*
X19940Y43957D01*
Y43735D01*
X20025Y43529D01*
X20183Y43371D01*
X20389Y43286D01*
X20611D01*
X20817Y43371D01*
X20975Y43529D01*
X21060Y43735D01*
Y43957D01*
X20975Y44163D01*
X20817Y44321D01*
X20611Y44406D01*
D02*
G37*
G36*
X17211D02*
X16989D01*
X16783Y44321D01*
X16625Y44163D01*
X16540Y43957D01*
Y43735D01*
X16625Y43529D01*
X16783Y43371D01*
X16989Y43286D01*
X17211D01*
X17417Y43371D01*
X17575Y43529D01*
X17660Y43735D01*
Y43957D01*
X17575Y44163D01*
X17417Y44321D01*
X17211Y44406D01*
D02*
G37*
G36*
X40361Y43510D02*
X40139D01*
X39933Y43425D01*
X39775Y43267D01*
X39690Y43061D01*
Y42839D01*
X39775Y42633D01*
X39933Y42475D01*
X40139Y42390D01*
X40361D01*
X40567Y42475D01*
X40725Y42633D01*
X40810Y42839D01*
Y43061D01*
X40725Y43267D01*
X40567Y43425D01*
X40361Y43510D01*
D02*
G37*
G36*
X34911Y44535D02*
X34689D01*
X34483Y44450D01*
X34325Y44292D01*
X34240Y44086D01*
Y43864D01*
X34325Y43658D01*
X34483Y43500D01*
X34689Y43415D01*
X34811D01*
X34873Y43265D01*
X34800Y43192D01*
X34715Y42986D01*
Y42764D01*
X34800Y42558D01*
X34958Y42400D01*
X35164Y42315D01*
X35386D01*
X35592Y42400D01*
X35750Y42558D01*
X35835Y42764D01*
Y42986D01*
X35750Y43192D01*
X35592Y43350D01*
X35386Y43435D01*
X35264D01*
X35202Y43585D01*
X35275Y43658D01*
X35360Y43864D01*
Y44086D01*
X35275Y44292D01*
X35117Y44450D01*
X34911Y44535D01*
D02*
G37*
G36*
X3471Y44280D02*
X3249D01*
X3043Y44195D01*
X2885Y44037D01*
X2800Y43831D01*
Y43609D01*
X2885Y43403D01*
X3043Y43245D01*
X3120Y43213D01*
Y43051D01*
X3058Y43025D01*
X2900Y42867D01*
X2815Y42661D01*
Y42439D01*
X2900Y42233D01*
X3058Y42075D01*
X3264Y41990D01*
X3486D01*
X3692Y42075D01*
X3850Y42233D01*
X3935Y42439D01*
Y42661D01*
X3850Y42867D01*
X3692Y43025D01*
X3615Y43057D01*
Y43219D01*
X3677Y43245D01*
X3835Y43403D01*
X3920Y43609D01*
Y43831D01*
X3835Y44037D01*
X3677Y44195D01*
X3471Y44280D01*
D02*
G37*
G36*
X32336Y42110D02*
X32114D01*
X31908Y42025D01*
X31750Y41867D01*
X31665Y41661D01*
Y41439D01*
X31750Y41233D01*
X31908Y41075D01*
X32114Y40990D01*
X32336D01*
X32542Y41075D01*
X32700Y41233D01*
X32785Y41439D01*
Y41661D01*
X32700Y41867D01*
X32542Y42025D01*
X32336Y42110D01*
D02*
G37*
G36*
X29565Y43085D02*
X29343D01*
X29137Y43000D01*
X28979Y42842D01*
X28894Y42636D01*
Y42414D01*
X28979Y42208D01*
X29050Y42137D01*
X29125Y42035D01*
X29050Y41942D01*
X28975Y41867D01*
X28890Y41661D01*
Y41439D01*
X28975Y41233D01*
X29133Y41075D01*
X29339Y40990D01*
X29561D01*
X29767Y41075D01*
X29925Y41233D01*
X30010Y41439D01*
Y41661D01*
X29925Y41867D01*
X29854Y41938D01*
X29779Y42040D01*
X29854Y42133D01*
X29929Y42208D01*
X30014Y42414D01*
Y42636D01*
X29929Y42842D01*
X29771Y43000D01*
X29565Y43085D01*
D02*
G37*
G36*
X24786Y42110D02*
X24564D01*
X24358Y42025D01*
X24200Y41867D01*
X24115Y41661D01*
Y41439D01*
X24200Y41233D01*
X24358Y41075D01*
X24564Y40990D01*
X24786D01*
X24992Y41075D01*
X25150Y41233D01*
X25235Y41439D01*
Y41661D01*
X25150Y41867D01*
X24992Y42025D01*
X24786Y42110D01*
D02*
G37*
G36*
X15387Y41720D02*
X15203D01*
X15034Y41650D01*
X14905Y41521D01*
X14835Y41352D01*
Y41168D01*
X14905Y40999D01*
X15034Y40870D01*
X15203Y40800D01*
X15387D01*
X15556Y40870D01*
X15685Y40999D01*
X15755Y41168D01*
Y41352D01*
X15685Y41521D01*
X15556Y41650D01*
X15387Y41720D01*
D02*
G37*
G36*
X14286D02*
X14104D01*
X13934Y41650D01*
X13805Y41521D01*
X13735Y41352D01*
Y41168D01*
X13805Y40999D01*
X13934Y40870D01*
X14104Y40800D01*
X14286D01*
X14456Y40870D01*
X14585Y40999D01*
X14655Y41168D01*
Y41352D01*
X14585Y41521D01*
X14456Y41650D01*
X14286Y41720D01*
D02*
G37*
G36*
X58411Y41485D02*
X58189D01*
X57983Y41400D01*
X57825Y41242D01*
X57740Y41036D01*
Y40814D01*
X57825Y40608D01*
X57983Y40450D01*
X58189Y40365D01*
X58411D01*
X58617Y40450D01*
X58775Y40608D01*
X58860Y40814D01*
Y41036D01*
X58775Y41242D01*
X58617Y41400D01*
X58411Y41485D01*
D02*
G37*
G36*
X49411Y41110D02*
X49189D01*
X48983Y41025D01*
X48825Y40867D01*
X48740Y40661D01*
Y40439D01*
X48825Y40233D01*
X48983Y40075D01*
X49189Y39990D01*
X49411D01*
X49617Y40075D01*
X49775Y40233D01*
X49860Y40439D01*
Y40661D01*
X49775Y40867D01*
X49617Y41025D01*
X49411Y41110D01*
D02*
G37*
G36*
X47161Y41060D02*
X46939D01*
X46733Y40975D01*
X46575Y40817D01*
X46490Y40611D01*
Y40389D01*
X46575Y40183D01*
X46733Y40025D01*
X46939Y39940D01*
X47161D01*
X47367Y40025D01*
X47525Y40183D01*
X47610Y40389D01*
Y40611D01*
X47525Y40817D01*
X47367Y40975D01*
X47161Y41060D01*
D02*
G37*
G36*
X43261Y41035D02*
X43039D01*
X42833Y40950D01*
X42675Y40792D01*
X42590Y40586D01*
Y40364D01*
X42675Y40158D01*
X42833Y40000D01*
X43039Y39915D01*
X43261D01*
X43467Y40000D01*
X43625Y40158D01*
X43710Y40364D01*
Y40586D01*
X43625Y40792D01*
X43467Y40950D01*
X43261Y41035D01*
D02*
G37*
G36*
X44686Y41010D02*
X44464D01*
X44258Y40925D01*
X44100Y40767D01*
X44015Y40561D01*
Y40339D01*
X44100Y40133D01*
X44258Y39975D01*
X44464Y39890D01*
X44686D01*
X44892Y39975D01*
X45050Y40133D01*
X45135Y40339D01*
Y40561D01*
X45050Y40767D01*
X44892Y40925D01*
X44686Y41010D01*
D02*
G37*
G36*
X40861D02*
X40639D01*
X40433Y40925D01*
X40275Y40767D01*
X40190Y40561D01*
Y40339D01*
X40275Y40133D01*
X40433Y39975D01*
X40639Y39890D01*
X40861D01*
X41067Y39975D01*
X41225Y40133D01*
X41310Y40339D01*
Y40561D01*
X41225Y40767D01*
X41067Y40925D01*
X40861Y41010D01*
D02*
G37*
G36*
X39486Y40960D02*
X39264D01*
X39058Y40875D01*
X38900Y40717D01*
X38815Y40511D01*
Y40289D01*
X38900Y40083D01*
X39058Y39925D01*
X39264Y39840D01*
X39486D01*
X39692Y39925D01*
X39850Y40083D01*
X39935Y40289D01*
Y40511D01*
X39850Y40717D01*
X39692Y40875D01*
X39486Y40960D01*
D02*
G37*
G36*
X15387Y40620D02*
X15203D01*
X15034Y40550D01*
X14905Y40421D01*
X14835Y40251D01*
Y40069D01*
X14905Y39899D01*
X15034Y39770D01*
X15203Y39700D01*
X15387D01*
X15556Y39770D01*
X15685Y39899D01*
X15755Y40069D01*
Y40251D01*
X15685Y40421D01*
X15556Y40550D01*
X15387Y40620D01*
D02*
G37*
G36*
X14286D02*
X14104D01*
X13934Y40550D01*
X13805Y40421D01*
X13735Y40251D01*
Y40069D01*
X13805Y39899D01*
X13934Y39770D01*
X14104Y39700D01*
X14286D01*
X14456Y39770D01*
X14585Y39899D01*
X14655Y40069D01*
Y40251D01*
X14585Y40421D01*
X14456Y40550D01*
X14286Y40620D01*
D02*
G37*
G36*
X7631Y39440D02*
X7409D01*
X7203Y39355D01*
X7045Y39197D01*
X6960Y38991D01*
Y38769D01*
X7045Y38563D01*
X7203Y38405D01*
X7409Y38320D01*
X7631D01*
X7837Y38405D01*
X7995Y38563D01*
X8080Y38769D01*
Y38991D01*
X7995Y39197D01*
X7837Y39355D01*
X7631Y39440D01*
D02*
G37*
G36*
X54922Y39104D02*
X54907D01*
Y38152D01*
X55859D01*
Y38167D01*
X55785Y38441D01*
X55643Y38688D01*
X55443Y38888D01*
X55196Y39030D01*
X54922Y39104D01*
D02*
G37*
G36*
X54653D02*
X54638D01*
X54364Y39030D01*
X54117Y38888D01*
X53917Y38688D01*
X53775Y38441D01*
X53701Y38167D01*
Y38152D01*
X54653D01*
Y39104D01*
D02*
G37*
G36*
X18011Y39035D02*
X17789D01*
X17583Y38950D01*
X17425Y38792D01*
X17340Y38586D01*
Y38364D01*
X17425Y38158D01*
X17583Y38000D01*
X17789Y37915D01*
X18011D01*
X18217Y38000D01*
X18375Y38158D01*
X18460Y38364D01*
Y38586D01*
X18375Y38792D01*
X18217Y38950D01*
X18011Y39035D01*
D02*
G37*
G36*
X6216Y44285D02*
X6004D01*
X5807Y44204D01*
X5656Y44053D01*
X5575Y43856D01*
Y43644D01*
X5656Y43447D01*
X5778Y43325D01*
X5656Y43203D01*
X5575Y43006D01*
Y42794D01*
X5656Y42597D01*
X5778Y42475D01*
X5656Y42353D01*
X5575Y42156D01*
Y41944D01*
X5656Y41747D01*
X5778Y41625D01*
X5656Y41503D01*
X5575Y41306D01*
Y41094D01*
X5656Y40897D01*
X5778Y40775D01*
X5656Y40653D01*
X5575Y40456D01*
Y40244D01*
X5656Y40047D01*
X5778Y39925D01*
X5656Y39803D01*
X5575Y39606D01*
Y39394D01*
X5656Y39197D01*
X5778Y39075D01*
X5656Y38953D01*
X5575Y38756D01*
Y38544D01*
X5656Y38347D01*
X5778Y38225D01*
X5656Y38103D01*
X5575Y37906D01*
Y37694D01*
X5656Y37497D01*
X5807Y37346D01*
X6004Y37265D01*
X6216D01*
X6413Y37346D01*
X6564Y37497D01*
X6645Y37694D01*
Y37906D01*
X6564Y38103D01*
X6442Y38225D01*
X6564Y38347D01*
X6645Y38544D01*
Y38756D01*
X6564Y38953D01*
X6442Y39075D01*
X6564Y39197D01*
X6645Y39394D01*
Y39606D01*
X6564Y39803D01*
X6442Y39925D01*
X6564Y40047D01*
X6645Y40244D01*
Y40456D01*
X6564Y40653D01*
X6442Y40775D01*
X6564Y40897D01*
X6645Y41094D01*
Y41306D01*
X6564Y41503D01*
X6442Y41625D01*
X6564Y41747D01*
X6645Y41944D01*
Y42156D01*
X6564Y42353D01*
X6442Y42475D01*
X6564Y42597D01*
X6645Y42794D01*
Y43006D01*
X6564Y43203D01*
X6442Y43325D01*
X6564Y43447D01*
X6645Y43644D01*
Y43856D01*
X6564Y44053D01*
X6413Y44204D01*
X6216Y44285D01*
D02*
G37*
G36*
X3611Y39560D02*
X3389D01*
X3183Y39475D01*
X3025Y39317D01*
X2940Y39111D01*
Y38889D01*
X3025Y38683D01*
X3183Y38525D01*
X3340Y38460D01*
X3310Y38310D01*
X3289D01*
X3083Y38225D01*
X2925Y38067D01*
X2840Y37861D01*
Y37639D01*
X2925Y37433D01*
X3083Y37275D01*
X3289Y37190D01*
X3511D01*
X3717Y37275D01*
X3875Y37433D01*
X3960Y37639D01*
Y37861D01*
X3875Y38067D01*
X3717Y38225D01*
X3560Y38290D01*
X3590Y38440D01*
X3611D01*
X3817Y38525D01*
X3975Y38683D01*
X4060Y38889D01*
Y39111D01*
X3975Y39317D01*
X3817Y39475D01*
X3611Y39560D01*
D02*
G37*
G36*
X57456Y39060D02*
X57184D01*
X56921Y38989D01*
X56684Y38853D01*
X56492Y38660D01*
X56356Y38424D01*
X56285Y38161D01*
Y37889D01*
X56356Y37626D01*
X56492Y37389D01*
X56684Y37197D01*
X56921Y37061D01*
X57184Y36990D01*
X57456D01*
X57719Y37061D01*
X57956Y37197D01*
X58148Y37389D01*
X58284Y37626D01*
X58355Y37889D01*
Y38161D01*
X58284Y38424D01*
X58148Y38660D01*
X57956Y38853D01*
X57719Y38989D01*
X57456Y39060D01*
D02*
G37*
G36*
X52376D02*
X52104D01*
X51841Y38989D01*
X51604Y38853D01*
X51412Y38660D01*
X51276Y38424D01*
X51205Y38161D01*
Y37889D01*
X51276Y37626D01*
X51412Y37389D01*
X51604Y37197D01*
X51841Y37061D01*
X52104Y36990D01*
X52376D01*
X52639Y37061D01*
X52876Y37197D01*
X53068Y37389D01*
X53204Y37626D01*
X53275Y37889D01*
Y38161D01*
X53204Y38424D01*
X53068Y38660D01*
X52876Y38853D01*
X52639Y38989D01*
X52376Y39060D01*
D02*
G37*
G36*
X49836D02*
X49564D01*
X49301Y38989D01*
X49064Y38853D01*
X48872Y38660D01*
X48736Y38424D01*
X48665Y38161D01*
Y37889D01*
X48736Y37626D01*
X48872Y37389D01*
X49064Y37197D01*
X49301Y37061D01*
X49564Y36990D01*
X49836D01*
X50099Y37061D01*
X50336Y37197D01*
X50528Y37389D01*
X50664Y37626D01*
X50735Y37889D01*
Y38161D01*
X50664Y38424D01*
X50528Y38660D01*
X50336Y38853D01*
X50099Y38989D01*
X49836Y39060D01*
D02*
G37*
G36*
X47296D02*
X47024D01*
X46761Y38989D01*
X46524Y38853D01*
X46332Y38660D01*
X46196Y38424D01*
X46125Y38161D01*
Y37889D01*
X46196Y37626D01*
X46332Y37389D01*
X46524Y37197D01*
X46761Y37061D01*
X47024Y36990D01*
X47296D01*
X47559Y37061D01*
X47796Y37197D01*
X47988Y37389D01*
X48124Y37626D01*
X48195Y37889D01*
Y38161D01*
X48124Y38424D01*
X47988Y38660D01*
X47796Y38853D01*
X47559Y38989D01*
X47296Y39060D01*
D02*
G37*
G36*
X44756D02*
X44484D01*
X44221Y38989D01*
X43984Y38853D01*
X43792Y38660D01*
X43656Y38424D01*
X43585Y38161D01*
Y37889D01*
X43656Y37626D01*
X43792Y37389D01*
X43984Y37197D01*
X44221Y37061D01*
X44484Y36990D01*
X44756D01*
X45019Y37061D01*
X45256Y37197D01*
X45448Y37389D01*
X45584Y37626D01*
X45655Y37889D01*
Y38161D01*
X45584Y38424D01*
X45448Y38660D01*
X45256Y38853D01*
X45019Y38989D01*
X44756Y39060D01*
D02*
G37*
G36*
X42216D02*
X41944D01*
X41681Y38989D01*
X41444Y38853D01*
X41252Y38660D01*
X41116Y38424D01*
X41045Y38161D01*
Y37889D01*
X41116Y37626D01*
X41252Y37389D01*
X41444Y37197D01*
X41681Y37061D01*
X41944Y36990D01*
X42216D01*
X42479Y37061D01*
X42716Y37197D01*
X42908Y37389D01*
X43044Y37626D01*
X43115Y37889D01*
Y38161D01*
X43044Y38424D01*
X42908Y38660D01*
X42716Y38853D01*
X42479Y38989D01*
X42216Y39060D01*
D02*
G37*
G36*
X39676D02*
X39404D01*
X39141Y38989D01*
X38904Y38853D01*
X38712Y38660D01*
X38576Y38424D01*
X38505Y38161D01*
Y37889D01*
X38576Y37626D01*
X38712Y37389D01*
X38904Y37197D01*
X39141Y37061D01*
X39404Y36990D01*
X39676D01*
X39939Y37061D01*
X40176Y37197D01*
X40368Y37389D01*
X40504Y37626D01*
X40575Y37889D01*
Y38161D01*
X40504Y38424D01*
X40368Y38660D01*
X40176Y38853D01*
X39939Y38989D01*
X39676Y39060D01*
D02*
G37*
G36*
X55859Y37898D02*
X54907D01*
Y36946D01*
X54922D01*
X55196Y37020D01*
X55443Y37162D01*
X55643Y37362D01*
X55785Y37609D01*
X55859Y37883D01*
Y37898D01*
D02*
G37*
G36*
X54653D02*
X53701D01*
Y37883D01*
X53775Y37609D01*
X53917Y37362D01*
X54117Y37162D01*
X54364Y37020D01*
X54638Y36946D01*
X54653D01*
Y37898D01*
D02*
G37*
G36*
X24686Y37660D02*
X24464D01*
X24258Y37575D01*
X24100Y37417D01*
X24015Y37211D01*
Y36989D01*
X24100Y36783D01*
X24258Y36625D01*
X24464Y36540D01*
X24686D01*
X24892Y36625D01*
X25050Y36783D01*
X25135Y36989D01*
Y37211D01*
X25050Y37417D01*
X24892Y37575D01*
X24686Y37660D01*
D02*
G37*
G36*
X5880Y45766D02*
X4380D01*
X4208Y45743D01*
X4047Y45677D01*
X3909Y45571D01*
X3803Y45433D01*
X3737Y45272D01*
X3714Y45100D01*
X3737Y44928D01*
X3803Y44767D01*
X3909Y44629D01*
X4047Y44523D01*
X4208Y44457D01*
X4380Y44434D01*
X4652D01*
X4654Y44285D01*
X4457Y44204D01*
X4306Y44053D01*
X4225Y43856D01*
Y43644D01*
X4306Y43447D01*
X4428Y43325D01*
X4306Y43203D01*
X4225Y43006D01*
Y42794D01*
X4306Y42597D01*
X4428Y42475D01*
X4306Y42353D01*
X4225Y42156D01*
Y41944D01*
X4306Y41747D01*
X4428Y41625D01*
X4306Y41503D01*
X4225Y41306D01*
Y41094D01*
X4306Y40897D01*
X4428Y40775D01*
X4306Y40653D01*
X4225Y40456D01*
Y40244D01*
X4306Y40047D01*
X4428Y39925D01*
X4306Y39803D01*
X4225Y39606D01*
Y39394D01*
X4306Y39197D01*
X4428Y39075D01*
X4306Y38953D01*
X4225Y38756D01*
Y38544D01*
X4306Y38347D01*
X4428Y38225D01*
X4306Y38103D01*
X4225Y37906D01*
Y37694D01*
X4306Y37497D01*
X4457Y37346D01*
X4654Y37265D01*
X4652Y37116D01*
X4380D01*
X4208Y37093D01*
X4047Y37027D01*
X3909Y36921D01*
X3803Y36783D01*
X3737Y36622D01*
X3714Y36450D01*
X3737Y36278D01*
X3803Y36117D01*
X3909Y35979D01*
X4047Y35873D01*
X4208Y35807D01*
X4380Y35784D01*
X5880D01*
X6052Y35807D01*
X6213Y35873D01*
X6351Y35979D01*
X6457Y36117D01*
X6523Y36278D01*
X6546Y36450D01*
X6523Y36622D01*
X6457Y36783D01*
X6351Y36921D01*
X6213Y37027D01*
X6052Y37093D01*
X5880Y37116D01*
X4868D01*
X4866Y37265D01*
X5063Y37346D01*
X5214Y37497D01*
X5295Y37694D01*
Y37906D01*
X5214Y38103D01*
X5092Y38225D01*
X5214Y38347D01*
X5295Y38544D01*
Y38756D01*
X5214Y38953D01*
X5092Y39075D01*
X5214Y39197D01*
X5295Y39394D01*
Y39606D01*
X5214Y39803D01*
X5092Y39925D01*
X5214Y40047D01*
X5295Y40244D01*
Y40456D01*
X5214Y40653D01*
X5092Y40775D01*
X5214Y40897D01*
X5295Y41094D01*
Y41306D01*
X5214Y41503D01*
X5092Y41625D01*
X5214Y41747D01*
X5295Y41944D01*
Y42156D01*
X5214Y42353D01*
X5092Y42475D01*
X5214Y42597D01*
X5295Y42794D01*
Y43006D01*
X5214Y43203D01*
X5092Y43325D01*
X5214Y43447D01*
X5295Y43644D01*
Y43856D01*
X5214Y44053D01*
X5063Y44204D01*
X4866Y44285D01*
X4868Y44434D01*
X5880D01*
X6052Y44457D01*
X6213Y44523D01*
X6351Y44629D01*
X6457Y44767D01*
X6523Y44928D01*
X6546Y45100D01*
X6523Y45272D01*
X6457Y45433D01*
X6351Y45571D01*
X6213Y45677D01*
X6052Y45743D01*
X5880Y45766D01*
D02*
G37*
G36*
X2150Y37116D02*
X1350D01*
X1178Y37093D01*
X1017Y37027D01*
X879Y36921D01*
X773Y36783D01*
X707Y36622D01*
X684Y36450D01*
X707Y36278D01*
X773Y36117D01*
X879Y35979D01*
X1017Y35873D01*
X1178Y35807D01*
X1350Y35784D01*
X2150D01*
X2322Y35807D01*
X2483Y35873D01*
X2621Y35979D01*
X2727Y36117D01*
X2793Y36278D01*
X2816Y36450D01*
X2793Y36622D01*
X2727Y36783D01*
X2621Y36921D01*
X2483Y37027D01*
X2322Y37093D01*
X2150Y37116D01*
D02*
G37*
G36*
X17811Y36885D02*
X17589D01*
X17383Y36800D01*
X17225Y36642D01*
X17140Y36436D01*
Y36214D01*
X17225Y36008D01*
X17383Y35850D01*
X17589Y35765D01*
X17811D01*
X18017Y35850D01*
X18175Y36008D01*
X18260Y36214D01*
Y36436D01*
X18175Y36642D01*
X18017Y36800D01*
X17811Y36885D01*
D02*
G37*
G36*
X71211Y36560D02*
X70989D01*
X70783Y36475D01*
X70625Y36317D01*
X70540Y36111D01*
Y35889D01*
X70625Y35683D01*
X70783Y35525D01*
X70989Y35440D01*
X71211D01*
X71417Y35525D01*
X71575Y35683D01*
X71660Y35889D01*
Y36111D01*
X71575Y36317D01*
X71417Y36475D01*
X71211Y36560D01*
D02*
G37*
G36*
X16336Y35460D02*
X16114D01*
X15908Y35375D01*
X15750Y35217D01*
X15665Y35011D01*
Y34789D01*
X15750Y34583D01*
X15908Y34425D01*
X16114Y34340D01*
X16336D01*
X16542Y34425D01*
X16700Y34583D01*
X16785Y34789D01*
Y35011D01*
X16700Y35217D01*
X16542Y35375D01*
X16336Y35460D01*
D02*
G37*
G36*
X12561Y35860D02*
X12339D01*
X12133Y35775D01*
X11975Y35617D01*
X11890Y35411D01*
Y35189D01*
X11975Y34983D01*
X12133Y34825D01*
X12137Y34804D01*
X12000Y34667D01*
X11915Y34461D01*
Y34239D01*
X12000Y34033D01*
X12158Y33875D01*
X12364Y33790D01*
X12586D01*
X12792Y33875D01*
X12950Y34033D01*
X13035Y34239D01*
Y34461D01*
X12950Y34667D01*
X12792Y34825D01*
X12788Y34846D01*
X12925Y34983D01*
X13010Y35189D01*
Y35411D01*
X12925Y35617D01*
X12767Y35775D01*
X12561Y35860D01*
D02*
G37*
G36*
X7586Y34160D02*
X7364D01*
X7158Y34075D01*
X7000Y33917D01*
X6915Y33711D01*
Y33489D01*
X7000Y33283D01*
X7158Y33125D01*
X7364Y33040D01*
X7586D01*
X7792Y33125D01*
X7950Y33283D01*
X8035Y33489D01*
Y33711D01*
X7950Y33917D01*
X7792Y34075D01*
X7586Y34160D01*
D02*
G37*
G36*
X1751Y33990D02*
X1529D01*
X1323Y33905D01*
X1165Y33747D01*
X1080Y33541D01*
Y33319D01*
X1165Y33113D01*
X1323Y32955D01*
X1529Y32870D01*
X1751D01*
X1957Y32955D01*
X2115Y33113D01*
X2200Y33319D01*
Y33541D01*
X2115Y33747D01*
X1957Y33905D01*
X1751Y33990D01*
D02*
G37*
G36*
X11261Y33235D02*
X11039D01*
X10833Y33150D01*
X10675Y32992D01*
X10590Y32786D01*
Y32564D01*
X10675Y32358D01*
X10833Y32200D01*
X11039Y32115D01*
X11261D01*
X11467Y32200D01*
X11625Y32358D01*
X11710Y32564D01*
Y32786D01*
X11625Y32992D01*
X11467Y33150D01*
X11261Y33235D01*
D02*
G37*
G36*
X40736Y31960D02*
X40514D01*
X40308Y31875D01*
X40150Y31717D01*
X40065Y31511D01*
Y31289D01*
X40150Y31083D01*
X40308Y30925D01*
X40514Y30840D01*
X40736D01*
X40942Y30925D01*
X41100Y31083D01*
X41185Y31289D01*
Y31511D01*
X41100Y31717D01*
X40942Y31875D01*
X40736Y31960D01*
D02*
G37*
G36*
X35386D02*
X35164D01*
X34958Y31875D01*
X34800Y31717D01*
X34715Y31511D01*
Y31289D01*
X34800Y31083D01*
X34958Y30925D01*
X35164Y30840D01*
X35386D01*
X35592Y30925D01*
X35750Y31083D01*
X35835Y31289D01*
Y31511D01*
X35750Y31717D01*
X35592Y31875D01*
X35386Y31960D01*
D02*
G37*
G36*
X16436Y31735D02*
X16214D01*
X16008Y31650D01*
X15850Y31492D01*
X15765Y31286D01*
Y31064D01*
X15850Y30858D01*
X16008Y30700D01*
X16214Y30615D01*
X16436D01*
X16642Y30700D01*
X16800Y30858D01*
X16885Y31064D01*
Y31286D01*
X16800Y31492D01*
X16642Y31650D01*
X16436Y31735D01*
D02*
G37*
G36*
X13136D02*
X12914D01*
X12708Y31650D01*
X12550Y31492D01*
X12465Y31286D01*
Y31064D01*
X12550Y30858D01*
X12708Y30700D01*
X12914Y30615D01*
X13136D01*
X13342Y30700D01*
X13500Y30858D01*
X13585Y31064D01*
Y31286D01*
X13500Y31492D01*
X13342Y31650D01*
X13136Y31735D01*
D02*
G37*
G36*
X8361Y31510D02*
X8139D01*
X7933Y31425D01*
X7775Y31267D01*
X7690Y31061D01*
Y30839D01*
X7775Y30633D01*
X7933Y30475D01*
X8139Y30390D01*
X8361D01*
X8567Y30475D01*
X8725Y30633D01*
X8810Y30839D01*
Y31061D01*
X8725Y31267D01*
X8567Y31425D01*
X8361Y31510D01*
D02*
G37*
G36*
X24911Y31160D02*
X24689D01*
X24483Y31075D01*
X24325Y30917D01*
X24240Y30711D01*
Y30489D01*
X24325Y30283D01*
X24483Y30125D01*
X24689Y30040D01*
X24911D01*
X25117Y30125D01*
X25275Y30283D01*
X25360Y30489D01*
Y30711D01*
X25275Y30917D01*
X25117Y31075D01*
X24911Y31160D01*
D02*
G37*
G36*
X18686Y30510D02*
X18464D01*
X18258Y30425D01*
X18100Y30267D01*
X18015Y30061D01*
Y29839D01*
X18100Y29633D01*
X18258Y29475D01*
X18464Y29390D01*
X18686D01*
X18892Y29475D01*
X19050Y29633D01*
X19135Y29839D01*
Y30061D01*
X19050Y30267D01*
X18892Y30425D01*
X18686Y30510D01*
D02*
G37*
G36*
X60191Y29895D02*
X59969D01*
X59763Y29810D01*
X59605Y29652D01*
X59520Y29447D01*
Y29224D01*
X59605Y29018D01*
X59763Y28860D01*
X59969Y28775D01*
X60191D01*
X60397Y28860D01*
X60555Y29018D01*
X60640Y29224D01*
Y29447D01*
X60555Y29652D01*
X60397Y29810D01*
X60191Y29895D01*
D02*
G37*
G36*
X23911Y29860D02*
X23689D01*
X23483Y29775D01*
X23325Y29617D01*
X23240Y29411D01*
Y29189D01*
X23325Y28983D01*
X23483Y28825D01*
X23689Y28740D01*
X23911D01*
X24117Y28825D01*
X24275Y28983D01*
X24360Y29189D01*
Y29411D01*
X24275Y29617D01*
X24117Y29775D01*
X23911Y29860D01*
D02*
G37*
G36*
X71211Y29385D02*
X70989D01*
X70783Y29300D01*
X70625Y29142D01*
X70540Y28936D01*
Y28714D01*
X70625Y28508D01*
X70783Y28350D01*
X70989Y28265D01*
X71211D01*
X71417Y28350D01*
X71575Y28508D01*
X71660Y28714D01*
Y28936D01*
X71575Y29142D01*
X71417Y29300D01*
X71211Y29385D01*
D02*
G37*
G36*
X49361Y29160D02*
X49139D01*
X48933Y29075D01*
X48775Y28917D01*
X48690Y28711D01*
Y28489D01*
X48775Y28283D01*
X48933Y28125D01*
X49139Y28040D01*
X49361D01*
X49567Y28125D01*
X49725Y28283D01*
X49810Y28489D01*
Y28711D01*
X49725Y28917D01*
X49567Y29075D01*
X49361Y29160D01*
D02*
G37*
G36*
X9136Y29085D02*
X8914D01*
X8708Y29000D01*
X8550Y28842D01*
X8465Y28636D01*
Y28414D01*
X8550Y28208D01*
X8708Y28050D01*
X8914Y27965D01*
X9136D01*
X9342Y28050D01*
X9500Y28208D01*
X9585Y28414D01*
Y28636D01*
X9500Y28842D01*
X9342Y29000D01*
X9136Y29085D01*
D02*
G37*
G36*
X17386Y28985D02*
X17164D01*
X16958Y28900D01*
X16800Y28742D01*
X16715Y28536D01*
Y28314D01*
X16800Y28108D01*
X16958Y27950D01*
X17164Y27865D01*
X17386D01*
X17592Y27950D01*
X17750Y28108D01*
X17835Y28314D01*
Y28536D01*
X17750Y28742D01*
X17592Y28900D01*
X17386Y28985D01*
D02*
G37*
G36*
X7461Y28685D02*
X7239D01*
X7033Y28600D01*
X6875Y28442D01*
X6790Y28236D01*
Y28014D01*
X6875Y27808D01*
X7033Y27650D01*
X7239Y27565D01*
X7461D01*
X7667Y27650D01*
X7825Y27808D01*
X7910Y28014D01*
Y28236D01*
X7825Y28442D01*
X7667Y28600D01*
X7461Y28685D01*
D02*
G37*
G36*
X22836Y28635D02*
X22614D01*
X22408Y28550D01*
X22250Y28392D01*
X22165Y28186D01*
Y27964D01*
X22250Y27758D01*
X22408Y27600D01*
X22614Y27515D01*
X22836D01*
X23042Y27600D01*
X23200Y27758D01*
X23285Y27964D01*
Y28186D01*
X23200Y28392D01*
X23042Y28550D01*
X22836Y28635D01*
D02*
G37*
G36*
X31136Y28585D02*
X30914D01*
X30708Y28500D01*
X30550Y28342D01*
X30465Y28136D01*
Y27914D01*
X30550Y27708D01*
X30708Y27550D01*
X30914Y27465D01*
X31136D01*
X31342Y27550D01*
X31500Y27708D01*
X31585Y27914D01*
Y28136D01*
X31500Y28342D01*
X31342Y28500D01*
X31136Y28585D01*
D02*
G37*
G36*
X9036Y26685D02*
X8814D01*
X8608Y26600D01*
X8450Y26442D01*
X8365Y26236D01*
Y26014D01*
X8450Y25808D01*
X8608Y25650D01*
X8814Y25565D01*
X9036D01*
X9242Y25650D01*
X9400Y25808D01*
X9485Y26014D01*
Y26236D01*
X9400Y26442D01*
X9242Y26600D01*
X9036Y26685D01*
D02*
G37*
G36*
X14086Y26410D02*
X13864D01*
X13658Y26325D01*
X13500Y26167D01*
X13415Y25961D01*
Y25739D01*
X13500Y25533D01*
X13658Y25375D01*
X13864Y25290D01*
X14086D01*
X14292Y25375D01*
X14450Y25533D01*
X14535Y25739D01*
Y25961D01*
X14450Y26167D01*
X14292Y26325D01*
X14086Y26410D01*
D02*
G37*
G36*
X12186D02*
X11964D01*
X11758Y26325D01*
X11600Y26167D01*
X11515Y25961D01*
Y25739D01*
X11600Y25533D01*
X11758Y25375D01*
X11964Y25290D01*
X12186D01*
X12392Y25375D01*
X12550Y25533D01*
X12635Y25739D01*
Y25961D01*
X12550Y26167D01*
X12392Y26325D01*
X12186Y26410D01*
D02*
G37*
G36*
X43411Y26060D02*
X43189D01*
X42983Y25975D01*
X42825Y25817D01*
X42740Y25611D01*
Y25389D01*
X42825Y25183D01*
X42983Y25025D01*
X43189Y24940D01*
X43411D01*
X43617Y25025D01*
X43775Y25183D01*
X43860Y25389D01*
Y25611D01*
X43775Y25817D01*
X43617Y25975D01*
X43411Y26060D01*
D02*
G37*
G36*
X53011Y26010D02*
X52789D01*
X52583Y25925D01*
X52425Y25767D01*
X52340Y25561D01*
Y25339D01*
X52425Y25133D01*
X52583Y24975D01*
X52789Y24890D01*
X53011D01*
X53217Y24975D01*
X53375Y25133D01*
X53460Y25339D01*
Y25561D01*
X53375Y25767D01*
X53217Y25925D01*
X53011Y26010D01*
D02*
G37*
G36*
X8511Y24785D02*
X8289D01*
X8083Y24700D01*
X7925Y24542D01*
X7840Y24336D01*
Y24114D01*
X7925Y23908D01*
X8083Y23750D01*
X8289Y23665D01*
X8511D01*
X8717Y23750D01*
X8875Y23908D01*
X8960Y24114D01*
Y24336D01*
X8875Y24542D01*
X8717Y24700D01*
X8511Y24785D01*
D02*
G37*
G36*
X16136Y24360D02*
X15914D01*
X15708Y24275D01*
X15550Y24117D01*
X15465Y23911D01*
Y23689D01*
X15550Y23483D01*
X15708Y23325D01*
X15914Y23240D01*
X16136D01*
X16342Y23325D01*
X16500Y23483D01*
X16585Y23689D01*
Y23911D01*
X16500Y24117D01*
X16342Y24275D01*
X16136Y24360D01*
D02*
G37*
G36*
X49411Y24235D02*
X49189D01*
X48983Y24150D01*
X48825Y23992D01*
X48740Y23786D01*
Y23564D01*
X48825Y23358D01*
X48983Y23200D01*
X49189Y23115D01*
X49411D01*
X49617Y23200D01*
X49775Y23358D01*
X49860Y23564D01*
Y23786D01*
X49775Y23992D01*
X49617Y24150D01*
X49411Y24235D01*
D02*
G37*
G36*
X28475Y30514D02*
X26725D01*
X26643Y30498D01*
X26574Y30451D01*
X26527Y30382D01*
X26511Y30300D01*
Y28800D01*
X26527Y28718D01*
X26574Y28649D01*
X26596Y28633D01*
X26600Y28622D01*
Y28478D01*
X26596Y28467D01*
X26574Y28451D01*
X26527Y28382D01*
X26511Y28300D01*
Y23300D01*
X26527Y23218D01*
X26574Y23149D01*
X26643Y23102D01*
X26725Y23086D01*
X27725D01*
X27807Y23102D01*
X27876Y23149D01*
X27923Y23218D01*
X27939Y23300D01*
Y24086D01*
X28511D01*
Y23300D01*
X28527Y23218D01*
X28574Y23149D01*
X28643Y23102D01*
X28725Y23086D01*
X29725D01*
X29807Y23102D01*
X29876Y23149D01*
X29923Y23218D01*
X29939Y23300D01*
Y28225D01*
X29923Y28307D01*
X29876Y28376D01*
X29807Y28423D01*
X29725Y28439D01*
X28689D01*
Y28661D01*
X29725D01*
X29807Y28677D01*
X29876Y28724D01*
X29923Y28793D01*
X29939Y28875D01*
Y29300D01*
X29923Y29382D01*
X29876Y29451D01*
X29807Y29498D01*
X29725Y29514D01*
X28689D01*
Y30300D01*
X28673Y30382D01*
X28626Y30451D01*
X28557Y30498D01*
X28475Y30514D01*
D02*
G37*
G36*
X12586Y23335D02*
X12364D01*
X12158Y23250D01*
X12000Y23092D01*
X11915Y22886D01*
Y22664D01*
X12000Y22458D01*
X12158Y22300D01*
X12364Y22215D01*
X12586D01*
X12792Y22300D01*
X12950Y22458D01*
X13035Y22664D01*
Y22886D01*
X12950Y23092D01*
X12792Y23250D01*
X12586Y23335D01*
D02*
G37*
G36*
X71261Y22435D02*
X71039D01*
X70833Y22350D01*
X70675Y22192D01*
X70590Y21986D01*
Y21764D01*
X70675Y21558D01*
X70833Y21400D01*
X71039Y21315D01*
X71261D01*
X71467Y21400D01*
X71625Y21558D01*
X71710Y21764D01*
Y21986D01*
X71625Y22192D01*
X71467Y22350D01*
X71261Y22435D01*
D02*
G37*
G36*
X22361Y21760D02*
X22139D01*
X21933Y21675D01*
X21775Y21517D01*
X21690Y21311D01*
Y21089D01*
X21775Y20883D01*
X21933Y20725D01*
X22139Y20640D01*
X22361D01*
X22567Y20725D01*
X22725Y20883D01*
X22810Y21089D01*
Y21311D01*
X22725Y21517D01*
X22567Y21675D01*
X22361Y21760D01*
D02*
G37*
G36*
X21003Y21725D02*
X20780D01*
X20574Y21640D01*
X20416Y21483D01*
X20331Y21277D01*
Y21054D01*
X20416Y20848D01*
X20574Y20691D01*
X20780Y20605D01*
X21003D01*
X21208Y20691D01*
X21366Y20848D01*
X21451Y21054D01*
Y21277D01*
X21366Y21483D01*
X21208Y21640D01*
X21003Y21725D01*
D02*
G37*
G36*
X24911Y20335D02*
X24689D01*
X24483Y20250D01*
X24325Y20092D01*
X24240Y19886D01*
Y19664D01*
X24325Y19458D01*
X24483Y19300D01*
X24689Y19215D01*
X24911D01*
X25117Y19300D01*
X25275Y19458D01*
X25360Y19664D01*
Y19886D01*
X25275Y20092D01*
X25117Y20250D01*
X24911Y20335D01*
D02*
G37*
G36*
X21836Y20285D02*
X21614D01*
X21408Y20200D01*
X21250Y20042D01*
X21165Y19836D01*
Y19614D01*
X21250Y19408D01*
X21408Y19250D01*
X21614Y19165D01*
X21836D01*
X22042Y19250D01*
X22200Y19408D01*
X22285Y19614D01*
Y19836D01*
X22200Y20042D01*
X22042Y20200D01*
X21836Y20285D01*
D02*
G37*
G36*
X53986Y19810D02*
X53764D01*
X53558Y19725D01*
X53400Y19567D01*
X53315Y19361D01*
Y19139D01*
X53400Y18933D01*
X53558Y18775D01*
X53764Y18690D01*
X53986D01*
X54192Y18775D01*
X54350Y18933D01*
X54435Y19139D01*
Y19361D01*
X54350Y19567D01*
X54192Y19725D01*
X53986Y19810D01*
D02*
G37*
G36*
X16781Y19280D02*
X16558D01*
X16353Y19195D01*
X16195Y19037D01*
X16110Y18831D01*
Y18608D01*
X16195Y18403D01*
X16353Y18245D01*
X16558Y18160D01*
X16781D01*
X16987Y18245D01*
X17145Y18403D01*
X17230Y18608D01*
Y18831D01*
X17145Y19037D01*
X16987Y19195D01*
X16781Y19280D01*
D02*
G37*
G36*
X23861Y19035D02*
X23639D01*
X23433Y18950D01*
X23275Y18792D01*
X23190Y18586D01*
Y18364D01*
X23275Y18158D01*
X23433Y18000D01*
X23639Y17915D01*
X23861D01*
X24067Y18000D01*
X24225Y18158D01*
X24310Y18364D01*
Y18586D01*
X24225Y18792D01*
X24067Y18950D01*
X23861Y19035D01*
D02*
G37*
G36*
X35486Y19010D02*
X35264D01*
X35058Y18925D01*
X34900Y18767D01*
X34815Y18561D01*
Y18339D01*
X34900Y18133D01*
X35058Y17975D01*
X35264Y17890D01*
X35486D01*
X35692Y17975D01*
X35850Y18133D01*
X35935Y18339D01*
Y18561D01*
X35850Y18767D01*
X35692Y18925D01*
X35486Y19010D01*
D02*
G37*
G36*
X55361Y17735D02*
X55139D01*
X54933Y17650D01*
X54775Y17492D01*
X54690Y17286D01*
Y17064D01*
X54775Y16858D01*
X54933Y16700D01*
X55139Y16615D01*
X55361D01*
X55567Y16700D01*
X55725Y16858D01*
X55810Y17064D01*
Y17286D01*
X55725Y17492D01*
X55567Y17650D01*
X55361Y17735D01*
D02*
G37*
G36*
X43361Y17710D02*
X43139D01*
X42933Y17625D01*
X42775Y17467D01*
X42690Y17261D01*
Y17039D01*
X42775Y16833D01*
X42933Y16675D01*
X43139Y16590D01*
X43361D01*
X43567Y16675D01*
X43725Y16833D01*
X43810Y17039D01*
Y17261D01*
X43725Y17467D01*
X43567Y17625D01*
X43361Y17710D01*
D02*
G37*
G36*
X48436Y17660D02*
X48214D01*
X48008Y17575D01*
X47850Y17417D01*
X47765Y17211D01*
Y16989D01*
X47850Y16783D01*
X48008Y16625D01*
X48214Y16540D01*
X48436D01*
X48642Y16625D01*
X48800Y16783D01*
X48885Y16989D01*
Y17211D01*
X48800Y17417D01*
X48642Y17575D01*
X48436Y17660D01*
D02*
G37*
G36*
X46411Y17635D02*
X46189D01*
X45983Y17550D01*
X45825Y17392D01*
X45740Y17186D01*
Y16964D01*
X45825Y16758D01*
X45983Y16600D01*
X46189Y16515D01*
X46411D01*
X46617Y16600D01*
X46775Y16758D01*
X46860Y16964D01*
Y17186D01*
X46775Y17392D01*
X46617Y17550D01*
X46411Y17635D01*
D02*
G37*
G36*
X34161Y17310D02*
X33939D01*
X33733Y17225D01*
X33575Y17067D01*
X33490Y16861D01*
Y16639D01*
X33575Y16433D01*
X33733Y16275D01*
X33939Y16190D01*
X34161D01*
X34367Y16275D01*
X34525Y16433D01*
X34610Y16639D01*
Y16861D01*
X34525Y17067D01*
X34367Y17225D01*
X34161Y17310D01*
D02*
G37*
G36*
X13236Y16085D02*
X13014D01*
X12808Y16000D01*
X12650Y15842D01*
X12565Y15636D01*
Y15414D01*
X12650Y15208D01*
X12808Y15050D01*
X13014Y14965D01*
X13236D01*
X13442Y15050D01*
X13600Y15208D01*
X13685Y15414D01*
Y15636D01*
X13600Y15842D01*
X13442Y16000D01*
X13236Y16085D01*
D02*
G37*
G36*
X60191Y15745D02*
X59969D01*
X59763Y15660D01*
X59605Y15502D01*
X59520Y15297D01*
Y15074D01*
X59605Y14868D01*
X59763Y14710D01*
X59969Y14625D01*
X60191D01*
X60397Y14710D01*
X60555Y14868D01*
X60640Y15074D01*
Y15297D01*
X60555Y15502D01*
X60397Y15660D01*
X60191Y15745D01*
D02*
G37*
G36*
X57456Y16200D02*
X57184D01*
X56921Y16129D01*
X56684Y15993D01*
X56492Y15800D01*
X56356Y15564D01*
X56285Y15301D01*
Y15029D01*
X56356Y14766D01*
X56492Y14529D01*
X56684Y14337D01*
X56921Y14201D01*
X57184Y14130D01*
X57456D01*
X57719Y14201D01*
X57956Y14337D01*
X58148Y14529D01*
X58284Y14766D01*
X58355Y15029D01*
Y15301D01*
X58284Y15564D01*
X58148Y15800D01*
X57956Y15993D01*
X57719Y16129D01*
X57456Y16200D01*
D02*
G37*
G36*
X54916Y16160D02*
X54644D01*
X54381Y16089D01*
X54144Y15953D01*
X53952Y15760D01*
X53816Y15524D01*
X53745Y15261D01*
Y14989D01*
X53816Y14726D01*
X53952Y14489D01*
X54144Y14297D01*
X54381Y14161D01*
X54644Y14090D01*
X54916D01*
X55179Y14161D01*
X55416Y14297D01*
X55608Y14489D01*
X55744Y14726D01*
X55815Y14989D01*
Y15261D01*
X55744Y15524D01*
X55608Y15760D01*
X55416Y15953D01*
X55179Y16089D01*
X54916Y16160D01*
D02*
G37*
G36*
X52376D02*
X52104D01*
X51841Y16089D01*
X51604Y15953D01*
X51412Y15760D01*
X51276Y15524D01*
X51205Y15261D01*
Y14989D01*
X51276Y14726D01*
X51412Y14489D01*
X51604Y14297D01*
X51841Y14161D01*
X52104Y14090D01*
X52376D01*
X52639Y14161D01*
X52876Y14297D01*
X53068Y14489D01*
X53204Y14726D01*
X53275Y14989D01*
Y15261D01*
X53204Y15524D01*
X53068Y15760D01*
X52876Y15953D01*
X52639Y16089D01*
X52376Y16160D01*
D02*
G37*
G36*
X49836D02*
X49564D01*
X49301Y16089D01*
X49064Y15953D01*
X48872Y15760D01*
X48736Y15524D01*
X48665Y15261D01*
Y14989D01*
X48736Y14726D01*
X48872Y14489D01*
X49064Y14297D01*
X49301Y14161D01*
X49564Y14090D01*
X49836D01*
X50099Y14161D01*
X50336Y14297D01*
X50528Y14489D01*
X50664Y14726D01*
X50735Y14989D01*
Y15261D01*
X50664Y15524D01*
X50528Y15760D01*
X50336Y15953D01*
X50099Y16089D01*
X49836Y16160D01*
D02*
G37*
G36*
X47296D02*
X47024D01*
X46761Y16089D01*
X46524Y15953D01*
X46332Y15760D01*
X46196Y15524D01*
X46125Y15261D01*
Y14989D01*
X46196Y14726D01*
X46332Y14489D01*
X46524Y14297D01*
X46761Y14161D01*
X47024Y14090D01*
X47296D01*
X47559Y14161D01*
X47796Y14297D01*
X47988Y14489D01*
X48124Y14726D01*
X48195Y14989D01*
Y15261D01*
X48124Y15524D01*
X47988Y15760D01*
X47796Y15953D01*
X47559Y16089D01*
X47296Y16160D01*
D02*
G37*
G36*
X44756D02*
X44484D01*
X44221Y16089D01*
X43984Y15953D01*
X43792Y15760D01*
X43656Y15524D01*
X43585Y15261D01*
Y14989D01*
X43656Y14726D01*
X43792Y14489D01*
X43984Y14297D01*
X44221Y14161D01*
X44484Y14090D01*
X44756D01*
X45019Y14161D01*
X45256Y14297D01*
X45448Y14489D01*
X45584Y14726D01*
X45655Y14989D01*
Y15261D01*
X45584Y15524D01*
X45448Y15760D01*
X45256Y15953D01*
X45019Y16089D01*
X44756Y16160D01*
D02*
G37*
G36*
X42216D02*
X41944D01*
X41681Y16089D01*
X41444Y15953D01*
X41252Y15760D01*
X41116Y15524D01*
X41045Y15261D01*
Y14989D01*
X41116Y14726D01*
X41252Y14489D01*
X41444Y14297D01*
X41681Y14161D01*
X41944Y14090D01*
X42216D01*
X42479Y14161D01*
X42716Y14297D01*
X42908Y14489D01*
X43044Y14726D01*
X43115Y14989D01*
Y15261D01*
X43044Y15524D01*
X42908Y15760D01*
X42716Y15953D01*
X42479Y16089D01*
X42216Y16160D01*
D02*
G37*
G36*
X39676D02*
X39404D01*
X39141Y16089D01*
X38904Y15953D01*
X38712Y15760D01*
X38576Y15524D01*
X38505Y15261D01*
Y14989D01*
X38576Y14726D01*
X38712Y14489D01*
X38904Y14297D01*
X39141Y14161D01*
X39404Y14090D01*
X39676D01*
X39939Y14161D01*
X40176Y14297D01*
X40368Y14489D01*
X40504Y14726D01*
X40575Y14989D01*
Y15261D01*
X40504Y15524D01*
X40368Y15760D01*
X40176Y15953D01*
X39939Y16089D01*
X39676Y16160D01*
D02*
G37*
G36*
X71211Y14985D02*
X70989D01*
X70783Y14900D01*
X70625Y14742D01*
X70540Y14536D01*
Y14314D01*
X70625Y14108D01*
X70783Y13950D01*
X70989Y13865D01*
X71211D01*
X71417Y13950D01*
X71575Y14108D01*
X71660Y14314D01*
Y14536D01*
X71575Y14742D01*
X71417Y14900D01*
X71211Y14985D01*
D02*
G37*
G36*
X35436Y14735D02*
X35214D01*
X35008Y14650D01*
X34850Y14492D01*
X34765Y14286D01*
Y14064D01*
X34850Y13858D01*
X35008Y13700D01*
X35214Y13615D01*
X35436D01*
X35642Y13700D01*
X35800Y13858D01*
X35885Y14064D01*
Y14286D01*
X35800Y14492D01*
X35642Y14650D01*
X35436Y14735D01*
D02*
G37*
G36*
X7611Y13860D02*
X7389D01*
X7183Y13775D01*
X7025Y13617D01*
X6940Y13411D01*
Y13189D01*
X7025Y12983D01*
X7183Y12825D01*
X7389Y12740D01*
X7611D01*
X7817Y12825D01*
X7975Y12983D01*
X8060Y13189D01*
Y13411D01*
X7975Y13617D01*
X7817Y13775D01*
X7611Y13860D01*
D02*
G37*
G36*
X32111Y13410D02*
X31889D01*
X31683Y13325D01*
X31525Y13167D01*
X31440Y12961D01*
Y12739D01*
X31525Y12533D01*
X31683Y12375D01*
X31889Y12290D01*
X32111D01*
X32317Y12375D01*
X32475Y12533D01*
X32560Y12739D01*
Y12961D01*
X32475Y13167D01*
X32317Y13325D01*
X32111Y13410D01*
D02*
G37*
G36*
X35986Y13210D02*
X35764D01*
X35558Y13125D01*
X35400Y12967D01*
X35315Y12761D01*
Y12539D01*
X35400Y12333D01*
X35558Y12175D01*
X35764Y12090D01*
X35986D01*
X36192Y12175D01*
X36350Y12333D01*
X36435Y12539D01*
Y12761D01*
X36350Y12967D01*
X36192Y13125D01*
X35986Y13210D01*
D02*
G37*
G36*
X25186Y12810D02*
X24964D01*
X24758Y12725D01*
X24600Y12567D01*
X24515Y12361D01*
Y12139D01*
X24600Y11933D01*
X24758Y11775D01*
X24964Y11690D01*
X25186D01*
X25392Y11775D01*
X25550Y11933D01*
X25635Y12139D01*
Y12361D01*
X25550Y12567D01*
X25392Y12725D01*
X25186Y12810D01*
D02*
G37*
G36*
X19361Y12735D02*
X19139D01*
X18933Y12650D01*
X18775Y12492D01*
X18690Y12286D01*
Y12064D01*
X18775Y11858D01*
X18933Y11700D01*
X19139Y11615D01*
X19361D01*
X19567Y11700D01*
X19725Y11858D01*
X19810Y12064D01*
Y12286D01*
X19725Y12492D01*
X19567Y12650D01*
X19361Y12735D01*
D02*
G37*
G36*
X28261Y12710D02*
X28039D01*
X27833Y12625D01*
X27675Y12467D01*
X27590Y12261D01*
Y12039D01*
X27675Y11833D01*
X27833Y11675D01*
X28039Y11590D01*
X28261D01*
X28467Y11675D01*
X28625Y11833D01*
X28710Y12039D01*
Y12261D01*
X28625Y12467D01*
X28467Y12625D01*
X28261Y12710D01*
D02*
G37*
G36*
X22261Y12410D02*
X22039D01*
X21833Y12325D01*
X21675Y12167D01*
X21590Y11961D01*
Y11739D01*
X21675Y11533D01*
X21833Y11375D01*
X22039Y11290D01*
X22261D01*
X22467Y11375D01*
X22625Y11533D01*
X22710Y11739D01*
Y11961D01*
X22625Y12167D01*
X22467Y12325D01*
X22261Y12410D01*
D02*
G37*
G36*
X13536Y13460D02*
X13314D01*
X13108Y13375D01*
X12950Y13217D01*
X12865Y13011D01*
Y12789D01*
X12950Y12583D01*
X13108Y12425D01*
X13136Y12413D01*
Y12251D01*
X13133Y12250D01*
X12975Y12092D01*
X12890Y11886D01*
Y11664D01*
X12975Y11458D01*
X13133Y11300D01*
X13339Y11215D01*
X13561D01*
X13767Y11300D01*
X13925Y11458D01*
X14010Y11664D01*
Y11886D01*
X13925Y12092D01*
X13767Y12250D01*
X13739Y12262D01*
Y12424D01*
X13742Y12425D01*
X13900Y12583D01*
X13985Y12789D01*
Y13011D01*
X13900Y13217D01*
X13742Y13375D01*
X13536Y13460D01*
D02*
G37*
G36*
X17411Y12160D02*
X17189D01*
X16983Y12075D01*
X16825Y11917D01*
X16740Y11711D01*
Y11489D01*
X16825Y11283D01*
X16983Y11125D01*
X17189Y11040D01*
X17411D01*
X17617Y11125D01*
X17775Y11283D01*
X17860Y11489D01*
Y11711D01*
X17775Y11917D01*
X17617Y12075D01*
X17411Y12160D01*
D02*
G37*
G36*
X31186Y11685D02*
X30964D01*
X30758Y11600D01*
X30600Y11442D01*
X30515Y11236D01*
Y11014D01*
X30600Y10808D01*
X30758Y10650D01*
X30964Y10565D01*
X31186D01*
X31392Y10650D01*
X31550Y10808D01*
X31635Y11014D01*
Y11236D01*
X31550Y11442D01*
X31392Y11600D01*
X31186Y11685D01*
D02*
G37*
G36*
X11204Y11228D02*
X10981D01*
X10775Y11142D01*
X10618Y10985D01*
X10533Y10779D01*
Y10556D01*
X10618Y10350D01*
X10775Y10193D01*
X10981Y10108D01*
X11204D01*
X11410Y10193D01*
X11567Y10350D01*
X11653Y10556D01*
Y10779D01*
X11567Y10985D01*
X11410Y11142D01*
X11204Y11228D01*
D02*
G37*
G36*
X8936Y11135D02*
X8714D01*
X8508Y11050D01*
X8350Y10892D01*
X8265Y10686D01*
Y10464D01*
X8350Y10258D01*
X8508Y10100D01*
X8714Y10015D01*
X8936D01*
X9142Y10100D01*
X9300Y10258D01*
X9385Y10464D01*
Y10686D01*
X9300Y10892D01*
X9142Y11050D01*
X8936Y11135D01*
D02*
G37*
G36*
X20461Y10960D02*
X20239D01*
X20033Y10875D01*
X19875Y10717D01*
X19790Y10511D01*
Y10289D01*
X19875Y10083D01*
X20033Y9925D01*
X20239Y9840D01*
X20461D01*
X20667Y9925D01*
X20825Y10083D01*
X20910Y10289D01*
Y10511D01*
X20825Y10717D01*
X20667Y10875D01*
X20461Y10960D01*
D02*
G37*
G36*
X31486Y10360D02*
X31264D01*
X31058Y10275D01*
X30900Y10117D01*
X30815Y9911D01*
Y9689D01*
X30900Y9483D01*
X31058Y9325D01*
X31264Y9240D01*
X31486D01*
X31692Y9325D01*
X31850Y9483D01*
X31935Y9689D01*
Y9911D01*
X31850Y10117D01*
X31692Y10275D01*
X31486Y10360D01*
D02*
G37*
G36*
X25180Y7796D02*
X24957D01*
X24751Y7711D01*
X24594Y7554D01*
X24509Y7348D01*
Y7125D01*
X24594Y6919D01*
X24751Y6762D01*
X24957Y6676D01*
X25180D01*
X25386Y6762D01*
X25543Y6919D01*
X25629Y7125D01*
Y7348D01*
X25543Y7554D01*
X25386Y7711D01*
X25180Y7796D01*
D02*
G37*
G36*
X2786Y5885D02*
X2564D01*
X2358Y5800D01*
X2200Y5642D01*
X2115Y5436D01*
Y5214D01*
X2200Y5008D01*
X2358Y4850D01*
X2564Y4765D01*
X2786D01*
X2992Y4850D01*
X3150Y5008D01*
X3215Y5165D01*
X3322Y5164D01*
X3371Y5150D01*
X3450Y4958D01*
X3608Y4800D01*
X3814Y4715D01*
X4036D01*
X4242Y4800D01*
X4400Y4958D01*
X4485Y5164D01*
Y5386D01*
X4400Y5592D01*
X4242Y5750D01*
X4036Y5835D01*
X3814D01*
X3608Y5750D01*
X3450Y5592D01*
X3385Y5435D01*
X3278Y5436D01*
X3229Y5450D01*
X3150Y5642D01*
X2992Y5800D01*
X2786Y5885D01*
D02*
G37*
G36*
X46261Y4910D02*
X46039D01*
X45833Y4825D01*
X45675Y4667D01*
X45590Y4461D01*
Y4239D01*
X45675Y4033D01*
X45833Y3875D01*
X46039Y3790D01*
X46261D01*
X46467Y3875D01*
X46625Y4033D01*
X46710Y4239D01*
Y4461D01*
X46625Y4667D01*
X46467Y4825D01*
X46261Y4910D01*
D02*
G37*
G36*
X46211Y3285D02*
X45989D01*
X45783Y3200D01*
X45625Y3042D01*
X45540Y2836D01*
Y2614D01*
X45625Y2408D01*
X45783Y2250D01*
X45989Y2165D01*
X46211D01*
X46417Y2250D01*
X46575Y2408D01*
X46660Y2614D01*
Y2836D01*
X46575Y3042D01*
X46417Y3200D01*
X46211Y3285D01*
D02*
G37*
%LPD*%
D16*
X0Y0D02*
X74500D01*
X74500Y73500D02*
X74500Y0D01*
X0Y73500D02*
X74500D01*
X0Y0D02*
Y73500D01*
D113*
X54780Y38025D02*
D03*
D118*
X32775Y48650D02*
D03*
X27825Y48425D02*
D03*
X23075Y13100D02*
D03*
X38550Y53121D02*
D03*
X60080Y17210D02*
D03*
Y31385D02*
D03*
X32250Y42650D02*
D03*
X29500Y48700D02*
D03*
X26950Y50150D02*
D03*
X29493Y56254D02*
D03*
X24225Y56350D02*
D03*
X42250Y67250D02*
D03*
X37450Y60400D02*
D03*
X55700Y42425D02*
D03*
X21500Y57600D02*
D03*
X56975Y48375D02*
D03*
X56900Y52200D02*
D03*
X26900Y65025D02*
D03*
X21425Y24700D02*
D03*
X8225Y29700D02*
D03*
M02*
