G04*
G04 #@! TF.GenerationSoftware,Altium Limited,Altium Designer,22.10.1 (41)*
G04*
G04 Layer_Color=65535*
%FSLAX43Y43*%
%MOMM*%
G71*
G04*
G04 #@! TF.SameCoordinates,DCDCABE6-F013-49A3-9D9D-6440811BB2A6*
G04*
G04*
G04 #@! TF.FilePolarity,Positive*
G04*
G01*
G75*
%ADD10C,0.250*%
%ADD11C,0.600*%
%ADD12C,0.100*%
%ADD13C,0.200*%
%ADD14C,0.150*%
%ADD15C,0.127*%
%ADD16C,0.254*%
D10*
X30675Y48850D02*
G03*
X30675Y48850I-125J0D01*
G01*
X36655Y64450D02*
G03*
X36655Y64450I-125J0D01*
G01*
X11290Y35870D02*
G03*
X11290Y35870I-75J0D01*
G01*
X22700Y5925D02*
G03*
X22700Y5925I-125J0D01*
G01*
X12170Y42610D02*
G03*
X12170Y42610I-125J0D01*
G01*
X21700Y58205D02*
G03*
X21700Y58205I-125J0D01*
G01*
X57900Y56280D02*
G03*
X57900Y56280I-125J0D01*
G01*
X16475Y45875D02*
G03*
X16475Y45875I-75J0D01*
G01*
X12600Y44275D02*
G03*
X12600Y44275I-75J0D01*
G01*
X31100Y1800D02*
Y800D01*
X31600D01*
X31766Y967D01*
Y1133D01*
X31600Y1300D01*
X31100D01*
X31600D01*
X31766Y1466D01*
Y1633D01*
X31600Y1800D01*
X31100D01*
X32100Y800D02*
Y1466D01*
X32433Y1800D01*
X32766Y1466D01*
Y800D01*
Y1300D01*
X32100D01*
X33099Y1800D02*
X33766D01*
X33433D01*
Y800D01*
X34099Y1800D02*
X34765D01*
X34432D01*
Y800D01*
X35099Y1300D02*
X35765D01*
X36098Y1800D02*
Y800D01*
X36598D01*
X36765Y967D01*
Y1133D01*
X36598Y1300D01*
X36098D01*
X36598D01*
X36765Y1466D01*
Y1633D01*
X36598Y1800D01*
X36098D01*
X37098D02*
X37765D01*
X37431D01*
Y800D01*
X64250Y3750D02*
Y3083D01*
X64583Y2750D01*
X64916Y3083D01*
Y3750D01*
X65250Y2750D02*
X65583D01*
X65416D01*
Y3750D01*
X65250Y3583D01*
X66083Y2750D02*
Y2917D01*
X66249D01*
Y2750D01*
X66083D01*
X66916Y3583D02*
X67082Y3750D01*
X67416D01*
X67582Y3583D01*
Y2917D01*
X67416Y2750D01*
X67082D01*
X66916Y2917D01*
Y3583D01*
X68915Y3416D02*
Y2750D01*
Y3083D01*
X69082Y3250D01*
X69248Y3416D01*
X69415D01*
X70415Y2750D02*
X70081D01*
X69915Y2917D01*
Y3250D01*
X70081Y3416D01*
X70415D01*
X70581Y3250D01*
Y3083D01*
X69915D01*
X70915Y3416D02*
X71248Y2750D01*
X71581Y3416D01*
X72914Y2750D02*
Y3416D01*
X73247Y3750D01*
X73580Y3416D01*
Y2750D01*
Y3250D01*
X72914D01*
X53466Y2100D02*
X53133D01*
X53300D01*
Y1267D01*
X53133Y1100D01*
X52967D01*
X52800Y1267D01*
X53800Y1100D02*
Y1267D01*
X53966D01*
Y1100D01*
X53800D01*
X55299Y1933D02*
X55133Y2100D01*
X54799D01*
X54633Y1933D01*
Y1267D01*
X54799Y1100D01*
X55133D01*
X55299Y1267D01*
X55632Y2100D02*
Y1100D01*
X56299D01*
X57299Y2100D02*
X56632D01*
Y1100D01*
X57299D01*
X56632Y1600D02*
X56965D01*
X57632Y1100D02*
Y2100D01*
X57965Y1766D01*
X58298Y2100D01*
Y1100D01*
X59298Y2100D02*
X58631D01*
Y1100D01*
X59298D01*
X58631Y1600D02*
X58965D01*
X59631Y1100D02*
Y2100D01*
X60298Y1100D01*
Y2100D01*
X60631D02*
X61297D01*
X60964D01*
Y1100D01*
X63297D02*
X63130Y1267D01*
X62963Y1100D01*
X62797D01*
X62630Y1267D01*
Y1433D01*
X62797Y1600D01*
X62630Y1766D01*
Y1933D01*
X62797Y2100D01*
X62963D01*
X63130Y1933D01*
Y1766D01*
X62963Y1600D01*
X63130Y1433D01*
Y1267D01*
X63297Y1600D02*
X63130Y1433D01*
X62797Y1600D02*
X62963D01*
X64630Y2100D02*
Y1100D01*
X65129D01*
X65296Y1267D01*
Y1933D01*
X65129Y2100D01*
X64630D01*
X65629Y1100D02*
Y1267D01*
X65796D01*
Y1100D01*
X65629D01*
X67129Y2100D02*
X66462D01*
Y1600D01*
X66795D01*
X66462D01*
Y1100D01*
X67962Y2100D02*
X67629D01*
X67462Y1933D01*
Y1267D01*
X67629Y1100D01*
X67962D01*
X68128Y1267D01*
Y1933D01*
X67962Y2100D01*
X68462D02*
Y1267D01*
X68628Y1100D01*
X68961D01*
X69128Y1267D01*
Y2100D01*
X69461Y1100D02*
Y2100D01*
X69961D01*
X70128Y1933D01*
Y1600D01*
X69961Y1433D01*
X69461D01*
X69795D02*
X70128Y1100D01*
X70461D02*
Y2100D01*
X71127Y1100D01*
Y2100D01*
X71461D02*
X71794D01*
X71627D01*
Y1100D01*
X71461D01*
X71794D01*
X72960Y2100D02*
X72294D01*
Y1100D01*
X72960D01*
X72294Y1600D02*
X72627D01*
X73293Y1100D02*
Y2100D01*
X73793D01*
X73960Y1933D01*
Y1600D01*
X73793Y1433D01*
X73293D01*
X73627D02*
X73960Y1100D01*
X950Y64450D02*
X1483D01*
X1217Y64716D02*
Y64183D01*
X2549Y64850D02*
Y64317D01*
X2816Y64050D01*
X3083Y64317D01*
Y64850D01*
X3349D02*
Y64050D01*
X3882D01*
X4549Y64850D02*
X4282D01*
X4149Y64716D01*
Y64183D01*
X4282Y64050D01*
X4549D01*
X4682Y64183D01*
Y64716D01*
X4549Y64850D01*
X4949Y64050D02*
Y64583D01*
X5215Y64850D01*
X5482Y64583D01*
Y64050D01*
Y64450D01*
X4949D01*
X5748Y64850D02*
Y64050D01*
X6148D01*
X6282Y64183D01*
Y64716D01*
X6148Y64850D01*
X5748D01*
X825Y49225D02*
X1358D01*
X2424Y49625D02*
Y49092D01*
X2691Y48825D01*
X2958Y49092D01*
Y49625D01*
X3224D02*
Y48825D01*
X3757D01*
X4424Y49625D02*
X4157D01*
X4024Y49491D01*
Y48958D01*
X4157Y48825D01*
X4424D01*
X4557Y48958D01*
Y49491D01*
X4424Y49625D01*
X4824Y48825D02*
Y49358D01*
X5090Y49625D01*
X5357Y49358D01*
Y48825D01*
Y49225D01*
X4824D01*
X5623Y49625D02*
Y48825D01*
X6023D01*
X6157Y48958D01*
Y49491D01*
X6023Y49625D01*
X5623D01*
X2183Y58559D02*
X2350Y58725D01*
Y59058D01*
X2183Y59225D01*
X2016D01*
X1850Y59058D01*
Y58725D01*
X1683Y58559D01*
X1517D01*
X1350Y58725D01*
Y59058D01*
X1517Y59225D01*
X2350Y58225D02*
X1350D01*
X1850D01*
Y57559D01*
X2350D01*
X1350D01*
X2350Y57226D02*
X1517D01*
X1350Y57059D01*
Y56726D01*
X1517Y56559D01*
X2350D01*
X1350Y56226D02*
X2350D01*
X1350Y55560D01*
X2350D01*
Y55226D02*
Y54560D01*
Y54893D01*
X1350D01*
X2274Y22750D02*
X750D01*
Y21988D01*
X1004Y21734D01*
X1258D01*
X1512Y21988D01*
Y22750D01*
Y21988D01*
X1766Y21734D01*
X2020D01*
X2274Y21988D01*
Y22750D01*
X750Y21226D02*
X1766D01*
X2274Y20719D01*
X1766Y20211D01*
X750D01*
X1512D01*
Y21226D01*
X2274Y19703D02*
Y18687D01*
Y19195D01*
X750D01*
X2274Y18179D02*
Y17164D01*
Y17672D01*
X750D01*
X1512Y16656D02*
Y15640D01*
X2274Y15132D02*
X750D01*
X1512D01*
Y14117D01*
X2274D01*
X750D01*
X2274Y13609D02*
Y12593D01*
Y13101D01*
X750D01*
D11*
X35575Y62325D02*
G03*
X35575Y62325I-300J0D01*
G01*
D12*
X43975Y56900D02*
G03*
X43975Y57000I0J50D01*
G01*
D02*
G03*
X43975Y56900I0J-50D01*
G01*
D13*
X11040Y39430D02*
G03*
X11040Y39430I-100J0D01*
G01*
X7550Y43750D02*
G03*
X7550Y43750I-100J0D01*
G01*
X30325Y29810D02*
G03*
X30325Y29810I-100J0D01*
G01*
X32010Y14200D02*
G03*
X32010Y14200I-100J0D01*
G01*
X8925Y13140D02*
G03*
X8925Y13140I-100J0D01*
G01*
X11450Y27390D02*
G03*
X11450Y27390I-100J0D01*
G01*
X21825Y8575D02*
G03*
X20725Y9675I-1100J0D01*
G01*
X15425D02*
G03*
X14325Y8575I0J-1100D01*
G01*
Y3275D02*
G03*
X15425Y2175I1100J0D01*
G01*
X20725D02*
G03*
X21825Y3275I0J1100D01*
G01*
X6750Y35250D02*
G03*
X6750Y35250I-100J0D01*
G01*
X39540Y39395D02*
X58840D01*
X43225Y13805D02*
X53635D01*
X38020D02*
Y38025D01*
Y13805D02*
X43225D01*
X58840D02*
Y39395D01*
X53635Y13805D02*
X58840D01*
X8600Y55825D02*
X13600D01*
X25225Y52225D02*
X26625D01*
X24875D02*
Y55225D01*
X22575D02*
X24875D01*
X22575Y52225D02*
Y55225D01*
Y52225D02*
X24875D01*
X30400Y49500D02*
X30625D01*
X30400D02*
Y49725D01*
Y56375D02*
Y56600D01*
X30625D01*
X37275D02*
X37500D01*
Y56375D02*
Y56600D01*
X37275Y49500D02*
X37500D01*
Y49725D01*
X39770Y60350D02*
Y61600D01*
X39815Y61950D02*
X42735D01*
Y62100D01*
X39815D02*
X42735D01*
X39815Y61950D02*
Y62100D01*
X31275Y60125D02*
Y63325D01*
X36275Y60125D02*
Y63325D01*
X31275Y60125D02*
X36275D01*
X31275Y63325D02*
X36275D01*
X26325Y57950D02*
Y59150D01*
X59550Y45250D02*
Y46300D01*
X59500Y49150D02*
Y50200D01*
X2920Y36305D02*
X3600D01*
X2920Y45245D02*
X3600D01*
X10Y36305D02*
X360D01*
X10D02*
Y45245D01*
X360D01*
X17500Y13025D02*
Y13875D01*
X17600Y14225D02*
X19600D01*
Y14775D01*
X17600D02*
X19600D01*
X17600Y14225D02*
Y14775D01*
X10375Y12550D02*
Y13100D01*
X12375D01*
Y12550D02*
Y13100D01*
X10375Y12550D02*
X12375D01*
X10275Y11350D02*
Y12200D01*
X20125Y26775D02*
X21600D01*
X19775Y26800D02*
Y31800D01*
X16075D02*
X19775D01*
X16075Y26800D02*
Y31800D01*
Y26800D02*
X19775D01*
X32725Y13850D02*
X33275D01*
X32725D02*
Y15850D01*
X33275D01*
Y13850D02*
Y15850D01*
X33625Y13750D02*
X34475D01*
X26125Y8300D02*
X28425D01*
X26125D02*
Y11300D01*
X28425D01*
Y8300D02*
Y11300D01*
X28775Y8300D02*
X30175D01*
X12200Y18825D02*
X12800D01*
X12200D02*
Y21725D01*
X12800D01*
Y18825D02*
Y21725D01*
X13150Y18675D02*
X14350D01*
X21825Y7375D02*
Y8575D01*
X14325Y7375D02*
Y8575D01*
Y3275D02*
Y4475D01*
X15425Y9675D02*
X20725D01*
X21825Y3275D02*
Y4475D01*
X15425Y2175D02*
X20725D01*
X3295Y18830D02*
X3950D01*
X3295Y14520D02*
X3950D01*
X6950D02*
X7605D01*
Y18830D01*
X6950D02*
X7605D01*
X3295Y14520D02*
Y18830D01*
X12695Y42535D02*
Y42760D01*
X12920D01*
X16570D02*
X16795D01*
Y42535D02*
Y42760D01*
Y38660D02*
Y38885D01*
X16570Y38660D02*
X16795D01*
X12695D02*
Y38885D01*
Y38660D02*
X12920D01*
X19825Y61450D02*
Y67450D01*
Y61450D02*
X23325D01*
X19825Y67450D02*
X23325D01*
Y61450D02*
Y67450D01*
X56025Y59525D02*
Y65525D01*
Y59525D02*
X59525D01*
X56025Y65525D02*
X59525D01*
Y59525D02*
Y65525D01*
X19400Y22225D02*
X20500D01*
X19050Y22290D02*
Y25210D01*
X18550D02*
X19050D01*
X18550Y22290D02*
Y25210D01*
Y22290D02*
X19050D01*
X21750Y17500D02*
X22850D01*
X23200Y14515D02*
Y17435D01*
Y14515D02*
X23700D01*
Y17435D01*
X23200D02*
X23700D01*
X4225Y29175D02*
Y30275D01*
X4290Y30625D02*
X7210D01*
Y31125D01*
X4290D02*
X7210D01*
X4290Y30625D02*
Y31125D01*
D14*
X20050Y55650D02*
X21650D01*
X20050Y57050D02*
X21650D01*
X700Y50225D02*
X6300D01*
X700D02*
Y52825D01*
X6300D01*
Y50225D02*
Y52825D01*
X16732Y51101D02*
X18332D01*
X16732Y52501D02*
X18332D01*
X16725Y52600D02*
X18325D01*
X16725Y54000D02*
X18325D01*
X18925Y51675D02*
Y53275D01*
X20325Y51675D02*
Y53275D01*
X900Y60800D02*
X6500D01*
X900D02*
Y63400D01*
X6500D01*
Y60800D02*
Y63400D01*
X38875Y59975D02*
X40475D01*
X38875Y58575D02*
X40475D01*
X29050Y57225D02*
Y58825D01*
X30450Y57225D02*
Y58825D01*
X52625Y46450D02*
X54225D01*
X52625Y45050D02*
X54225D01*
X32100Y46325D02*
X33700D01*
X32100Y44925D02*
X33700D01*
X32125Y48025D02*
X33725D01*
X32125Y46625D02*
X33725D01*
X32100Y44675D02*
X33700D01*
X32100Y43275D02*
X33700D01*
X27925Y44700D02*
X29525D01*
X27925Y43300D02*
X29525D01*
X38150Y57550D02*
Y59150D01*
X36750Y57550D02*
Y59150D01*
X49325Y52550D02*
Y54150D01*
X50725Y52550D02*
Y54150D01*
X50700Y55575D02*
Y57175D01*
X49300Y55575D02*
Y57175D01*
X41558Y64596D02*
Y66196D01*
X42958Y64596D02*
Y66196D01*
X56150Y48175D02*
Y49775D01*
X54750Y48175D02*
Y49775D01*
X52575Y50275D02*
X54175D01*
X52575Y48875D02*
X54175D01*
X56200Y44350D02*
Y45950D01*
X54800Y44350D02*
Y45950D01*
X56275Y45650D02*
Y47250D01*
X57675Y45650D02*
Y47250D01*
X56225Y49500D02*
Y51100D01*
X57625Y49500D02*
Y51100D01*
X52000Y48175D02*
Y49775D01*
X50600Y48175D02*
Y49775D01*
X52075Y44350D02*
Y45950D01*
X50675Y44350D02*
Y45950D01*
X27925Y47775D02*
X29525D01*
X27925Y46375D02*
X29525D01*
X25611Y55725D02*
X27211D01*
X25611Y57125D02*
X27211D01*
X26800Y64450D02*
X28400D01*
X26800Y63050D02*
X28400D01*
X28450Y51250D02*
Y52850D01*
X27050Y51250D02*
Y52850D01*
X26775Y61525D02*
X28375D01*
X26775Y62925D02*
X28375D01*
X39125Y675D02*
X41725D01*
Y6275D01*
X39125D02*
X41725D01*
X39125Y675D02*
Y6275D01*
X475Y8450D02*
Y11050D01*
Y8450D02*
X6075D01*
Y11050D01*
X475D02*
X6075D01*
X27075Y600D02*
X29675D01*
Y6200D01*
X27075D02*
X29675D01*
X27075Y600D02*
Y6200D01*
X6125Y24250D02*
Y26850D01*
X525D02*
X6125D01*
X525Y24250D02*
Y26850D01*
Y24250D02*
X6125D01*
X9440Y39730D02*
X10640D01*
X9440Y41730D02*
X10640D01*
X72950Y14050D02*
Y22450D01*
X63700Y12250D02*
X68925D01*
X63700D02*
Y14450D01*
Y24250D02*
X68925D01*
X63700Y22050D02*
Y24250D01*
X72950Y28250D02*
Y36650D01*
X63700Y26450D02*
X68925D01*
X63700D02*
Y28650D01*
Y38450D02*
X68925D01*
X63700Y36250D02*
Y38450D01*
X9190Y35920D02*
Y36020D01*
Y35920D02*
X10790D01*
Y36020D01*
Y39120D02*
Y39220D01*
X9190D02*
X10790D01*
X9190Y39120D02*
Y39220D01*
Y37220D02*
Y37920D01*
X25725Y37800D02*
X27325D01*
X25725Y36400D02*
X27325D01*
X27875Y31450D02*
Y33050D01*
X26475Y31450D02*
Y33050D01*
X26475Y34125D02*
Y35725D01*
X27875Y34125D02*
Y35725D01*
X15050Y16225D02*
X16650D01*
X15050Y14825D02*
X16650D01*
X8125Y11675D02*
Y13275D01*
X9525Y11675D02*
Y13275D01*
X9900Y28025D02*
X11500D01*
X9900Y26625D02*
X11500D01*
X33125Y11900D02*
X34725D01*
X33125Y13300D02*
X34725D01*
X17975Y19025D02*
X19575D01*
X17975Y20425D02*
X19575D01*
X28450Y15700D02*
Y17300D01*
X27050Y15700D02*
Y17300D01*
X1025Y30000D02*
Y31600D01*
X2425Y30000D02*
Y31600D01*
X10300Y29600D02*
Y31200D01*
X8900Y29600D02*
Y31200D01*
X29275Y13175D02*
X30875D01*
X29275Y11775D02*
X30875D01*
X9425Y34150D02*
X11025D01*
X9425Y35550D02*
X11025D01*
X5525Y33550D02*
Y35150D01*
X6925Y33550D02*
Y35150D01*
X6950Y22075D02*
X8550D01*
X6950Y23475D02*
X8550D01*
X10450Y14825D02*
X12050D01*
X10450Y16225D02*
X12050D01*
X12275Y18400D02*
X13875D01*
X12275Y17000D02*
X13875D01*
X55550Y40225D02*
X57150D01*
X55550Y41625D02*
X57150D01*
X17200Y39525D02*
Y41125D01*
X18600Y39525D02*
Y41125D01*
X14275Y36200D02*
Y37800D01*
X15675Y36200D02*
Y37800D01*
X12025Y36350D02*
Y37950D01*
X13425Y36350D02*
Y37950D01*
X13575Y34250D02*
X15175D01*
X13575Y35650D02*
X15175D01*
X19950Y16850D02*
Y18450D01*
X18550Y16850D02*
Y18450D01*
X17975Y21900D02*
X19575D01*
X17975Y20500D02*
X19575D01*
X29050Y16600D02*
X30650D01*
X29050Y15200D02*
X30650D01*
X25525Y15700D02*
Y17300D01*
X26925Y15700D02*
Y17300D01*
X4650Y28825D02*
X6250D01*
X4650Y27425D02*
X6250D01*
X3900Y30000D02*
Y31600D01*
X2500Y30000D02*
Y31600D01*
X8500Y32700D02*
X10100D01*
X8500Y34100D02*
X10100D01*
X15300Y20825D02*
X16900D01*
X15300Y19425D02*
X16900D01*
X14800Y17225D02*
Y18825D01*
X16200Y17225D02*
Y18825D01*
X3570Y33280D02*
Y34880D01*
X2170Y33280D02*
Y34880D01*
X7070Y45190D02*
Y46790D01*
X8470Y45190D02*
Y46790D01*
X17250Y45200D02*
Y46800D01*
X18650Y45200D02*
Y46800D01*
X21800Y43150D02*
X23400D01*
X21800Y44550D02*
X23400D01*
X14675Y43625D02*
Y45225D01*
X13275Y43625D02*
Y45225D01*
X15775Y36200D02*
Y37800D01*
X17175Y36200D02*
Y37800D01*
X15975Y47225D02*
Y47925D01*
X14375Y45925D02*
Y46975D01*
Y45925D02*
X15975D01*
Y46025D01*
Y49125D02*
Y49225D01*
X14375D02*
X15975D01*
X14375Y48175D02*
Y49225D01*
X12100Y45625D02*
Y46325D01*
X10500Y44325D02*
Y45375D01*
Y44325D02*
X12100D01*
Y44425D01*
Y47525D02*
Y47625D01*
X10500D02*
X12100D01*
X10500Y46575D02*
Y47625D01*
D15*
X43550Y71200D02*
X47230D01*
X43550Y59200D02*
X47230D01*
X43550D02*
Y71200D01*
X51870D02*
X55550D01*
X51870Y59200D02*
X55550D01*
Y71200D01*
X26725Y23300D02*
X27375D01*
X26725D02*
Y27950D01*
Y29150D02*
Y30300D01*
X28125D01*
X29725Y23300D02*
Y27950D01*
X29075Y23300D02*
X29725D01*
X28350Y14850D02*
X30050D01*
X28350Y13550D02*
X30050D01*
Y14750D02*
Y14850D01*
Y13550D02*
Y13650D01*
X28350Y14750D02*
Y14850D01*
Y13550D02*
Y13650D01*
X9475Y15000D02*
Y16700D01*
X8175Y15000D02*
Y16700D01*
X9375Y15000D02*
X9475D01*
X8175D02*
X8275D01*
X9375Y16700D02*
X9475D01*
X8175D02*
X8275D01*
X10700Y30950D02*
X10800D01*
X11900D02*
X12000D01*
X10700Y29250D02*
X10800D01*
X11900D02*
X12000D01*
X10700D02*
Y30950D01*
X12000Y29250D02*
Y30950D01*
D16*
X38146Y5396D02*
X37130D01*
X30529Y5487D02*
X31545D01*
X31037Y5995D02*
Y4979D01*
X5021Y11854D02*
Y12870D01*
X4229Y22837D02*
X5245D01*
X4737Y23345D02*
Y22329D01*
X50885Y57600D02*
Y56754D01*
Y72800D02*
Y71954D01*
X51308Y72377D02*
X50462D01*
X0Y0D02*
X74500D01*
X74500Y73500D02*
X74500Y0D01*
X0Y73500D02*
X74500D01*
X0Y0D02*
Y73500D01*
M02*
