G04*
G04 #@! TF.GenerationSoftware,Altium Limited,Altium Designer,22.10.1 (41)*
G04*
G04 Layer_Color=16711935*
%FSLAX43Y43*%
%MOMM*%
G71*
G04*
G04 #@! TF.SameCoordinates,DCDCABE6-F013-49A3-9D9D-6440811BB2A6*
G04*
G04*
G04 #@! TF.FilePolarity,Negative*
G04*
G01*
G75*
%ADD16C,0.254*%
%ADD97C,1.853*%
%ADD98R,1.853X1.853*%
%ADD99O,2.603X1.103*%
%ADD100O,1.903X1.103*%
%ADD101C,0.853*%
%ADD102C,0.903*%
%ADD103C,0.703*%
D16*
X0Y0D02*
X74500D01*
X74500Y73500D02*
X74500Y0D01*
X0Y73500D02*
X74500D01*
X0Y0D02*
Y73500D01*
D97*
X54780Y38025D02*
D03*
X52240D02*
D03*
X49700D02*
D03*
X47160D02*
D03*
X44620D02*
D03*
X42080D02*
D03*
X57320D02*
D03*
Y15165D02*
D03*
X42080Y15125D02*
D03*
X47160D02*
D03*
X49700D02*
D03*
X52240D02*
D03*
X54780D02*
D03*
X44620D02*
D03*
X39540D02*
D03*
D98*
Y38025D02*
D03*
D99*
X5130Y36450D02*
D03*
Y45100D02*
D03*
D100*
X1750Y36450D02*
D03*
Y45100D02*
D03*
D101*
X4760Y43750D02*
D03*
Y42900D02*
D03*
Y42050D02*
D03*
Y41200D02*
D03*
Y40350D02*
D03*
Y39500D02*
D03*
Y38650D02*
D03*
Y37800D02*
D03*
X6110D02*
D03*
Y38650D02*
D03*
Y39500D02*
D03*
Y40350D02*
D03*
Y41200D02*
D03*
Y42050D02*
D03*
Y42900D02*
D03*
Y43750D02*
D03*
D102*
X16670Y18720D02*
D03*
X13125Y15525D02*
D03*
X9100Y49150D02*
D03*
X13575Y48825D02*
D03*
X32775Y48650D02*
D03*
X29475Y45475D02*
D03*
X27600Y45450D02*
D03*
X27825Y48425D02*
D03*
X29450Y41550D02*
D03*
X25400Y59650D02*
D03*
X31025Y28025D02*
D03*
X8825Y10575D02*
D03*
X11093Y10668D02*
D03*
X20350Y10400D02*
D03*
X17300Y11600D02*
D03*
X13450Y11775D02*
D03*
X22150Y11850D02*
D03*
X13425Y12900D02*
D03*
X19250Y12175D02*
D03*
X32000Y12850D02*
D03*
X7500Y13300D02*
D03*
X9025Y28525D02*
D03*
X8925Y26125D02*
D03*
X53875Y19250D02*
D03*
X23075Y13100D02*
D03*
X12075Y25850D02*
D03*
X41775Y71300D02*
D03*
X46450Y69004D02*
D03*
X54100Y57925D02*
D03*
X13550Y71275D02*
D03*
X24800Y19775D02*
D03*
Y30600D02*
D03*
X21725Y19725D02*
D03*
X18575Y29950D02*
D03*
X23750Y18475D02*
D03*
X23800Y29300D02*
D03*
X22725Y28075D02*
D03*
X35375Y18450D02*
D03*
X22250Y21200D02*
D03*
X20891Y21165D02*
D03*
X49625Y50450D02*
D03*
X47550Y49600D02*
D03*
X39200Y48896D02*
D03*
X38575Y48075D02*
D03*
X38796Y57700D02*
D03*
X40200Y57675D02*
D03*
X38550Y53121D02*
D03*
X38650Y56575D02*
D03*
X39500Y54025D02*
D03*
X39350Y51950D02*
D03*
X40325Y51175D02*
D03*
X40425Y56075D02*
D03*
X38825Y55450D02*
D03*
X18750Y69050D02*
D03*
X18700Y59850D02*
D03*
X57775Y69000D02*
D03*
X46150Y4350D02*
D03*
X46100Y2725D02*
D03*
X71100Y14425D02*
D03*
X71150Y21875D02*
D03*
X71100Y28825D02*
D03*
Y36000D02*
D03*
X52900Y25450D02*
D03*
X49300Y23675D02*
D03*
X60080Y15185D02*
D03*
Y17210D02*
D03*
Y29335D02*
D03*
Y31385D02*
D03*
X49250Y28600D02*
D03*
X43300Y25500D02*
D03*
X32250Y42650D02*
D03*
X29454Y42525D02*
D03*
X29500Y48700D02*
D03*
X29105Y51662D02*
D03*
X28875Y54475D02*
D03*
X28991Y53421D02*
D03*
X34800Y47225D02*
D03*
X26950Y50150D02*
D03*
X26750Y48500D02*
D03*
X25925Y49425D02*
D03*
X35925Y47650D02*
D03*
X37275Y47675D02*
D03*
X55250Y17175D02*
D03*
X40625Y31400D02*
D03*
X35275D02*
D03*
Y42875D02*
D03*
X40250Y42950D02*
D03*
X48325Y17100D02*
D03*
X42650Y58925D02*
D03*
X46300Y17075D02*
D03*
X32225Y41550D02*
D03*
X24675D02*
D03*
X22650Y48500D02*
D03*
X22625Y45425D02*
D03*
X19475Y49625D02*
D03*
X19425Y47325D02*
D03*
X26200Y47375D02*
D03*
X17100Y43846D02*
D03*
X19300Y45275D02*
D03*
X20500Y43846D02*
D03*
X20675Y49450D02*
D03*
X24650Y50475D02*
D03*
X25925Y51250D02*
D03*
X27925Y55175D02*
D03*
X29493Y56254D02*
D03*
X24225Y56350D02*
D03*
X43250Y17150D02*
D03*
X25300Y69475D02*
D03*
X24300Y68275D02*
D03*
X42250Y67250D02*
D03*
X24325Y57625D02*
D03*
X25400Y60900D02*
D03*
X49300Y40550D02*
D03*
X29750Y61775D02*
D03*
X29825Y60200D02*
D03*
X30450Y63200D02*
D03*
X25350Y58425D02*
D03*
X45000Y68150D02*
D03*
X47050Y40500D02*
D03*
X44575Y40450D02*
D03*
X40825Y66475D02*
D03*
X40025Y65600D02*
D03*
X28171Y65025D02*
D03*
X37450Y60400D02*
D03*
X30454Y64450D02*
D03*
X29704Y65525D02*
D03*
X28875Y66475D02*
D03*
X43150Y40475D02*
D03*
X40750Y40450D02*
D03*
X39375Y40400D02*
D03*
X55700Y42425D02*
D03*
X58300Y40925D02*
D03*
X34825Y45625D02*
D03*
X34800Y43975D02*
D03*
X20200Y57850D02*
D03*
X21500Y57600D02*
D03*
X51300Y47125D02*
D03*
X55450D02*
D03*
X35675Y57425D02*
D03*
X34430Y62595D02*
D03*
X51425Y57025D02*
D03*
X52750Y44400D02*
D03*
X56850Y44500D02*
D03*
X62000Y45800D02*
D03*
X56975Y48375D02*
D03*
X62000Y49675D02*
D03*
X56900Y52200D02*
D03*
X51325Y52700D02*
D03*
X26900Y65025D02*
D03*
X15800Y44200D02*
D03*
X24575Y37100D02*
D03*
X12475Y34350D02*
D03*
X8400Y24225D02*
D03*
X16025Y23800D02*
D03*
X17275Y28425D02*
D03*
X7350Y28125D02*
D03*
X13975Y25850D02*
D03*
X16325Y31175D02*
D03*
X21425Y24700D02*
D03*
X35325Y14175D02*
D03*
X13025Y31175D02*
D03*
X34050Y16750D02*
D03*
X35875Y12650D02*
D03*
X31075Y11125D02*
D03*
X28150Y12150D02*
D03*
X25075Y12250D02*
D03*
X31375Y9800D02*
D03*
X25069Y7236D02*
D03*
X3925Y5275D02*
D03*
X2675Y5325D02*
D03*
X8250Y30950D02*
D03*
X8225Y29700D02*
D03*
X16225Y34900D02*
D03*
X11150Y32675D02*
D03*
X17700Y36325D02*
D03*
X7475Y33600D02*
D03*
X3500Y39000D02*
D03*
X3375Y42550D02*
D03*
X12475Y22775D02*
D03*
X12450Y35300D02*
D03*
X17900Y38475D02*
D03*
X12380Y48305D02*
D03*
X7520Y38880D02*
D03*
X1750Y46390D02*
D03*
X3400Y37750D02*
D03*
X1640Y33430D02*
D03*
X3360Y43720D02*
D03*
X5210Y46610D02*
D03*
D103*
X31750Y50850D02*
D03*
Y51950D02*
D03*
Y53050D02*
D03*
Y54150D02*
D03*
Y55250D02*
D03*
X32850Y50850D02*
D03*
Y51950D02*
D03*
Y53050D02*
D03*
Y54150D02*
D03*
Y55250D02*
D03*
X33950Y50850D02*
D03*
Y51950D02*
D03*
Y53050D02*
D03*
Y54150D02*
D03*
Y55250D02*
D03*
X35050Y50850D02*
D03*
Y51950D02*
D03*
Y53050D02*
D03*
Y54150D02*
D03*
Y55250D02*
D03*
X36150Y50850D02*
D03*
Y51950D02*
D03*
Y53050D02*
D03*
Y54150D02*
D03*
Y55250D02*
D03*
X14195Y41260D02*
D03*
X15295D02*
D03*
X14195Y40160D02*
D03*
X15295D02*
D03*
M02*
