G04*
G04 #@! TF.GenerationSoftware,Altium Limited,Altium Designer,22.10.1 (41)*
G04*
G04 Layer_Color=8388736*
%FSLAX43Y43*%
%MOMM*%
G71*
G04*
G04 #@! TF.SameCoordinates,DCDCABE6-F013-49A3-9D9D-6440811BB2A6*
G04*
G04*
G04 #@! TF.FilePolarity,Negative*
G04*
G01*
G75*
%ADD16C,0.254*%
%ADD56R,5.703X3.153*%
G04:AMPARAMS|DCode=57|XSize=0.85mm|YSize=0.95mm|CornerRadius=0.163mm|HoleSize=0mm|Usage=FLASHONLY|Rotation=180.000|XOffset=0mm|YOffset=0mm|HoleType=Round|Shape=RoundedRectangle|*
%AMROUNDEDRECTD57*
21,1,0.850,0.625,0,0,180.0*
21,1,0.525,0.950,0,0,180.0*
1,1,0.325,-0.263,0.313*
1,1,0.325,0.263,0.313*
1,1,0.325,0.263,-0.313*
1,1,0.325,-0.263,-0.313*
%
%ADD57ROUNDEDRECTD57*%
%ADD58R,5.300X2.300*%
G04:AMPARAMS|DCode=59|XSize=0.85mm|YSize=0.95mm|CornerRadius=0.163mm|HoleSize=0mm|Usage=FLASHONLY|Rotation=90.000|XOffset=0mm|YOffset=0mm|HoleType=Round|Shape=RoundedRectangle|*
%AMROUNDEDRECTD59*
21,1,0.850,0.625,0,0,90.0*
21,1,0.525,0.950,0,0,90.0*
1,1,0.325,0.313,0.263*
1,1,0.325,0.313,-0.263*
1,1,0.325,-0.313,-0.263*
1,1,0.325,-0.313,0.263*
%
%ADD59ROUNDEDRECTD59*%
%ADD60R,1.603X0.503*%
%ADD61O,0.553X0.703*%
%ADD62O,0.703X0.553*%
%ADD63R,5.603X5.603*%
%ADD64R,0.803X1.453*%
%ADD65O,0.803X1.653*%
%ADD66R,0.603X1.403*%
%ADD67R,4.203X1.403*%
%ADD68R,2.103X1.703*%
%ADD69R,0.953X1.653*%
%ADD70R,2.300X5.300*%
G04:AMPARAMS|DCode=71|XSize=0.85mm|YSize=1.25mm|CornerRadius=0.173mm|HoleSize=0mm|Usage=FLASHONLY|Rotation=270.000|XOffset=0mm|YOffset=0mm|HoleType=Round|Shape=RoundedRectangle|*
%AMROUNDEDRECTD71*
21,1,0.850,0.904,0,0,270.0*
21,1,0.504,1.250,0,0,270.0*
1,1,0.346,-0.452,-0.252*
1,1,0.346,-0.452,0.252*
1,1,0.346,0.452,0.252*
1,1,0.346,0.452,-0.252*
%
%ADD71ROUNDEDRECTD71*%
G04:AMPARAMS|DCode=72|XSize=0.85mm|YSize=1.25mm|CornerRadius=0.222mm|HoleSize=0mm|Usage=FLASHONLY|Rotation=270.000|XOffset=0mm|YOffset=0mm|HoleType=Round|Shape=RoundedRectangle|*
%AMROUNDEDRECTD72*
21,1,0.850,0.806,0,0,270.0*
21,1,0.406,1.250,0,0,270.0*
1,1,0.444,-0.403,-0.203*
1,1,0.444,-0.403,0.203*
1,1,0.444,0.403,0.203*
1,1,0.444,0.403,-0.203*
%
%ADD72ROUNDEDRECTD72*%
G04:AMPARAMS|DCode=73|XSize=3.603mm|YSize=1.203mm|CornerRadius=0.352mm|HoleSize=0mm|Usage=FLASHONLY|Rotation=180.000|XOffset=0mm|YOffset=0mm|HoleType=Round|Shape=RoundedRectangle|*
%AMROUNDEDRECTD73*
21,1,3.603,0.500,0,0,180.0*
21,1,2.900,1.203,0,0,180.0*
1,1,0.703,-1.450,0.250*
1,1,0.703,1.450,0.250*
1,1,0.703,1.450,-0.250*
1,1,0.703,-1.450,-0.250*
%
%ADD73ROUNDEDRECTD73*%
G04:AMPARAMS|DCode=74|XSize=3.603mm|YSize=1.203mm|CornerRadius=0.252mm|HoleSize=0mm|Usage=FLASHONLY|Rotation=180.000|XOffset=0mm|YOffset=0mm|HoleType=Round|Shape=RoundedRectangle|*
%AMROUNDEDRECTD74*
21,1,3.603,0.700,0,0,180.0*
21,1,3.100,1.203,0,0,180.0*
1,1,0.503,-1.550,0.350*
1,1,0.503,1.550,0.350*
1,1,0.503,1.550,-0.350*
1,1,0.503,-1.550,-0.350*
%
%ADD74ROUNDEDRECTD74*%
G04:AMPARAMS|DCode=75|XSize=3.803mm|YSize=1.703mm|CornerRadius=0.297mm|HoleSize=0mm|Usage=FLASHONLY|Rotation=180.000|XOffset=0mm|YOffset=0mm|HoleType=Round|Shape=RoundedRectangle|*
%AMROUNDEDRECTD75*
21,1,3.803,1.110,0,0,180.0*
21,1,3.210,1.703,0,0,180.0*
1,1,0.593,-1.605,0.555*
1,1,0.593,1.605,0.555*
1,1,0.593,1.605,-0.555*
1,1,0.593,-1.605,-0.555*
%
%ADD75ROUNDEDRECTD75*%
%ADD76R,1.203X1.203*%
%ADD77R,1.453X0.703*%
%ADD78R,1.453X1.203*%
%ADD79R,0.803X0.663*%
%ADD80R,0.663X0.803*%
G04:AMPARAMS|DCode=81|XSize=1.25mm|YSize=0.8mm|CornerRadius=0.156mm|HoleSize=0mm|Usage=FLASHONLY|Rotation=180.000|XOffset=0mm|YOffset=0mm|HoleType=Round|Shape=RoundedRectangle|*
%AMROUNDEDRECTD81*
21,1,1.250,0.488,0,0,180.0*
21,1,0.938,0.800,0,0,180.0*
1,1,0.313,-0.469,0.244*
1,1,0.313,0.469,0.244*
1,1,0.313,0.469,-0.244*
1,1,0.313,-0.469,-0.244*
%
%ADD81ROUNDEDRECTD81*%
%ADD82R,0.603X1.053*%
%ADD83R,1.678X0.653*%
%ADD84R,1.053X0.603*%
%ADD85R,1.403X0.803*%
%ADD86R,1.803X2.403*%
%ADD87R,2.603X1.703*%
%ADD88P,0.877X4X90.0*%
%ADD89O,0.753X0.553*%
%ADD90O,0.553X0.753*%
%ADD91R,2.853X2.853*%
%ADD92R,1.803X2.383*%
%ADD93R,1.803X2.403*%
%ADD94R,1.303X0.853*%
%ADD95R,0.853X1.303*%
G04:AMPARAMS|DCode=96|XSize=1.25mm|YSize=0.95mm|CornerRadius=0.175mm|HoleSize=0mm|Usage=FLASHONLY|Rotation=180.000|XOffset=0mm|YOffset=0mm|HoleType=Round|Shape=RoundedRectangle|*
%AMROUNDEDRECTD96*
21,1,1.250,0.600,0,0,180.0*
21,1,0.900,0.950,0,0,180.0*
1,1,0.350,-0.450,0.300*
1,1,0.350,0.450,0.300*
1,1,0.350,0.450,-0.300*
1,1,0.350,-0.450,-0.300*
%
%ADD96ROUNDEDRECTD96*%
%ADD97C,1.853*%
%ADD98R,1.853X1.853*%
%ADD99O,2.603X1.103*%
%ADD100O,1.903X1.103*%
%ADD101C,0.853*%
%ADD102C,0.903*%
%ADD103C,0.703*%
G36*
X7740Y34580D02*
Y34395D01*
X7250D01*
Y34755D01*
X7565D01*
X7740Y34580D01*
D02*
G37*
G36*
Y35220D02*
X7565Y35045D01*
X7250D01*
Y35405D01*
X7740D01*
Y35220D01*
D02*
G37*
G36*
X8550Y34395D02*
X8060D01*
Y34580D01*
X8235Y34755D01*
X8550D01*
Y34395D01*
D02*
G37*
G36*
Y35045D02*
X8235D01*
X8060Y35220D01*
Y35405D01*
X8550D01*
Y35045D01*
D02*
G37*
D16*
X0Y0D02*
X74500D01*
X74500Y73500D02*
X74500Y0D01*
X0Y73500D02*
X74500D01*
X0Y0D02*
Y73500D01*
D56*
X11100Y59875D02*
D03*
Y51775D02*
D03*
D57*
X21500Y56350D02*
D03*
X20200D02*
D03*
X18182Y51801D02*
D03*
X16882D02*
D03*
X18175Y53300D02*
D03*
X16875D02*
D03*
X39025Y59275D02*
D03*
X40325D02*
D03*
X52775Y45750D02*
D03*
X54075D02*
D03*
X32250Y45625D02*
D03*
X33550D02*
D03*
X32275Y47325D02*
D03*
X33575D02*
D03*
X32250Y43975D02*
D03*
X33550D02*
D03*
X28075Y44000D02*
D03*
X29375D02*
D03*
X52725Y49575D02*
D03*
X54025D02*
D03*
X28075Y47075D02*
D03*
X29375D02*
D03*
X27061Y56425D02*
D03*
X25761D02*
D03*
X26950Y63750D02*
D03*
X28250D02*
D03*
X28225Y62225D02*
D03*
X26925D02*
D03*
X25875Y37100D02*
D03*
X27175D02*
D03*
X15200Y15525D02*
D03*
X16500D02*
D03*
X10050Y27325D02*
D03*
X11350D02*
D03*
X34575Y12600D02*
D03*
X33275D02*
D03*
X19425Y19725D02*
D03*
X18125D02*
D03*
X29425Y12475D02*
D03*
X30725D02*
D03*
X10875Y34850D02*
D03*
X9575D02*
D03*
X8400Y22775D02*
D03*
X7100D02*
D03*
X11900Y15525D02*
D03*
X10600D02*
D03*
X12425Y17700D02*
D03*
X13725D02*
D03*
X57000Y40925D02*
D03*
X55700D02*
D03*
X15025Y34950D02*
D03*
X13725D02*
D03*
X18125Y21200D02*
D03*
X19425D02*
D03*
X29200Y15900D02*
D03*
X30500D02*
D03*
X4800Y28125D02*
D03*
X6100D02*
D03*
X9950Y33400D02*
D03*
X8650D02*
D03*
X15450Y20125D02*
D03*
X16750D02*
D03*
X23250Y43850D02*
D03*
X21950D02*
D03*
D58*
X3500Y51525D02*
D03*
X3700Y62100D02*
D03*
X3275Y9750D02*
D03*
X3325Y25550D02*
D03*
D59*
X19625Y51825D02*
D03*
Y53125D02*
D03*
X29750Y57375D02*
D03*
Y58675D02*
D03*
X37450Y59000D02*
D03*
Y57700D02*
D03*
X50025Y52700D02*
D03*
Y54000D02*
D03*
X50000Y57025D02*
D03*
Y55725D02*
D03*
X42258Y64746D02*
D03*
Y66046D02*
D03*
X55450Y49625D02*
D03*
Y48325D02*
D03*
X55500Y45800D02*
D03*
Y44500D02*
D03*
X56975Y45800D02*
D03*
Y47100D02*
D03*
X56925Y49650D02*
D03*
Y50950D02*
D03*
X51300Y49625D02*
D03*
Y48325D02*
D03*
X51375Y45800D02*
D03*
Y44500D02*
D03*
X27750Y52700D02*
D03*
Y51400D02*
D03*
X27175Y32900D02*
D03*
Y31600D02*
D03*
X27175Y34275D02*
D03*
Y35575D02*
D03*
X8825Y11825D02*
D03*
Y13125D02*
D03*
X27750Y17150D02*
D03*
Y15850D02*
D03*
X1725Y30150D02*
D03*
Y31450D02*
D03*
X9600Y31050D02*
D03*
Y29750D02*
D03*
X6225Y33700D02*
D03*
Y35000D02*
D03*
X17900Y39675D02*
D03*
Y40975D02*
D03*
X14975Y36350D02*
D03*
Y37650D02*
D03*
X12725Y36500D02*
D03*
Y37800D02*
D03*
X19250Y18300D02*
D03*
Y17000D02*
D03*
X26225Y15850D02*
D03*
Y17150D02*
D03*
X3200Y31450D02*
D03*
Y30150D02*
D03*
X15500Y17375D02*
D03*
Y18675D02*
D03*
X2870Y34730D02*
D03*
Y33430D02*
D03*
X7770Y45340D02*
D03*
Y46640D02*
D03*
X17950Y45350D02*
D03*
Y46650D02*
D03*
X13975Y45075D02*
D03*
Y43775D02*
D03*
X16475Y36350D02*
D03*
Y37650D02*
D03*
D60*
X21525Y52725D02*
D03*
Y53225D02*
D03*
Y53725D02*
D03*
Y54225D02*
D03*
Y54725D02*
D03*
X25925D02*
D03*
Y54225D02*
D03*
Y53725D02*
D03*
Y53225D02*
D03*
Y52725D02*
D03*
X29475Y8800D02*
D03*
Y9300D02*
D03*
Y9800D02*
D03*
Y10300D02*
D03*
Y10800D02*
D03*
X25075D02*
D03*
Y10300D02*
D03*
Y9800D02*
D03*
Y9300D02*
D03*
Y8800D02*
D03*
D61*
X31200Y49850D02*
D03*
X31700D02*
D03*
X32200D02*
D03*
X32700D02*
D03*
X33200D02*
D03*
X33700D02*
D03*
X34200D02*
D03*
X34700D02*
D03*
X35200D02*
D03*
X35700D02*
D03*
X36200D02*
D03*
X36700D02*
D03*
Y56250D02*
D03*
X36200D02*
D03*
X35700D02*
D03*
X35200D02*
D03*
X34700D02*
D03*
X34200D02*
D03*
X33700D02*
D03*
X33200D02*
D03*
X32700D02*
D03*
X32200D02*
D03*
X31700D02*
D03*
X31200D02*
D03*
D62*
X37150Y50300D02*
D03*
Y50800D02*
D03*
Y51300D02*
D03*
Y51800D02*
D03*
Y52300D02*
D03*
Y52800D02*
D03*
Y53300D02*
D03*
Y53800D02*
D03*
Y54300D02*
D03*
Y54800D02*
D03*
Y55300D02*
D03*
Y55800D02*
D03*
X30750D02*
D03*
Y55300D02*
D03*
Y54800D02*
D03*
Y54300D02*
D03*
Y53800D02*
D03*
Y53300D02*
D03*
Y52800D02*
D03*
Y52300D02*
D03*
Y51800D02*
D03*
Y51300D02*
D03*
Y50800D02*
D03*
Y50300D02*
D03*
D63*
X33950Y53050D02*
D03*
D64*
X41275Y63075D02*
D03*
X42230Y60975D02*
D03*
X40320D02*
D03*
D65*
X31870Y59000D02*
D03*
X33140D02*
D03*
X34410D02*
D03*
X35680D02*
D03*
X31870Y64450D02*
D03*
X33140D02*
D03*
X34410D02*
D03*
X35680D02*
D03*
D66*
X26875Y60450D02*
D03*
X27525D02*
D03*
X28175D02*
D03*
Y58550D02*
D03*
X27525D02*
D03*
X26875D02*
D03*
D67*
X49550Y59600D02*
D03*
Y70800D02*
D03*
D68*
X43975Y55825D02*
D03*
X47175D02*
D03*
X43975Y53975D02*
D03*
X47175D02*
D03*
D69*
X60700Y45775D02*
D03*
X58400D02*
D03*
X60650Y49675D02*
D03*
X58350D02*
D03*
D70*
X40425Y3475D02*
D03*
X28375Y3400D02*
D03*
D71*
X8640Y41280D02*
D03*
X11440D02*
D03*
X8640Y40180D02*
D03*
D72*
X11440D02*
D03*
D73*
X63700Y15250D02*
D03*
Y29450D02*
D03*
D74*
Y17250D02*
D03*
Y19250D02*
D03*
Y21250D02*
D03*
Y31450D02*
D03*
Y33450D02*
D03*
Y35450D02*
D03*
D75*
X71200Y12950D02*
D03*
Y23550D02*
D03*
Y27150D02*
D03*
Y37750D02*
D03*
D76*
X28225Y23800D02*
D03*
D77*
X29100Y28550D02*
D03*
X27350D02*
D03*
D78*
X29100Y29800D02*
D03*
D79*
X30250Y14200D02*
D03*
X28150D02*
D03*
D80*
X8825Y14800D02*
D03*
Y16900D02*
D03*
X11350Y31150D02*
D03*
Y29050D02*
D03*
D81*
X11040Y36620D02*
D03*
Y38520D02*
D03*
Y37570D02*
D03*
X8940Y36620D02*
D03*
Y38520D02*
D03*
D82*
X17950Y15550D02*
D03*
X19250D02*
D03*
Y13450D02*
D03*
X18600D02*
D03*
X17950D02*
D03*
X10725Y11775D02*
D03*
X11375D02*
D03*
X12025D02*
D03*
Y13875D02*
D03*
X10725D02*
D03*
D83*
X14987Y27350D02*
D03*
Y28000D02*
D03*
Y28650D02*
D03*
Y29300D02*
D03*
Y29950D02*
D03*
Y30600D02*
D03*
Y31250D02*
D03*
X20863D02*
D03*
Y30600D02*
D03*
Y29950D02*
D03*
Y29300D02*
D03*
Y28650D02*
D03*
Y28000D02*
D03*
Y27350D02*
D03*
D84*
X34050Y14200D02*
D03*
Y14850D02*
D03*
Y15500D02*
D03*
X31950D02*
D03*
Y14200D02*
D03*
D85*
X13750Y19325D02*
D03*
Y20275D02*
D03*
Y21225D02*
D03*
X11250D02*
D03*
Y20275D02*
D03*
Y19325D02*
D03*
D86*
X14875Y5925D02*
D03*
X21275D02*
D03*
D87*
X5450Y14825D02*
D03*
Y18525D02*
D03*
D88*
X7900Y34900D02*
D03*
D89*
X12970Y41960D02*
D03*
Y41460D02*
D03*
Y40960D02*
D03*
Y40460D02*
D03*
Y39960D02*
D03*
Y39460D02*
D03*
X16520D02*
D03*
Y39960D02*
D03*
Y40460D02*
D03*
Y40960D02*
D03*
Y41460D02*
D03*
Y41960D02*
D03*
D90*
X13495Y38935D02*
D03*
X13995D02*
D03*
X14495D02*
D03*
X14995D02*
D03*
X15495D02*
D03*
X15995D02*
D03*
Y42485D02*
D03*
X15495D02*
D03*
X14995D02*
D03*
X14495D02*
D03*
X13995D02*
D03*
X13495D02*
D03*
D91*
X14745Y40710D02*
D03*
D92*
X21575Y69045D02*
D03*
X57775Y67120D02*
D03*
D93*
X21575Y59855D02*
D03*
X57775Y57930D02*
D03*
D94*
X17650Y23750D02*
D03*
X19950Y24700D02*
D03*
Y22800D02*
D03*
X24600Y15975D02*
D03*
X22300Y15025D02*
D03*
Y16925D02*
D03*
D95*
X5750Y32025D02*
D03*
X6700Y29725D02*
D03*
X4800D02*
D03*
D96*
X16225Y46625D02*
D03*
Y48525D02*
D03*
X14125Y47575D02*
D03*
X12350Y45025D02*
D03*
Y46925D02*
D03*
X10250Y45975D02*
D03*
D97*
X54780Y38025D02*
D03*
X52240D02*
D03*
X49700D02*
D03*
X47160D02*
D03*
X44620D02*
D03*
X42080D02*
D03*
X57320D02*
D03*
Y15165D02*
D03*
X42080Y15125D02*
D03*
X47160D02*
D03*
X49700D02*
D03*
X52240D02*
D03*
X54780D02*
D03*
X44620D02*
D03*
X39540D02*
D03*
D98*
Y38025D02*
D03*
D99*
X5130Y36450D02*
D03*
Y45100D02*
D03*
D100*
X1750Y36450D02*
D03*
Y45100D02*
D03*
D101*
X4760Y43750D02*
D03*
Y42900D02*
D03*
Y42050D02*
D03*
Y41200D02*
D03*
Y40350D02*
D03*
Y39500D02*
D03*
Y38650D02*
D03*
Y37800D02*
D03*
X6110D02*
D03*
Y38650D02*
D03*
Y39500D02*
D03*
Y40350D02*
D03*
Y41200D02*
D03*
Y42050D02*
D03*
Y42900D02*
D03*
Y43750D02*
D03*
D102*
X16670Y18720D02*
D03*
X13125Y15525D02*
D03*
X9100Y49150D02*
D03*
X13575Y48825D02*
D03*
X32775Y48650D02*
D03*
X29475Y45475D02*
D03*
X27600Y45450D02*
D03*
X27825Y48425D02*
D03*
X29450Y41550D02*
D03*
X25400Y59650D02*
D03*
X31025Y28025D02*
D03*
X8825Y10575D02*
D03*
X11093Y10668D02*
D03*
X20350Y10400D02*
D03*
X17300Y11600D02*
D03*
X13450Y11775D02*
D03*
X22150Y11850D02*
D03*
X13425Y12900D02*
D03*
X19250Y12175D02*
D03*
X32000Y12850D02*
D03*
X7500Y13300D02*
D03*
X9025Y28525D02*
D03*
X8925Y26125D02*
D03*
X53875Y19250D02*
D03*
X23075Y13100D02*
D03*
X12075Y25850D02*
D03*
X41775Y71300D02*
D03*
X46450Y69004D02*
D03*
X54100Y57925D02*
D03*
X13550Y71275D02*
D03*
X24800Y19775D02*
D03*
Y30600D02*
D03*
X21725Y19725D02*
D03*
X18575Y29950D02*
D03*
X23750Y18475D02*
D03*
X23800Y29300D02*
D03*
X22725Y28075D02*
D03*
X35375Y18450D02*
D03*
X22250Y21200D02*
D03*
X20891Y21165D02*
D03*
X49625Y50450D02*
D03*
X47550Y49600D02*
D03*
X39200Y48896D02*
D03*
X38575Y48075D02*
D03*
X38796Y57700D02*
D03*
X40200Y57675D02*
D03*
X38550Y53121D02*
D03*
X38650Y56575D02*
D03*
X39500Y54025D02*
D03*
X39350Y51950D02*
D03*
X40325Y51175D02*
D03*
X40425Y56075D02*
D03*
X38825Y55450D02*
D03*
X18750Y69050D02*
D03*
X18700Y59850D02*
D03*
X57775Y69000D02*
D03*
X46150Y4350D02*
D03*
X46100Y2725D02*
D03*
X71100Y14425D02*
D03*
X71150Y21875D02*
D03*
X71100Y28825D02*
D03*
Y36000D02*
D03*
X52900Y25450D02*
D03*
X49300Y23675D02*
D03*
X60080Y15185D02*
D03*
Y17210D02*
D03*
Y29335D02*
D03*
Y31385D02*
D03*
X49250Y28600D02*
D03*
X43300Y25500D02*
D03*
X32250Y42650D02*
D03*
X29454Y42525D02*
D03*
X29500Y48700D02*
D03*
X29105Y51662D02*
D03*
X28875Y54475D02*
D03*
X28991Y53421D02*
D03*
X34800Y47225D02*
D03*
X26950Y50150D02*
D03*
X26750Y48500D02*
D03*
X25925Y49425D02*
D03*
X35925Y47650D02*
D03*
X37275Y47675D02*
D03*
X55250Y17175D02*
D03*
X40625Y31400D02*
D03*
X35275D02*
D03*
Y42875D02*
D03*
X40250Y42950D02*
D03*
X48325Y17100D02*
D03*
X42650Y58925D02*
D03*
X46300Y17075D02*
D03*
X32225Y41550D02*
D03*
X24675D02*
D03*
X22650Y48500D02*
D03*
X22625Y45425D02*
D03*
X19475Y49625D02*
D03*
X19425Y47325D02*
D03*
X26200Y47375D02*
D03*
X17100Y43846D02*
D03*
X19300Y45275D02*
D03*
X20500Y43846D02*
D03*
X20675Y49450D02*
D03*
X24650Y50475D02*
D03*
X25925Y51250D02*
D03*
X27925Y55175D02*
D03*
X29493Y56254D02*
D03*
X24225Y56350D02*
D03*
X43250Y17150D02*
D03*
X25300Y69475D02*
D03*
X24300Y68275D02*
D03*
X42250Y67250D02*
D03*
X24325Y57625D02*
D03*
X25400Y60900D02*
D03*
X49300Y40550D02*
D03*
X29750Y61775D02*
D03*
X29825Y60200D02*
D03*
X30450Y63200D02*
D03*
X25350Y58425D02*
D03*
X45000Y68150D02*
D03*
X47050Y40500D02*
D03*
X44575Y40450D02*
D03*
X40825Y66475D02*
D03*
X40025Y65600D02*
D03*
X28171Y65025D02*
D03*
X37450Y60400D02*
D03*
X30454Y64450D02*
D03*
X29704Y65525D02*
D03*
X28875Y66475D02*
D03*
X43150Y40475D02*
D03*
X40750Y40450D02*
D03*
X39375Y40400D02*
D03*
X55700Y42425D02*
D03*
X58300Y40925D02*
D03*
X34825Y45625D02*
D03*
X34800Y43975D02*
D03*
X20200Y57850D02*
D03*
X21500Y57600D02*
D03*
X51300Y47125D02*
D03*
X55450D02*
D03*
X35675Y57425D02*
D03*
X34430Y62595D02*
D03*
X51425Y57025D02*
D03*
X52750Y44400D02*
D03*
X56850Y44500D02*
D03*
X62000Y45800D02*
D03*
X56975Y48375D02*
D03*
X62000Y49675D02*
D03*
X56900Y52200D02*
D03*
X51325Y52700D02*
D03*
X26900Y65025D02*
D03*
X15800Y44200D02*
D03*
X24575Y37100D02*
D03*
X12475Y34350D02*
D03*
X8400Y24225D02*
D03*
X16025Y23800D02*
D03*
X17275Y28425D02*
D03*
X7350Y28125D02*
D03*
X13975Y25850D02*
D03*
X16325Y31175D02*
D03*
X21425Y24700D02*
D03*
X35325Y14175D02*
D03*
X13025Y31175D02*
D03*
X34050Y16750D02*
D03*
X35875Y12650D02*
D03*
X31075Y11125D02*
D03*
X28150Y12150D02*
D03*
X25075Y12250D02*
D03*
X31375Y9800D02*
D03*
X25069Y7236D02*
D03*
X3925Y5275D02*
D03*
X2675Y5325D02*
D03*
X8250Y30950D02*
D03*
X8225Y29700D02*
D03*
X16225Y34900D02*
D03*
X11150Y32675D02*
D03*
X17700Y36325D02*
D03*
X7475Y33600D02*
D03*
X3500Y39000D02*
D03*
X3375Y42550D02*
D03*
X12475Y22775D02*
D03*
X12450Y35300D02*
D03*
X17900Y38475D02*
D03*
X12380Y48305D02*
D03*
X7520Y38880D02*
D03*
X1750Y46390D02*
D03*
X3400Y37750D02*
D03*
X1640Y33430D02*
D03*
X3360Y43720D02*
D03*
X5210Y46610D02*
D03*
D103*
X31750Y50850D02*
D03*
Y51950D02*
D03*
Y53050D02*
D03*
Y54150D02*
D03*
Y55250D02*
D03*
X32850Y50850D02*
D03*
Y51950D02*
D03*
Y53050D02*
D03*
Y54150D02*
D03*
Y55250D02*
D03*
X33950Y50850D02*
D03*
Y51950D02*
D03*
Y53050D02*
D03*
Y54150D02*
D03*
Y55250D02*
D03*
X35050Y50850D02*
D03*
Y51950D02*
D03*
Y53050D02*
D03*
Y54150D02*
D03*
Y55250D02*
D03*
X36150Y50850D02*
D03*
Y51950D02*
D03*
Y53050D02*
D03*
Y54150D02*
D03*
Y55250D02*
D03*
X14195Y41260D02*
D03*
X15295D02*
D03*
X14195Y40160D02*
D03*
X15295D02*
D03*
M02*
